  0
SECTION
  2
HEADER
  9
$ACADVER
  1
AC1014
  9
$HANDSEED
  5
FFFF
  9
$MEASUREMENT
 70
     1
  0
ENDSEC
  0
SECTION
  2
TABLES
  0
TABLE
  2
VPORT
  5
8
330
0
100
AcDbSymbolTable
 70
     4
  0
VPORT
  5
2E
330
8
100
AcDbSymbolTableRecord
100
AcDbViewportTableRecord
  2
*ACTIVE
 70
     0
 10
0.0
 20
0.0
 11
1.0
 21
1.0
 12
210.0
 22
148.5
 13
0.0
 23
0.0
 14
10.0
 24
10.0
 15
10.0
 25
10.0
 16
0.0
 26
0.0
 36
1.0
 17
0.0
 27
0.0
 37
0.0
 40
341.0
 41
1.24
 42
50.0
 43
0.0
 44
0.0
 50
0.0
 51
0.0
 71
     0
 72
   100
 73
     1
 74
     3
 75
     0
 76
     0
 77
     0
 78
     0
  0
ENDTAB
  0
TABLE
  2
LTYPE
  5
5
330
0
100
AcDbSymbolTable
 70
     1
  0
LTYPE
  5
14
330
5
100
AcDbSymbolTableRecord
100
AcDbLinetypeTableRecord
  2
BYBLOCK
 70
     0
  3

 72
    65
 73
     0
 40
0.0
  0
LTYPE
  5
15
330
5
100
AcDbSymbolTableRecord
100
AcDbLinetypeTableRecord
  2
BYLAYER
 70
     0
  3

 72
    65
 73
     0
 40
0.0
  0
LTYPE
  5
16
330
5
100
AcDbSymbolTableRecord
100
AcDbLinetypeTableRecord
  2
CONTINUOUS
 70
     0
  3
Solid line
 72
    65
 73
     0
 40
0.0
  0
ENDTAB
  0
TABLE
  2
LAYER
  5
2
100
AcDbSymbolTable
 70
2
  0
LAYER
  5
50
100
AcDbSymbolTableRecord
100
AcDbLayerTableRecord
  2
0
 70
0
  6
CONTINUOUS
  0
LAYER
  5
51
100
AcDbSymbolTableRecord
100
AcDbLayerTableRecord
  2
Layer_2
 70
0
  6
CONTINUOUS
  0
ENDTAB
  0
TABLE
  2
STYLE
  5
3
330
0
100
AcDbSymbolTable
 70
     1
  0
STYLE
  5
11
330
3
100
AcDbSymbolTableRecord
100
AcDbTextStyleTableRecord
  2
STANDARD
 70
     0
 40
0.0
 41
1.0
 50
0.0
 71
     0
 42
2.5
  3
txt
  4

  0
ENDTAB
  0
TABLE
  2
VIEW
  5
6
330
0
100
AcDbSymbolTable
 70
     0
  0
ENDTAB
  0
TABLE
  2
UCS
  5
7
330
0
100
AcDbSymbolTable
 70
     0
  0
ENDTAB
  0
TABLE
  2
APPID
  5
9
330
0
100
AcDbSymbolTable
 70
     2
  0
APPID
  5
12
330
9
100
AcDbSymbolTableRecord
100
AcDbRegAppTableRecord
  2
ACAD
 70
     0
  0
ENDTAB
  0
TABLE
  2
DIMSTYLE
  5
A
330
0
100
AcDbSymbolTable
 70
     1
  0
DIMSTYLE
105
27
330
A
100
AcDbSymbolTableRecord
100
AcDbDimStyleTableRecord
  2
ISO-25
 70
     0
  3

  4

  5

  6

  7

 40
1.0
 41
2.5
 42
0.625
 43
3.75
 44
1.25
 45
0.0
 46
0.0
 47
0.0
 48
0.0
140
2.5
141
2.5
142
0.0
143
0.03937007874016
144
1.0
145
0.0
146
1.0
147
0.625
 71
     0
 72
     0
 73
     0
 74
     0
 75
     0
 76
     0
 77
     1
 78
     8
170
     0
171
     3
172
     1
173
     0
174
     0
175
     0
176
     0
177
     0
178
     0
270
     2
271
     2
272
     2
273
     2
274
     3
340
11
275
     0
280
     0
281
     0
282
     0
283
     0
284
     8
285
     0
286
     0
287
     3
288
     0
  0
ENDTAB
  0
TABLE
  2
BLOCK_RECORD
  5
1
330
0
100
AcDbSymbolTable
 70
     1
  0
BLOCK_RECORD
  5
1F
330
1
100
AcDbSymbolTableRecord
100
AcDbBlockTableRecord
  2
*MODEL_SPACE
  0
BLOCK_RECORD
  5
1B
330
1
100
AcDbSymbolTableRecord
100
AcDbBlockTableRecord
  2
*PAPER_SPACE
  0
ENDTAB
  0
ENDSEC
  0
SECTION
  2
BLOCKS
  0
BLOCK
  5
20
330
1F
100
AcDbEntity
  8
0
100
AcDbBlockBegin
  2
*MODEL_SPACE
 70
     0
 10
0.0
 20
0.0
 30
0.0
  3
*MODEL_SPACE
  1

  0
ENDBLK
  5
21
330
1F
100
AcDbEntity
  8
0
100
AcDbBlockEnd
  0
BLOCK
  5
1C
330
1B
100
AcDbEntity
 67
     1
  8
0
100
AcDbBlockBegin
  2
*PAPER_SPACE
  1

  0
ENDBLK
  5
1D
330
1B
100
AcDbEntity
 67
     1
  8
0
100
AcDbBlockEnd
  0
ENDSEC
  0
SECTION
  2
ENTITIES
  0
SPLINE
  5
100
100
AcDbEntity
  8
Layer_2
 62
7
100
AcDbSpline
 70
8
 71
3
 72
8
 73
4
 74
0
 40
0
 40
0
 40
0
 40
0
 40
1
 40
1
 40
1
 40
1
 10
0.146970
 20
0.040964
 30
0.0
 10
0.146667
 20
0.037706
 30
0.0
 10
0.146366
 20
0.034470
 30
0.0
 10
0.147542
 20
0.030497
 30
0.0
  0
SPLINE
  5
101
100
AcDbEntity
  8
Layer_2
 62
7
100
AcDbSpline
 70
8
 71
3
 72
8
 73
4
 74
0
 40
0
 40
0
 40
0
 40
0
 40
1
 40
1
 40
1
 40
1
 10
0.147542
 20
0.030497
 30
0.0
 10
0.148718
 20
0.026524
 30
0.0
 10
0.151340
 20
0.021892
 30
0.0
 10
0.155331
 20
0.017798
 30
0.0
  0
SPLINE
  5
102
100
AcDbEntity
  8
Layer_2
 62
7
100
AcDbSpline
 70
8
 71
3
 72
8
 73
4
 74
0
 40
0
 40
0
 40
0
 40
0
 40
1
 40
1
 40
1
 40
1
 10
0.155331
 20
0.017798
 30
0.0
 10
0.159322
 20
0.013703
 30
0.0
 10
0.164534
 20
0.010295
 30
0.0
 10
0.170535
 20
0.007606
 30
0.0
  0
SPLINE
  5
103
100
AcDbEntity
  8
Layer_2
 62
7
100
AcDbSpline
 70
8
 71
3
 72
8
 73
4
 74
0
 40
0
 40
0
 40
0
 40
0
 40
1
 40
1
 40
1
 40
1
 10
0.170535
 20
0.007606
 30
0.0
 10
0.176536
 20
0.004917
 30
0.0
 10
0.183183
 20
0.003016
 30
0.0
 10
0.189433
 20
0.001799
 30
0.0
  0
SPLINE
  5
104
100
AcDbEntity
  8
Layer_2
 62
7
100
AcDbSpline
 70
8
 71
3
 72
8
 73
4
 74
0
 40
0
 40
0
 40
0
 40
0
 40
1
 40
1
 40
1
 40
1
 10
0.189433
 20
0.001799
 30
0.0
 10
0.195682
 20
0.000582
 30
0.0
 10
0.201443
 20
0.000067
 30
0.0
 10
0.207311
 20
0.000006
 30
0.0
  0
SPLINE
  5
105
100
AcDbEntity
  8
Layer_2
 62
7
100
AcDbSpline
 70
8
 71
3
 72
8
 73
4
 74
0
 40
0
 40
0
 40
0
 40
0
 40
1
 40
1
 40
1
 40
1
 10
0.207311
 20
0.000006
 30
0.0
 10
0.213178
 20
-0.000057
 30
0.0
 10
0.219108
 20
0.000337
 30
0.0
 10
0.225517
 20
0.001415
 30
0.0
  0
SPLINE
  5
106
100
AcDbEntity
  8
Layer_2
 62
7
100
AcDbSpline
 70
8
 71
3
 72
8
 73
4
 74
0
 40
0
 40
0
 40
0
 40
0
 40
1
 40
1
 40
1
 40
1
 10
0.225517
 20
0.001415
 30
0.0
 10
0.231926
 20
0.002491
 30
0.0
 10
0.238772
 20
0.004243
 30
0.0
 10
0.244600
 20
0.006524
 30
0.0
  0
SPLINE
  5
107
100
AcDbEntity
  8
Layer_2
 62
7
100
AcDbSpline
 70
8
 71
3
 72
8
 73
4
 74
0
 40
0
 40
0
 40
0
 40
0
 40
1
 40
1
 40
1
 40
1
 10
0.244600
 20
0.006524
 30
0.0
 10
0.250429
 20
0.008806
 30
0.0
 10
0.255210
 20
0.011605
 30
0.0
 10
0.259899
 20
0.014975
 30
0.0
  0
SPLINE
  5
108
100
AcDbEntity
  8
Layer_2
 62
7
100
AcDbSpline
 70
8
 71
3
 72
8
 73
4
 74
0
 40
0
 40
0
 40
0
 40
0
 40
1
 40
1
 40
1
 40
1
 10
0.259899
 20
0.014975
 30
0.0
 10
0.264588
 20
0.018346
 30
0.0
 10
0.269173
 20
0.022279
 30
0.0
 10
0.273525
 20
0.027471
 30
0.0
  0
SPLINE
  5
109
100
AcDbEntity
  8
Layer_2
 62
7
100
AcDbSpline
 70
8
 71
3
 72
8
 73
4
 74
0
 40
0
 40
0
 40
0
 40
0
 40
1
 40
1
 40
1
 40
1
 10
0.273525
 20
0.027471
 30
0.0
 10
0.277877
 20
0.032664
 30
0.0
 10
0.281993
 20
0.039113
 30
0.0
 10
0.284436
 20
0.045513
 30
0.0
  0
SPLINE
  5
10a
100
AcDbEntity
  8
Layer_2
 62
7
100
AcDbSpline
 70
8
 71
3
 72
8
 73
4
 74
0
 40
0
 40
0
 40
0
 40
0
 40
1
 40
1
 40
1
 40
1
 10
0.284436
 20
0.045513
 30
0.0
 10
0.286879
 20
0.051914
 30
0.0
 10
0.287650
 20
0.058265
 30
0.0
 10
0.287151
 20
0.063226
 30
0.0
  0
SPLINE
  5
10b
100
AcDbEntity
  8
Layer_2
 62
7
100
AcDbSpline
 70
8
 71
3
 72
8
 73
4
 74
0
 40
0
 40
0
 40
0
 40
0
 40
1
 40
1
 40
1
 40
1
 10
0.287151
 20
0.063226
 30
0.0
 10
0.286652
 20
0.068186
 30
0.0
 10
0.284886
 20
0.071741
 30
0.0
 10
0.282186
 20
0.074337
 30
0.0
  0
SPLINE
  5
10c
100
AcDbEntity
  8
Layer_2
 62
7
100
AcDbSpline
 70
8
 71
3
 72
8
 73
4
 74
0
 40
0
 40
0
 40
0
 40
0
 40
1
 40
1
 40
1
 40
1
 10
0.282186
 20
0.074337
 30
0.0
 10
0.279486
 20
0.076934
 30
0.0
 10
0.275871
 20
0.078555
 30
0.0
 10
0.271938
 20
0.079080
 30
0.0
  0
SPLINE
  5
10d
100
AcDbEntity
  8
Layer_2
 62
7
100
AcDbSpline
 70
8
 71
3
 72
8
 73
4
 74
0
 40
0
 40
0
 40
0
 40
0
 40
1
 40
1
 40
1
 40
1
 10
0.271938
 20
0.079080
 30
0.0
 10
0.268006
 20
0.079604
 30
0.0
 10
0.263814
 20
0.079028
 30
0.0
 10
0.257874
 20
0.078507
 30
0.0
  0
SPLINE
  5
10e
100
AcDbEntity
  8
Layer_2
 62
7
100
AcDbSpline
 70
8
 71
3
 72
8
 73
4
 74
0
 40
0
 40
0
 40
0
 40
0
 40
1
 40
1
 40
1
 40
1
 10
0.257874
 20
0.078507
 30
0.0
 10
0.251933
 20
0.077988
 30
0.0
 10
0.244390
 20
0.077539
 30
0.0
 10
0.235879
 20
0.077051
 30
0.0
  0
SPLINE
  5
10f
100
AcDbEntity
  8
Layer_2
 62
7
100
AcDbSpline
 70
8
 71
3
 72
8
 73
4
 74
0
 40
0
 40
0
 40
0
 40
0
 40
1
 40
1
 40
1
 40
1
 10
0.235879
 20
0.077051
 30
0.0
 10
0.227369
 20
0.076563
 30
0.0
 10
0.217984
 20
0.076041
 30
0.0
 10
0.209071
 20
0.075737
 30
0.0
  0
SPLINE
  5
110
100
AcDbEntity
  8
Layer_2
 62
7
100
AcDbSpline
 70
8
 71
3
 72
8
 73
4
 74
0
 40
0
 40
0
 40
0
 40
0
 40
1
 40
1
 40
1
 40
1
 10
0.209071
 20
0.075737
 30
0.0
 10
0.200157
 20
0.075434
 30
0.0
 10
0.191788
 20
0.075347
 30
0.0
 10
0.184161
 20
0.075493
 30
0.0
  0
SPLINE
  5
111
100
AcDbEntity
  8
Layer_2
 62
7
100
AcDbSpline
 70
8
 71
3
 72
8
 73
4
 74
0
 40
0
 40
0
 40
0
 40
0
 40
1
 40
1
 40
1
 40
1
 10
0.184161
 20
0.075493
 30
0.0
 10
0.176533
 20
0.075639
 30
0.0
 10
0.169766
 20
0.076016
 30
0.0
 10
0.163023
 20
0.076532
 30
0.0
  0
SPLINE
  5
112
100
AcDbEntity
  8
Layer_2
 62
7
100
AcDbSpline
 70
8
 71
3
 72
8
 73
4
 74
0
 40
0
 40
0
 40
0
 40
0
 40
1
 40
1
 40
1
 40
1
 10
0.163023
 20
0.076532
 30
0.0
 10
0.156280
 20
0.077047
 30
0.0
 10
0.149646
 20
0.077697
 30
0.0
 10
0.143535
 20
0.079027
 30
0.0
  0
SPLINE
  5
113
100
AcDbEntity
  8
Layer_2
 62
7
100
AcDbSpline
 70
8
 71
3
 72
8
 73
4
 74
0
 40
0
 40
0
 40
0
 40
0
 40
1
 40
1
 40
1
 40
1
 10
0.143535
 20
0.079027
 30
0.0
 10
0.137424
 20
0.080357
 30
0.0
 10
0.131913
 20
0.082352
 30
0.0
 10
0.126798
 20
0.084676
 30
0.0
  0
SPLINE
  5
114
100
AcDbEntity
  8
Layer_2
 62
7
100
AcDbSpline
 70
8
 71
3
 72
8
 73
4
 74
0
 40
0
 40
0
 40
0
 40
0
 40
1
 40
1
 40
1
 40
1
 10
0.126798
 20
0.084676
 30
0.0
 10
0.121683
 20
0.087000
 30
0.0
 10
0.117006
 20
0.089635
 30
0.0
 10
0.113266
 20
0.093512
 30
0.0
  0
SPLINE
  5
115
100
AcDbEntity
  8
Layer_2
 62
7
100
AcDbSpline
 70
8
 71
3
 72
8
 73
4
 74
0
 40
0
 40
0
 40
0
 40
0
 40
1
 40
1
 40
1
 40
1
 10
0.113266
 20
0.093512
 30
0.0
 10
0.109526
 20
0.097388
 30
0.0
 10
0.106753
 20
0.102474
 30
0.0
 10
0.105528
 20
0.107433
 30
0.0
  0
SPLINE
  5
116
100
AcDbEntity
  8
Layer_2
 62
7
100
AcDbSpline
 70
8
 71
3
 72
8
 73
4
 74
0
 40
0
 40
0
 40
0
 40
0
 40
1
 40
1
 40
1
 40
1
 10
0.105528
 20
0.107433
 30
0.0
 10
0.104303
 20
0.112391
 30
0.0
 10
0.104592
 20
0.116514
 30
0.0
 10
0.105879
 20
0.121059
 30
0.0
  0
SPLINE
  5
117
100
AcDbEntity
  8
Layer_2
 62
7
100
AcDbSpline
 70
8
 71
3
 72
8
 73
4
 74
0
 40
0
 40
0
 40
0
 40
0
 40
1
 40
1
 40
1
 40
1
 10
0.105879
 20
0.121059
 30
0.0
 10
0.107166
 20
0.125604
 30
0.0
 10
0.108851
 20
0.128388
 30
0.0
 10
0.111185
 20
0.131005
 30
0.0
  0
SPLINE
  5
118
100
AcDbEntity
  8
Layer_2
 62
7
100
AcDbSpline
 70
8
 71
3
 72
8
 73
4
 74
0
 40
0
 40
0
 40
0
 40
0
 40
1
 40
1
 40
1
 40
1
 10
0.111185
 20
0.131005
 30
0.0
 10
0.113519
 20
0.133621
 30
0.0
 10
0.115694
 20
0.135270
 30
0.0
 10
0.119930
 20
0.136766
 30
0.0
  0
SPLINE
  5
119
100
AcDbEntity
  8
Layer_2
 62
7
100
AcDbSpline
 70
8
 71
3
 72
8
 73
4
 74
0
 40
0
 40
0
 40
0
 40
0
 40
1
 40
1
 40
1
 40
1
 10
0.119930
 20
0.136766
 30
0.0
 10
0.124166
 20
0.138263
 30
0.0
 10
0.127238
 20
0.138477
 30
0.0
 10
0.130928
 20
0.138361
 30
0.0
  0
SPLINE
  5
11a
100
AcDbEntity
  8
Layer_2
 62
7
100
AcDbSpline
 70
8
 71
3
 72
8
 73
4
 74
0
 40
0
 40
0
 40
0
 40
0
 40
1
 40
1
 40
1
 40
1
 10
0.130928
 20
0.138361
 30
0.0
 10
0.134618
 20
0.138247
 30
0.0
 10
0.137738
 20
0.137778
 30
0.0
 10
0.142695
 20
0.136175
 30
0.0
  0
SPLINE
  5
11b
100
AcDbEntity
  8
Layer_2
 62
7
100
AcDbSpline
 70
8
 71
3
 72
8
 73
4
 74
0
 40
0
 40
0
 40
0
 40
0
 40
1
 40
1
 40
1
 40
1
 10
0.142695
 20
0.136175
 30
0.0
 10
0.147652
 20
0.134572
 30
0.0
 10
0.152684
 20
0.132410
 30
0.0
 10
0.158852
 20
0.130019
 30
0.0
  0
SPLINE
  5
11c
100
AcDbEntity
  8
Layer_2
 62
7
100
AcDbSpline
 70
8
 71
3
 72
8
 73
4
 74
0
 40
0
 40
0
 40
0
 40
0
 40
1
 40
1
 40
1
 40
1
 10
0.158852
 20
0.130019
 30
0.0
 10
0.165019
 20
0.127628
 30
0.0
 10
0.171678
 20
0.125281
 30
0.0
 10
0.178564
 20
0.123496
 30
0.0
  0
SPLINE
  5
11d
100
AcDbEntity
  8
Layer_2
 62
7
100
AcDbSpline
 70
8
 71
3
 72
8
 73
4
 74
0
 40
0
 40
0
 40
0
 40
0
 40
1
 40
1
 40
1
 40
1
 10
0.178564
 20
0.123496
 30
0.0
 10
0.185449
 20
0.121711
 30
0.0
 10
0.192459
 20
0.120516
 30
0.0
 10
0.200645
 20
0.119317
 30
0.0
  0
SPLINE
  5
11e
100
AcDbEntity
  8
Layer_2
 62
7
100
AcDbSpline
 70
8
 71
3
 72
8
 73
4
 74
0
 40
0
 40
0
 40
0
 40
0
 40
1
 40
1
 40
1
 40
1
 10
0.200645
 20
0.119317
 30
0.0
 10
0.208831
 20
0.118119
 30
0.0
 10
0.218106
 20
0.116929
 30
0.0
 10
0.227277
 20
0.116184
 30
0.0
  0
SPLINE
  5
11f
100
AcDbEntity
  8
Layer_2
 62
7
100
AcDbSpline
 70
8
 71
3
 72
8
 73
4
 74
0
 40
0
 40
0
 40
0
 40
0
 40
1
 40
1
 40
1
 40
1
 10
0.227277
 20
0.116184
 30
0.0
 10
0.236448
 20
0.115440
 30
0.0
 10
0.245463
 20
0.115147
 30
0.0
 10
0.254485
 20
0.115081
 30
0.0
  0
SPLINE
  5
120
100
AcDbEntity
  8
Layer_2
 62
7
100
AcDbSpline
 70
8
 71
3
 72
8
 73
4
 74
0
 40
0
 40
0
 40
0
 40
0
 40
1
 40
1
 40
1
 40
1
 10
0.254485
 20
0.115081
 30
0.0
 10
0.263507
 20
0.115014
 30
0.0
 10
0.272556
 20
0.115175
 30
0.0
 10
0.280960
 20
0.115761
 30
0.0
  0
SPLINE
  5
121
100
AcDbEntity
  8
Layer_2
 62
7
100
AcDbSpline
 70
8
 71
3
 72
8
 73
4
 74
0
 40
0
 40
0
 40
0
 40
0
 40
1
 40
1
 40
1
 40
1
 10
0.280960
 20
0.115761
 30
0.0
 10
0.289363
 20
0.116347
 30
0.0
 10
0.297049
 20
0.117349
 30
0.0
 10
0.304459
 20
0.118897
 30
0.0
  0
SPLINE
  5
122
100
AcDbEntity
  8
Layer_2
 62
7
100
AcDbSpline
 70
8
 71
3
 72
8
 73
4
 74
0
 40
0
 40
0
 40
0
 40
0
 40
1
 40
1
 40
1
 40
1
 10
0.304459
 20
0.118897
 30
0.0
 10
0.311869
 20
0.120445
 30
0.0
 10
0.318866
 20
0.122510
 30
0.0
 10
0.325634
 20
0.125698
 30
0.0
  0
SPLINE
  5
123
100
AcDbEntity
  8
Layer_2
 62
7
100
AcDbSpline
 70
8
 71
3
 72
8
 73
4
 74
0
 40
0
 40
0
 40
0
 40
0
 40
1
 40
1
 40
1
 40
1
 10
0.325634
 20
0.125698
 30
0.0
 10
0.332403
 20
0.128886
 30
0.0
 10
0.338898
 20
0.133180
 30
0.0
 10
0.342872
 20
0.137909
 30
0.0
  0
SPLINE
  5
124
100
AcDbEntity
  8
Layer_2
 62
7
100
AcDbSpline
 70
8
 71
3
 72
8
 73
4
 74
0
 40
0
 40
0
 40
0
 40
0
 40
1
 40
1
 40
1
 40
1
 10
0.342872
 20
0.137909
 30
0.0
 10
0.346846
 20
0.142639
 30
0.0
 10
0.348188
 20
0.147429
 30
0.0
 10
0.347887
 20
0.152209
 30
0.0
  0
SPLINE
  5
125
100
AcDbEntity
  8
Layer_2
 62
7
100
AcDbSpline
 70
8
 71
3
 72
8
 73
4
 74
0
 40
0
 40
0
 40
0
 40
0
 40
1
 40
1
 40
1
 40
1
 10
0.347887
 20
0.152209
 30
0.0
 10
0.347585
 20
0.156989
 30
0.0
 10
0.345768
 20
0.160399
 30
0.0
 10
0.343765
 20
0.164537
 30
0.0
  0
SPLINE
  5
126
100
AcDbEntity
  8
Layer_2
 62
7
100
AcDbSpline
 70
8
 71
3
 72
8
 73
4
 74
0
 40
0
 40
0
 40
0
 40
0
 40
1
 40
1
 40
1
 40
1
 10
0.343765
 20
0.164537
 30
0.0
 10
0.341761
 20
0.168677
 30
0.0
 10
0.339915
 20
0.172855
 30
0.0
 10
0.338003
 20
0.177371
 30
0.0
  0
SPLINE
  5
127
100
AcDbEntity
  8
Layer_2
 62
7
100
AcDbSpline
 70
8
 71
3
 72
8
 73
4
 74
0
 40
0
 40
0
 40
0
 40
0
 40
1
 40
1
 40
1
 40
1
 10
0.338003
 20
0.177371
 30
0.0
 10
0.336091
 20
0.181887
 30
0.0
 10
0.334189
 20
0.186567
 30
0.0
 10
0.333776
 20
0.192318
 30
0.0
  0
SPLINE
  5
128
100
AcDbEntity
  8
Layer_2
 62
7
100
AcDbSpline
 70
8
 71
3
 72
8
 73
4
 74
0
 40
0
 40
0
 40
0
 40
0
 40
1
 40
1
 40
1
 40
1
 10
0.333776
 20
0.192318
 30
0.0
 10
0.333364
 20
0.198069
 30
0.0
 10
0.334440
 20
0.204850
 30
0.0
 10
0.338148
 20
0.213406
 30
0.0
  0
SPLINE
  5
129
100
AcDbEntity
  8
Layer_2
 62
7
100
AcDbSpline
 70
8
 71
3
 72
8
 73
4
 74
0
 40
0
 40
0
 40
0
 40
0
 40
1
 40
1
 40
1
 40
1
 10
0.338148
 20
0.213406
 30
0.0
 10
0.341855
 20
0.221963
 30
0.0
 10
0.348084
 20
0.232047
 30
0.0
 10
0.354092
 20
0.240298
 30
0.0
  0
SPLINE
  5
12a
100
AcDbEntity
  8
Layer_2
 62
7
100
AcDbSpline
 70
8
 71
3
 72
8
 73
4
 74
0
 40
0
 40
0
 40
0
 40
0
 40
1
 40
1
 40
1
 40
1
 10
0.354092
 20
0.240298
 30
0.0
 10
0.360099
 20
0.248549
 30
0.0
 10
0.365834
 20
0.254883
 30
0.0
 10
0.371890
 20
0.261645
 30
0.0
  0
SPLINE
  5
12b
100
AcDbEntity
  8
Layer_2
 62
7
100
AcDbSpline
 70
8
 71
3
 72
8
 73
4
 74
0
 40
0
 40
0
 40
0
 40
0
 40
1
 40
1
 40
1
 40
1
 10
0.371890
 20
0.261645
 30
0.0
 10
0.377946
 20
0.268407
 30
0.0
 10
0.384323
 20
0.275597
 30
0.0
 10
0.390562
 20
0.282873
 30
0.0
  0
SPLINE
  5
12c
100
AcDbEntity
  8
Layer_2
 62
7
100
AcDbSpline
 70
8
 71
3
 72
8
 73
4
 74
0
 40
0
 40
0
 40
0
 40
0
 40
1
 40
1
 40
1
 40
1
 10
0.390562
 20
0.282873
 30
0.0
 10
0.396800
 20
0.290150
 30
0.0
 10
0.402329
 20
0.296824
 30
0.0
 10
0.409512
 20
0.306837
 30
0.0
  0
SPLINE
  5
12d
100
AcDbEntity
  8
Layer_2
 62
7
100
AcDbSpline
 70
8
 71
3
 72
8
 73
4
 74
0
 40
0
 40
0
 40
0
 40
0
 40
1
 40
1
 40
1
 40
1
 10
0.409512
 20
0.306837
 30
0.0
 10
0.416695
 20
0.316851
 30
0.0
 10
0.423076
 20
0.326781
 30
0.0
 10
0.429166
 20
0.338727
 30
0.0
  0
SPLINE
  5
12e
100
AcDbEntity
  8
Layer_2
 62
7
100
AcDbSpline
 70
8
 71
3
 72
8
 73
4
 74
0
 40
0
 40
0
 40
0
 40
0
 40
1
 40
1
 40
1
 40
1
 10
0.429166
 20
0.338727
 30
0.0
 10
0.435257
 20
0.350672
 30
0.0
 10
0.440388
 20
0.363587
 30
0.0
 10
0.444627
 20
0.378766
 30
0.0
  0
SPLINE
  5
12f
100
AcDbEntity
  8
Layer_2
 62
7
100
AcDbSpline
 70
8
 71
3
 72
8
 73
4
 74
0
 40
0
 40
0
 40
0
 40
0
 40
1
 40
1
 40
1
 40
1
 10
0.444627
 20
0.378766
 30
0.0
 10
0.448866
 20
0.393944
 30
0.0
 10
0.452201
 20
0.411347
 30
0.0
 10
0.453658
 20
0.427212
 30
0.0
  0
SPLINE
  5
130
100
AcDbEntity
  8
Layer_2
 62
7
100
AcDbSpline
 70
8
 71
3
 72
8
 73
4
 74
0
 40
0
 40
0
 40
0
 40
0
 40
1
 40
1
 40
1
 40
1
 10
0.453658
 20
0.427212
 30
0.0
 10
0.455114
 20
0.443078
 30
0.0
 10
0.454686
 20
0.457355
 30
0.0
 10
0.452631
 20
0.472024
 30
0.0
  0
SPLINE
  5
131
100
AcDbEntity
  8
Layer_2
 62
7
100
AcDbSpline
 70
8
 71
3
 72
8
 73
4
 74
0
 40
0
 40
0
 40
0
 40
0
 40
1
 40
1
 40
1
 40
1
 10
0.452631
 20
0.472024
 30
0.0
 10
0.450575
 20
0.486694
 30
0.0
 10
0.446897
 20
0.501706
 30
0.0
 10
0.440634
 20
0.518386
 30
0.0
  0
SPLINE
  5
132
100
AcDbEntity
  8
Layer_2
 62
7
100
AcDbSpline
 70
8
 71
3
 72
8
 73
4
 74
0
 40
0
 40
0
 40
0
 40
0
 40
1
 40
1
 40
1
 40
1
 10
0.440634
 20
0.518386
 30
0.0
 10
0.434371
 20
0.535066
 30
0.0
 10
0.425525
 20
0.553406
 30
0.0
 10
0.412000
 20
0.571254
 30
0.0
  0
SPLINE
  5
133
100
AcDbEntity
  8
Layer_2
 62
7
100
AcDbSpline
 70
8
 71
3
 72
8
 73
4
 74
0
 40
0
 40
0
 40
0
 40
0
 40
1
 40
1
 40
1
 40
1
 10
0.412000
 20
0.571254
 30
0.0
 10
0.398475
 20
0.589103
 30
0.0
 10
0.380276
 20
0.606454
 30
0.0
 10
0.361162
 20
0.620032
 30
0.0
  0
SPLINE
  5
134
100
AcDbEntity
  8
Layer_2
 62
7
100
AcDbSpline
 70
8
 71
3
 72
8
 73
4
 74
0
 40
0
 40
0
 40
0
 40
0
 40
1
 40
1
 40
1
 40
1
 10
0.361162
 20
0.620032
 30
0.0
 10
0.342048
 20
0.633610
 30
0.0
 10
0.322042
 20
0.643401
 30
0.0
 10
0.305228
 20
0.650020
 30
0.0
  0
SPLINE
  5
135
100
AcDbEntity
  8
Layer_2
 62
7
100
AcDbSpline
 70
8
 71
3
 72
8
 73
4
 74
0
 40
0
 40
0
 40
0
 40
0
 40
1
 40
1
 40
1
 40
1
 10
0.305228
 20
0.650020
 30
0.0
 10
0.288414
 20
0.656639
 30
0.0
 10
0.274842
 20
0.660070
 30
0.0
 10
0.262324
 20
0.661936
 30
0.0
  0
SPLINE
  5
136
100
AcDbEntity
  8
Layer_2
 62
7
100
AcDbSpline
 70
8
 71
3
 72
8
 73
4
 74
0
 40
0
 40
0
 40
0
 40
0
 40
1
 40
1
 40
1
 40
1
 10
0.262324
 20
0.661936
 30
0.0
 10
0.249806
 20
0.663803
 30
0.0
 10
0.238431
 20
0.664094
 30
0.0
 10
0.228862
 20
0.663979
 30
0.0
  0
SPLINE
  5
137
100
AcDbEntity
  8
Layer_2
 62
7
100
AcDbSpline
 70
8
 71
3
 72
8
 73
4
 74
0
 40
0
 40
0
 40
0
 40
0
 40
1
 40
1
 40
1
 40
1
 10
0.228862
 20
0.663979
 30
0.0
 10
0.219293
 20
0.663864
 30
0.0
 10
0.211635
 20
0.663343
 30
0.0
 10
0.200414
 20
0.661656
 30
0.0
  0
SPLINE
  5
138
100
AcDbEntity
  8
Layer_2
 62
7
100
AcDbSpline
 70
8
 71
3
 72
8
 73
4
 74
0
 40
0
 40
0
 40
0
 40
0
 40
1
 40
1
 40
1
 40
1
 10
0.200414
 20
0.661656
 30
0.0
 10
0.189193
 20
0.659969
 30
0.0
 10
0.174488
 20
0.657126
 30
0.0
 10
0.159420
 20
0.652514
 30
0.0
  0
SPLINE
  5
139
100
AcDbEntity
  8
Layer_2
 62
7
100
AcDbSpline
 70
8
 71
3
 72
8
 73
4
 74
0
 40
0
 40
0
 40
0
 40
0
 40
1
 40
1
 40
1
 40
1
 10
0.159420
 20
0.652514
 30
0.0
 10
0.144352
 20
0.647902
 30
0.0
 10
0.128965
 20
0.641534
 30
0.0
 10
0.114765
 20
0.634441
 30
0.0
  0
SPLINE
  5
13a
100
AcDbEntity
  8
Layer_2
 62
7
100
AcDbSpline
 70
8
 71
3
 72
8
 73
4
 74
0
 40
0
 40
0
 40
0
 40
0
 40
1
 40
1
 40
1
 40
1
 10
0.114765
 20
0.634441
 30
0.0
 10
0.100564
 20
0.627349
 30
0.0
 10
0.087571
 20
0.619543
 30
0.0
 10
0.075718
 20
0.610670
 30
0.0
  0
SPLINE
  5
13b
100
AcDbEntity
  8
Layer_2
 62
7
100
AcDbSpline
 70
8
 71
3
 72
8
 73
4
 74
0
 40
0
 40
0
 40
0
 40
0
 40
1
 40
1
 40
1
 40
1
 10
0.075718
 20
0.610670
 30
0.0
 10
0.063866
 20
0.601797
 30
0.0
 10
0.053169
 20
0.591867
 30
0.0
 10
0.044261
 20
0.581871
 30
0.0
  0
SPLINE
  5
13c
100
AcDbEntity
  8
Layer_2
 62
7
100
AcDbSpline
 70
8
 71
3
 72
8
 73
4
 74
0
 40
0
 40
0
 40
0
 40
0
 40
1
 40
1
 40
1
 40
1
 10
0.044261
 20
0.581871
 30
0.0
 10
0.035353
 20
0.571876
 30
0.0
 10
0.028241
 20
0.561821
 30
0.0
 10
0.021674
 20
0.549926
 30
0.0
  0
SPLINE
  5
13d
100
AcDbEntity
  8
Layer_2
 62
7
100
AcDbSpline
 70
8
 71
3
 72
8
 73
4
 74
0
 40
0
 40
0
 40
0
 40
0
 40
1
 40
1
 40
1
 40
1
 10
0.021674
 20
0.549926
 30
0.0
 10
0.015108
 20
0.538031
 30
0.0
 10
0.009089
 20
0.524300
 30
0.0
 10
0.005167
 20
0.508859
 30
0.0
  0
SPLINE
  5
13e
100
AcDbEntity
  8
Layer_2
 62
7
100
AcDbSpline
 70
8
 71
3
 72
8
 73
4
 74
0
 40
0
 40
0
 40
0
 40
0
 40
1
 40
1
 40
1
 40
1
 10
0.005167
 20
0.508859
 30
0.0
 10
0.001246
 20
0.493417
 30
0.0
 10
-0.000573
 20
0.476295
 30
0.0
 10
0.000159
 20
0.457146
 30
0.0
  0
SPLINE
  5
13f
100
AcDbEntity
  8
Layer_2
 62
7
100
AcDbSpline
 70
8
 71
3
 72
8
 73
4
 74
0
 40
0
 40
0
 40
0
 40
0
 40
1
 40
1
 40
1
 40
1
 10
0.000159
 20
0.457146
 30
0.0
 10
0.000891
 20
0.437998
 30
0.0
 10
0.004168
 20
0.416920
 30
0.0
 10
0.010062
 20
0.397282
 30
0.0
  0
SPLINE
  5
140
100
AcDbEntity
  8
Layer_2
 62
7
100
AcDbSpline
 70
8
 71
3
 72
8
 73
4
 74
0
 40
0
 40
0
 40
0
 40
0
 40
1
 40
1
 40
1
 40
1
 10
0.010062
 20
0.397282
 30
0.0
 10
0.015955
 20
0.377644
 30
0.0
 10
0.024417
 20
0.359597
 30
0.0
 10
0.034880
 20
0.341218
 30
0.0
  0
SPLINE
  5
141
100
AcDbEntity
  8
Layer_2
 62
7
100
AcDbSpline
 70
8
 71
3
 72
8
 73
4
 74
0
 40
0
 40
0
 40
0
 40
0
 40
1
 40
1
 40
1
 40
1
 10
0.034880
 20
0.341218
 30
0.0
 10
0.045343
 20
0.322839
 30
0.0
 10
0.056688
 20
0.305834
 30
0.0
 10
0.066244
 20
0.292458
 30
0.0
  0
SPLINE
  5
142
100
AcDbEntity
  8
Layer_2
 62
7
100
AcDbSpline
 70
8
 71
3
 72
8
 73
4
 74
0
 40
0
 40
0
 40
0
 40
0
 40
1
 40
1
 40
1
 40
1
 10
0.066244
 20
0.292458
 30
0.0
 10
0.075801
 20
0.279082
 30
0.0
 10
0.080617
 20
0.273467
 30
0.0
 10
0.085092
 20
0.266657
 30
0.0
  0
SPLINE
  5
143
100
AcDbEntity
  8
Layer_2
 62
7
100
AcDbSpline
 70
8
 71
3
 72
8
 73
4
 74
0
 40
0
 40
0
 40
0
 40
0
 40
1
 40
1
 40
1
 40
1
 10
0.085092
 20
0.266657
 30
0.0
 10
0.089567
 20
0.259846
 30
0.0
 10
0.093239
 20
0.252393
 30
0.0
 10
0.094186
 20
0.245316
 30
0.0
  0
SPLINE
  5
144
100
AcDbEntity
  8
Layer_2
 62
7
100
AcDbSpline
 70
8
 71
3
 72
8
 73
4
 74
0
 40
0
 40
0
 40
0
 40
0
 40
1
 40
1
 40
1
 40
1
 10
0.094186
 20
0.245316
 30
0.0
 10
0.095133
 20
0.238240
 30
0.0
 10
0.093348
 20
0.231598
 30
0.0
 10
0.091826
 20
0.223369
 30
0.0
  0
SPLINE
  5
145
100
AcDbEntity
  8
Layer_2
 62
7
100
AcDbSpline
 70
8
 71
3
 72
8
 73
4
 74
0
 40
0
 40
0
 40
0
 40
0
 40
1
 40
1
 40
1
 40
1
 10
0.091826
 20
0.223369
 30
0.0
 10
0.090305
 20
0.215141
 30
0.0
 10
0.089060
 20
0.205398
 30
0.0
 10
0.091909
 20
0.197886
 30
0.0
  0
SPLINE
  5
146
100
AcDbEntity
  8
Layer_2
 62
7
100
AcDbSpline
 70
8
 71
3
 72
8
 73
4
 74
0
 40
0
 40
0
 40
0
 40
0
 40
1
 40
1
 40
1
 40
1
 10
0.091909
 20
0.197886
 30
0.0
 10
0.094758
 20
0.190373
 30
0.0
 10
0.101660
 20
0.185175
 30
0.0
 10
0.108740
 20
0.181399
 30
0.0
  0
SPLINE
  5
147
100
AcDbEntity
  8
Layer_2
 62
7
100
AcDbSpline
 70
8
 71
3
 72
8
 73
4
 74
0
 40
0
 40
0
 40
0
 40
0
 40
1
 40
1
 40
1
 40
1
 10
0.108740
 20
0.181399
 30
0.0
 10
0.115820
 20
0.177623
 30
0.0
 10
0.122980
 20
0.175322
 30
0.0
 10
0.129947
 20
0.173736
 30
0.0
  0
SPLINE
  5
148
100
AcDbEntity
  8
Layer_2
 62
7
100
AcDbSpline
 70
8
 71
3
 72
8
 73
4
 74
0
 40
0
 40
0
 40
0
 40
0
 40
1
 40
1
 40
1
 40
1
 10
0.129947
 20
0.173736
 30
0.0
 10
0.136914
 20
0.172150
 30
0.0
 10
0.143602
 20
0.171298
 30
0.0
 10
0.150513
 20
0.170568
 30
0.0
  0
SPLINE
  5
149
100
AcDbEntity
  8
Layer_2
 62
7
100
AcDbSpline
 70
8
 71
3
 72
8
 73
4
 74
0
 40
0
 40
0
 40
0
 40
0
 40
1
 40
1
 40
1
 40
1
 10
0.150513
 20
0.170568
 30
0.0
 10
0.157423
 20
0.169838
 30
0.0
 10
0.164458
 20
0.169241
 30
0.0
 10
0.172769
 20
0.169199
 30
0.0
  0
SPLINE
  5
14a
100
AcDbEntity
  8
Layer_2
 62
7
100
AcDbSpline
 70
8
 71
3
 72
8
 73
4
 74
0
 40
0
 40
0
 40
0
 40
0
 40
1
 40
1
 40
1
 40
1
 10
0.172769
 20
0.169199
 30
0.0
 10
0.181079
 20
0.169156
 30
0.0
 10
0.190609
 20
0.169669
 30
0.0
 10
0.199945
 20
0.170997
 30
0.0
  0
SPLINE
  5
14b
100
AcDbEntity
  8
Layer_2
 62
7
100
AcDbSpline
 70
8
 71
3
 72
8
 73
4
 74
0
 40
0
 40
0
 40
0
 40
0
 40
1
 40
1
 40
1
 40
1
 10
0.199945
 20
0.170997
 30
0.0
 10
0.209281
 20
0.172325
 30
0.0
 10
0.218386
 20
0.174462
 30
0.0
 10
0.225430
 20
0.178316
 30
0.0
  0
SPLINE
  5
14c
100
AcDbEntity
  8
Layer_2
 62
7
100
AcDbSpline
 70
8
 71
3
 72
8
 73
4
 74
0
 40
0
 40
0
 40
0
 40
0
 40
1
 40
1
 40
1
 40
1
 10
0.225430
 20
0.178316
 30
0.0
 10
0.232474
 20
0.182170
 30
0.0
 10
0.237439
 20
0.187734
 30
0.0
 10
0.239621
 20
0.193957
 30
0.0
  0
SPLINE
  5
14d
100
AcDbEntity
  8
Layer_2
 62
7
100
AcDbSpline
 70
8
 71
3
 72
8
 73
4
 74
0
 40
0
 40
0
 40
0
 40
0
 40
1
 40
1
 40
1
 40
1
 10
0.239621
 20
0.193957
 30
0.0
 10
0.241802
 20
0.200180
 30
0.0
 10
0.241204
 20
0.207067
 30
0.0
 10
0.239691
 20
0.212957
 30
0.0
  0
SPLINE
  5
14e
100
AcDbEntity
  8
Layer_2
 62
7
100
AcDbSpline
 70
8
 71
3
 72
8
 73
4
 74
0
 40
0
 40
0
 40
0
 40
0
 40
1
 40
1
 40
1
 40
1
 10
0.239691
 20
0.212957
 30
0.0
 10
0.238178
 20
0.218847
 30
0.0
 10
0.235746
 20
0.223741
 30
0.0
 10
0.232578
 20
0.228145
 30
0.0
  0
SPLINE
  5
14f
100
AcDbEntity
  8
Layer_2
 62
7
100
AcDbSpline
 70
8
 71
3
 72
8
 73
4
 74
0
 40
0
 40
0
 40
0
 40
0
 40
1
 40
1
 40
1
 40
1
 10
0.232578
 20
0.228145
 30
0.0
 10
0.229411
 20
0.232549
 30
0.0
 10
0.225544
 20
0.236421
 30
0.0
 10
0.221506
 20
0.239805
 30
0.0
  0
SPLINE
  5
150
100
AcDbEntity
  8
Layer_2
 62
7
100
AcDbSpline
 70
8
 71
3
 72
8
 73
4
 74
0
 40
0
 40
0
 40
0
 40
0
 40
1
 40
1
 40
1
 40
1
 10
0.221506
 20
0.239805
 30
0.0
 10
0.217468
 20
0.243188
 30
0.0
 10
0.214171
 20
0.245447
 30
0.0
 10
0.207973
 20
0.249152
 30
0.0
  0
SPLINE
  5
151
100
AcDbEntity
  8
Layer_2
 62
7
100
AcDbSpline
 70
8
 71
3
 72
8
 73
4
 74
0
 40
0
 40
0
 40
0
 40
0
 40
1
 40
1
 40
1
 40
1
 10
0.207973
 20
0.249152
 30
0.0
 10
0.201774
 20
0.252857
 30
0.0
 10
0.198495
 20
0.254621
 30
0.0
 10
0.190383
 20
0.258521
 30
0.0
  0
SPLINE
  5
152
100
AcDbEntity
  8
Layer_2
 62
7
100
AcDbSpline
 70
8
 71
3
 72
8
 73
4
 74
0
 40
0
 40
0
 40
0
 40
0
 40
1
 40
1
 40
1
 40
1
 10
0.190383
 20
0.258521
 30
0.0
 10
0.182272
 20
0.262421
 30
0.0
 10
0.178757
 20
0.263929
 30
0.0
 10
0.169586
 20
0.268565
 30
0.0
  0
SPLINE
  5
153
100
AcDbEntity
  8
Layer_2
 62
7
100
AcDbSpline
 70
8
 71
3
 72
8
 73
4
 74
0
 40
0
 40
0
 40
0
 40
0
 40
1
 40
1
 40
1
 40
1
 10
0.169586
 20
0.268565
 30
0.0
 10
0.160414
 20
0.273200
 30
0.0
 10
0.153854
 20
0.276930
 30
0.0
 10
0.148675
 20
0.280307
 30
0.0
  0
SPLINE
  5
154
100
AcDbEntity
  8
Layer_2
 62
7
100
AcDbSpline
 70
8
 71
3
 72
8
 73
4
 74
0
 40
0
 40
0
 40
0
 40
0
 40
1
 40
1
 40
1
 40
1
 10
0.148675
 20
0.280307
 30
0.0
 10
0.143496
 20
0.283685
 30
0.0
 10
0.141183
 20
0.285848
 30
0.0
 10
0.139809
 20
0.289040
 30
0.0
  0
SPLINE
  5
155
100
AcDbEntity
  8
Layer_2
 62
7
100
AcDbSpline
 70
8
 71
3
 72
8
 73
4
 74
0
 40
0
 40
0
 40
0
 40
0
 40
1
 40
1
 40
1
 40
1
 10
0.139809
 20
0.289040
 30
0.0
 10
0.138436
 20
0.292233
 30
0.0
 10
0.138305
 20
0.295670
 30
0.0
 10
0.138394
 20
0.299910
 30
0.0
  0
SPLINE
  5
156
100
AcDbEntity
  8
Layer_2
 62
7
100
AcDbSpline
 70
8
 71
3
 72
8
 73
4
 74
0
 40
0
 40
0
 40
0
 40
0
 40
1
 40
1
 40
1
 40
1
 10
0.138394
 20
0.299910
 30
0.0
 10
0.138483
 20
0.304151
 30
0.0
 10
0.138803
 20
0.308930
 30
0.0
 10
0.139546
 20
0.314131
 30
0.0
  0
SPLINE
  5
157
100
AcDbEntity
  8
Layer_2
 62
7
100
AcDbSpline
 70
8
 71
3
 72
8
 73
4
 74
0
 40
0
 40
0
 40
0
 40
0
 40
1
 40
1
 40
1
 40
1
 10
0.139546
 20
0.314131
 30
0.0
 10
0.140290
 20
0.319333
 30
0.0
 10
0.141458
 20
0.324959
 30
0.0
 10
0.144279
 20
0.333114
 30
0.0
  0
SPLINE
  5
158
100
AcDbEntity
  8
Layer_2
 62
7
100
AcDbSpline
 70
8
 71
3
 72
8
 73
4
 74
0
 40
0
 40
0
 40
0
 40
0
 40
1
 40
1
 40
1
 40
1
 10
0.144279
 20
0.333114
 30
0.0
 10
0.147099
 20
0.341269
 30
0.0
 10
0.151572
 20
0.351953
 30
0.0
 10
0.156386
 20
0.361620
 30
0.0
  0
SPLINE
  5
159
100
AcDbEntity
  8
Layer_2
 62
7
100
AcDbSpline
 70
8
 71
3
 72
8
 73
4
 74
0
 40
0
 40
0
 40
0
 40
0
 40
1
 40
1
 40
1
 40
1
 10
0.156386
 20
0.361620
 30
0.0
 10
0.161199
 20
0.371288
 30
0.0
 10
0.166353
 20
0.379937
 30
0.0
 10
0.172646
 20
0.388748
 30
0.0
  0
SPLINE
  5
15a
100
AcDbEntity
  8
Layer_2
 62
7
100
AcDbSpline
 70
8
 71
3
 72
8
 73
4
 74
0
 40
0
 40
0
 40
0
 40
0
 40
1
 40
1
 40
1
 40
1
 10
0.172646
 20
0.388748
 30
0.0
 10
0.178940
 20
0.397560
 30
0.0
 10
0.186372
 20
0.406531
 30
0.0
 10
0.193373
 20
0.413487
 30
0.0
  0
SPLINE
  5
15b
100
AcDbEntity
  8
Layer_2
 62
7
100
AcDbSpline
 70
8
 71
3
 72
8
 73
4
 74
0
 40
0
 40
0
 40
0
 40
0
 40
1
 40
1
 40
1
 40
1
 10
0.193373
 20
0.413487
 30
0.0
 10
0.200373
 20
0.420442
 30
0.0
 10
0.206940
 20
0.425379
 30
0.0
 10
0.211882
 20
0.428696
 30
0.0
  0
SPLINE
  5
15c
100
AcDbEntity
  8
Layer_2
 62
7
100
AcDbSpline
 70
8
 71
3
 72
8
 73
4
 74
0
 40
0
 40
0
 40
0
 40
0
 40
1
 40
1
 40
1
 40
1
 10
0.211882
 20
0.428696
 30
0.0
 10
0.216824
 20
0.432013
 30
0.0
 10
0.220141
 20
0.433709
 30
0.0
 10
0.223867
 20
0.433523
 30
0.0
  0
SPLINE
  5
15d
100
AcDbEntity
  8
Layer_2
 62
7
100
AcDbSpline
 70
8
 71
3
 72
8
 73
4
 74
0
 40
0
 40
0
 40
0
 40
0
 40
1
 40
1
 40
1
 40
1
 10
0.223867
 20
0.433523
 30
0.0
 10
0.227594
 20
0.433338
 30
0.0
 10
0.231730
 20
0.431272
 30
0.0
 10
0.235779
 20
0.428662
 30
0.0
  0
SPLINE
  5
15e
100
AcDbEntity
  8
Layer_2
 62
7
100
AcDbSpline
 70
8
 71
3
 72
8
 73
4
 74
0
 40
0
 40
0
 40
0
 40
0
 40
1
 40
1
 40
1
 40
1
 10
0.235779
 20
0.428662
 30
0.0
 10
0.239828
 20
0.426052
 30
0.0
 10
0.243789
 20
0.422898
 30
0.0
 10
0.249097
 20
0.418040
 30
0.0
  0
SPLINE
  5
15f
100
AcDbEntity
  8
Layer_2
 62
7
100
AcDbSpline
 70
8
 71
3
 72
8
 73
4
 74
0
 40
0
 40
0
 40
0
 40
0
 40
1
 40
1
 40
1
 40
1
 10
0.249097
 20
0.418040
 30
0.0
 10
0.254404
 20
0.413182
 30
0.0
 10
0.261058
 20
0.406621
 30
0.0
 10
0.268719
 20
0.397495
 30
0.0
  0
SPLINE
  5
160
100
AcDbEntity
  8
Layer_2
 62
7
100
AcDbSpline
 70
8
 71
3
 72
8
 73
4
 74
0
 40
0
 40
0
 40
0
 40
0
 40
1
 40
1
 40
1
 40
1
 10
0.268719
 20
0.397495
 30
0.0
 10
0.276380
 20
0.388370
 30
0.0
 10
0.285048
 20
0.376680
 30
0.0
 10
0.292317
 20
0.365623
 30
0.0
  0
SPLINE
  5
161
100
AcDbEntity
  8
Layer_2
 62
7
100
AcDbSpline
 70
8
 71
3
 72
8
 73
4
 74
0
 40
0
 40
0
 40
0
 40
0
 40
1
 40
1
 40
1
 40
1
 10
0.292317
 20
0.365623
 30
0.0
 10
0.299586
 20
0.354566
 30
0.0
 10
0.305456
 20
0.344142
 30
0.0
 10
0.309576
 20
0.334365
 30
0.0
  0
SPLINE
  5
162
100
AcDbEntity
  8
Layer_2
 62
7
100
AcDbSpline
 70
8
 71
3
 72
8
 73
4
 74
0
 40
0
 40
0
 40
0
 40
0
 40
1
 40
1
 40
1
 40
1
 10
0.309576
 20
0.334365
 30
0.0
 10
0.313695
 20
0.324589
 30
0.0
 10
0.316065
 20
0.315459
 30
0.0
 10
0.316733
 20
0.309380
 30
0.0
  0
SPLINE
  5
163
100
AcDbEntity
  8
Layer_2
 62
7
100
AcDbSpline
 70
8
 71
3
 72
8
 73
4
 74
0
 40
0
 40
0
 40
0
 40
0
 40
1
 40
1
 40
1
 40
1
 10
0.316733
 20
0.309380
 30
0.0
 10
0.317401
 20
0.303301
 30
0.0
 10
0.316368
 20
0.300272
 30
0.0
 10
0.314502
 20
0.297548
 30
0.0
  0
SPLINE
  5
164
100
AcDbEntity
  8
Layer_2
 62
7
100
AcDbSpline
 70
8
 71
3
 72
8
 73
4
 74
0
 40
0
 40
0
 40
0
 40
0
 40
1
 40
1
 40
1
 40
1
 10
0.314502
 20
0.297548
 30
0.0
 10
0.312636
 20
0.294825
 30
0.0
 10
0.309937
 20
0.292407
 30
0.0
 10
0.306151
 20
0.289894
 30
0.0
  0
SPLINE
  5
165
100
AcDbEntity
  8
Layer_2
 62
7
100
AcDbSpline
 70
8
 71
3
 72
8
 73
4
 74
0
 40
0
 40
0
 40
0
 40
0
 40
1
 40
1
 40
1
 40
1
 10
0.306151
 20
0.289894
 30
0.0
 10
0.302366
 20
0.287382
 30
0.0
 10
0.297494
 20
0.284775
 30
0.0
 10
0.288160
 20
0.282340
 30
0.0
  0
SPLINE
  5
166
100
AcDbEntity
  8
Layer_2
 62
7
100
AcDbSpline
 70
8
 71
3
 72
8
 73
4
 74
0
 40
0
 40
0
 40
0
 40
0
 40
1
 40
1
 40
1
 40
1
 10
0.288160
 20
0.282340
 30
0.0
 10
0.278826
 20
0.279904
 30
0.0
 10
0.265033
 20
0.277641
 30
0.0
 10
0.250290
 20
0.277381
 30
0.0
  0
SPLINE
  5
167
100
AcDbEntity
  8
Layer_2
 62
7
100
AcDbSpline
 70
8
 71
3
 72
8
 73
4
 74
0
 40
0
 40
0
 40
0
 40
0
 40
1
 40
1
 40
1
 40
1
 10
0.250290
 20
0.277381
 30
0.0
 10
0.235546
 20
0.277122
 30
0.0
 10
0.219860
 20
0.278866
 30
0.0
 10
0.207949
 20
0.281824
 30
0.0
  0
SPLINE
  5
168
100
AcDbEntity
  8
Layer_2
 62
7
100
AcDbSpline
 70
8
 71
3
 72
8
 73
4
 74
0
 40
0
 40
0
 40
0
 40
0
 40
1
 40
1
 40
1
 40
1
 10
0.207949
 20
0.281824
 30
0.0
 10
0.196038
 20
0.284782
 30
0.0
 10
0.187907
 20
0.288952
 30
0.0
 10
0.182360
 20
0.292254
 30
0.0
  0
SPLINE
  5
169
100
AcDbEntity
  8
Layer_2
 62
7
100
AcDbSpline
 70
8
 71
3
 72
8
 73
4
 74
0
 40
0
 40
0
 40
0
 40
0
 40
1
 40
1
 40
1
 40
1
 10
0.182360
 20
0.292254
 30
0.0
 10
0.176812
 20
0.295555
 30
0.0
 10
0.173846
 20
0.297990
 30
0.0
 10
0.172344
 20
0.300869
 30
0.0
  0
SPLINE
  5
16a
100
AcDbEntity
  8
Layer_2
 62
7
100
AcDbSpline
 70
8
 71
3
 72
8
 73
4
 74
0
 40
0
 40
0
 40
0
 40
0
 40
1
 40
1
 40
1
 40
1
 10
0.172344
 20
0.300869
 30
0.0
 10
0.170842
 20
0.303747
 30
0.0
 10
0.170806
 20
0.307069
 30
0.0
 10
0.171845
 20
0.312140
 30
0.0
  0
SPLINE
  5
16b
100
AcDbEntity
  8
Layer_2
 62
7
100
AcDbSpline
 70
8
 71
3
 72
8
 73
4
 74
0
 40
0
 40
0
 40
0
 40
0
 40
1
 40
1
 40
1
 40
1
 10
0.171845
 20
0.312140
 30
0.0
 10
0.172885
 20
0.317212
 30
0.0
 10
0.175002
 20
0.324030
 30
0.0
 10
0.177916
 20
0.330784
 30
0.0
  0
SPLINE
  5
16c
100
AcDbEntity
  8
Layer_2
 62
7
100
AcDbSpline
 70
8
 71
3
 72
8
 73
4
 74
0
 40
0
 40
0
 40
0
 40
0
 40
1
 40
1
 40
1
 40
1
 10
0.177916
 20
0.330784
 30
0.0
 10
0.180831
 20
0.337538
 30
0.0
 10
0.184542
 20
0.344224
 30
0.0
 10
0.188511
 20
0.350864
 30
0.0
  0
SPLINE
  5
16d
100
AcDbEntity
  8
Layer_2
 62
7
100
AcDbSpline
 70
8
 71
3
 72
8
 73
4
 74
0
 40
0
 40
0
 40
0
 40
0
 40
1
 40
1
 40
1
 40
1
 10
0.188511
 20
0.350864
 30
0.0
 10
0.192480
 20
0.357505
 30
0.0
 10
0.196705
 20
0.364098
 30
0.0
 10
0.202834
 20
0.370989
 30
0.0
  0
SPLINE
  5
16e
100
AcDbEntity
  8
Layer_2
 62
7
100
AcDbSpline
 70
8
 71
3
 72
8
 73
4
 74
0
 40
0
 40
0
 40
0
 40
0
 40
1
 40
1
 40
1
 40
1
 10
0.202834
 20
0.370989
 30
0.0
 10
0.208964
 20
0.377880
 30
0.0
 10
0.216996
 20
0.385069
 30
0.0
 10
0.225029
 20
0.392257
 30
0.0
  0
ENDSEC
  0
SECTION
  2
OBJECTS
  0
DICTIONARY
  5
C
330
0
100
AcDbDictionary
  3
ACAD_GROUP
350
D
  3
ACAD_MLINESTYLE
350
17
  0
DICTIONARY
  5
D
330
C
100
AcDbDictionary
  0
DICTIONARY
  5
1A
330
C
100
AcDbDictionary
  0
DICTIONARY
  5
17
330
C
100
AcDbDictionary
  3
STANDARD
350
18
  0
DICTIONARY
  5
19
330
C
100
AcDbDictionary
  0
ENDSEC
  0
EOF
