<?xml version="1.0" encoding="UTF-8" standalone="no"?>
<svg
   viewBox="0 0 793.7007874015749 1122.5196850393702"
   width="793.7007874015749"
   height="1122.5196850393702"
   version="1.1"
   id="svg1082"
   sodipodi:docname="madeAtMines Inkscape.svg"
   inkscape:version="1.1.2 (0a00cf5339, 2022-02-04)"
   xmlns:inkscape="http://www.inkscape.org/namespaces/inkscape"
   xmlns:sodipodi="http://sodipodi.sourceforge.net/DTD/sodipodi-0.dtd"
   xmlns="http://www.w3.org/2000/svg"
   xmlns:svg="http://www.w3.org/2000/svg">
  <sodipodi:namedview
     id="namedview27"
     pagecolor="#ffffff"
     bordercolor="#666666"
     borderopacity="1.0"
     inkscape:pageshadow="2"
     inkscape:pageopacity="0.0"
     inkscape:pagecheckerboard="0"
     showgrid="false"
     inkscape:zoom="0.57370933"
     inkscape:cx="396.54227"
     inkscape:cy="560.38831"
     inkscape:window-width="1920"
     inkscape:window-height="1119"
     inkscape:window-x="0"
     inkscape:window-y="0"
     inkscape:window-maximized="1"
     inkscape:current-layer="svg1082" />
  <desc
     id="desc840">madeAtMines.dxf - scale = 1.0, origin = (0.0, 0.0), method = manual</desc>
  <defs
     id="defs854">
    <marker
       id="DistanceX"
       orient="auto"
       refX="0.0"
       refY="0.0"
       style="overflow:visible">
      <path
         d="M 3,-3 L -3,3 M 0,-5 L  0,5"
         style="stroke:#000000; stroke-width:0.5"
         id="path842" />
    </marker>
    <pattern
       id="Hatch"
       patternUnits="userSpaceOnUse"
       width="8"
       height="8"
       x="0"
       y="0">
      <path
         d="M8 4 l-4,4"
         stroke="#000000"
         stroke-width="0.25"
         linecap="square"
         id="path845" />
      <path
         d="M6 2 l-4,4"
         stroke="#000000"
         stroke-width="0.25"
         linecap="square"
         id="path847" />
      <path
         d="M4 0 l-4,4"
         stroke="#000000"
         stroke-width="0.25"
         linecap="square"
         id="path849" />
    </pattern>
    <symbol
       id="*MODEL_SPACE" />
    <symbol
       id="*PAPER_SPACE" />
    <marker
       id="DistanceX-3"
       orient="auto"
       refX="0.0"
       refY="0.0"
       style="overflow:visible">
      <path
         d="M 3,-3 L -3,3 M 0,-5 L  0,5"
         style="stroke:#000000; stroke-width:0.5"
         id="path1254" />
    </marker>
    <pattern
       id="Hatch-6"
       patternUnits="userSpaceOnUse"
       width="8"
       height="8"
       x="0"
       y="0">
      <path
         d="M8 4 l-4,4"
         stroke="#000000"
         stroke-width="0.25"
         linecap="square"
         id="path1257" />
      <path
         d="M6 2 l-4,4"
         stroke="#000000"
         stroke-width="0.25"
         linecap="square"
         id="path1259" />
      <path
         d="M4 0 l-4,4"
         stroke="#000000"
         stroke-width="0.25"
         linecap="square"
         id="path1261" />
    </pattern>
    <symbol
       id="*MODEL_SPACE-7" />
    <symbol
       id="*PAPER_SPACE-5" />
  </defs>
  <g
     id="g856" />
  <g
     id="g1080">
    <g
       id="g1619"
       transform="matrix(0.17567491,0,0,0.17567491,0.08764022,922.71285)">
      <g
         id="g1268" />
      <g
         id="g1492">
        <path
           id="path1490"
           style="fill:none;stroke:#000000"
           d="m 1947.2064,-2438.9747 c 58.848,-66.1536 135.9552,-135.168 213.072,-204.1728 m -350.5728,397.3728 c 38.1024,-63.7536 78.6624,-127.0464 137.5008,-193.2 m -239.2128,385.968 c 27.984,-64.8384 63.6096,-129.024 101.712,-192.768 m -159.9936,371.7504 c 9.984,-48.6912 30.3072,-114.144 58.2816,-178.9824 m -53.4912,287.184 c -14.4192,-27.6288 -14.7648,-59.52 -4.7904,-108.2016 m 100.944,190.9056 c -53.2608,-31.6896 -81.7344,-55.0656 -96.1536,-82.704 m 341.808,182.832 c -114.3456,-28.3968 -192.4032,-68.4288 -245.6544,-100.128 m 652.128,142.7808 c -141.5424,2.4864 -292.128,-14.256 -406.4736,-42.6528 m 770.0256,-4.9536 c -89.6064,23.3856 -222.0192,45.1104 -363.552,47.6064 m 536.2656,-120.1248 c -36.336,24.1152 -83.1072,49.1424 -172.7136,72.5184 m 252.8832,-145.9968 c -17.9136,26.1408 -43.824,49.3536 -80.1696,73.4784 m 101.5872,-187.0656 c 6.4128,58.3584 -3.504,87.4368 -21.4176,113.5872 m -47.2896,-353.4432 c 39.5424,93.8496 62.2944,181.4976 68.7072,239.856 m -234.3936,-539.9328 c 69.7824,106.1472 126.1344,206.2176 165.6864,300.0768 m -392.2272,-606.048 c 73.5456,87.6 156.7584,199.824 226.5408,305.9712 m -414.912,-503.2032 c 50.9472,46.6368 114.8256,109.6224 188.3712,197.232 m -316.224,-299.2032 c 38.8704,25.056 76.896,55.3344 127.8528,101.9712 m -242.208,-148.6368 c 35.7792,1.776 75.4848,21.6096 114.3552,46.6656 m -229.4112,-0.3264 c 47.4432,-31.8432 79.2864,-48.1248 115.056,-46.3392 m -292.7424,192.3456 c 67.2,-66.768 130.2432,-114.1632 177.6864,-146.0064 m -376.6656,383.5008 c 60.4224,-84.5952 131.7696,-170.7168 198.9792,-237.4944 m -355.0752,497.9232 c 46.2048,-92.8128 95.6832,-175.8432 156.096,-260.4288 m -272.3232,534.0864 c 27.072,-78.288 70.0128,-180.8544 116.2272,-273.6576 m -161.664,455.8944 c 7.1424,-49.9392 18.3552,-103.9488 45.4368,-182.2368 m -56.496,318.7584 c 0.8544,-40.7136 3.9264,-86.592 11.0592,-136.5216 m 2.5248,240.8736 c -13.1808,-30.6528 -14.4384,-63.648 -13.584,-104.352 m 98.6976,188.1888 c -49.7184,-32.4288 -71.9232,-53.1936 -85.1136,-83.8368 m 285.8592,196.56 c -88.0512,-44.496 -151.0272,-80.304 -200.7456,-112.7232 m 400.3968,209.1456 c -77.8656,-37.44 -111.6096,-51.9168 -199.6512,-96.4224 m 368.5152,186.3648 c -59.5104,-35.568 -90.9888,-52.5024 -168.864,-89.9424 m 298.7808,179.6736 c -38.7648,-32.4768 -70.416,-54.1632 -129.9168,-89.7312 m 236.208,201.6672 c -30.4032,-42.2784 -67.5264,-79.4496 -106.2912,-111.936 m 174.576,257.74078 c -14.5248,-56.54399 -37.872,-103.52638 -68.2848,-145.80478 m 67.6128,328.20478 c 20.9376,-59.74079 15.1968,-125.856 0.672,-182.4 m -136.9056,332.55361 c 67.6224,-36.9984 115.2864,-90.41281 136.2336,-150.15361 m -380.8896,220.41601 c 89.6256,-12.7488 177.0336,-33.264 244.656,-70.2624 m -505.5456,87.5232 c 79.776,0.4128 171.264,-4.512 260.8896,-17.2608 m -474.5472,4.11839 c 66.336,7.00801 133.872,12.73921 213.6576,13.14241 m -411.0912,-43.5552 c 66.8832,15.2256 131.088,23.4048 197.4336,30.41279 M 1043.904,-618.91071 c 67.968,36.2496 136.704,58.3392 203.5872,73.5648 M 882.3264,-777.18592 c 27.3504,72.12481 93.6096,122.02561 161.5776,158.27521 M 881.5296,-1021.8227 c -14.6016,78.98878 -26.5536,172.52159 0.7968,244.63678 m 21.8592,-455.32798 c 9.0912,67.9296 -8.0448,131.6928 -22.656,210.6912 m -64.6464,-415.5648 c 42.96,65.3856 78.2112,136.9344 87.3024,204.8736 m -268.2432,-452.5632 c 91.7472,128.4096 137.9808,182.3136 180.9408,247.6896 M 334.848,-2153.1731 c 100.4448,176.4384 209.3568,339.6864 301.0944,468.096 M 96.5952,-2691.3875 c 56.5728,188.5248 137.808,361.776 238.2528,538.2144 M 1.5264,-3266.0819 c 7.0272,183.8208 38.4864,386.1696 95.0688,574.6944 m -46.992,-1071.1392 c -37.6416,148.2432 -55.104,312.6144 -48.0768,496.4448 m 206.544,-890.688 c -63.0336,114.192 -120.816,246.0096 -158.4672,394.2432 m 375.3024,-700.9152 c -85.5168,95.952 -153.792,192.48 -216.8352,306.672 m 518.8224,-583.1424 c -113.7792,85.1808 -216.4704,180.5088 -301.9872,276.4704 m 676.8384,-504.672 c -136.3296,68.0832 -261.0624,143.0208 -374.8512,228.2016 m 803.5392,-401.7024 c -144.6528,44.2752 -292.368,105.408 -428.688,173.5008 m 822.2304,-261.264 c -107.7216,16.1952 -248.8896,43.488 -393.5424,87.7632 m 666.6432,-110.064 c -91.8624,1.104 -165.3792,6.1056 -273.1008,22.3008 m 594.336,-2.688 c -120.1728,-17.9232 -229.3728,-20.7168 -321.2352,-19.6128 m 733.1136,134.0064 c -161.4144,-63.5424 -291.7056,-96.48 -411.8784,-114.3936 m 948.8448,402.2784 c -183.4944,-130.3488 -375.552,-224.3424 -536.9664,-287.8848 M 3955.2,-4361.5187 c -129.84,-171.3504 -304.5504,-337.92 -488.0448,-468.2688 m 762.9312,975.8016 c -60.1248,-160.128 -145.0464,-336.192 -274.8864,-507.5328 m 390.0576,952.608 c -19.7376,-140.832 -55.0464,-284.9472 -115.1712,-445.0752 m 125.0304,875.2704 c 13.9776,-152.3136 9.8688,-289.3728 -9.8592,-430.1952 m -76.8384,895.2768 c 40.6944,-145.7088 72.7104,-312.7776 86.6976,-465.0816 m -235.1232,849.456 c 58.4736,-114.672 107.7312,-238.656 148.4256,-384.3744 m -337.104,690.5184 c 68.9568,-96.1344 130.2144,-191.4624 188.6784,-306.144 m -370.5984,536.1984 c 59.8848,-69.8592 112.9632,-133.9296 181.92,-230.0544 m -361.1712,433.8432 c 58.1376,-64.9152 119.3568,-133.9392 179.2512,-203.7888 m -350.112,408.72 c 57.6672,-79.2096 112.7232,-140.016 170.8608,-204.9312 m -323.9232,463.09439 c 35.5872,-82.14719 95.3856,-178.95359 153.0624,-258.16319 m -195.0336,460.60799 c -3.9552,-55.20961 6.3744,-120.3072 41.9712,-202.4448 m -1.392,345.936 c -18.3552,-43.3536 -36.6144,-88.2816 -40.5792,-143.4912 m 95.8944,266.6976 c -19.2384,-39.744 -36.96,-79.85281 -55.3152,-123.2064 m 94.8864,241.5552 c -2.8992,-45.88801 -20.3424,-78.62401 -39.5712,-118.3488 m -8.5728,255.6288 c 38.1504,-45.408 51.0336,-91.39201 48.144,-137.28 m -213.6288,254.505595 c 64.9824,-30.604805 127.3344,-71.827195 165.4848,-117.225595 m -368.7648,182.515195 c 71.136,-14.8608 138.3072,-34.6848 203.28,-65.2896 m -428.8704,95.3952 c 80.6688,-5.6256 154.4544,-15.2448 225.5904,-30.1056 m -479.7504,36.6336 c 86.6112,0.6432 173.4816,-0.9024 254.16,-6.528 m -515.3568,-4.0608 c 88.0416,7.1424 174.5856,9.9552 261.1968,10.5888 m -516.864,-40.6656 c 78.5856,11.5008 167.6256,22.9248 255.6672,30.0768 m -467.6448,-70.1952 c 66.096,17.136 133.392,28.608 211.9776,40.1184 M 1524.9792,-125.66272 c 59.2032,22.95361 123.1296,45.484805 189.2352,62.620805 M 1369.872,-184.76031 c 47.5872,15.3888 95.8944,36.144 155.1072,59.09759 m -268.0704,-80.08319 c 35.424,1.0944 65.376,5.5968 112.9632,20.9856 m -218.544,-5.67361 c 40.6656,-14.37119 70.1568,-16.42559 105.5808,-15.31199 m -189.5328,70.6176 c 22.4064,-25.1136 43.2864,-40.944 83.952,-55.30561 m -134.8896,150.787205 c 12.3552,-43.632 28.5312,-70.358405 50.9376,-95.481595 m -54.3072,226.291195 c -11.76,-47.5968 -8.9856,-87.1776 3.3696,-130.8096 m 70.9152,264.451195 c -35.904,-37.2096 -62.5248,-86.0352 -74.2848,-133.641595 m 204.192,218.467195 c -49.104,-22.3104 -94.0032,-47.6064 -129.9072,-84.8256 m 290.5824,139.056 c -58.6656,-12.768 -111.5712,-31.91999 -160.6752,-54.2304 m 347.76,78.1824 c -64.7328,-4.94399 -128.4192,-11.184 -187.0848,-23.952 m 390.0096,33.9264 c -73.2288,-1.4016 -138.192,-5.0208 -202.9248,-9.9744 m 442.0608,7.632 c -85.5744,2.90881 -165.9168,3.74401 -239.136,2.3424 m 496.4928,-14.9568 c -81.696,4.6848 -171.792,9.69601 -257.3568,12.6144 m 468.5088,-26.592 c -57.0336,4.9824 -129.4464,9.2928 -211.152,13.9776 m 346.1664,-19.4784 c -37.7472,-5.0304 -77.9904,0.4992 -135.0144,5.5008 m 233.3952,40.032 c -25.92,-24.9312 -60.624,-40.4928 -98.3808,-45.5328 m 146.0448,152.1984 c -4.7904,-47.616 -21.744,-81.744 -47.664,-106.6656 m 21.6,276.7104 c 23.4528,-61.4496 30.8544,-122.41919 26.064,-170.0448 M 2625.84,858.79809 c 41.7792,-49.85281 81.2928,-111.7632 104.7456,-173.20321 m -235.5552,293.1648 c 45.0144,-32.36159 89.0304,-70.11839 130.8096,-119.96159 m -277.68,201.09121 c 55.9584,-21.9072 101.856,-48.7776 146.8704,-81.12962 m -330.0672,130.17602 c 61.5264,-10.3296 127.248,-27.1488 183.1968,-49.0464 m -357.9744,62.5728 c 56.3232,0.6048 113.2512,-3.1776 174.7776,-13.5264 m -346.4064,-3.6864 c 59.9904,11.6832 115.296,16.6272 171.6288,17.2128 m -353.0496,-72.96 c 57.6096,25.8144 121.4208,44.064 181.4208,55.7472 M 1491.1776,951.65889 c 38.3136,39.31199 88.3488,72.02881 145.9584,97.84321 M 1416.4032,829.74848 c 11.2896,38.1408 36.4608,82.60801 74.7744,121.91041 M 1410.912,729.26528 c -2.9088,31.27681 -5.7984,62.3424 5.4912,100.4832" />
      </g>
    </g>
  </g>
</svg>
