G04 #@! TF.GenerationSoftware,KiCad,Pcbnew,9.0.2*
G04 #@! TF.CreationDate,2025-07-06T18:44:46-06:00*
G04 #@! TF.ProjectId,MMS_SSTC,4d4d535f-5353-4544-932e-6b696361645f,0.0.0*
G04 #@! TF.SameCoordinates,Original*
G04 #@! TF.FileFunction,Soldermask,Bot*
G04 #@! TF.FilePolarity,Negative*
%FSLAX46Y46*%
G04 Gerber Fmt 4.6, Leading zero omitted, Abs format (unit mm)*
G04 Created by KiCad (PCBNEW 9.0.2) date 2025-07-06 18:44:46*
%MOMM*%
%LPD*%
G01*
G04 APERTURE LIST*
G04 Aperture macros list*
%AMRoundRect*
0 Rectangle with rounded corners*
0 $1 Rounding radius*
0 $2 $3 $4 $5 $6 $7 $8 $9 X,Y pos of 4 corners*
0 Add a 4 corners polygon primitive as box body*
4,1,4,$2,$3,$4,$5,$6,$7,$8,$9,$2,$3,0*
0 Add four circle primitives for the rounded corners*
1,1,$1+$1,$2,$3*
1,1,$1+$1,$4,$5*
1,1,$1+$1,$6,$7*
1,1,$1+$1,$8,$9*
0 Add four rect primitives between the rounded corners*
20,1,$1+$1,$2,$3,$4,$5,0*
20,1,$1+$1,$4,$5,$6,$7,0*
20,1,$1+$1,$6,$7,$8,$9,0*
20,1,$1+$1,$8,$9,$2,$3,0*%
G04 Aperture macros list end*
%ADD10C,1.400000*%
%ADD11C,1.440000*%
%ADD12C,1.600000*%
%ADD13RoundRect,0.250000X-0.550000X-0.550000X0.550000X-0.550000X0.550000X0.550000X-0.550000X0.550000X0*%
%ADD14RoundRect,0.250000X-1.750000X1.750000X-1.750000X-1.750000X1.750000X-1.750000X1.750000X1.750000X0*%
%ADD15C,4.000000*%
%ADD16RoundRect,0.249999X-0.850001X0.850001X-0.850001X-0.850001X0.850001X-0.850001X0.850001X0.850001X0*%
%ADD17C,2.200000*%
%ADD18C,3.200000*%
%ADD19C,2.154000*%
%ADD20C,2.000000*%
%ADD21RoundRect,0.250001X0.949999X-0.949999X0.949999X0.949999X-0.949999X0.949999X-0.949999X-0.949999X0*%
%ADD22C,2.400000*%
%ADD23RoundRect,0.250001X-0.949999X-0.949999X0.949999X-0.949999X0.949999X0.949999X-0.949999X0.949999X0*%
%ADD24R,2.000000X1.905000*%
%ADD25O,2.000000X1.905000*%
%ADD26RoundRect,0.249999X0.850001X0.850001X-0.850001X0.850001X-0.850001X-0.850001X0.850001X-0.850001X0*%
%ADD27RoundRect,0.249999X-0.850001X-0.850001X0.850001X-0.850001X0.850001X0.850001X-0.850001X0.850001X0*%
%ADD28RoundRect,0.250000X-0.550000X0.550000X-0.550000X-0.550000X0.550000X-0.550000X0.550000X0.550000X0*%
%ADD29R,4.500000X2.500000*%
%ADD30O,4.500000X2.500000*%
%ADD31RoundRect,0.250000X0.550000X-0.550000X0.550000X0.550000X-0.550000X0.550000X-0.550000X-0.550000X0*%
%ADD32R,3.200000X3.200000*%
G04 APERTURE END LIST*
D10*
X117960000Y-59000000D03*
X123040000Y-59000000D03*
X148460000Y-50770000D03*
X145920000Y-50770000D03*
D11*
X138000000Y-37000000D03*
X140540000Y-37000000D03*
X143080000Y-37000000D03*
D12*
X88500000Y-65750000D03*
X88500000Y-63250000D03*
X110500000Y-47500000D03*
X105500000Y-47500000D03*
D13*
X143380000Y-53960000D03*
D12*
X143380000Y-56500000D03*
X143380000Y-59040000D03*
X143380000Y-61580000D03*
X151000000Y-61580000D03*
X151000000Y-59040000D03*
X151000000Y-56500000D03*
X151000000Y-53960000D03*
D14*
X80500000Y-88894630D03*
D15*
X80500000Y-98894630D03*
D12*
X145935000Y-65540000D03*
X148435000Y-65540000D03*
D10*
X119500000Y-43000000D03*
X119500000Y-37920000D03*
D16*
X87550000Y-46730000D03*
D17*
X87550000Y-54350000D03*
D12*
X107750000Y-33055000D03*
X110250000Y-33055000D03*
D11*
X120875000Y-66370000D03*
X118335000Y-66370000D03*
X115795000Y-66370000D03*
D10*
X106730000Y-53500000D03*
X109270000Y-53500000D03*
D18*
X64000000Y-103500000D03*
D19*
X65000000Y-49000000D03*
X65000000Y-44000000D03*
D20*
X141100000Y-76000000D03*
X141100000Y-86000000D03*
D12*
X127500000Y-94000000D03*
X127500000Y-99000000D03*
X98550000Y-46790000D03*
X98550000Y-49290000D03*
D21*
X78000000Y-51500000D03*
D22*
X78000000Y-46500000D03*
D23*
X136650000Y-91500000D03*
D22*
X149350000Y-91500000D03*
D10*
X156000000Y-64540000D03*
X156000000Y-59460000D03*
D24*
X92550000Y-46920000D03*
D25*
X92550000Y-49460000D03*
X92550000Y-52000000D03*
D10*
X136185000Y-55270000D03*
X138725000Y-55270000D03*
D20*
X147000000Y-76000000D03*
X147000000Y-86000000D03*
D12*
X115750000Y-33055000D03*
X113250000Y-33055000D03*
X98550000Y-60500000D03*
X98550000Y-63000000D03*
D11*
X137920000Y-43500000D03*
X140460000Y-43500000D03*
X143000000Y-43500000D03*
D18*
X155000000Y-33500000D03*
D12*
X119325000Y-81375000D03*
X121825000Y-81375000D03*
D26*
X124310000Y-51500000D03*
D17*
X116690000Y-51500000D03*
D10*
X136185000Y-58270000D03*
X138725000Y-58270000D03*
D27*
X123690000Y-42500000D03*
D17*
X131310000Y-42500000D03*
D26*
X131310000Y-38000000D03*
D17*
X123690000Y-38000000D03*
D28*
X121995000Y-70750000D03*
D12*
X119455000Y-70750000D03*
X116915000Y-70750000D03*
X114375000Y-70750000D03*
X111835000Y-70750000D03*
X109295000Y-70750000D03*
X106755000Y-70750000D03*
X106755000Y-78370000D03*
X109295000Y-78370000D03*
X111835000Y-78370000D03*
X114375000Y-78370000D03*
X116915000Y-78370000D03*
X119455000Y-78370000D03*
X121995000Y-78370000D03*
D21*
X78000000Y-65323959D03*
D22*
X78000000Y-60323959D03*
D23*
X136650000Y-71000000D03*
D22*
X149350000Y-71000000D03*
D19*
X136000000Y-102500000D03*
X141000000Y-102500000D03*
X146000000Y-102500000D03*
D29*
X156000000Y-70600000D03*
D30*
X156000000Y-76050000D03*
X156000000Y-81500000D03*
D19*
X80000000Y-34500000D03*
X75000000Y-34500000D03*
X85000000Y-34500000D03*
D18*
X155000000Y-103500000D03*
D31*
X107960000Y-43805000D03*
D12*
X110500000Y-43805000D03*
X113040000Y-43805000D03*
X115580000Y-43805000D03*
X115580000Y-36185000D03*
X113040000Y-36185000D03*
X110500000Y-36185000D03*
X107960000Y-36185000D03*
D32*
X70250000Y-77450000D03*
D18*
X75330000Y-77450000D03*
X80410000Y-77450000D03*
X85490000Y-77450000D03*
D24*
X92550000Y-60420000D03*
D25*
X92550000Y-62960000D03*
X92550000Y-65500000D03*
D26*
X124310000Y-55500000D03*
D17*
X116690000Y-55500000D03*
D12*
X132500000Y-58000000D03*
X132500000Y-55500000D03*
D20*
X135415000Y-76000000D03*
X135415000Y-86000000D03*
X107500000Y-61500000D03*
D12*
X127000000Y-70875000D03*
X127000000Y-75875000D03*
D19*
X65000000Y-63500000D03*
X65000000Y-58500000D03*
X65000000Y-68500000D03*
D10*
X138725000Y-61270000D03*
X136185000Y-61270000D03*
X112960000Y-57040000D03*
X112960000Y-51960000D03*
D18*
X64000000Y-33500000D03*
D14*
X107500000Y-89000000D03*
D15*
X107500000Y-99000000D03*
D12*
X106750000Y-57000000D03*
X109250000Y-57000000D03*
M02*
