G04 #@! TF.GenerationSoftware,KiCad,Pcbnew,9.0.3*
G04 #@! TF.CreationDate,2025-08-02T15:40:20-06:00*
G04 #@! TF.ProjectId,MMS_SSTC,4d4d535f-5353-4544-932e-6b696361645f,1.0.0*
G04 #@! TF.SameCoordinates,Original*
G04 #@! TF.FileFunction,Legend,Bot*
G04 #@! TF.FilePolarity,Positive*
%FSLAX46Y46*%
G04 Gerber Fmt 4.6, Leading zero omitted, Abs format (unit mm)*
G04 Created by KiCad (PCBNEW 9.0.3) date 2025-08-02 15:40:20*
%MOMM*%
%LPD*%
G01*
G04 APERTURE LIST*
G04 Aperture macros list*
%AMRoundRect*
0 Rectangle with rounded corners*
0 $1 Rounding radius*
0 $2 $3 $4 $5 $6 $7 $8 $9 X,Y pos of 4 corners*
0 Add a 4 corners polygon primitive as box body*
4,1,4,$2,$3,$4,$5,$6,$7,$8,$9,$2,$3,0*
0 Add four circle primitives for the rounded corners*
1,1,$1+$1,$2,$3*
1,1,$1+$1,$4,$5*
1,1,$1+$1,$6,$7*
1,1,$1+$1,$8,$9*
0 Add four rect primitives between the rounded corners*
20,1,$1+$1,$2,$3,$4,$5,0*
20,1,$1+$1,$4,$5,$6,$7,0*
20,1,$1+$1,$6,$7,$8,$9,0*
20,1,$1+$1,$8,$9,$2,$3,0*%
G04 Aperture macros list end*
%ADD10C,0.280000*%
%ADD11R,1.800000X1.800000*%
%ADD12C,1.800000*%
%ADD13C,2.400000*%
%ADD14C,3.200000*%
%ADD15C,2.200000*%
%ADD16R,2.200000X2.200000*%
%ADD17R,4.500000X2.500000*%
%ADD18O,4.500000X2.500000*%
%ADD19C,1.600000*%
%ADD20RoundRect,0.250000X0.550000X-0.550000X0.550000X0.550000X-0.550000X0.550000X-0.550000X-0.550000X0*%
%ADD21C,1.400000*%
%ADD22C,2.154000*%
%ADD23C,1.440000*%
%ADD24RoundRect,0.250000X-0.550000X-0.550000X0.550000X-0.550000X0.550000X0.550000X-0.550000X0.550000X0*%
%ADD25R,1.905000X2.000000*%
%ADD26O,1.905000X2.000000*%
%ADD27R,1.600000X1.600000*%
%ADD28O,1.600000X1.600000*%
%ADD29C,2.000000*%
%ADD30RoundRect,0.250001X0.949999X-0.949999X0.949999X0.949999X-0.949999X0.949999X-0.949999X-0.949999X0*%
%ADD31R,3.200000X3.200000*%
%ADD32RoundRect,0.250000X1.750000X-1.750000X1.750000X1.750000X-1.750000X1.750000X-1.750000X-1.750000X0*%
%ADD33C,4.000000*%
%ADD34RoundRect,0.250000X-0.550000X0.550000X-0.550000X-0.550000X0.550000X-0.550000X0.550000X0.550000X0*%
G04 APERTURE END LIST*
D10*
X167600000Y-140060184D02*
X167600000Y-138660184D01*
X167600000Y-138660184D02*
X167133334Y-139660184D01*
X167133334Y-139660184D02*
X166666667Y-138660184D01*
X166666667Y-138660184D02*
X166666667Y-140060184D01*
X166000000Y-140060184D02*
X166000000Y-138660184D01*
X166000000Y-138660184D02*
X165533334Y-139660184D01*
X165533334Y-139660184D02*
X165066667Y-138660184D01*
X165066667Y-138660184D02*
X165066667Y-140060184D01*
X164466667Y-139993518D02*
X164266667Y-140060184D01*
X164266667Y-140060184D02*
X163933334Y-140060184D01*
X163933334Y-140060184D02*
X163800000Y-139993518D01*
X163800000Y-139993518D02*
X163733334Y-139926851D01*
X163733334Y-139926851D02*
X163666667Y-139793518D01*
X163666667Y-139793518D02*
X163666667Y-139660184D01*
X163666667Y-139660184D02*
X163733334Y-139526851D01*
X163733334Y-139526851D02*
X163800000Y-139460184D01*
X163800000Y-139460184D02*
X163933334Y-139393518D01*
X163933334Y-139393518D02*
X164200000Y-139326851D01*
X164200000Y-139326851D02*
X164333334Y-139260184D01*
X164333334Y-139260184D02*
X164400000Y-139193518D01*
X164400000Y-139193518D02*
X164466667Y-139060184D01*
X164466667Y-139060184D02*
X164466667Y-138926851D01*
X164466667Y-138926851D02*
X164400000Y-138793518D01*
X164400000Y-138793518D02*
X164333334Y-138726851D01*
X164333334Y-138726851D02*
X164200000Y-138660184D01*
X164200000Y-138660184D02*
X163866667Y-138660184D01*
X163866667Y-138660184D02*
X163666667Y-138726851D01*
X162066667Y-139993518D02*
X161866667Y-140060184D01*
X161866667Y-140060184D02*
X161533334Y-140060184D01*
X161533334Y-140060184D02*
X161400000Y-139993518D01*
X161400000Y-139993518D02*
X161333334Y-139926851D01*
X161333334Y-139926851D02*
X161266667Y-139793518D01*
X161266667Y-139793518D02*
X161266667Y-139660184D01*
X161266667Y-139660184D02*
X161333334Y-139526851D01*
X161333334Y-139526851D02*
X161400000Y-139460184D01*
X161400000Y-139460184D02*
X161533334Y-139393518D01*
X161533334Y-139393518D02*
X161800000Y-139326851D01*
X161800000Y-139326851D02*
X161933334Y-139260184D01*
X161933334Y-139260184D02*
X162000000Y-139193518D01*
X162000000Y-139193518D02*
X162066667Y-139060184D01*
X162066667Y-139060184D02*
X162066667Y-138926851D01*
X162066667Y-138926851D02*
X162000000Y-138793518D01*
X162000000Y-138793518D02*
X161933334Y-138726851D01*
X161933334Y-138726851D02*
X161800000Y-138660184D01*
X161800000Y-138660184D02*
X161466667Y-138660184D01*
X161466667Y-138660184D02*
X161266667Y-138726851D01*
X160733334Y-139993518D02*
X160533334Y-140060184D01*
X160533334Y-140060184D02*
X160200001Y-140060184D01*
X160200001Y-140060184D02*
X160066667Y-139993518D01*
X160066667Y-139993518D02*
X160000001Y-139926851D01*
X160000001Y-139926851D02*
X159933334Y-139793518D01*
X159933334Y-139793518D02*
X159933334Y-139660184D01*
X159933334Y-139660184D02*
X160000001Y-139526851D01*
X160000001Y-139526851D02*
X160066667Y-139460184D01*
X160066667Y-139460184D02*
X160200001Y-139393518D01*
X160200001Y-139393518D02*
X160466667Y-139326851D01*
X160466667Y-139326851D02*
X160600001Y-139260184D01*
X160600001Y-139260184D02*
X160666667Y-139193518D01*
X160666667Y-139193518D02*
X160733334Y-139060184D01*
X160733334Y-139060184D02*
X160733334Y-138926851D01*
X160733334Y-138926851D02*
X160666667Y-138793518D01*
X160666667Y-138793518D02*
X160600001Y-138726851D01*
X160600001Y-138726851D02*
X160466667Y-138660184D01*
X160466667Y-138660184D02*
X160133334Y-138660184D01*
X160133334Y-138660184D02*
X159933334Y-138726851D01*
X159533334Y-138660184D02*
X158733334Y-138660184D01*
X159133334Y-140060184D02*
X159133334Y-138660184D01*
X157466667Y-139926851D02*
X157533334Y-139993518D01*
X157533334Y-139993518D02*
X157733334Y-140060184D01*
X157733334Y-140060184D02*
X157866667Y-140060184D01*
X157866667Y-140060184D02*
X158066667Y-139993518D01*
X158066667Y-139993518D02*
X158200001Y-139860184D01*
X158200001Y-139860184D02*
X158266667Y-139726851D01*
X158266667Y-139726851D02*
X158333334Y-139460184D01*
X158333334Y-139460184D02*
X158333334Y-139260184D01*
X158333334Y-139260184D02*
X158266667Y-138993518D01*
X158266667Y-138993518D02*
X158200001Y-138860184D01*
X158200001Y-138860184D02*
X158066667Y-138726851D01*
X158066667Y-138726851D02*
X157866667Y-138660184D01*
X157866667Y-138660184D02*
X157733334Y-138660184D01*
X157733334Y-138660184D02*
X157533334Y-138726851D01*
X157533334Y-138726851D02*
X157466667Y-138793518D01*
X155866667Y-138660184D02*
X155866667Y-138926851D01*
X155333334Y-138660184D02*
X155333334Y-138926851D01*
X154066667Y-140060184D02*
X154733333Y-140060184D01*
X154733333Y-140060184D02*
X154733333Y-138660184D01*
X153000000Y-140060184D02*
X153000000Y-139326851D01*
X153000000Y-139326851D02*
X153066667Y-139193518D01*
X153066667Y-139193518D02*
X153200000Y-139126851D01*
X153200000Y-139126851D02*
X153466667Y-139126851D01*
X153466667Y-139126851D02*
X153600000Y-139193518D01*
X153000000Y-139993518D02*
X153133334Y-140060184D01*
X153133334Y-140060184D02*
X153466667Y-140060184D01*
X153466667Y-140060184D02*
X153600000Y-139993518D01*
X153600000Y-139993518D02*
X153666667Y-139860184D01*
X153666667Y-139860184D02*
X153666667Y-139726851D01*
X153666667Y-139726851D02*
X153600000Y-139593518D01*
X153600000Y-139593518D02*
X153466667Y-139526851D01*
X153466667Y-139526851D02*
X153133334Y-139526851D01*
X153133334Y-139526851D02*
X153000000Y-139460184D01*
X152333333Y-140060184D02*
X152333333Y-139126851D01*
X152333333Y-139260184D02*
X152266667Y-139193518D01*
X152266667Y-139193518D02*
X152133333Y-139126851D01*
X152133333Y-139126851D02*
X151933333Y-139126851D01*
X151933333Y-139126851D02*
X151800000Y-139193518D01*
X151800000Y-139193518D02*
X151733333Y-139326851D01*
X151733333Y-139326851D02*
X151733333Y-140060184D01*
X151733333Y-139326851D02*
X151666667Y-139193518D01*
X151666667Y-139193518D02*
X151533333Y-139126851D01*
X151533333Y-139126851D02*
X151333333Y-139126851D01*
X151333333Y-139126851D02*
X151200000Y-139193518D01*
X151200000Y-139193518D02*
X151133333Y-139326851D01*
X151133333Y-139326851D02*
X151133333Y-140060184D01*
X150466666Y-140060184D02*
X150466666Y-138660184D01*
X150466666Y-139193518D02*
X150333333Y-139126851D01*
X150333333Y-139126851D02*
X150066666Y-139126851D01*
X150066666Y-139126851D02*
X149933333Y-139193518D01*
X149933333Y-139193518D02*
X149866666Y-139260184D01*
X149866666Y-139260184D02*
X149800000Y-139393518D01*
X149800000Y-139393518D02*
X149800000Y-139793518D01*
X149800000Y-139793518D02*
X149866666Y-139926851D01*
X149866666Y-139926851D02*
X149933333Y-139993518D01*
X149933333Y-139993518D02*
X150066666Y-140060184D01*
X150066666Y-140060184D02*
X150333333Y-140060184D01*
X150333333Y-140060184D02*
X150466666Y-139993518D01*
X148599999Y-140060184D02*
X148599999Y-138660184D01*
X148599999Y-139993518D02*
X148733333Y-140060184D01*
X148733333Y-140060184D02*
X148999999Y-140060184D01*
X148999999Y-140060184D02*
X149133333Y-139993518D01*
X149133333Y-139993518D02*
X149199999Y-139926851D01*
X149199999Y-139926851D02*
X149266666Y-139793518D01*
X149266666Y-139793518D02*
X149266666Y-139393518D01*
X149266666Y-139393518D02*
X149199999Y-139260184D01*
X149199999Y-139260184D02*
X149133333Y-139193518D01*
X149133333Y-139193518D02*
X148999999Y-139126851D01*
X148999999Y-139126851D02*
X148733333Y-139126851D01*
X148733333Y-139126851D02*
X148599999Y-139193518D01*
X147333332Y-140060184D02*
X147333332Y-139326851D01*
X147333332Y-139326851D02*
X147399999Y-139193518D01*
X147399999Y-139193518D02*
X147533332Y-139126851D01*
X147533332Y-139126851D02*
X147799999Y-139126851D01*
X147799999Y-139126851D02*
X147933332Y-139193518D01*
X147333332Y-139993518D02*
X147466666Y-140060184D01*
X147466666Y-140060184D02*
X147799999Y-140060184D01*
X147799999Y-140060184D02*
X147933332Y-139993518D01*
X147933332Y-139993518D02*
X147999999Y-139860184D01*
X147999999Y-139860184D02*
X147999999Y-139726851D01*
X147999999Y-139726851D02*
X147933332Y-139593518D01*
X147933332Y-139593518D02*
X147799999Y-139526851D01*
X147799999Y-139526851D02*
X147466666Y-139526851D01*
X147466666Y-139526851D02*
X147333332Y-139460184D01*
X146733332Y-138660184D02*
X146733332Y-138926851D01*
X146199999Y-138660184D02*
X146199999Y-138926851D01*
X144533331Y-140060184D02*
X144533331Y-138660184D01*
X144533331Y-138660184D02*
X144066665Y-139660184D01*
X144066665Y-139660184D02*
X143599998Y-138660184D01*
X143599998Y-138660184D02*
X143599998Y-140060184D01*
X142933331Y-140060184D02*
X142933331Y-138660184D01*
X142799998Y-139526851D02*
X142399998Y-140060184D01*
X142399998Y-139126851D02*
X142933331Y-139660184D01*
X141799998Y-139926851D02*
X141733332Y-139993518D01*
X141733332Y-139993518D02*
X141799998Y-140060184D01*
X141799998Y-140060184D02*
X141866665Y-139993518D01*
X141866665Y-139993518D02*
X141799998Y-139926851D01*
X141799998Y-139926851D02*
X141799998Y-140060184D01*
X139333331Y-140060184D02*
X140133331Y-140060184D01*
X139733331Y-140060184D02*
X139733331Y-138660184D01*
X139733331Y-138660184D02*
X139866664Y-138860184D01*
X139866664Y-138860184D02*
X139999998Y-138993518D01*
X139999998Y-138993518D02*
X140133331Y-139060184D01*
X166133334Y-142314106D02*
X166133334Y-140914106D01*
X166133334Y-140914106D02*
X165800001Y-140914106D01*
X165800001Y-140914106D02*
X165600001Y-140980773D01*
X165600001Y-140980773D02*
X165466668Y-141114106D01*
X165466668Y-141114106D02*
X165400001Y-141247440D01*
X165400001Y-141247440D02*
X165333334Y-141514106D01*
X165333334Y-141514106D02*
X165333334Y-141714106D01*
X165333334Y-141714106D02*
X165400001Y-141980773D01*
X165400001Y-141980773D02*
X165466668Y-142114106D01*
X165466668Y-142114106D02*
X165600001Y-142247440D01*
X165600001Y-142247440D02*
X165800001Y-142314106D01*
X165800001Y-142314106D02*
X166133334Y-142314106D01*
X164200001Y-142247440D02*
X164333334Y-142314106D01*
X164333334Y-142314106D02*
X164600001Y-142314106D01*
X164600001Y-142314106D02*
X164733334Y-142247440D01*
X164733334Y-142247440D02*
X164800001Y-142114106D01*
X164800001Y-142114106D02*
X164800001Y-141580773D01*
X164800001Y-141580773D02*
X164733334Y-141447440D01*
X164733334Y-141447440D02*
X164600001Y-141380773D01*
X164600001Y-141380773D02*
X164333334Y-141380773D01*
X164333334Y-141380773D02*
X164200001Y-141447440D01*
X164200001Y-141447440D02*
X164133334Y-141580773D01*
X164133334Y-141580773D02*
X164133334Y-141714106D01*
X164133334Y-141714106D02*
X164800001Y-141847440D01*
X163600001Y-142247440D02*
X163466668Y-142314106D01*
X163466668Y-142314106D02*
X163200001Y-142314106D01*
X163200001Y-142314106D02*
X163066668Y-142247440D01*
X163066668Y-142247440D02*
X163000001Y-142114106D01*
X163000001Y-142114106D02*
X163000001Y-142047440D01*
X163000001Y-142047440D02*
X163066668Y-141914106D01*
X163066668Y-141914106D02*
X163200001Y-141847440D01*
X163200001Y-141847440D02*
X163400001Y-141847440D01*
X163400001Y-141847440D02*
X163533334Y-141780773D01*
X163533334Y-141780773D02*
X163600001Y-141647440D01*
X163600001Y-141647440D02*
X163600001Y-141580773D01*
X163600001Y-141580773D02*
X163533334Y-141447440D01*
X163533334Y-141447440D02*
X163400001Y-141380773D01*
X163400001Y-141380773D02*
X163200001Y-141380773D01*
X163200001Y-141380773D02*
X163066668Y-141447440D01*
X162400001Y-142314106D02*
X162400001Y-141380773D01*
X162400001Y-140914106D02*
X162466668Y-140980773D01*
X162466668Y-140980773D02*
X162400001Y-141047440D01*
X162400001Y-141047440D02*
X162333335Y-140980773D01*
X162333335Y-140980773D02*
X162400001Y-140914106D01*
X162400001Y-140914106D02*
X162400001Y-141047440D01*
X161133334Y-141380773D02*
X161133334Y-142514106D01*
X161133334Y-142514106D02*
X161200001Y-142647440D01*
X161200001Y-142647440D02*
X161266668Y-142714106D01*
X161266668Y-142714106D02*
X161400001Y-142780773D01*
X161400001Y-142780773D02*
X161600001Y-142780773D01*
X161600001Y-142780773D02*
X161733334Y-142714106D01*
X161133334Y-142247440D02*
X161266668Y-142314106D01*
X161266668Y-142314106D02*
X161533334Y-142314106D01*
X161533334Y-142314106D02*
X161666668Y-142247440D01*
X161666668Y-142247440D02*
X161733334Y-142180773D01*
X161733334Y-142180773D02*
X161800001Y-142047440D01*
X161800001Y-142047440D02*
X161800001Y-141647440D01*
X161800001Y-141647440D02*
X161733334Y-141514106D01*
X161733334Y-141514106D02*
X161666668Y-141447440D01*
X161666668Y-141447440D02*
X161533334Y-141380773D01*
X161533334Y-141380773D02*
X161266668Y-141380773D01*
X161266668Y-141380773D02*
X161133334Y-141447440D01*
X160466667Y-141380773D02*
X160466667Y-142314106D01*
X160466667Y-141514106D02*
X160400001Y-141447440D01*
X160400001Y-141447440D02*
X160266667Y-141380773D01*
X160266667Y-141380773D02*
X160066667Y-141380773D01*
X160066667Y-141380773D02*
X159933334Y-141447440D01*
X159933334Y-141447440D02*
X159866667Y-141580773D01*
X159866667Y-141580773D02*
X159866667Y-142314106D01*
X158133333Y-142314106D02*
X158133333Y-140914106D01*
X158133333Y-141447440D02*
X158000000Y-141380773D01*
X158000000Y-141380773D02*
X157733333Y-141380773D01*
X157733333Y-141380773D02*
X157600000Y-141447440D01*
X157600000Y-141447440D02*
X157533333Y-141514106D01*
X157533333Y-141514106D02*
X157466667Y-141647440D01*
X157466667Y-141647440D02*
X157466667Y-142047440D01*
X157466667Y-142047440D02*
X157533333Y-142180773D01*
X157533333Y-142180773D02*
X157600000Y-142247440D01*
X157600000Y-142247440D02*
X157733333Y-142314106D01*
X157733333Y-142314106D02*
X158000000Y-142314106D01*
X158000000Y-142314106D02*
X158133333Y-142247440D01*
X157000000Y-141380773D02*
X156666666Y-142314106D01*
X156333333Y-141380773D02*
X156666666Y-142314106D01*
X156666666Y-142314106D02*
X156800000Y-142647440D01*
X156800000Y-142647440D02*
X156866666Y-142714106D01*
X156866666Y-142714106D02*
X157000000Y-142780773D01*
X154866666Y-140914106D02*
X154533332Y-142314106D01*
X154533332Y-142314106D02*
X154266666Y-141314106D01*
X154266666Y-141314106D02*
X153999999Y-142314106D01*
X153999999Y-142314106D02*
X153666666Y-140914106D01*
X153133332Y-142314106D02*
X153133332Y-141380773D01*
X153133332Y-140914106D02*
X153199999Y-140980773D01*
X153199999Y-140980773D02*
X153133332Y-141047440D01*
X153133332Y-141047440D02*
X153066666Y-140980773D01*
X153066666Y-140980773D02*
X153133332Y-140914106D01*
X153133332Y-140914106D02*
X153133332Y-141047440D01*
X152266665Y-142314106D02*
X152399999Y-142247440D01*
X152399999Y-142247440D02*
X152466665Y-142114106D01*
X152466665Y-142114106D02*
X152466665Y-140914106D01*
X151533332Y-142314106D02*
X151666666Y-142247440D01*
X151666666Y-142247440D02*
X151733332Y-142114106D01*
X151733332Y-142114106D02*
X151733332Y-140914106D01*
X150999999Y-142314106D02*
X150999999Y-141380773D01*
X150999999Y-140914106D02*
X151066666Y-140980773D01*
X151066666Y-140980773D02*
X150999999Y-141047440D01*
X150999999Y-141047440D02*
X150933333Y-140980773D01*
X150933333Y-140980773D02*
X150999999Y-140914106D01*
X150999999Y-140914106D02*
X150999999Y-141047440D01*
X149733332Y-142314106D02*
X149733332Y-141580773D01*
X149733332Y-141580773D02*
X149799999Y-141447440D01*
X149799999Y-141447440D02*
X149933332Y-141380773D01*
X149933332Y-141380773D02*
X150199999Y-141380773D01*
X150199999Y-141380773D02*
X150333332Y-141447440D01*
X149733332Y-142247440D02*
X149866666Y-142314106D01*
X149866666Y-142314106D02*
X150199999Y-142314106D01*
X150199999Y-142314106D02*
X150333332Y-142247440D01*
X150333332Y-142247440D02*
X150399999Y-142114106D01*
X150399999Y-142114106D02*
X150399999Y-141980773D01*
X150399999Y-141980773D02*
X150333332Y-141847440D01*
X150333332Y-141847440D02*
X150199999Y-141780773D01*
X150199999Y-141780773D02*
X149866666Y-141780773D01*
X149866666Y-141780773D02*
X149733332Y-141714106D01*
X149066665Y-142314106D02*
X149066665Y-141380773D01*
X149066665Y-141514106D02*
X148999999Y-141447440D01*
X148999999Y-141447440D02*
X148866665Y-141380773D01*
X148866665Y-141380773D02*
X148666665Y-141380773D01*
X148666665Y-141380773D02*
X148533332Y-141447440D01*
X148533332Y-141447440D02*
X148466665Y-141580773D01*
X148466665Y-141580773D02*
X148466665Y-142314106D01*
X148466665Y-141580773D02*
X148399999Y-141447440D01*
X148399999Y-141447440D02*
X148266665Y-141380773D01*
X148266665Y-141380773D02*
X148066665Y-141380773D01*
X148066665Y-141380773D02*
X147933332Y-141447440D01*
X147933332Y-141447440D02*
X147866665Y-141580773D01*
X147866665Y-141580773D02*
X147866665Y-142314106D01*
X145466665Y-142314106D02*
X146133331Y-142314106D01*
X146133331Y-142314106D02*
X146133331Y-140914106D01*
X144399998Y-142314106D02*
X144399998Y-141580773D01*
X144399998Y-141580773D02*
X144466665Y-141447440D01*
X144466665Y-141447440D02*
X144599998Y-141380773D01*
X144599998Y-141380773D02*
X144866665Y-141380773D01*
X144866665Y-141380773D02*
X144999998Y-141447440D01*
X144399998Y-142247440D02*
X144533332Y-142314106D01*
X144533332Y-142314106D02*
X144866665Y-142314106D01*
X144866665Y-142314106D02*
X144999998Y-142247440D01*
X144999998Y-142247440D02*
X145066665Y-142114106D01*
X145066665Y-142114106D02*
X145066665Y-141980773D01*
X145066665Y-141980773D02*
X144999998Y-141847440D01*
X144999998Y-141847440D02*
X144866665Y-141780773D01*
X144866665Y-141780773D02*
X144533332Y-141780773D01*
X144533332Y-141780773D02*
X144399998Y-141714106D01*
X143866665Y-141380773D02*
X143533331Y-142314106D01*
X143199998Y-141380773D02*
X143533331Y-142314106D01*
X143533331Y-142314106D02*
X143666665Y-142647440D01*
X143666665Y-142647440D02*
X143733331Y-142714106D01*
X143733331Y-142714106D02*
X143866665Y-142780773D01*
X142666664Y-141380773D02*
X142666664Y-142314106D01*
X142666664Y-141514106D02*
X142599998Y-141447440D01*
X142599998Y-141447440D02*
X142466664Y-141380773D01*
X142466664Y-141380773D02*
X142266664Y-141380773D01*
X142266664Y-141380773D02*
X142133331Y-141447440D01*
X142133331Y-141447440D02*
X142066664Y-141580773D01*
X142066664Y-141580773D02*
X142066664Y-142314106D01*
X140866664Y-142247440D02*
X140999997Y-142314106D01*
X140999997Y-142314106D02*
X141266664Y-142314106D01*
X141266664Y-142314106D02*
X141399997Y-142247440D01*
X141399997Y-142247440D02*
X141466664Y-142114106D01*
X141466664Y-142114106D02*
X141466664Y-141580773D01*
X141466664Y-141580773D02*
X141399997Y-141447440D01*
X141399997Y-141447440D02*
X141266664Y-141380773D01*
X141266664Y-141380773D02*
X140999997Y-141380773D01*
X140999997Y-141380773D02*
X140866664Y-141447440D01*
X140866664Y-141447440D02*
X140799997Y-141580773D01*
X140799997Y-141580773D02*
X140799997Y-141714106D01*
X140799997Y-141714106D02*
X141466664Y-141847440D01*
%LPC*%
D11*
X120480000Y-138165000D03*
D12*
X123020000Y-138165000D03*
D13*
X136140000Y-138000000D03*
X131060000Y-138000000D03*
D14*
X94000000Y-141000000D03*
X171000000Y-141000000D03*
D15*
X115500000Y-99000000D03*
X115500000Y-89000000D03*
X95500000Y-104000000D03*
D16*
X95500000Y-84000000D03*
D13*
X97000000Y-122650000D03*
X97000000Y-135350000D03*
D17*
X172100000Y-91350000D03*
D18*
X172100000Y-96800000D03*
X172100000Y-102250000D03*
D19*
X128235000Y-99700000D03*
X130735000Y-99700000D03*
X168800000Y-76500000D03*
X168800000Y-79000000D03*
D14*
X94000000Y-64000000D03*
D20*
X149920000Y-73770000D03*
D19*
X152460000Y-73770000D03*
X155000000Y-73770000D03*
X157540000Y-73770000D03*
X160080000Y-73770000D03*
X162620000Y-73770000D03*
X165160000Y-73770000D03*
X165160000Y-66150000D03*
X162620000Y-66150000D03*
X160080000Y-66150000D03*
X157540000Y-66150000D03*
X155000000Y-66150000D03*
X152460000Y-66150000D03*
X149920000Y-66150000D03*
X134000000Y-70050000D03*
X136500000Y-70050000D03*
D21*
X143000000Y-97580000D03*
X143000000Y-92500000D03*
D22*
X151450000Y-132600000D03*
X156450000Y-132600000D03*
X161450000Y-132600000D03*
D21*
X169060000Y-86790000D03*
X169060000Y-81710000D03*
D19*
X128950000Y-80800000D03*
X131450000Y-80800000D03*
D23*
X145400000Y-70700000D03*
X145400000Y-68160000D03*
X145400000Y-65620000D03*
D13*
X170400000Y-115200000D03*
X157700000Y-115200000D03*
D19*
X134000000Y-80800000D03*
X136500000Y-80800000D03*
X149750000Y-78020000D03*
X144750000Y-78020000D03*
D21*
X139605000Y-97580000D03*
X139605000Y-92500000D03*
D24*
X157940000Y-78940000D03*
D19*
X157940000Y-81480000D03*
X157940000Y-84020000D03*
X157940000Y-86560000D03*
X165560000Y-86560000D03*
X165560000Y-84020000D03*
X165560000Y-81480000D03*
X165560000Y-78940000D03*
D25*
X128960000Y-77700000D03*
D26*
X131500000Y-77700000D03*
X134040000Y-77700000D03*
D25*
X128930000Y-67000000D03*
D26*
X131470000Y-67000000D03*
X134010000Y-67000000D03*
D27*
X105335000Y-65890000D03*
D28*
X100255000Y-65890000D03*
X100255000Y-73510000D03*
X105335000Y-73510000D03*
D22*
X103740000Y-132600000D03*
X108740000Y-132600000D03*
X113740000Y-132600000D03*
D13*
X157700000Y-109200000D03*
X170400000Y-109200000D03*
D29*
X164050000Y-102700000D03*
X164050000Y-92700000D03*
D13*
X156800000Y-104050000D03*
X156800000Y-91350000D03*
D14*
X171000000Y-64000000D03*
D19*
X128950000Y-70050000D03*
X131450000Y-70050000D03*
D30*
X116000000Y-72073959D03*
D13*
X116000000Y-67073959D03*
X154580000Y-123250000D03*
X169580000Y-123250000D03*
D31*
X98670000Y-116500000D03*
D14*
X103750000Y-116500000D03*
X108830000Y-116500000D03*
X113910000Y-116500000D03*
D32*
X136000000Y-122000000D03*
D33*
X136000000Y-112000000D03*
D19*
X152285000Y-63100000D03*
X149785000Y-63100000D03*
X128500000Y-86000000D03*
X131000000Y-86000000D03*
D34*
X136105000Y-89000000D03*
D19*
X133565000Y-89000000D03*
X131025000Y-89000000D03*
X128485000Y-89000000D03*
X128485000Y-96620000D03*
X131025000Y-96620000D03*
X133565000Y-96620000D03*
X136105000Y-96620000D03*
X139815000Y-88750000D03*
X144815000Y-88750000D03*
D20*
X146500000Y-100060000D03*
D19*
X146500000Y-92440000D03*
D21*
X123000000Y-134140000D03*
X123000000Y-129060000D03*
%LPD*%
M02*
