G04 #@! TF.GenerationSoftware,KiCad,Pcbnew,9.0.3*
G04 #@! TF.CreationDate,2025-08-02T15:40:20-06:00*
G04 #@! TF.ProjectId,MMS_SSTC,4d4d535f-5353-4544-932e-6b696361645f,1.0.0*
G04 #@! TF.SameCoordinates,Original*
G04 #@! TF.FileFunction,Copper,L2,Bot*
G04 #@! TF.FilePolarity,Positive*
%FSLAX46Y46*%
G04 Gerber Fmt 4.6, Leading zero omitted, Abs format (unit mm)*
G04 Created by KiCad (PCBNEW 9.0.3) date 2025-08-02 15:40:20*
%MOMM*%
%LPD*%
G01*
G04 APERTURE LIST*
G04 Aperture macros list*
%AMRoundRect*
0 Rectangle with rounded corners*
0 $1 Rounding radius*
0 $2 $3 $4 $5 $6 $7 $8 $9 X,Y pos of 4 corners*
0 Add a 4 corners polygon primitive as box body*
4,1,4,$2,$3,$4,$5,$6,$7,$8,$9,$2,$3,0*
0 Add four circle primitives for the rounded corners*
1,1,$1+$1,$2,$3*
1,1,$1+$1,$4,$5*
1,1,$1+$1,$6,$7*
1,1,$1+$1,$8,$9*
0 Add four rect primitives between the rounded corners*
20,1,$1+$1,$2,$3,$4,$5,0*
20,1,$1+$1,$4,$5,$6,$7,0*
20,1,$1+$1,$6,$7,$8,$9,0*
20,1,$1+$1,$8,$9,$2,$3,0*%
G04 Aperture macros list end*
G04 #@! TA.AperFunction,ComponentPad*
%ADD10R,1.800000X1.800000*%
G04 #@! TD*
G04 #@! TA.AperFunction,ComponentPad*
%ADD11C,1.800000*%
G04 #@! TD*
G04 #@! TA.AperFunction,ComponentPad*
%ADD12C,2.400000*%
G04 #@! TD*
G04 #@! TA.AperFunction,ComponentPad*
%ADD13C,2.200000*%
G04 #@! TD*
G04 #@! TA.AperFunction,ComponentPad*
%ADD14R,2.200000X2.200000*%
G04 #@! TD*
G04 #@! TA.AperFunction,ComponentPad*
%ADD15R,4.500000X2.500000*%
G04 #@! TD*
G04 #@! TA.AperFunction,ComponentPad*
%ADD16O,4.500000X2.500000*%
G04 #@! TD*
G04 #@! TA.AperFunction,ComponentPad*
%ADD17C,1.600000*%
G04 #@! TD*
G04 #@! TA.AperFunction,ComponentPad*
%ADD18RoundRect,0.250000X0.550000X-0.550000X0.550000X0.550000X-0.550000X0.550000X-0.550000X-0.550000X0*%
G04 #@! TD*
G04 #@! TA.AperFunction,ComponentPad*
%ADD19C,1.400000*%
G04 #@! TD*
G04 #@! TA.AperFunction,ComponentPad*
%ADD20C,1.950000*%
G04 #@! TD*
G04 #@! TA.AperFunction,ComponentPad*
%ADD21C,1.440000*%
G04 #@! TD*
G04 #@! TA.AperFunction,ComponentPad*
%ADD22RoundRect,0.250000X-0.550000X-0.550000X0.550000X-0.550000X0.550000X0.550000X-0.550000X0.550000X0*%
G04 #@! TD*
G04 #@! TA.AperFunction,ComponentPad*
%ADD23R,1.905000X2.000000*%
G04 #@! TD*
G04 #@! TA.AperFunction,ComponentPad*
%ADD24O,1.905000X2.000000*%
G04 #@! TD*
G04 #@! TA.AperFunction,ComponentPad*
%ADD25R,1.600000X1.600000*%
G04 #@! TD*
G04 #@! TA.AperFunction,ComponentPad*
%ADD26O,1.600000X1.600000*%
G04 #@! TD*
G04 #@! TA.AperFunction,ComponentPad*
%ADD27C,2.000000*%
G04 #@! TD*
G04 #@! TA.AperFunction,ComponentPad*
%ADD28RoundRect,0.250001X0.949999X-0.949999X0.949999X0.949999X-0.949999X0.949999X-0.949999X-0.949999X0*%
G04 #@! TD*
G04 #@! TA.AperFunction,ComponentPad*
%ADD29R,3.200000X3.200000*%
G04 #@! TD*
G04 #@! TA.AperFunction,ComponentPad*
%ADD30C,3.200000*%
G04 #@! TD*
G04 #@! TA.AperFunction,ComponentPad*
%ADD31RoundRect,0.250000X1.750000X-1.750000X1.750000X1.750000X-1.750000X1.750000X-1.750000X-1.750000X0*%
G04 #@! TD*
G04 #@! TA.AperFunction,ComponentPad*
%ADD32C,4.000000*%
G04 #@! TD*
G04 #@! TA.AperFunction,ComponentPad*
%ADD33RoundRect,0.250000X-0.550000X0.550000X-0.550000X-0.550000X0.550000X-0.550000X0.550000X0.550000X0*%
G04 #@! TD*
G04 #@! TA.AperFunction,Conductor*
%ADD34C,2.000000*%
G04 #@! TD*
G04 #@! TA.AperFunction,Conductor*
%ADD35C,1.000000*%
G04 #@! TD*
G04 #@! TA.AperFunction,Conductor*
%ADD36C,0.500000*%
G04 #@! TD*
G04 APERTURE END LIST*
D10*
X120480000Y-138165000D03*
D11*
X123020000Y-138165000D03*
D12*
X136140000Y-138000000D03*
X131060000Y-138000000D03*
D13*
X115500000Y-99000000D03*
X115500000Y-89000000D03*
X95500000Y-104000000D03*
D14*
X95500000Y-84000000D03*
D12*
X97000000Y-122650000D03*
X97000000Y-135350000D03*
D15*
X172100000Y-91350000D03*
D16*
X172100000Y-96800000D03*
X172100000Y-102250000D03*
D17*
X128235000Y-99700000D03*
X130735000Y-99700000D03*
X168800000Y-76500000D03*
X168800000Y-79000000D03*
D18*
X149920000Y-73770000D03*
D17*
X152460000Y-73770000D03*
X155000000Y-73770000D03*
X157540000Y-73770000D03*
X160080000Y-73770000D03*
X162620000Y-73770000D03*
X165160000Y-73770000D03*
X165160000Y-66150000D03*
X162620000Y-66150000D03*
X160080000Y-66150000D03*
X157540000Y-66150000D03*
X155000000Y-66150000D03*
X152460000Y-66150000D03*
X149920000Y-66150000D03*
X134000000Y-70050000D03*
X136500000Y-70050000D03*
D19*
X143000000Y-97580000D03*
X143000000Y-92500000D03*
D20*
X151450000Y-132600000D03*
X156450000Y-132600000D03*
X161450000Y-132600000D03*
D19*
X169060000Y-86790000D03*
X169060000Y-81710000D03*
D17*
X128950000Y-80800000D03*
X131450000Y-80800000D03*
D21*
X145400000Y-70700000D03*
X145400000Y-68160000D03*
X145400000Y-65620000D03*
D12*
X170400000Y-115200000D03*
X157700000Y-115200000D03*
D17*
X134000000Y-80800000D03*
X136500000Y-80800000D03*
X149750000Y-78020000D03*
X144750000Y-78020000D03*
D19*
X139605000Y-97580000D03*
X139605000Y-92500000D03*
D22*
X157940000Y-78940000D03*
D17*
X157940000Y-81480000D03*
X157940000Y-84020000D03*
X157940000Y-86560000D03*
X165560000Y-86560000D03*
X165560000Y-84020000D03*
X165560000Y-81480000D03*
X165560000Y-78940000D03*
D23*
X128960000Y-77700000D03*
D24*
X131500000Y-77700000D03*
X134040000Y-77700000D03*
D23*
X128930000Y-67000000D03*
D24*
X131470000Y-67000000D03*
X134010000Y-67000000D03*
D25*
X105335000Y-65890000D03*
D26*
X100255000Y-65890000D03*
X100255000Y-73510000D03*
X105335000Y-73510000D03*
D20*
X103740000Y-132600000D03*
X108740000Y-132600000D03*
X113740000Y-132600000D03*
D12*
X157700000Y-109200000D03*
X170400000Y-109200000D03*
D27*
X164050000Y-102700000D03*
X164050000Y-92700000D03*
D12*
X156800000Y-104050000D03*
X156800000Y-91350000D03*
D17*
X128950000Y-70050000D03*
X131450000Y-70050000D03*
D28*
X116000000Y-72073959D03*
D12*
X116000000Y-67073959D03*
X154580000Y-123250000D03*
X169580000Y-123250000D03*
D29*
X98670000Y-116500000D03*
D30*
X103750000Y-116500000D03*
X108830000Y-116500000D03*
X113910000Y-116500000D03*
D31*
X136000000Y-122000000D03*
D32*
X136000000Y-112000000D03*
D17*
X152285000Y-63100000D03*
X149785000Y-63100000D03*
X128500000Y-86000000D03*
X131000000Y-86000000D03*
D33*
X136105000Y-89000000D03*
D17*
X133565000Y-89000000D03*
X131025000Y-89000000D03*
X128485000Y-89000000D03*
X128485000Y-96620000D03*
X131025000Y-96620000D03*
X133565000Y-96620000D03*
X136105000Y-96620000D03*
X139815000Y-88750000D03*
X144815000Y-88750000D03*
D18*
X146500000Y-100060000D03*
D17*
X146500000Y-92440000D03*
D19*
X123000000Y-134140000D03*
X123000000Y-129060000D03*
D34*
X103740000Y-132600000D02*
X99750000Y-132600000D01*
X99750000Y-132600000D02*
X97000000Y-135350000D01*
X97000000Y-122650000D02*
X99850000Y-122650000D01*
X99850000Y-122650000D02*
X103750000Y-118750000D01*
X103750000Y-118750000D02*
X103750000Y-116500000D01*
X136140000Y-138000000D02*
X136140000Y-122140000D01*
X136140000Y-122140000D02*
X136000000Y-122000000D01*
D35*
X123020000Y-138165000D02*
X123020000Y-134160000D01*
X123020000Y-134160000D02*
X123000000Y-134140000D01*
X131060000Y-138000000D02*
X123185000Y-138000000D01*
X123185000Y-138000000D02*
X123020000Y-138165000D01*
D34*
X113740000Y-132600000D02*
X113740000Y-137240000D01*
X113740000Y-137240000D02*
X119000000Y-142500000D01*
X119000000Y-142500000D02*
X141550000Y-142500000D01*
X141550000Y-142500000D02*
X151450000Y-132600000D01*
D36*
X139605000Y-97580000D02*
X142085000Y-100060000D01*
X142085000Y-100060000D02*
X146065000Y-100060000D01*
X128235000Y-99500000D02*
X128235000Y-96870000D01*
X128235000Y-96870000D02*
X128485000Y-96620000D01*
D34*
X108740000Y-116590000D02*
X108830000Y-116500000D01*
X108830000Y-110330000D02*
X102500000Y-104000000D01*
X108830000Y-116500000D02*
X108830000Y-110330000D01*
X108740000Y-132600000D02*
X108740000Y-116590000D01*
X102500000Y-104000000D02*
X95500000Y-104000000D01*
D35*
X169000000Y-79000000D02*
X165620000Y-79000000D01*
X165620000Y-79000000D02*
X165560000Y-78940000D01*
D36*
X134000000Y-80600000D02*
X128730000Y-85870000D01*
X129010000Y-67080000D02*
X128930000Y-67000000D01*
X134000000Y-80450000D02*
X135800000Y-82250000D01*
X128730000Y-85870000D02*
X128730000Y-86000000D01*
X153298636Y-82250000D02*
X156608636Y-78940000D01*
X134040000Y-77700000D02*
X134040000Y-80410000D01*
X135800000Y-82250000D02*
X153298636Y-82250000D01*
X134000000Y-80450000D02*
X134000000Y-80700000D01*
X128485000Y-89000000D02*
X128485000Y-86245000D01*
X156608636Y-78940000D02*
X157940000Y-78940000D01*
X134000000Y-80450000D02*
X134000000Y-80600000D01*
X129010000Y-70000000D02*
X129010000Y-67080000D01*
X134040000Y-77700000D02*
X134040000Y-75080000D01*
X134250000Y-77910000D02*
X134040000Y-77700000D01*
X134040000Y-80410000D02*
X134000000Y-80450000D01*
X136235000Y-96750000D02*
X136105000Y-96620000D01*
X134000000Y-80700000D02*
X133960000Y-80740000D01*
X134040000Y-75080000D02*
X129010000Y-70050000D01*
X131510000Y-67040000D02*
X131470000Y-67000000D01*
D35*
X131400000Y-67070000D02*
X131470000Y-67000000D01*
D34*
X136000000Y-122000000D02*
X153330000Y-122000000D01*
X153330000Y-122000000D02*
X154580000Y-123250000D01*
X154580000Y-130730000D02*
X156450000Y-132600000D01*
X113910000Y-116500000D02*
X119410000Y-122000000D01*
X119410000Y-122000000D02*
X136000000Y-122000000D01*
X154580000Y-123250000D02*
X154580000Y-130730000D01*
D36*
X133565000Y-92500000D02*
X134395000Y-92500000D01*
X131025000Y-96620000D02*
X131025000Y-95040000D01*
X133565000Y-92500000D02*
X133565000Y-89000000D01*
X139815000Y-92290000D02*
X139605000Y-92500000D01*
X139605000Y-92500000D02*
X142855000Y-92500000D01*
X131025000Y-95040000D02*
X133565000Y-92500000D01*
X133645000Y-88920000D02*
X133565000Y-89000000D01*
X134395000Y-92500000D02*
X139605000Y-92500000D01*
X139815000Y-88750000D02*
X139815000Y-92290000D01*
X149920000Y-78080000D02*
X149750000Y-78250000D01*
X149770000Y-73770000D02*
X146700000Y-70700000D01*
X146700000Y-70700000D02*
X145400000Y-70700000D01*
X149920000Y-73770000D02*
X149770000Y-73770000D01*
X149920000Y-73770000D02*
X149920000Y-77850000D01*
X132775000Y-87250000D02*
X131025000Y-89000000D01*
X141310000Y-87250000D02*
X141350000Y-87250000D01*
X130985000Y-88960000D02*
X131025000Y-89000000D01*
X146500000Y-92440000D02*
X146500000Y-92250000D01*
X146500000Y-92440000D02*
X141310000Y-87250000D01*
X141310000Y-87250000D02*
X132775000Y-87250000D01*
X144580000Y-84020000D02*
X157940000Y-84020000D01*
X141350000Y-87250000D02*
X144580000Y-84020000D01*
X157540000Y-73770000D02*
X159400000Y-75630000D01*
X157940000Y-81480000D02*
X157670000Y-81750000D01*
X159400000Y-75630000D02*
X159400000Y-80020000D01*
X159400000Y-80020000D02*
X157940000Y-81480000D01*
D34*
X101500000Y-107250000D02*
X94997947Y-107250000D01*
X103750000Y-116500000D02*
X103750000Y-109500000D01*
X92500000Y-87000000D02*
X95500000Y-84000000D01*
X94997947Y-107250000D02*
X92500000Y-104752053D01*
X103750000Y-109500000D02*
X101500000Y-107250000D01*
X92500000Y-104752053D02*
X92500000Y-87000000D01*
D36*
X134000000Y-70050000D02*
X134000000Y-67010000D01*
X149920000Y-63575000D02*
X149785000Y-63440000D01*
X133750000Y-67260000D02*
X134010000Y-67000000D01*
X148400000Y-66150000D02*
X149920000Y-66150000D01*
X134000000Y-67010000D02*
X134010000Y-67000000D01*
X149920000Y-66150000D02*
X149920000Y-63345000D01*
X134120000Y-66890000D02*
X147660000Y-66890000D01*
X147660000Y-66890000D02*
X148400000Y-66150000D01*
X134010000Y-67000000D02*
X134120000Y-66890000D01*
X140644000Y-95369000D02*
X142855000Y-97580000D01*
X134816000Y-95369000D02*
X140644000Y-95369000D01*
X133565000Y-96620000D02*
X134816000Y-95369000D01*
D35*
X166750000Y-84020000D02*
X169060000Y-81710000D01*
X168830000Y-81480000D02*
X169060000Y-81710000D01*
X165560000Y-84020000D02*
X166750000Y-84020000D01*
X165560000Y-81480000D02*
X168830000Y-81480000D01*
D36*
X146850000Y-68160000D02*
X145400000Y-68160000D01*
X152460000Y-73770000D02*
X155000000Y-73770000D01*
X152460000Y-73770000D02*
X146850000Y-68160000D01*
D34*
X170400000Y-109200000D02*
X170400000Y-109050000D01*
X161450000Y-132600000D02*
X164000000Y-130050000D01*
X164100000Y-102700000D02*
X170000000Y-96800000D01*
X170400000Y-109050000D02*
X164050000Y-102700000D01*
X164000000Y-102750000D02*
X164050000Y-102700000D01*
X164050000Y-102700000D02*
X164100000Y-102700000D01*
X170000000Y-96800000D02*
X172100000Y-96800000D01*
X164000000Y-130050000D02*
X164000000Y-102750000D01*
D35*
X171550000Y-91350000D02*
X172100000Y-91350000D01*
D34*
X166850000Y-95450000D02*
X170950000Y-91350000D01*
X156800000Y-91350000D02*
X160900000Y-95450000D01*
X170950000Y-91350000D02*
X172100000Y-91350000D01*
D35*
X169060000Y-88860000D02*
X171550000Y-91350000D01*
D34*
X160900000Y-95450000D02*
X166850000Y-95450000D01*
D35*
X169060000Y-86790000D02*
X169060000Y-88860000D01*
X116073959Y-72073959D02*
X121700000Y-77700000D01*
X109816041Y-65890000D02*
X116000000Y-72073959D01*
D36*
X128750000Y-77910000D02*
X128960000Y-77700000D01*
D35*
X121700000Y-77700000D02*
X128960000Y-77700000D01*
D36*
X128750000Y-80450000D02*
X128750000Y-77910000D01*
D35*
X105335000Y-65890000D02*
X109816041Y-65890000D01*
X116000000Y-72073959D02*
X116073959Y-72073959D01*
X100255000Y-83755000D02*
X100255000Y-73510000D01*
X115500000Y-99000000D02*
X100255000Y-83755000D01*
X115500000Y-89000000D02*
X115500000Y-88750000D01*
X105335000Y-78835000D02*
X105335000Y-73510000D01*
X115500000Y-89000000D02*
X105335000Y-78835000D01*
D34*
X157700000Y-115200000D02*
X157700000Y-109200000D01*
G04 #@! TA.AperFunction,Conductor*
G36*
X138975835Y-87820185D02*
G01*
X139021590Y-87872989D01*
X139031534Y-87942147D01*
X139002509Y-88005703D01*
X138996477Y-88012181D01*
X138975588Y-88033069D01*
X138975588Y-88033070D01*
X138975586Y-88033072D01*
X138967990Y-88043527D01*
X138873768Y-88173211D01*
X138795128Y-88327552D01*
X138741597Y-88492302D01*
X138714500Y-88663389D01*
X138714500Y-88836610D01*
X138732037Y-88947339D01*
X138741598Y-89007701D01*
X138795127Y-89172445D01*
X138873768Y-89326788D01*
X138975586Y-89466928D01*
X139098072Y-89589414D01*
X139213385Y-89673194D01*
X139256051Y-89728524D01*
X139264500Y-89773512D01*
X139264500Y-91475251D01*
X139244815Y-91542290D01*
X139192011Y-91588045D01*
X139187954Y-91589812D01*
X139131086Y-91613368D01*
X139131079Y-91613371D01*
X138967218Y-91722860D01*
X138967214Y-91722863D01*
X138827863Y-91862214D01*
X138827860Y-91862218D01*
X138806363Y-91894391D01*
X138752750Y-91939196D01*
X138703261Y-91949500D01*
X134239500Y-91949500D01*
X134172461Y-91929815D01*
X134126706Y-91877011D01*
X134115500Y-91825500D01*
X134115500Y-90023512D01*
X134135185Y-89956473D01*
X134166615Y-89923194D01*
X134181520Y-89912365D01*
X134281928Y-89839414D01*
X134404414Y-89716928D01*
X134506232Y-89576788D01*
X134570516Y-89450621D01*
X134618488Y-89399827D01*
X134686309Y-89383031D01*
X134752444Y-89405568D01*
X134795896Y-89460282D01*
X134805000Y-89506916D01*
X134805000Y-89599970D01*
X134805001Y-89599987D01*
X134815494Y-89702697D01*
X134870641Y-89869119D01*
X134870643Y-89869124D01*
X134962684Y-90018345D01*
X135086654Y-90142315D01*
X135235875Y-90234356D01*
X135235880Y-90234358D01*
X135402302Y-90289505D01*
X135402309Y-90289506D01*
X135505019Y-90299999D01*
X135704999Y-90299999D01*
X136505000Y-90299999D01*
X136704972Y-90299999D01*
X136704986Y-90299998D01*
X136807697Y-90289505D01*
X136974119Y-90234358D01*
X136974124Y-90234356D01*
X137123345Y-90142315D01*
X137247315Y-90018345D01*
X137339356Y-89869124D01*
X137339358Y-89869119D01*
X137394505Y-89702697D01*
X137394506Y-89702690D01*
X137404999Y-89599986D01*
X137405000Y-89599973D01*
X137405000Y-89400000D01*
X136505000Y-89400000D01*
X136505000Y-90299999D01*
X135704999Y-90299999D01*
X135705000Y-90299998D01*
X135705000Y-89124000D01*
X135714994Y-89089962D01*
X135732259Y-89154394D01*
X135784920Y-89245606D01*
X135859394Y-89320080D01*
X135950606Y-89372741D01*
X136052339Y-89400000D01*
X136157661Y-89400000D01*
X136259394Y-89372741D01*
X136350606Y-89320080D01*
X136425080Y-89245606D01*
X136477741Y-89154394D01*
X136505000Y-89052661D01*
X136505000Y-88947339D01*
X136477741Y-88845606D01*
X136425080Y-88754394D01*
X136350606Y-88679920D01*
X136259394Y-88627259D01*
X136189627Y-88608565D01*
X136229000Y-88600000D01*
X137404999Y-88600000D01*
X137404999Y-88400028D01*
X137404998Y-88400013D01*
X137394505Y-88297302D01*
X137339358Y-88130880D01*
X137339356Y-88130875D01*
X137252215Y-87989597D01*
X137233775Y-87922204D01*
X137254698Y-87855541D01*
X137308340Y-87810771D01*
X137357754Y-87800500D01*
X138908796Y-87800500D01*
X138975835Y-87820185D01*
G37*
G04 #@! TD.AperFunction*
G04 #@! TA.AperFunction,Conductor*
G36*
X174442539Y-60520185D02*
G01*
X174488294Y-60572989D01*
X174499500Y-60624500D01*
X174499500Y-89675500D01*
X174479815Y-89742539D01*
X174427011Y-89788294D01*
X174375500Y-89799500D01*
X171182940Y-89799500D01*
X171115901Y-89779815D01*
X171095259Y-89763181D01*
X169896819Y-88564741D01*
X169863334Y-88503418D01*
X169860500Y-88477060D01*
X169860500Y-87430434D01*
X169880185Y-87363395D01*
X169881398Y-87361543D01*
X169946632Y-87263914D01*
X170022051Y-87081835D01*
X170044820Y-86967371D01*
X170060500Y-86888543D01*
X170060500Y-86691456D01*
X170022052Y-86498170D01*
X170022051Y-86498169D01*
X170022051Y-86498165D01*
X169990688Y-86422447D01*
X169946635Y-86316092D01*
X169946628Y-86316079D01*
X169837139Y-86152218D01*
X169837136Y-86152214D01*
X169697785Y-86012863D01*
X169697781Y-86012860D01*
X169533920Y-85903371D01*
X169533907Y-85903364D01*
X169351839Y-85827950D01*
X169351829Y-85827947D01*
X169158543Y-85789500D01*
X169158541Y-85789500D01*
X168961459Y-85789500D01*
X168961457Y-85789500D01*
X168768170Y-85827947D01*
X168768160Y-85827950D01*
X168586092Y-85903364D01*
X168586079Y-85903371D01*
X168422218Y-86012860D01*
X168422214Y-86012863D01*
X168282863Y-86152214D01*
X168282860Y-86152218D01*
X168173371Y-86316079D01*
X168173364Y-86316092D01*
X168097950Y-86498160D01*
X168097947Y-86498170D01*
X168059500Y-86691456D01*
X168059500Y-86691459D01*
X168059500Y-86888541D01*
X168059500Y-86888543D01*
X168059499Y-86888543D01*
X168097947Y-87081829D01*
X168097950Y-87081839D01*
X168173364Y-87263907D01*
X168173371Y-87263919D01*
X168238602Y-87361543D01*
X168259480Y-87428220D01*
X168259500Y-87430434D01*
X168259500Y-88938846D01*
X168290261Y-89093489D01*
X168290264Y-89093501D01*
X168350602Y-89239172D01*
X168350609Y-89239185D01*
X168438210Y-89370288D01*
X168438213Y-89370292D01*
X169513181Y-90445259D01*
X169546666Y-90506582D01*
X169549500Y-90532940D01*
X169549500Y-90859953D01*
X169529815Y-90926992D01*
X169513181Y-90947634D01*
X166347634Y-94113181D01*
X166286311Y-94146666D01*
X166259953Y-94149500D01*
X164912986Y-94149500D01*
X164845947Y-94129815D01*
X164800192Y-94077011D01*
X164790248Y-94007853D01*
X164790499Y-94006184D01*
X164050000Y-93265686D01*
X163309473Y-94006211D01*
X163300531Y-94075397D01*
X163255534Y-94128848D01*
X163188782Y-94149487D01*
X163187013Y-94149500D01*
X161490046Y-94149500D01*
X161423007Y-94129815D01*
X161402365Y-94113181D01*
X159953940Y-92664756D01*
X159871131Y-92581947D01*
X162550000Y-92581947D01*
X162550000Y-92818052D01*
X162586934Y-93051247D01*
X162659897Y-93275802D01*
X162743814Y-93440498D01*
X163484314Y-92700000D01*
X163418488Y-92634174D01*
X163550000Y-92634174D01*
X163550000Y-92765826D01*
X163584075Y-92892993D01*
X163649901Y-93007007D01*
X163742993Y-93100099D01*
X163857007Y-93165925D01*
X163984174Y-93200000D01*
X164115826Y-93200000D01*
X164242993Y-93165925D01*
X164357007Y-93100099D01*
X164450099Y-93007007D01*
X164515925Y-92892993D01*
X164550000Y-92765826D01*
X164550000Y-92699999D01*
X164615686Y-92699999D01*
X164615686Y-92700000D01*
X165356184Y-93440499D01*
X165440104Y-93275797D01*
X165513065Y-93051247D01*
X165550000Y-92818052D01*
X165550000Y-92581947D01*
X165513065Y-92348752D01*
X165440102Y-92124197D01*
X165356184Y-91959499D01*
X164615686Y-92699999D01*
X164550000Y-92699999D01*
X164550000Y-92634174D01*
X164515925Y-92507007D01*
X164450099Y-92392993D01*
X164357007Y-92299901D01*
X164242993Y-92234075D01*
X164115826Y-92200000D01*
X163984174Y-92200000D01*
X163857007Y-92234075D01*
X163742993Y-92299901D01*
X163649901Y-92392993D01*
X163584075Y-92507007D01*
X163550000Y-92634174D01*
X163418488Y-92634174D01*
X162743813Y-91959499D01*
X162743813Y-91959500D01*
X162659898Y-92124194D01*
X162586934Y-92348752D01*
X162550000Y-92581947D01*
X159871131Y-92581947D01*
X159815795Y-92526611D01*
X158682998Y-91393813D01*
X163309499Y-91393813D01*
X164050000Y-92134314D01*
X164050001Y-92134314D01*
X164790498Y-91393814D01*
X164625802Y-91309897D01*
X164401247Y-91236934D01*
X164401248Y-91236934D01*
X164168052Y-91200000D01*
X163931948Y-91200000D01*
X163698752Y-91236934D01*
X163474194Y-91309898D01*
X163309500Y-91393813D01*
X163309499Y-91393813D01*
X158682998Y-91393813D01*
X158272925Y-90983740D01*
X158242675Y-90934377D01*
X158190569Y-90774010D01*
X158083342Y-90563566D01*
X158061091Y-90532940D01*
X157944517Y-90372490D01*
X157777510Y-90205483D01*
X157586433Y-90066657D01*
X157531184Y-90038506D01*
X157375996Y-89959433D01*
X157151368Y-89886446D01*
X156918097Y-89849500D01*
X156918092Y-89849500D01*
X156681908Y-89849500D01*
X156681903Y-89849500D01*
X156448631Y-89886446D01*
X156224003Y-89959433D01*
X156013566Y-90066657D01*
X155975328Y-90094439D01*
X155822490Y-90205483D01*
X155822488Y-90205485D01*
X155822487Y-90205485D01*
X155655485Y-90372487D01*
X155655485Y-90372488D01*
X155655483Y-90372490D01*
X155602613Y-90445259D01*
X155516657Y-90563566D01*
X155409433Y-90774003D01*
X155336446Y-90998631D01*
X155299500Y-91231902D01*
X155299500Y-91468097D01*
X155336446Y-91701368D01*
X155409433Y-91925996D01*
X155460432Y-92026086D01*
X155516657Y-92136433D01*
X155655483Y-92327510D01*
X155822490Y-92494517D01*
X156013567Y-92633343D01*
X156075219Y-92664756D01*
X156224010Y-92740569D01*
X156384377Y-92792675D01*
X156433740Y-92822925D01*
X159904908Y-96294092D01*
X159904922Y-96294107D01*
X159908033Y-96297218D01*
X159908034Y-96297219D01*
X160052781Y-96441966D01*
X160052784Y-96441968D01*
X160052785Y-96441969D01*
X160176683Y-96531986D01*
X160214808Y-96559685D01*
X160218390Y-96562287D01*
X160314200Y-96611105D01*
X160400781Y-96655221D01*
X160400787Y-96655223D01*
X160558945Y-96706611D01*
X160558946Y-96706611D01*
X160595466Y-96718477D01*
X160797648Y-96750500D01*
X160797649Y-96750500D01*
X166952351Y-96750500D01*
X166952352Y-96750500D01*
X167154535Y-96718477D01*
X167280568Y-96677526D01*
X167280569Y-96677526D01*
X167349214Y-96655222D01*
X167349216Y-96655220D01*
X167349219Y-96655220D01*
X167497828Y-96579500D01*
X167531611Y-96562287D01*
X167697219Y-96441966D01*
X171202365Y-92936817D01*
X171263688Y-92903333D01*
X171290046Y-92900499D01*
X174375500Y-92900499D01*
X174442539Y-92920184D01*
X174488294Y-92972988D01*
X174499500Y-93024499D01*
X174499500Y-95707693D01*
X174479815Y-95774732D01*
X174427011Y-95820487D01*
X174357853Y-95830431D01*
X174294297Y-95801406D01*
X174286204Y-95793257D01*
X174286100Y-95793362D01*
X174110081Y-95617343D01*
X174110076Y-95617339D01*
X173912642Y-95473896D01*
X173912641Y-95473895D01*
X173912639Y-95473894D01*
X173695185Y-95363096D01*
X173463076Y-95287679D01*
X173463074Y-95287678D01*
X173463072Y-95287678D01*
X173240008Y-95252348D01*
X173222027Y-95249500D01*
X170977973Y-95249500D01*
X170959992Y-95252348D01*
X170736927Y-95287678D01*
X170504812Y-95363097D01*
X170287362Y-95473893D01*
X170287357Y-95473896D01*
X170284714Y-95475817D01*
X170283540Y-95476235D01*
X170283212Y-95476437D01*
X170283169Y-95476368D01*
X170218908Y-95499298D01*
X170211828Y-95499500D01*
X170102352Y-95499500D01*
X169897648Y-95499500D01*
X169850779Y-95506923D01*
X169695468Y-95531522D01*
X169695467Y-95531522D01*
X169631360Y-95552351D01*
X169631361Y-95552352D01*
X169500776Y-95594781D01*
X169456495Y-95617345D01*
X169318388Y-95687713D01*
X169152778Y-95808036D01*
X163390937Y-101569876D01*
X163372189Y-101584658D01*
X163372329Y-101584850D01*
X163202784Y-101708031D01*
X163202778Y-101708036D01*
X163008036Y-101902778D01*
X162887713Y-102068388D01*
X162841246Y-102159585D01*
X162841245Y-102159584D01*
X162794779Y-102250781D01*
X162794779Y-102250782D01*
X162731523Y-102445461D01*
X162731523Y-102445464D01*
X162699500Y-102647648D01*
X162699500Y-129459953D01*
X162679815Y-129526992D01*
X162663181Y-129547634D01*
X160458036Y-131752778D01*
X160337716Y-131918384D01*
X160337714Y-131918387D01*
X160244781Y-132100779D01*
X160181522Y-132295468D01*
X160181522Y-132295469D01*
X160149500Y-132497648D01*
X160149500Y-132702352D01*
X160181523Y-132904535D01*
X160244780Y-133099218D01*
X160337713Y-133281611D01*
X160458034Y-133447219D01*
X160602781Y-133591966D01*
X160768389Y-133712287D01*
X160950782Y-133805220D01*
X161145465Y-133868477D01*
X161347648Y-133900500D01*
X161347649Y-133900500D01*
X161552351Y-133900500D01*
X161552352Y-133900500D01*
X161754535Y-133868477D01*
X161949218Y-133805220D01*
X162131611Y-133712287D01*
X162297219Y-133591966D01*
X164840150Y-131049032D01*
X164840157Y-131049027D01*
X164847217Y-131041967D01*
X164847219Y-131041966D01*
X164991966Y-130897219D01*
X164991968Y-130897215D01*
X164991971Y-130897213D01*
X165044732Y-130824590D01*
X165112287Y-130731610D01*
X165205221Y-130549218D01*
X165268477Y-130354534D01*
X165300500Y-130152351D01*
X165300500Y-129947648D01*
X165300500Y-123138575D01*
X167880000Y-123138575D01*
X167880000Y-123361424D01*
X167909085Y-123582354D01*
X167909088Y-123582367D01*
X167966763Y-123797618D01*
X168052045Y-124003502D01*
X168052050Y-124003513D01*
X168128458Y-124135855D01*
X168128459Y-124135856D01*
X168980000Y-123284315D01*
X168980000Y-123328991D01*
X169020889Y-123481591D01*
X169099881Y-123618408D01*
X169211592Y-123730119D01*
X169348409Y-123809111D01*
X169501009Y-123850000D01*
X169545685Y-123850000D01*
X168694143Y-124701540D01*
X168694143Y-124701541D01*
X168826487Y-124777950D01*
X168826488Y-124777951D01*
X169032381Y-124863236D01*
X169247632Y-124920911D01*
X169247645Y-124920914D01*
X169468575Y-124950000D01*
X169691425Y-124950000D01*
X169912354Y-124920914D01*
X169912367Y-124920911D01*
X170127618Y-124863236D01*
X170333503Y-124777954D01*
X170333514Y-124777949D01*
X170465856Y-124701541D01*
X170465856Y-124701540D01*
X169614315Y-123850000D01*
X169658991Y-123850000D01*
X169811591Y-123809111D01*
X169948408Y-123730119D01*
X170060119Y-123618408D01*
X170139111Y-123481591D01*
X170180000Y-123328991D01*
X170180000Y-123284315D01*
X171031540Y-124135856D01*
X171031541Y-124135856D01*
X171107949Y-124003514D01*
X171107954Y-124003503D01*
X171193236Y-123797618D01*
X171250911Y-123582367D01*
X171250914Y-123582354D01*
X171280000Y-123361424D01*
X171280000Y-123138575D01*
X171250914Y-122917645D01*
X171250911Y-122917632D01*
X171193236Y-122702381D01*
X171107951Y-122496488D01*
X171107950Y-122496487D01*
X171031541Y-122364143D01*
X171031540Y-122364143D01*
X170180000Y-123215683D01*
X170180000Y-123171009D01*
X170139111Y-123018409D01*
X170060119Y-122881592D01*
X169948408Y-122769881D01*
X169811591Y-122690889D01*
X169658991Y-122650000D01*
X169614313Y-122650000D01*
X170465855Y-121798458D01*
X170333513Y-121722050D01*
X170333502Y-121722045D01*
X170127618Y-121636763D01*
X169912367Y-121579088D01*
X169912354Y-121579085D01*
X169691425Y-121550000D01*
X169468575Y-121550000D01*
X169247645Y-121579085D01*
X169247632Y-121579088D01*
X169032381Y-121636763D01*
X168826502Y-121722041D01*
X168826497Y-121722044D01*
X168694143Y-121798458D01*
X168694142Y-121798458D01*
X169545685Y-122650000D01*
X169501009Y-122650000D01*
X169348409Y-122690889D01*
X169211592Y-122769881D01*
X169099881Y-122881592D01*
X169020889Y-123018409D01*
X168980000Y-123171009D01*
X168980000Y-123215684D01*
X168128458Y-122364142D01*
X168128458Y-122364143D01*
X168052044Y-122496497D01*
X168052041Y-122496502D01*
X167966763Y-122702381D01*
X167909088Y-122917632D01*
X167909085Y-122917645D01*
X167880000Y-123138575D01*
X165300500Y-123138575D01*
X165300500Y-115088575D01*
X168700000Y-115088575D01*
X168700000Y-115311424D01*
X168729085Y-115532354D01*
X168729088Y-115532367D01*
X168786763Y-115747618D01*
X168872045Y-115953502D01*
X168872050Y-115953513D01*
X168948458Y-116085855D01*
X168948459Y-116085856D01*
X169800000Y-115234315D01*
X169800000Y-115278991D01*
X169840889Y-115431591D01*
X169919881Y-115568408D01*
X170031592Y-115680119D01*
X170168409Y-115759111D01*
X170321009Y-115800000D01*
X170365685Y-115800000D01*
X169514143Y-116651540D01*
X169514143Y-116651541D01*
X169646487Y-116727950D01*
X169646488Y-116727951D01*
X169852381Y-116813236D01*
X170067632Y-116870911D01*
X170067645Y-116870914D01*
X170288575Y-116900000D01*
X170511425Y-116900000D01*
X170732354Y-116870914D01*
X170732367Y-116870911D01*
X170947618Y-116813236D01*
X171153503Y-116727954D01*
X171153514Y-116727949D01*
X171285856Y-116651541D01*
X171285856Y-116651540D01*
X170434315Y-115800000D01*
X170478991Y-115800000D01*
X170631591Y-115759111D01*
X170768408Y-115680119D01*
X170880119Y-115568408D01*
X170959111Y-115431591D01*
X171000000Y-115278991D01*
X171000000Y-115234316D01*
X171851540Y-116085856D01*
X171851541Y-116085856D01*
X171927949Y-115953514D01*
X171927954Y-115953503D01*
X172013236Y-115747618D01*
X172070911Y-115532367D01*
X172070914Y-115532354D01*
X172100000Y-115311424D01*
X172100000Y-115088575D01*
X172070914Y-114867645D01*
X172070911Y-114867632D01*
X172013236Y-114652381D01*
X171927951Y-114446488D01*
X171927950Y-114446487D01*
X171851541Y-114314143D01*
X171851540Y-114314143D01*
X171000000Y-115165683D01*
X171000000Y-115121009D01*
X170959111Y-114968409D01*
X170880119Y-114831592D01*
X170768408Y-114719881D01*
X170631591Y-114640889D01*
X170478991Y-114600000D01*
X170434313Y-114600000D01*
X171285855Y-113748458D01*
X171153513Y-113672050D01*
X171153502Y-113672045D01*
X170947618Y-113586763D01*
X170732367Y-113529088D01*
X170732354Y-113529085D01*
X170511425Y-113500000D01*
X170288575Y-113500000D01*
X170067645Y-113529085D01*
X170067632Y-113529088D01*
X169852381Y-113586763D01*
X169646502Y-113672041D01*
X169646497Y-113672044D01*
X169514143Y-113748458D01*
X169514142Y-113748458D01*
X170365685Y-114600000D01*
X170321009Y-114600000D01*
X170168409Y-114640889D01*
X170031592Y-114719881D01*
X169919881Y-114831592D01*
X169840889Y-114968409D01*
X169800000Y-115121009D01*
X169800000Y-115165684D01*
X168948458Y-114314142D01*
X168948458Y-114314143D01*
X168872044Y-114446497D01*
X168872041Y-114446502D01*
X168786763Y-114652381D01*
X168729088Y-114867632D01*
X168729085Y-114867645D01*
X168700000Y-115088575D01*
X165300500Y-115088575D01*
X165300500Y-106089047D01*
X165320185Y-106022008D01*
X165372989Y-105976253D01*
X165442147Y-105966309D01*
X165505703Y-105995334D01*
X165512181Y-106001366D01*
X168884294Y-109373479D01*
X168917779Y-109434802D01*
X168919086Y-109441761D01*
X168936446Y-109551365D01*
X168936447Y-109551368D01*
X169009432Y-109775992D01*
X169116657Y-109986433D01*
X169255483Y-110177510D01*
X169422490Y-110344517D01*
X169613567Y-110483343D01*
X169712991Y-110534002D01*
X169824003Y-110590566D01*
X169824005Y-110590566D01*
X169824008Y-110590568D01*
X169944412Y-110629689D01*
X170048631Y-110663553D01*
X170281903Y-110700500D01*
X170281908Y-110700500D01*
X170518097Y-110700500D01*
X170751368Y-110663553D01*
X170975992Y-110590568D01*
X171186433Y-110483343D01*
X171377510Y-110344517D01*
X171544517Y-110177510D01*
X171683343Y-109986433D01*
X171790568Y-109775992D01*
X171863553Y-109551368D01*
X171882015Y-109434802D01*
X171900500Y-109318097D01*
X171900500Y-109081902D01*
X171863553Y-108848631D01*
X171790566Y-108624003D01*
X171704567Y-108455222D01*
X171683343Y-108413567D01*
X171544517Y-108222490D01*
X171377510Y-108055483D01*
X171186433Y-107916657D01*
X171039617Y-107841850D01*
X171008231Y-107819046D01*
X166001865Y-102812680D01*
X165997526Y-102804734D01*
X165990279Y-102799309D01*
X165981044Y-102774549D01*
X165968380Y-102751357D01*
X165969025Y-102742327D01*
X165965862Y-102733845D01*
X165971478Y-102708024D01*
X165973364Y-102681665D01*
X165979182Y-102672611D01*
X165980714Y-102665572D01*
X166001859Y-102637325D01*
X170373727Y-98265456D01*
X170435048Y-98231973D01*
X170499789Y-98236602D01*
X170500181Y-98235398D01*
X170504813Y-98236903D01*
X170504815Y-98236904D01*
X170736924Y-98312321D01*
X170977973Y-98350500D01*
X170977974Y-98350500D01*
X173222026Y-98350500D01*
X173222027Y-98350500D01*
X173463076Y-98312321D01*
X173695185Y-98236904D01*
X173912639Y-98126106D01*
X174110083Y-97982655D01*
X174282655Y-97810083D01*
X174282655Y-97810082D01*
X174286100Y-97806638D01*
X174287278Y-97807816D01*
X174339708Y-97773584D01*
X174409575Y-97773080D01*
X174468625Y-97810429D01*
X174498107Y-97873774D01*
X174499500Y-97892306D01*
X174499500Y-100875263D01*
X174479815Y-100942302D01*
X174427011Y-100988057D01*
X174357853Y-100998001D01*
X174294297Y-100968976D01*
X174287819Y-100962944D01*
X174256336Y-100931461D01*
X174256329Y-100931455D01*
X174074338Y-100791809D01*
X173875668Y-100677106D01*
X173875659Y-100677102D01*
X173663730Y-100589318D01*
X173442137Y-100529942D01*
X173214710Y-100500001D01*
X173214694Y-100500000D01*
X172500000Y-100500000D01*
X172500000Y-101615254D01*
X172455258Y-101585359D01*
X172318767Y-101528822D01*
X172173869Y-101500000D01*
X172026131Y-101500000D01*
X171881233Y-101528822D01*
X171744742Y-101585359D01*
X171700000Y-101615254D01*
X171700000Y-100500000D01*
X170985306Y-100500000D01*
X170985289Y-100500001D01*
X170757862Y-100529942D01*
X170536269Y-100589318D01*
X170324340Y-100677102D01*
X170324331Y-100677106D01*
X170125661Y-100791809D01*
X169943670Y-100931455D01*
X169943663Y-100931461D01*
X169781461Y-101093663D01*
X169781455Y-101093670D01*
X169641809Y-101275661D01*
X169527106Y-101474331D01*
X169527102Y-101474340D01*
X169439318Y-101686269D01*
X169395446Y-101850000D01*
X171465255Y-101850000D01*
X171435359Y-101894742D01*
X171378822Y-102031233D01*
X171350000Y-102176131D01*
X171350000Y-102323869D01*
X171378822Y-102468767D01*
X171435359Y-102605258D01*
X171465255Y-102650000D01*
X169395446Y-102650000D01*
X169439318Y-102813730D01*
X169527102Y-103025659D01*
X169527106Y-103025668D01*
X169641809Y-103224338D01*
X169781455Y-103406329D01*
X169781461Y-103406336D01*
X169943663Y-103568538D01*
X169943670Y-103568544D01*
X170125661Y-103708190D01*
X170324331Y-103822893D01*
X170324340Y-103822897D01*
X170536269Y-103910681D01*
X170757862Y-103970057D01*
X170985289Y-103999998D01*
X170985306Y-104000000D01*
X171700000Y-104000000D01*
X171700000Y-102884745D01*
X171744742Y-102914641D01*
X171881233Y-102971178D01*
X172026131Y-103000000D01*
X172173869Y-103000000D01*
X172318767Y-102971178D01*
X172455258Y-102914641D01*
X172500000Y-102884745D01*
X172500000Y-104000000D01*
X173214694Y-104000000D01*
X173214710Y-103999998D01*
X173442137Y-103970057D01*
X173663730Y-103910681D01*
X173875659Y-103822897D01*
X173875668Y-103822893D01*
X174074338Y-103708190D01*
X174256329Y-103568544D01*
X174256336Y-103568538D01*
X174287819Y-103537056D01*
X174349142Y-103503571D01*
X174418834Y-103508555D01*
X174474767Y-103550427D01*
X174499184Y-103615891D01*
X174499500Y-103624737D01*
X174499500Y-144375500D01*
X174479815Y-144442539D01*
X174427011Y-144488294D01*
X174375500Y-144499500D01*
X90624500Y-144499500D01*
X90557461Y-144479815D01*
X90511706Y-144427011D01*
X90500500Y-144375500D01*
X90500500Y-140878711D01*
X92149500Y-140878711D01*
X92149500Y-141121288D01*
X92181161Y-141361785D01*
X92243947Y-141596104D01*
X92336773Y-141820205D01*
X92336776Y-141820212D01*
X92458064Y-142030289D01*
X92458066Y-142030292D01*
X92458067Y-142030293D01*
X92605733Y-142222736D01*
X92605739Y-142222743D01*
X92777256Y-142394260D01*
X92777262Y-142394265D01*
X92969711Y-142541936D01*
X93179788Y-142663224D01*
X93403900Y-142756054D01*
X93638211Y-142818838D01*
X93818586Y-142842584D01*
X93878711Y-142850500D01*
X93878712Y-142850500D01*
X94121289Y-142850500D01*
X94169388Y-142844167D01*
X94361789Y-142818838D01*
X94596100Y-142756054D01*
X94820212Y-142663224D01*
X95030289Y-142541936D01*
X95222738Y-142394265D01*
X95394265Y-142222738D01*
X95541936Y-142030289D01*
X95663224Y-141820212D01*
X95756054Y-141596100D01*
X95818838Y-141361789D01*
X95850500Y-141121288D01*
X95850500Y-140878712D01*
X95818838Y-140638211D01*
X95756054Y-140403900D01*
X95663224Y-140179788D01*
X95541936Y-139969711D01*
X95394265Y-139777262D01*
X95394260Y-139777256D01*
X95222743Y-139605739D01*
X95222736Y-139605733D01*
X95030293Y-139458067D01*
X95030292Y-139458066D01*
X95030289Y-139458064D01*
X94820212Y-139336776D01*
X94748534Y-139307086D01*
X94596104Y-139243947D01*
X94361785Y-139181161D01*
X94121289Y-139149500D01*
X94121288Y-139149500D01*
X93878712Y-139149500D01*
X93878711Y-139149500D01*
X93638214Y-139181161D01*
X93403895Y-139243947D01*
X93179794Y-139336773D01*
X93179785Y-139336777D01*
X92969706Y-139458067D01*
X92777263Y-139605733D01*
X92777256Y-139605739D01*
X92605739Y-139777256D01*
X92605733Y-139777263D01*
X92458067Y-139969706D01*
X92336777Y-140179785D01*
X92336773Y-140179794D01*
X92243947Y-140403895D01*
X92181161Y-140638214D01*
X92149500Y-140878711D01*
X90500500Y-140878711D01*
X90500500Y-135231902D01*
X95499500Y-135231902D01*
X95499500Y-135468097D01*
X95536446Y-135701368D01*
X95609433Y-135925996D01*
X95716657Y-136136433D01*
X95855483Y-136327510D01*
X96022490Y-136494517D01*
X96213567Y-136633343D01*
X96312991Y-136684002D01*
X96424003Y-136740566D01*
X96424005Y-136740566D01*
X96424008Y-136740568D01*
X96499202Y-136765000D01*
X96648631Y-136813553D01*
X96881903Y-136850500D01*
X96881908Y-136850500D01*
X97118097Y-136850500D01*
X97351368Y-136813553D01*
X97575992Y-136740568D01*
X97786433Y-136633343D01*
X97977510Y-136494517D01*
X98144517Y-136327510D01*
X98283343Y-136136433D01*
X98390568Y-135925992D01*
X98442675Y-135765620D01*
X98472922Y-135716261D01*
X100252366Y-133936819D01*
X100313689Y-133903334D01*
X100340047Y-133900500D01*
X103842351Y-133900500D01*
X103842352Y-133900500D01*
X104044534Y-133868477D01*
X104239219Y-133805220D01*
X104421610Y-133712287D01*
X104514590Y-133644732D01*
X104587213Y-133591971D01*
X104587215Y-133591968D01*
X104587219Y-133591966D01*
X104731966Y-133447219D01*
X104731968Y-133447215D01*
X104731971Y-133447213D01*
X104852283Y-133281615D01*
X104852287Y-133281610D01*
X104945220Y-133099219D01*
X105008477Y-132904534D01*
X105040500Y-132702352D01*
X105040500Y-132497648D01*
X105008477Y-132295465D01*
X104945218Y-132100776D01*
X104911503Y-132034607D01*
X104852287Y-131918390D01*
X104844556Y-131907749D01*
X104731971Y-131752786D01*
X104587213Y-131608028D01*
X104421613Y-131487715D01*
X104421612Y-131487714D01*
X104421610Y-131487713D01*
X104330412Y-131441245D01*
X104239223Y-131394781D01*
X104044534Y-131331522D01*
X103869995Y-131303878D01*
X103842352Y-131299500D01*
X99852351Y-131299500D01*
X99647648Y-131299500D01*
X99600779Y-131306923D01*
X99445468Y-131331522D01*
X99445467Y-131331522D01*
X99370419Y-131355907D01*
X99250782Y-131394779D01*
X99250781Y-131394779D01*
X99159584Y-131441245D01*
X99159585Y-131441246D01*
X99068388Y-131487713D01*
X98902778Y-131608036D01*
X96633739Y-133877074D01*
X96584377Y-133907324D01*
X96424003Y-133959433D01*
X96213566Y-134066657D01*
X96104550Y-134145862D01*
X96022490Y-134205483D01*
X96022488Y-134205485D01*
X96022487Y-134205485D01*
X95855485Y-134372487D01*
X95855485Y-134372488D01*
X95855483Y-134372490D01*
X95812371Y-134431829D01*
X95716657Y-134563566D01*
X95609433Y-134774003D01*
X95536446Y-134998631D01*
X95499500Y-135231902D01*
X90500500Y-135231902D01*
X90500500Y-114852155D01*
X96570000Y-114852155D01*
X96570000Y-116100000D01*
X97975119Y-116100000D01*
X97961049Y-116121058D01*
X97900743Y-116266649D01*
X97870000Y-116421207D01*
X97870000Y-116578793D01*
X97900743Y-116733351D01*
X97961049Y-116878942D01*
X97975119Y-116900000D01*
X96570000Y-116900000D01*
X96570000Y-118147844D01*
X96576401Y-118207372D01*
X96576403Y-118207379D01*
X96626645Y-118342086D01*
X96626649Y-118342093D01*
X96712809Y-118457187D01*
X96712812Y-118457190D01*
X96827906Y-118543350D01*
X96827913Y-118543354D01*
X96962620Y-118593596D01*
X96962627Y-118593598D01*
X97022155Y-118599999D01*
X97022172Y-118600000D01*
X98270000Y-118600000D01*
X98270000Y-117194880D01*
X98291058Y-117208951D01*
X98436649Y-117269257D01*
X98591207Y-117300000D01*
X98748793Y-117300000D01*
X98903351Y-117269257D01*
X99048942Y-117208951D01*
X99070000Y-117194880D01*
X99070000Y-118600000D01*
X100317828Y-118600000D01*
X100317844Y-118599999D01*
X100377372Y-118593598D01*
X100377379Y-118593596D01*
X100512086Y-118543354D01*
X100512093Y-118543350D01*
X100627187Y-118457190D01*
X100627190Y-118457187D01*
X100713350Y-118342093D01*
X100713354Y-118342086D01*
X100763596Y-118207379D01*
X100763598Y-118207372D01*
X100769999Y-118147844D01*
X100770000Y-118147827D01*
X100770000Y-116900000D01*
X99364881Y-116900000D01*
X99378951Y-116878942D01*
X99439257Y-116733351D01*
X99470000Y-116578793D01*
X99470000Y-116421207D01*
X99439257Y-116266649D01*
X99378951Y-116121058D01*
X99364881Y-116100000D01*
X100770000Y-116100000D01*
X100770000Y-114852172D01*
X100769999Y-114852155D01*
X100763598Y-114792627D01*
X100763596Y-114792620D01*
X100713354Y-114657913D01*
X100713350Y-114657906D01*
X100627190Y-114542812D01*
X100627187Y-114542809D01*
X100512093Y-114456649D01*
X100512086Y-114456645D01*
X100377379Y-114406403D01*
X100377372Y-114406401D01*
X100317844Y-114400000D01*
X99070000Y-114400000D01*
X99070000Y-115805119D01*
X99048942Y-115791049D01*
X98903351Y-115730743D01*
X98748793Y-115700000D01*
X98591207Y-115700000D01*
X98436649Y-115730743D01*
X98291058Y-115791049D01*
X98270000Y-115805119D01*
X98270000Y-114400000D01*
X97022155Y-114400000D01*
X96962627Y-114406401D01*
X96962620Y-114406403D01*
X96827913Y-114456645D01*
X96827906Y-114456649D01*
X96712812Y-114542809D01*
X96712809Y-114542812D01*
X96626649Y-114657906D01*
X96626645Y-114657913D01*
X96576403Y-114792620D01*
X96576401Y-114792627D01*
X96570000Y-114852155D01*
X90500500Y-114852155D01*
X90500500Y-86897648D01*
X91199500Y-86897648D01*
X91199500Y-86901726D01*
X91199500Y-104854404D01*
X91231522Y-105056587D01*
X91269863Y-105174588D01*
X91294780Y-105251272D01*
X91318536Y-105297895D01*
X91387713Y-105433664D01*
X91508034Y-105599272D01*
X91508035Y-105599273D01*
X91508036Y-105599274D01*
X94002855Y-108094092D01*
X94002869Y-108094107D01*
X94005980Y-108097218D01*
X94005981Y-108097219D01*
X94150728Y-108241966D01*
X94150731Y-108241968D01*
X94150734Y-108241971D01*
X94277548Y-108334105D01*
X94277550Y-108334107D01*
X94316332Y-108362284D01*
X94316334Y-108362285D01*
X94316337Y-108362287D01*
X94402109Y-108405990D01*
X94498728Y-108455221D01*
X94498731Y-108455222D01*
X94680315Y-108514221D01*
X94693413Y-108518477D01*
X94895596Y-108550501D01*
X94895597Y-108550501D01*
X95105410Y-108550501D01*
X95105434Y-108550500D01*
X100909953Y-108550500D01*
X100976992Y-108570185D01*
X100997634Y-108586819D01*
X102413181Y-110002366D01*
X102446666Y-110063689D01*
X102449500Y-110090047D01*
X102449500Y-115061423D01*
X102429815Y-115128462D01*
X102413181Y-115149104D01*
X102318066Y-115244218D01*
X102318060Y-115244225D01*
X102166400Y-115441873D01*
X102041837Y-115657623D01*
X102041830Y-115657638D01*
X101946498Y-115887792D01*
X101882017Y-116128438D01*
X101849501Y-116375424D01*
X101849500Y-116375441D01*
X101849500Y-116624558D01*
X101849501Y-116624575D01*
X101882017Y-116871561D01*
X101946498Y-117112207D01*
X102041830Y-117342361D01*
X102041837Y-117342376D01*
X102166400Y-117558126D01*
X102318059Y-117755773D01*
X102318060Y-117755774D01*
X102318062Y-117755776D01*
X102413182Y-117850896D01*
X102427888Y-117877827D01*
X102444477Y-117903641D01*
X102445368Y-117909840D01*
X102446666Y-117912217D01*
X102449500Y-117938576D01*
X102449500Y-118159953D01*
X102429815Y-118226992D01*
X102413181Y-118247634D01*
X99347634Y-121313181D01*
X99286311Y-121346666D01*
X99259953Y-121349500D01*
X97782530Y-121349500D01*
X97726235Y-121335985D01*
X97575996Y-121259433D01*
X97351368Y-121186446D01*
X97118097Y-121149500D01*
X97118092Y-121149500D01*
X96881908Y-121149500D01*
X96881903Y-121149500D01*
X96648631Y-121186446D01*
X96424003Y-121259433D01*
X96213566Y-121366657D01*
X96104550Y-121445862D01*
X96022490Y-121505483D01*
X96022488Y-121505485D01*
X96022487Y-121505485D01*
X95855485Y-121672487D01*
X95855485Y-121672488D01*
X95855483Y-121672490D01*
X95795862Y-121754550D01*
X95716657Y-121863566D01*
X95609433Y-122074003D01*
X95536446Y-122298631D01*
X95499500Y-122531902D01*
X95499500Y-122768097D01*
X95536446Y-123001368D01*
X95609433Y-123225996D01*
X95710577Y-123424500D01*
X95716657Y-123436433D01*
X95855483Y-123627510D01*
X96022490Y-123794517D01*
X96213567Y-123933343D01*
X96297747Y-123976235D01*
X96424003Y-124040566D01*
X96424005Y-124040566D01*
X96424008Y-124040568D01*
X96544412Y-124079689D01*
X96648631Y-124113553D01*
X96881903Y-124150500D01*
X96881908Y-124150500D01*
X97118097Y-124150500D01*
X97351368Y-124113553D01*
X97575992Y-124040568D01*
X97726235Y-123964014D01*
X97782530Y-123950500D01*
X99952351Y-123950500D01*
X99952352Y-123950500D01*
X100154535Y-123918477D01*
X100251876Y-123886848D01*
X100349219Y-123855220D01*
X100468355Y-123794517D01*
X100531611Y-123762287D01*
X100697219Y-123641966D01*
X104741966Y-119597219D01*
X104862287Y-119431611D01*
X104908753Y-119340414D01*
X104955220Y-119249219D01*
X105018477Y-119054534D01*
X105050500Y-118852352D01*
X105050500Y-117938576D01*
X105070185Y-117871537D01*
X105086814Y-117850899D01*
X105181938Y-117755776D01*
X105333599Y-117558127D01*
X105458164Y-117342373D01*
X105553502Y-117112207D01*
X105617982Y-116871565D01*
X105650500Y-116624565D01*
X105650500Y-116375435D01*
X105617982Y-116128435D01*
X105553502Y-115887793D01*
X105488450Y-115730743D01*
X105458169Y-115657638D01*
X105458162Y-115657623D01*
X105333599Y-115441873D01*
X105181939Y-115244225D01*
X105181933Y-115244218D01*
X105086819Y-115149104D01*
X105053334Y-115087781D01*
X105050500Y-115061423D01*
X105050500Y-109607487D01*
X105050501Y-109607462D01*
X105050501Y-109397650D01*
X105050501Y-109397649D01*
X105018477Y-109195466D01*
X105018476Y-109195462D01*
X105018476Y-109195461D01*
X104955222Y-109000784D01*
X104955221Y-109000781D01*
X104862287Y-108818390D01*
X104741966Y-108652781D01*
X102347221Y-106258036D01*
X102347219Y-106258034D01*
X102181611Y-106137713D01*
X102014474Y-106052553D01*
X102014474Y-106052552D01*
X102014472Y-106052552D01*
X101999224Y-106044782D01*
X101999221Y-106044781D01*
X101999219Y-106044780D01*
X101901876Y-106013151D01*
X101878003Y-106005394D01*
X101804535Y-105981522D01*
X101629995Y-105953878D01*
X101602352Y-105949500D01*
X101602351Y-105949500D01*
X95587993Y-105949500D01*
X95520954Y-105929815D01*
X95500312Y-105913181D01*
X95181805Y-105594673D01*
X95148320Y-105533350D01*
X95153304Y-105463658D01*
X95195176Y-105407725D01*
X95260640Y-105383308D01*
X95288875Y-105384518D01*
X95389778Y-105400500D01*
X95389780Y-105400500D01*
X95610221Y-105400500D01*
X95610222Y-105400500D01*
X95827951Y-105366015D01*
X96010911Y-105306568D01*
X96049227Y-105300500D01*
X101909953Y-105300500D01*
X101976992Y-105320185D01*
X101997634Y-105336819D01*
X107493181Y-110832365D01*
X107526666Y-110893688D01*
X107529500Y-110920046D01*
X107529500Y-115061423D01*
X107509815Y-115128462D01*
X107493181Y-115149104D01*
X107398066Y-115244218D01*
X107398060Y-115244225D01*
X107246400Y-115441873D01*
X107121837Y-115657623D01*
X107121830Y-115657638D01*
X107026498Y-115887792D01*
X106962017Y-116128438D01*
X106929501Y-116375424D01*
X106929500Y-116375441D01*
X106929500Y-116624558D01*
X106929501Y-116624575D01*
X106962017Y-116871561D01*
X107026498Y-117112207D01*
X107121830Y-117342361D01*
X107121837Y-117342376D01*
X107246400Y-117558126D01*
X107398058Y-117755772D01*
X107398060Y-117755774D01*
X107398062Y-117755776D01*
X107403177Y-117760891D01*
X107436665Y-117822210D01*
X107439500Y-117848576D01*
X107439500Y-132702351D01*
X107471522Y-132904534D01*
X107534781Y-133099223D01*
X107598691Y-133224653D01*
X107627712Y-133281609D01*
X107627715Y-133281613D01*
X107748028Y-133447213D01*
X107892786Y-133591971D01*
X108047749Y-133704556D01*
X108058390Y-133712287D01*
X108174607Y-133771503D01*
X108240776Y-133805218D01*
X108240778Y-133805218D01*
X108240781Y-133805220D01*
X108345137Y-133839127D01*
X108435465Y-133868477D01*
X108489744Y-133877074D01*
X108637648Y-133900500D01*
X108637649Y-133900500D01*
X108842351Y-133900500D01*
X108842352Y-133900500D01*
X109044534Y-133868477D01*
X109239219Y-133805220D01*
X109421610Y-133712287D01*
X109514590Y-133644732D01*
X109587213Y-133591971D01*
X109587215Y-133591968D01*
X109587219Y-133591966D01*
X109731966Y-133447219D01*
X109731968Y-133447215D01*
X109731971Y-133447213D01*
X109852283Y-133281615D01*
X109852287Y-133281610D01*
X109945220Y-133099219D01*
X110008477Y-132904534D01*
X110040500Y-132702352D01*
X110040500Y-132497648D01*
X112439500Y-132497648D01*
X112439500Y-137342356D01*
X112442450Y-137360978D01*
X112455495Y-137443342D01*
X112471523Y-137544534D01*
X112503151Y-137641876D01*
X112534781Y-137739224D01*
X112547916Y-137765000D01*
X112548682Y-137766503D01*
X112627713Y-137921611D01*
X112748034Y-138087219D01*
X118152781Y-143491966D01*
X118318389Y-143612287D01*
X118409585Y-143658753D01*
X118500776Y-143705218D01*
X118500778Y-143705218D01*
X118500781Y-143705220D01*
X118598122Y-143736848D01*
X118695465Y-143768477D01*
X118796557Y-143784488D01*
X118897648Y-143800500D01*
X118897649Y-143800500D01*
X141652351Y-143800500D01*
X141652352Y-143800500D01*
X141854535Y-143768477D01*
X141951876Y-143736848D01*
X142049219Y-143705220D01*
X142140414Y-143658753D01*
X142231611Y-143612287D01*
X142397219Y-143491966D01*
X145010474Y-140878711D01*
X169149500Y-140878711D01*
X169149500Y-141121288D01*
X169181161Y-141361785D01*
X169243947Y-141596104D01*
X169336773Y-141820205D01*
X169336776Y-141820212D01*
X169458064Y-142030289D01*
X169458066Y-142030292D01*
X169458067Y-142030293D01*
X169605733Y-142222736D01*
X169605739Y-142222743D01*
X169777256Y-142394260D01*
X169777262Y-142394265D01*
X169969711Y-142541936D01*
X170179788Y-142663224D01*
X170403900Y-142756054D01*
X170638211Y-142818838D01*
X170818586Y-142842584D01*
X170878711Y-142850500D01*
X170878712Y-142850500D01*
X171121289Y-142850500D01*
X171169388Y-142844167D01*
X171361789Y-142818838D01*
X171596100Y-142756054D01*
X171820212Y-142663224D01*
X172030289Y-142541936D01*
X172222738Y-142394265D01*
X172394265Y-142222738D01*
X172541936Y-142030289D01*
X172663224Y-141820212D01*
X172756054Y-141596100D01*
X172818838Y-141361789D01*
X172850500Y-141121288D01*
X172850500Y-140878712D01*
X172818838Y-140638211D01*
X172756054Y-140403900D01*
X172663224Y-140179788D01*
X172541936Y-139969711D01*
X172394265Y-139777262D01*
X172394260Y-139777256D01*
X172222743Y-139605739D01*
X172222736Y-139605733D01*
X172030293Y-139458067D01*
X172030292Y-139458066D01*
X172030289Y-139458064D01*
X171820212Y-139336776D01*
X171748534Y-139307086D01*
X171596104Y-139243947D01*
X171361785Y-139181161D01*
X171121289Y-139149500D01*
X171121288Y-139149500D01*
X170878712Y-139149500D01*
X170878711Y-139149500D01*
X170638214Y-139181161D01*
X170403895Y-139243947D01*
X170179794Y-139336773D01*
X170179785Y-139336777D01*
X169969706Y-139458067D01*
X169777263Y-139605733D01*
X169777256Y-139605739D01*
X169605739Y-139777256D01*
X169605733Y-139777263D01*
X169458067Y-139969706D01*
X169336777Y-140179785D01*
X169336773Y-140179794D01*
X169243947Y-140403895D01*
X169181161Y-140638214D01*
X169149500Y-140878711D01*
X145010474Y-140878711D01*
X152441966Y-133447219D01*
X152562287Y-133281611D01*
X152655220Y-133099218D01*
X152718477Y-132904535D01*
X152750500Y-132702352D01*
X152750500Y-132497649D01*
X152718477Y-132295466D01*
X152655220Y-132100782D01*
X152562287Y-131918390D01*
X152441966Y-131752782D01*
X152297218Y-131608034D01*
X152131610Y-131487713D01*
X151949218Y-131394780D01*
X151754534Y-131331523D01*
X151754532Y-131331522D01*
X151754530Y-131331522D01*
X151613363Y-131309163D01*
X151552351Y-131299500D01*
X151347648Y-131299500D01*
X151300779Y-131306923D01*
X151145468Y-131331522D01*
X150950779Y-131394781D01*
X150768387Y-131487714D01*
X150768384Y-131487716D01*
X150602778Y-131608036D01*
X141047634Y-141163181D01*
X140986311Y-141196666D01*
X140959953Y-141199500D01*
X119590047Y-141199500D01*
X119523008Y-141179815D01*
X119502366Y-141163181D01*
X117452029Y-139112844D01*
X119080000Y-139112844D01*
X119086401Y-139172372D01*
X119086403Y-139172379D01*
X119136645Y-139307086D01*
X119136649Y-139307093D01*
X119222809Y-139422187D01*
X119222812Y-139422190D01*
X119337906Y-139508350D01*
X119337913Y-139508354D01*
X119472620Y-139558596D01*
X119472627Y-139558598D01*
X119532155Y-139564999D01*
X119532172Y-139565000D01*
X120080000Y-139565000D01*
X120080000Y-138565000D01*
X119080000Y-138565000D01*
X119080000Y-139112844D01*
X117452029Y-139112844D01*
X116444941Y-138105756D01*
X120030000Y-138105756D01*
X120030000Y-138224244D01*
X120060667Y-138338694D01*
X120119910Y-138441306D01*
X120203694Y-138525090D01*
X120306306Y-138584333D01*
X120420756Y-138615000D01*
X120539244Y-138615000D01*
X120653694Y-138584333D01*
X120756306Y-138525090D01*
X120840090Y-138441306D01*
X120880000Y-138372179D01*
X120880000Y-139565000D01*
X121427828Y-139565000D01*
X121427844Y-139564999D01*
X121487372Y-139558598D01*
X121487379Y-139558596D01*
X121622086Y-139508354D01*
X121622093Y-139508350D01*
X121737187Y-139422190D01*
X121737190Y-139422187D01*
X121823350Y-139307093D01*
X121823354Y-139307086D01*
X121873596Y-139172379D01*
X121873598Y-139172372D01*
X121879999Y-139112844D01*
X121880000Y-139112827D01*
X121880000Y-139019969D01*
X121899685Y-138952930D01*
X121952489Y-138907175D01*
X122021647Y-138897231D01*
X122085203Y-138926256D01*
X122101012Y-138943481D01*
X122101146Y-138943368D01*
X122104308Y-138947070D01*
X122104310Y-138947073D01*
X122237927Y-139080690D01*
X122390801Y-139191760D01*
X122470347Y-139232290D01*
X122559163Y-139277545D01*
X122559165Y-139277545D01*
X122559168Y-139277547D01*
X122650079Y-139307086D01*
X122738881Y-139335940D01*
X122925514Y-139365500D01*
X122925519Y-139365500D01*
X123114486Y-139365500D01*
X123301118Y-139335940D01*
X123480832Y-139277547D01*
X123649199Y-139191760D01*
X123802073Y-139080690D01*
X123935690Y-138947073D01*
X124005045Y-138851613D01*
X124060375Y-138808949D01*
X124105363Y-138800500D01*
X129723696Y-138800500D01*
X129790735Y-138820185D01*
X129824013Y-138851613D01*
X129915483Y-138977510D01*
X130082490Y-139144517D01*
X130273567Y-139283343D01*
X130372991Y-139334002D01*
X130484003Y-139390566D01*
X130484005Y-139390566D01*
X130484008Y-139390568D01*
X130581321Y-139422187D01*
X130708631Y-139463553D01*
X130941903Y-139500500D01*
X130941908Y-139500500D01*
X131178097Y-139500500D01*
X131411368Y-139463553D01*
X131428261Y-139458064D01*
X131635992Y-139390568D01*
X131846433Y-139283343D01*
X132037510Y-139144517D01*
X132204517Y-138977510D01*
X132343343Y-138786433D01*
X132450568Y-138575992D01*
X132523553Y-138351368D01*
X132525560Y-138338694D01*
X132560500Y-138118097D01*
X132560500Y-137881902D01*
X132523553Y-137648631D01*
X132456850Y-137443342D01*
X132450568Y-137424008D01*
X132450566Y-137424005D01*
X132450566Y-137424003D01*
X132370944Y-137267737D01*
X132343343Y-137213567D01*
X132204517Y-137022490D01*
X132037510Y-136855483D01*
X131846433Y-136716657D01*
X131816323Y-136701315D01*
X131635996Y-136609433D01*
X131411368Y-136536446D01*
X131178097Y-136499500D01*
X131178092Y-136499500D01*
X130941908Y-136499500D01*
X130941903Y-136499500D01*
X130708631Y-136536446D01*
X130484003Y-136609433D01*
X130273566Y-136716657D01*
X130198216Y-136771403D01*
X130082490Y-136855483D01*
X130082488Y-136855485D01*
X130082487Y-136855485D01*
X129915485Y-137022487D01*
X129915485Y-137022488D01*
X129915483Y-137022490D01*
X129824014Y-137148386D01*
X129768684Y-137191051D01*
X129723696Y-137199500D01*
X123944500Y-137199500D01*
X123877461Y-137179815D01*
X123831706Y-137127011D01*
X123820500Y-137075500D01*
X123820500Y-134750502D01*
X123840185Y-134683463D01*
X123841362Y-134681664D01*
X123886632Y-134613914D01*
X123962051Y-134431835D01*
X124000500Y-134238541D01*
X124000500Y-134041459D01*
X124000500Y-134041456D01*
X123962052Y-133848170D01*
X123962051Y-133848169D01*
X123962051Y-133848165D01*
X123905769Y-133712286D01*
X123886635Y-133666092D01*
X123886628Y-133666079D01*
X123777139Y-133502218D01*
X123777136Y-133502214D01*
X123637785Y-133362863D01*
X123637781Y-133362860D01*
X123473920Y-133253371D01*
X123473907Y-133253364D01*
X123291839Y-133177950D01*
X123291829Y-133177947D01*
X123098543Y-133139500D01*
X123098541Y-133139500D01*
X122901459Y-133139500D01*
X122901457Y-133139500D01*
X122708170Y-133177947D01*
X122708160Y-133177950D01*
X122526092Y-133253364D01*
X122526079Y-133253371D01*
X122362218Y-133362860D01*
X122362214Y-133362863D01*
X122222863Y-133502214D01*
X122222860Y-133502218D01*
X122113371Y-133666079D01*
X122113364Y-133666092D01*
X122037950Y-133848160D01*
X122037947Y-133848170D01*
X121999500Y-134041456D01*
X121999500Y-134041459D01*
X121999500Y-134238541D01*
X121999500Y-134238543D01*
X121999499Y-134238543D01*
X122037947Y-134431829D01*
X122037950Y-134431839D01*
X122113364Y-134613907D01*
X122113371Y-134613919D01*
X122198602Y-134741475D01*
X122219480Y-134808152D01*
X122219500Y-134810366D01*
X122219500Y-137216375D01*
X122211050Y-137245151D01*
X122205016Y-137274531D01*
X122200716Y-137280345D01*
X122199815Y-137283414D01*
X122184196Y-137303030D01*
X122183728Y-137303508D01*
X122104310Y-137382927D01*
X122099008Y-137390223D01*
X122092696Y-137396685D01*
X122069783Y-137409544D01*
X122048975Y-137425586D01*
X122039798Y-137426373D01*
X122031766Y-137430881D01*
X122005538Y-137429311D01*
X121979361Y-137431557D01*
X121971215Y-137427258D01*
X121962022Y-137426708D01*
X121940803Y-137411206D01*
X121917570Y-137398944D01*
X121913042Y-137390925D01*
X121905604Y-137385491D01*
X121896135Y-137360978D01*
X121883219Y-137338102D01*
X121881497Y-137323084D01*
X121880427Y-137320315D01*
X121880909Y-137317964D01*
X121880000Y-137310030D01*
X121880000Y-137217172D01*
X121879999Y-137217155D01*
X121873598Y-137157627D01*
X121873596Y-137157620D01*
X121823354Y-137022913D01*
X121823350Y-137022906D01*
X121737190Y-136907812D01*
X121737187Y-136907809D01*
X121622093Y-136821649D01*
X121622086Y-136821645D01*
X121487379Y-136771403D01*
X121487372Y-136771401D01*
X121427844Y-136765000D01*
X120880000Y-136765000D01*
X120880000Y-137957820D01*
X120840090Y-137888694D01*
X120756306Y-137804910D01*
X120653694Y-137745667D01*
X120539244Y-137715000D01*
X120420756Y-137715000D01*
X120306306Y-137745667D01*
X120203694Y-137804910D01*
X120119910Y-137888694D01*
X120060667Y-137991306D01*
X120030000Y-138105756D01*
X116444941Y-138105756D01*
X115556340Y-137217155D01*
X119080000Y-137217155D01*
X119080000Y-137765000D01*
X120080000Y-137765000D01*
X120080000Y-136765000D01*
X119532155Y-136765000D01*
X119472627Y-136771401D01*
X119472620Y-136771403D01*
X119337913Y-136821645D01*
X119337906Y-136821649D01*
X119222812Y-136907809D01*
X119222809Y-136907812D01*
X119136649Y-137022906D01*
X119136645Y-137022913D01*
X119086403Y-137157620D01*
X119086401Y-137157627D01*
X119080000Y-137217155D01*
X115556340Y-137217155D01*
X115076819Y-136737634D01*
X115043334Y-136676311D01*
X115040500Y-136649953D01*
X115040500Y-132497648D01*
X115008477Y-132295465D01*
X114945218Y-132100776D01*
X114911503Y-132034607D01*
X114852287Y-131918390D01*
X114844556Y-131907749D01*
X114731971Y-131752786D01*
X114587213Y-131608028D01*
X114421613Y-131487715D01*
X114421612Y-131487714D01*
X114421610Y-131487713D01*
X114330412Y-131441245D01*
X114239223Y-131394781D01*
X114044534Y-131331522D01*
X113869995Y-131303878D01*
X113842352Y-131299500D01*
X113637648Y-131299500D01*
X113613329Y-131303351D01*
X113435465Y-131331522D01*
X113240776Y-131394781D01*
X113058386Y-131487715D01*
X112892786Y-131608028D01*
X112748028Y-131752786D01*
X112627715Y-131918386D01*
X112534781Y-132100776D01*
X112471522Y-132295465D01*
X112439500Y-132497648D01*
X110040500Y-132497648D01*
X110040500Y-130143136D01*
X122482548Y-130143136D01*
X122539359Y-130172084D01*
X122539362Y-130172085D01*
X122718997Y-130230452D01*
X122905553Y-130260000D01*
X123094447Y-130260000D01*
X123281001Y-130230452D01*
X123460637Y-130172084D01*
X123517451Y-130143136D01*
X123000001Y-129625686D01*
X123000000Y-129625686D01*
X122482548Y-130143136D01*
X110040500Y-130143136D01*
X110040500Y-128965552D01*
X121800000Y-128965552D01*
X121800000Y-129154447D01*
X121829547Y-129341002D01*
X121887915Y-129520639D01*
X121916861Y-129577451D01*
X121916862Y-129577451D01*
X122434314Y-129060000D01*
X122434314Y-129059999D01*
X122388237Y-129013922D01*
X122650000Y-129013922D01*
X122650000Y-129106078D01*
X122673852Y-129195095D01*
X122719930Y-129274905D01*
X122785095Y-129340070D01*
X122864905Y-129386148D01*
X122953922Y-129410000D01*
X123046078Y-129410000D01*
X123135095Y-129386148D01*
X123214905Y-129340070D01*
X123280070Y-129274905D01*
X123326148Y-129195095D01*
X123350000Y-129106078D01*
X123350000Y-129059999D01*
X123565686Y-129059999D01*
X123565686Y-129060000D01*
X124083136Y-129577451D01*
X124112084Y-129520637D01*
X124170452Y-129341001D01*
X124200000Y-129154447D01*
X124200000Y-128965552D01*
X124170452Y-128778997D01*
X124112085Y-128599362D01*
X124112084Y-128599359D01*
X124083136Y-128542548D01*
X123565686Y-129059999D01*
X123350000Y-129059999D01*
X123350000Y-129013922D01*
X123326148Y-128924905D01*
X123280070Y-128845095D01*
X123214905Y-128779930D01*
X123135095Y-128733852D01*
X123046078Y-128710000D01*
X122953922Y-128710000D01*
X122864905Y-128733852D01*
X122785095Y-128779930D01*
X122719930Y-128845095D01*
X122673852Y-128924905D01*
X122650000Y-129013922D01*
X122388237Y-129013922D01*
X121916862Y-128542547D01*
X121887915Y-128599362D01*
X121887914Y-128599364D01*
X121829547Y-128778997D01*
X121800000Y-128965552D01*
X110040500Y-128965552D01*
X110040500Y-127976862D01*
X122482547Y-127976862D01*
X123000000Y-128494314D01*
X123000001Y-128494314D01*
X123517451Y-127976862D01*
X123517451Y-127976861D01*
X123460639Y-127947915D01*
X123281002Y-127889547D01*
X123094447Y-127860000D01*
X122905553Y-127860000D01*
X122718997Y-127889547D01*
X122539364Y-127947914D01*
X122539362Y-127947915D01*
X122482547Y-127976862D01*
X110040500Y-127976862D01*
X110040500Y-118027827D01*
X110060185Y-117960788D01*
X110082751Y-117934590D01*
X110085764Y-117931946D01*
X110085776Y-117931938D01*
X110261938Y-117755776D01*
X110413599Y-117558127D01*
X110538164Y-117342373D01*
X110633502Y-117112207D01*
X110697982Y-116871565D01*
X110730500Y-116624565D01*
X110730500Y-116375441D01*
X112009500Y-116375441D01*
X112009500Y-116624558D01*
X112009501Y-116624575D01*
X112042017Y-116871561D01*
X112106498Y-117112207D01*
X112201830Y-117342361D01*
X112201837Y-117342376D01*
X112326400Y-117558126D01*
X112478060Y-117755774D01*
X112478066Y-117755781D01*
X112654218Y-117931933D01*
X112654225Y-117931939D01*
X112851873Y-118083599D01*
X113067623Y-118208162D01*
X113067638Y-118208169D01*
X113162916Y-118247634D01*
X113297793Y-118303502D01*
X113538435Y-118367982D01*
X113785435Y-118400500D01*
X113919953Y-118400500D01*
X113986992Y-118420185D01*
X114007634Y-118436819D01*
X118414908Y-122844092D01*
X118414922Y-122844107D01*
X118418033Y-122847218D01*
X118418034Y-122847219D01*
X118562781Y-122991966D01*
X118562784Y-122991968D01*
X118562787Y-122991971D01*
X118599177Y-123018409D01*
X118679198Y-123076547D01*
X118728390Y-123112287D01*
X118779983Y-123138575D01*
X118910781Y-123205221D01*
X118910787Y-123205223D01*
X119055637Y-123252287D01*
X119055638Y-123252287D01*
X119105466Y-123268477D01*
X119307648Y-123300500D01*
X119307649Y-123300500D01*
X119512352Y-123300500D01*
X133575500Y-123300500D01*
X133642539Y-123320185D01*
X133688294Y-123372989D01*
X133699500Y-123424500D01*
X133699500Y-123793102D01*
X133702212Y-123815685D01*
X133710122Y-123881561D01*
X133765639Y-124022343D01*
X133857077Y-124142922D01*
X133977656Y-124234360D01*
X133977657Y-124234360D01*
X133977658Y-124234361D01*
X134118436Y-124289877D01*
X134206898Y-124300500D01*
X134715500Y-124300500D01*
X134782539Y-124320185D01*
X134828294Y-124372989D01*
X134839500Y-124424500D01*
X134839500Y-137217468D01*
X134825985Y-137273763D01*
X134749434Y-137424003D01*
X134749433Y-137424005D01*
X134749432Y-137424008D01*
X134743150Y-137443342D01*
X134676446Y-137648631D01*
X134639500Y-137881902D01*
X134639500Y-138118097D01*
X134676446Y-138351368D01*
X134749433Y-138575996D01*
X134856657Y-138786433D01*
X134995483Y-138977510D01*
X135162490Y-139144517D01*
X135353567Y-139283343D01*
X135452991Y-139334002D01*
X135564003Y-139390566D01*
X135564005Y-139390566D01*
X135564008Y-139390568D01*
X135661321Y-139422187D01*
X135788631Y-139463553D01*
X136021903Y-139500500D01*
X136021908Y-139500500D01*
X136258097Y-139500500D01*
X136491368Y-139463553D01*
X136508261Y-139458064D01*
X136715992Y-139390568D01*
X136926433Y-139283343D01*
X137117510Y-139144517D01*
X137284517Y-138977510D01*
X137423343Y-138786433D01*
X137530568Y-138575992D01*
X137603553Y-138351368D01*
X137605560Y-138338694D01*
X137640500Y-138118097D01*
X137640500Y-137881902D01*
X137603553Y-137648631D01*
X137569729Y-137544534D01*
X137530568Y-137424008D01*
X137458932Y-137283414D01*
X137454015Y-137273763D01*
X137440500Y-137217468D01*
X137440500Y-124424500D01*
X137460185Y-124357461D01*
X137512989Y-124311706D01*
X137564500Y-124300500D01*
X137793097Y-124300500D01*
X137793102Y-124300500D01*
X137881564Y-124289877D01*
X138022342Y-124234361D01*
X138142922Y-124142922D01*
X138234361Y-124022342D01*
X138289877Y-123881564D01*
X138300500Y-123793102D01*
X138300500Y-123424500D01*
X138320185Y-123357461D01*
X138372989Y-123311706D01*
X138424500Y-123300500D01*
X152739953Y-123300500D01*
X152806992Y-123320185D01*
X152827634Y-123336819D01*
X153107074Y-123616259D01*
X153137324Y-123665621D01*
X153189433Y-123825996D01*
X153265985Y-123976235D01*
X153279500Y-124032530D01*
X153279500Y-130832351D01*
X153311522Y-131034534D01*
X153374781Y-131229223D01*
X153410590Y-131299500D01*
X153467713Y-131411611D01*
X153588034Y-131577219D01*
X153588036Y-131577221D01*
X155602784Y-133591969D01*
X155704790Y-133666079D01*
X155768389Y-133712286D01*
X155950778Y-133805218D01*
X155950784Y-133805221D01*
X156082938Y-133848160D01*
X156145465Y-133868476D01*
X156347648Y-133900500D01*
X156347649Y-133900500D01*
X156552350Y-133900500D01*
X156552351Y-133900500D01*
X156754534Y-133868476D01*
X156754537Y-133868475D01*
X156754538Y-133868475D01*
X156949215Y-133805221D01*
X156949218Y-133805220D01*
X156949222Y-133805218D01*
X157131610Y-133712286D01*
X157297218Y-133591966D01*
X157441966Y-133447218D01*
X157562286Y-133281610D01*
X157655220Y-133099218D01*
X157718476Y-132904534D01*
X157750500Y-132702351D01*
X157750500Y-132497648D01*
X157718476Y-132295465D01*
X157718475Y-132295461D01*
X157718475Y-132295460D01*
X157655221Y-132100784D01*
X157655217Y-132100776D01*
X157562286Y-131918389D01*
X157441970Y-131752786D01*
X157441969Y-131752784D01*
X155916819Y-130227634D01*
X155883334Y-130166311D01*
X155880500Y-130139953D01*
X155880500Y-124032530D01*
X155894015Y-123976235D01*
X155900242Y-123964015D01*
X155970568Y-123825992D01*
X156043553Y-123601368D01*
X156080500Y-123368097D01*
X156080500Y-123131902D01*
X156043553Y-122898631D01*
X155976053Y-122690889D01*
X155970568Y-122674008D01*
X155970566Y-122674005D01*
X155970566Y-122674003D01*
X155880124Y-122496502D01*
X155863343Y-122463567D01*
X155724517Y-122272490D01*
X155557510Y-122105483D01*
X155366433Y-121966657D01*
X155155996Y-121859433D01*
X154995621Y-121807324D01*
X154946259Y-121777074D01*
X154177221Y-121008036D01*
X154177219Y-121008034D01*
X154011611Y-120887713D01*
X153916987Y-120839500D01*
X153829223Y-120794781D01*
X153782515Y-120779604D01*
X153731876Y-120763151D01*
X153708003Y-120755394D01*
X153634535Y-120731522D01*
X153459995Y-120703878D01*
X153432352Y-120699500D01*
X153432351Y-120699500D01*
X138424500Y-120699500D01*
X138357461Y-120679815D01*
X138311706Y-120627011D01*
X138300500Y-120575500D01*
X138300500Y-120206903D01*
X138300500Y-120206898D01*
X138289877Y-120118436D01*
X138234361Y-119977658D01*
X138234360Y-119977657D01*
X138234360Y-119977656D01*
X138142922Y-119857077D01*
X138022343Y-119765639D01*
X137881561Y-119710122D01*
X137835926Y-119704642D01*
X137793102Y-119699500D01*
X134206898Y-119699500D01*
X134167853Y-119704188D01*
X134118438Y-119710122D01*
X133977656Y-119765639D01*
X133857077Y-119857077D01*
X133765639Y-119977656D01*
X133710122Y-120118438D01*
X133704188Y-120167853D01*
X133699500Y-120206898D01*
X133699500Y-120206903D01*
X133699500Y-120575500D01*
X133679815Y-120642539D01*
X133627011Y-120688294D01*
X133575500Y-120699500D01*
X120000046Y-120699500D01*
X119933007Y-120679815D01*
X119912365Y-120663181D01*
X115846819Y-116597634D01*
X115813334Y-116536311D01*
X115810500Y-116509953D01*
X115810500Y-116375441D01*
X115810500Y-116375435D01*
X115777982Y-116128435D01*
X115713502Y-115887793D01*
X115648450Y-115730743D01*
X115618169Y-115657638D01*
X115618162Y-115657623D01*
X115493599Y-115441873D01*
X115341939Y-115244225D01*
X115341933Y-115244218D01*
X115165781Y-115068066D01*
X115165774Y-115068060D01*
X114968126Y-114916400D01*
X114752376Y-114791837D01*
X114752361Y-114791830D01*
X114522207Y-114696498D01*
X114378180Y-114657906D01*
X114281565Y-114632018D01*
X114281564Y-114632017D01*
X114281561Y-114632017D01*
X114034575Y-114599501D01*
X114034570Y-114599500D01*
X114034565Y-114599500D01*
X113785435Y-114599500D01*
X113785429Y-114599500D01*
X113785424Y-114599501D01*
X113538438Y-114632017D01*
X113297792Y-114696498D01*
X113067638Y-114791830D01*
X113067623Y-114791837D01*
X112851873Y-114916400D01*
X112654225Y-115068060D01*
X112654218Y-115068066D01*
X112478066Y-115244218D01*
X112478060Y-115244225D01*
X112326400Y-115441873D01*
X112201837Y-115657623D01*
X112201830Y-115657638D01*
X112106498Y-115887792D01*
X112042017Y-116128438D01*
X112009501Y-116375424D01*
X112009500Y-116375441D01*
X110730500Y-116375441D01*
X110730500Y-116375435D01*
X110697982Y-116128435D01*
X110633502Y-115887793D01*
X110568450Y-115730743D01*
X110538169Y-115657638D01*
X110538162Y-115657623D01*
X110413599Y-115441873D01*
X110261939Y-115244225D01*
X110261933Y-115244218D01*
X110166819Y-115149104D01*
X110133334Y-115087781D01*
X110130500Y-115061423D01*
X110130500Y-111600000D01*
X133529250Y-111600000D01*
X135083293Y-111600000D01*
X135038429Y-111708311D01*
X135000000Y-111901509D01*
X135000000Y-112098491D01*
X135038429Y-112291689D01*
X135083293Y-112400000D01*
X133529250Y-112400000D01*
X133531437Y-112419419D01*
X133593921Y-112693178D01*
X133593922Y-112693180D01*
X133686662Y-112958217D01*
X133808492Y-113211200D01*
X133957884Y-113448956D01*
X134132957Y-113668490D01*
X134331509Y-113867042D01*
X134551043Y-114042115D01*
X134788799Y-114191507D01*
X135041782Y-114313337D01*
X135306819Y-114406077D01*
X135306821Y-114406078D01*
X135580575Y-114468560D01*
X135600000Y-114470748D01*
X135600000Y-112916707D01*
X135708311Y-112961571D01*
X135901509Y-113000000D01*
X136098491Y-113000000D01*
X136291689Y-112961571D01*
X136400000Y-112916707D01*
X136400000Y-114470748D01*
X136419422Y-114468560D01*
X136419426Y-114468560D01*
X136693178Y-114406078D01*
X136693180Y-114406077D01*
X136958217Y-114313337D01*
X137211200Y-114191507D01*
X137448956Y-114042115D01*
X137668490Y-113867042D01*
X137867042Y-113668490D01*
X138042115Y-113448956D01*
X138191507Y-113211200D01*
X138313337Y-112958217D01*
X138406077Y-112693180D01*
X138406078Y-112693178D01*
X138468562Y-112419419D01*
X138470750Y-112400000D01*
X136916707Y-112400000D01*
X136961571Y-112291689D01*
X137000000Y-112098491D01*
X137000000Y-111901509D01*
X136961571Y-111708311D01*
X136916707Y-111600000D01*
X138470750Y-111600000D01*
X138468562Y-111580580D01*
X138406078Y-111306821D01*
X138406077Y-111306819D01*
X138313337Y-111041782D01*
X138191507Y-110788799D01*
X138042115Y-110551043D01*
X137867042Y-110331509D01*
X137668490Y-110132957D01*
X137448956Y-109957884D01*
X137211200Y-109808492D01*
X136958217Y-109686662D01*
X136693180Y-109593922D01*
X136693178Y-109593921D01*
X136419419Y-109531437D01*
X136400000Y-109529249D01*
X136400000Y-111083292D01*
X136291689Y-111038429D01*
X136098491Y-111000000D01*
X135901509Y-111000000D01*
X135708311Y-111038429D01*
X135600000Y-111083292D01*
X135600000Y-109529249D01*
X135580580Y-109531437D01*
X135306821Y-109593921D01*
X135306819Y-109593922D01*
X135041782Y-109686662D01*
X134788799Y-109808492D01*
X134551043Y-109957884D01*
X134331509Y-110132957D01*
X134132957Y-110331509D01*
X133957884Y-110551043D01*
X133808492Y-110788799D01*
X133686662Y-111041782D01*
X133593922Y-111306819D01*
X133593921Y-111306821D01*
X133531437Y-111580580D01*
X133529250Y-111600000D01*
X110130500Y-111600000D01*
X110130500Y-110227649D01*
X110108706Y-110090047D01*
X110104880Y-110065894D01*
X110098477Y-110025465D01*
X110036719Y-109835396D01*
X110035663Y-109831651D01*
X109968186Y-109699219D01*
X109942286Y-109648388D01*
X109837770Y-109504534D01*
X109821966Y-109482781D01*
X109821964Y-109482779D01*
X109821962Y-109482776D01*
X109674123Y-109334937D01*
X109674092Y-109334908D01*
X109503901Y-109164717D01*
X109421086Y-109081902D01*
X156199500Y-109081902D01*
X156199500Y-109318097D01*
X156236446Y-109551368D01*
X156309433Y-109775996D01*
X156385985Y-109926235D01*
X156399500Y-109982530D01*
X156399500Y-114417468D01*
X156385985Y-114473763D01*
X156309434Y-114624003D01*
X156309433Y-114624005D01*
X156309432Y-114624008D01*
X156303947Y-114640889D01*
X156236446Y-114848631D01*
X156199500Y-115081902D01*
X156199500Y-115318097D01*
X156236446Y-115551368D01*
X156309433Y-115775996D01*
X156366397Y-115887793D01*
X156416657Y-115986433D01*
X156555483Y-116177510D01*
X156722490Y-116344517D01*
X156913567Y-116483343D01*
X157012991Y-116534002D01*
X157124003Y-116590566D01*
X157124005Y-116590566D01*
X157124008Y-116590568D01*
X157244412Y-116629689D01*
X157348631Y-116663553D01*
X157581903Y-116700500D01*
X157581908Y-116700500D01*
X157818097Y-116700500D01*
X158051368Y-116663553D01*
X158088340Y-116651540D01*
X158275992Y-116590568D01*
X158486433Y-116483343D01*
X158677510Y-116344517D01*
X158844517Y-116177510D01*
X158983343Y-115986433D01*
X159090568Y-115775992D01*
X159163553Y-115551368D01*
X159200500Y-115318097D01*
X159200500Y-115081902D01*
X159163553Y-114848631D01*
X159145356Y-114792627D01*
X159090568Y-114624008D01*
X159014015Y-114473763D01*
X159000500Y-114417468D01*
X159000500Y-109982530D01*
X159014015Y-109926235D01*
X159090566Y-109775996D01*
X159090567Y-109775994D01*
X159090568Y-109775992D01*
X159163553Y-109551368D01*
X159182015Y-109434802D01*
X159200500Y-109318097D01*
X159200500Y-109081902D01*
X159163553Y-108848631D01*
X159090566Y-108624003D01*
X159004567Y-108455222D01*
X158983343Y-108413567D01*
X158844517Y-108222490D01*
X158677510Y-108055483D01*
X158486433Y-107916657D01*
X158275996Y-107809433D01*
X158051368Y-107736446D01*
X157818097Y-107699500D01*
X157818092Y-107699500D01*
X157581908Y-107699500D01*
X157581903Y-107699500D01*
X157348631Y-107736446D01*
X157124003Y-107809433D01*
X156913566Y-107916657D01*
X156804550Y-107995862D01*
X156722490Y-108055483D01*
X156722488Y-108055485D01*
X156722487Y-108055485D01*
X156555485Y-108222487D01*
X156555485Y-108222488D01*
X156555483Y-108222490D01*
X156495862Y-108304550D01*
X156416657Y-108413566D01*
X156309433Y-108624003D01*
X156236446Y-108848631D01*
X156199500Y-109081902D01*
X109421086Y-109081902D01*
X105883965Y-105544780D01*
X104277760Y-103938575D01*
X155100000Y-103938575D01*
X155100000Y-104161424D01*
X155129085Y-104382354D01*
X155129088Y-104382367D01*
X155186763Y-104597618D01*
X155272045Y-104803502D01*
X155272050Y-104803513D01*
X155348458Y-104935855D01*
X155348459Y-104935856D01*
X156200000Y-104084315D01*
X156200000Y-104128991D01*
X156240889Y-104281591D01*
X156319881Y-104418408D01*
X156431592Y-104530119D01*
X156568409Y-104609111D01*
X156721009Y-104650000D01*
X156765685Y-104650000D01*
X155914143Y-105501540D01*
X155914143Y-105501541D01*
X156046487Y-105577950D01*
X156046488Y-105577951D01*
X156252381Y-105663236D01*
X156467632Y-105720911D01*
X156467645Y-105720914D01*
X156688575Y-105750000D01*
X156911425Y-105750000D01*
X157132354Y-105720914D01*
X157132367Y-105720911D01*
X157347618Y-105663236D01*
X157553503Y-105577954D01*
X157553514Y-105577949D01*
X157685856Y-105501541D01*
X157685856Y-105501540D01*
X156834315Y-104650000D01*
X156878991Y-104650000D01*
X157031591Y-104609111D01*
X157168408Y-104530119D01*
X157280119Y-104418408D01*
X157359111Y-104281591D01*
X157400000Y-104128991D01*
X157400000Y-104084316D01*
X158251540Y-104935856D01*
X158251541Y-104935856D01*
X158327949Y-104803514D01*
X158327954Y-104803503D01*
X158413236Y-104597618D01*
X158470911Y-104382367D01*
X158470914Y-104382354D01*
X158500000Y-104161424D01*
X158500000Y-103938575D01*
X158470914Y-103717645D01*
X158470911Y-103717632D01*
X158413236Y-103502381D01*
X158327951Y-103296488D01*
X158327950Y-103296487D01*
X158251541Y-103164143D01*
X158251540Y-103164143D01*
X157400000Y-104015683D01*
X157400000Y-103971009D01*
X157359111Y-103818409D01*
X157280119Y-103681592D01*
X157168408Y-103569881D01*
X157031591Y-103490889D01*
X156878991Y-103450000D01*
X156834313Y-103450000D01*
X157685855Y-102598458D01*
X157553513Y-102522050D01*
X157553502Y-102522045D01*
X157347618Y-102436763D01*
X157132367Y-102379088D01*
X157132354Y-102379085D01*
X156911425Y-102350000D01*
X156688575Y-102350000D01*
X156467645Y-102379085D01*
X156467632Y-102379088D01*
X156252381Y-102436763D01*
X156046502Y-102522041D01*
X156046497Y-102522044D01*
X155914143Y-102598458D01*
X155914142Y-102598458D01*
X156765685Y-103450000D01*
X156721009Y-103450000D01*
X156568409Y-103490889D01*
X156431592Y-103569881D01*
X156319881Y-103681592D01*
X156240889Y-103818409D01*
X156200000Y-103971009D01*
X156200000Y-104015684D01*
X155348458Y-103164142D01*
X155348458Y-103164143D01*
X155272044Y-103296497D01*
X155272041Y-103296502D01*
X155186763Y-103502381D01*
X155129088Y-103717632D01*
X155129085Y-103717645D01*
X155100000Y-103938575D01*
X104277760Y-103938575D01*
X103347221Y-103008036D01*
X103347220Y-103008035D01*
X103347219Y-103008034D01*
X103181611Y-102887713D01*
X103094752Y-102843456D01*
X103094748Y-102843454D01*
X103090414Y-102841246D01*
X102999219Y-102794780D01*
X102901876Y-102763151D01*
X102865578Y-102751357D01*
X102804535Y-102731522D01*
X102618799Y-102702105D01*
X102602352Y-102699500D01*
X102602351Y-102699500D01*
X96049227Y-102699500D01*
X96010911Y-102693431D01*
X95877241Y-102650000D01*
X95827952Y-102633985D01*
X95646576Y-102605258D01*
X95610222Y-102599500D01*
X95389778Y-102599500D01*
X95353424Y-102605258D01*
X95172047Y-102633985D01*
X94962396Y-102702103D01*
X94962393Y-102702104D01*
X94765974Y-102802187D01*
X94587641Y-102931752D01*
X94587636Y-102931756D01*
X94431756Y-103087636D01*
X94431752Y-103087641D01*
X94302187Y-103265974D01*
X94202104Y-103462393D01*
X94202103Y-103462396D01*
X94133985Y-103672047D01*
X94110093Y-103822897D01*
X94099500Y-103889778D01*
X94099500Y-104110222D01*
X94107610Y-104161424D01*
X94115480Y-104211115D01*
X94106524Y-104280408D01*
X94061527Y-104333860D01*
X93994776Y-104354499D01*
X93927462Y-104335774D01*
X93905325Y-104318193D01*
X93836819Y-104249687D01*
X93803334Y-104188364D01*
X93800500Y-104162006D01*
X93800500Y-100857485D01*
X130143198Y-100857485D01*
X130235968Y-100904755D01*
X130430582Y-100967990D01*
X130632683Y-101000000D01*
X130837317Y-101000000D01*
X131039417Y-100967990D01*
X131234031Y-100904755D01*
X131326801Y-100857485D01*
X130735001Y-100265685D01*
X130735000Y-100265685D01*
X130143198Y-100857485D01*
X93800500Y-100857485D01*
X93800500Y-87590045D01*
X93820185Y-87523006D01*
X93836814Y-87502369D01*
X95902365Y-85436817D01*
X95963688Y-85403333D01*
X95990046Y-85400499D01*
X96644856Y-85400499D01*
X96644864Y-85400499D01*
X96644879Y-85400497D01*
X96644882Y-85400497D01*
X96669987Y-85397586D01*
X96669988Y-85397585D01*
X96669991Y-85397585D01*
X96772765Y-85352206D01*
X96852206Y-85272765D01*
X96897585Y-85169991D01*
X96900500Y-85144865D01*
X96900499Y-82855136D01*
X96900497Y-82855117D01*
X96897586Y-82830012D01*
X96897585Y-82830010D01*
X96897585Y-82830009D01*
X96852206Y-82727235D01*
X96772765Y-82647794D01*
X96772763Y-82647793D01*
X96669992Y-82602415D01*
X96644865Y-82599500D01*
X94355143Y-82599500D01*
X94355117Y-82599502D01*
X94330012Y-82602413D01*
X94330008Y-82602415D01*
X94227235Y-82647793D01*
X94147794Y-82727234D01*
X94102415Y-82830006D01*
X94102415Y-82830008D01*
X94099500Y-82855131D01*
X94099500Y-83509953D01*
X94079815Y-83576992D01*
X94063181Y-83597634D01*
X91508036Y-86152778D01*
X91387716Y-86318384D01*
X91387714Y-86318387D01*
X91358700Y-86375331D01*
X91294332Y-86501658D01*
X91293272Y-86505420D01*
X91231522Y-86695467D01*
X91231522Y-86695468D01*
X91206538Y-86853207D01*
X91206532Y-86853246D01*
X91206402Y-86854069D01*
X91199500Y-86897648D01*
X90500500Y-86897648D01*
X90500500Y-73423389D01*
X99154500Y-73423389D01*
X99154500Y-73596610D01*
X99165756Y-73667682D01*
X99181598Y-73767701D01*
X99235127Y-73932445D01*
X99313768Y-74086788D01*
X99415586Y-74226928D01*
X99415588Y-74226930D01*
X99418181Y-74229523D01*
X99451666Y-74290846D01*
X99454500Y-74317204D01*
X99454500Y-83833846D01*
X99485261Y-83988489D01*
X99485264Y-83988501D01*
X99545602Y-84134172D01*
X99545609Y-84134185D01*
X99633210Y-84265288D01*
X99633213Y-84265292D01*
X114076454Y-98708532D01*
X114109939Y-98769855D01*
X114111246Y-98815611D01*
X114099500Y-98889772D01*
X114099500Y-98889778D01*
X114099500Y-99110222D01*
X114103316Y-99134314D01*
X114133985Y-99327952D01*
X114202103Y-99537603D01*
X114202104Y-99537606D01*
X114258017Y-99647339D01*
X114302184Y-99734021D01*
X114302187Y-99734025D01*
X114431752Y-99912358D01*
X114431756Y-99912363D01*
X114587636Y-100068243D01*
X114587641Y-100068247D01*
X114662242Y-100122447D01*
X114765978Y-100197815D01*
X114894375Y-100263237D01*
X114962393Y-100297895D01*
X114962396Y-100297896D01*
X115067221Y-100331955D01*
X115172049Y-100366015D01*
X115389778Y-100400500D01*
X115389779Y-100400500D01*
X115610221Y-100400500D01*
X115610222Y-100400500D01*
X115827951Y-100366015D01*
X116037606Y-100297895D01*
X116234022Y-100197815D01*
X116412365Y-100068242D01*
X116568242Y-99912365D01*
X116697815Y-99734022D01*
X116741983Y-99647339D01*
X116759282Y-99613389D01*
X127134500Y-99613389D01*
X127134500Y-99786611D01*
X127161598Y-99957701D01*
X127215127Y-100122445D01*
X127293768Y-100276788D01*
X127395586Y-100416928D01*
X127518072Y-100539414D01*
X127658212Y-100641232D01*
X127812555Y-100719873D01*
X127977299Y-100773402D01*
X128148389Y-100800500D01*
X128148390Y-100800500D01*
X128321610Y-100800500D01*
X128321611Y-100800500D01*
X128492701Y-100773402D01*
X128657445Y-100719873D01*
X128811788Y-100641232D01*
X128951928Y-100539414D01*
X129074414Y-100416928D01*
X129176232Y-100276788D01*
X129254873Y-100122445D01*
X129262185Y-100099938D01*
X129301621Y-100042264D01*
X129365980Y-100015065D01*
X129434826Y-100026979D01*
X129486303Y-100074223D01*
X129498047Y-100099938D01*
X129530243Y-100199027D01*
X129530246Y-100199034D01*
X129577512Y-100291801D01*
X130169314Y-99700000D01*
X130169314Y-99699999D01*
X130116654Y-99647339D01*
X130335000Y-99647339D01*
X130335000Y-99752661D01*
X130362259Y-99854394D01*
X130414920Y-99945606D01*
X130489394Y-100020080D01*
X130580606Y-100072741D01*
X130682339Y-100100000D01*
X130787661Y-100100000D01*
X130889394Y-100072741D01*
X130980606Y-100020080D01*
X131055080Y-99945606D01*
X131107741Y-99854394D01*
X131135000Y-99752661D01*
X131135000Y-99699999D01*
X131300685Y-99699999D01*
X131300685Y-99700000D01*
X131892485Y-100291800D01*
X131939755Y-100199031D01*
X132002990Y-100004417D01*
X132035000Y-99802317D01*
X132035000Y-99597682D01*
X132002990Y-99395582D01*
X131939755Y-99200968D01*
X131892485Y-99108198D01*
X131300685Y-99699999D01*
X131135000Y-99699999D01*
X131135000Y-99647339D01*
X131107741Y-99545606D01*
X131055080Y-99454394D01*
X130980606Y-99379920D01*
X130889394Y-99327259D01*
X130787661Y-99300000D01*
X130682339Y-99300000D01*
X130580606Y-99327259D01*
X130489394Y-99379920D01*
X130414920Y-99454394D01*
X130362259Y-99545606D01*
X130335000Y-99647339D01*
X130116654Y-99647339D01*
X129577512Y-99108197D01*
X129530243Y-99200972D01*
X129498047Y-99300060D01*
X129458609Y-99357735D01*
X129394250Y-99384933D01*
X129325404Y-99373018D01*
X129273928Y-99325774D01*
X129262185Y-99300060D01*
X129254871Y-99277550D01*
X129213387Y-99196133D01*
X129176232Y-99123212D01*
X129074414Y-98983072D01*
X128951928Y-98860586D01*
X128836614Y-98776805D01*
X128833274Y-98772474D01*
X128828297Y-98770201D01*
X128812164Y-98745098D01*
X128793949Y-98721476D01*
X128792696Y-98714804D01*
X128790523Y-98711423D01*
X128785500Y-98676488D01*
X128785500Y-98542512D01*
X130143197Y-98542512D01*
X130735000Y-99134314D01*
X130735001Y-99134314D01*
X131326801Y-98542512D01*
X131234034Y-98495246D01*
X131234027Y-98495243D01*
X131039417Y-98432009D01*
X130837317Y-98400000D01*
X130632683Y-98400000D01*
X130430581Y-98432010D01*
X130430578Y-98432010D01*
X130235974Y-98495242D01*
X130235973Y-98495242D01*
X130143197Y-98542512D01*
X128785500Y-98542512D01*
X128785500Y-97769586D01*
X128805185Y-97702547D01*
X128857989Y-97656792D01*
X128871171Y-97651658D01*
X128907445Y-97639873D01*
X129061788Y-97561232D01*
X129201928Y-97459414D01*
X129324414Y-97336928D01*
X129426232Y-97196788D01*
X129504873Y-97042445D01*
X129558402Y-96877701D01*
X129585500Y-96706611D01*
X129585500Y-96533389D01*
X129558402Y-96362299D01*
X129504873Y-96197555D01*
X129426232Y-96043212D01*
X129324414Y-95903072D01*
X129201928Y-95780586D01*
X129061788Y-95678768D01*
X128907445Y-95600127D01*
X128742701Y-95546598D01*
X128742699Y-95546597D01*
X128742698Y-95546597D01*
X128611271Y-95525781D01*
X128571611Y-95519500D01*
X128398389Y-95519500D01*
X128358728Y-95525781D01*
X128227302Y-95546597D01*
X128062552Y-95600128D01*
X127908211Y-95678768D01*
X127868400Y-95707693D01*
X127768072Y-95780586D01*
X127768070Y-95780588D01*
X127768069Y-95780588D01*
X127645588Y-95903069D01*
X127645588Y-95903070D01*
X127645586Y-95903072D01*
X127607263Y-95955819D01*
X127543768Y-96043211D01*
X127465128Y-96197552D01*
X127411597Y-96362302D01*
X127384722Y-96531985D01*
X127384500Y-96533389D01*
X127384500Y-96706611D01*
X127391451Y-96750500D01*
X127399744Y-96802861D01*
X127411598Y-96877701D01*
X127465127Y-97042445D01*
X127543768Y-97196788D01*
X127645586Y-97336928D01*
X127645588Y-97336930D01*
X127648181Y-97339523D01*
X127681666Y-97400846D01*
X127684500Y-97427204D01*
X127684500Y-98676488D01*
X127664815Y-98743527D01*
X127633385Y-98776806D01*
X127518075Y-98860583D01*
X127518069Y-98860588D01*
X127395588Y-98983069D01*
X127395588Y-98983070D01*
X127395586Y-98983072D01*
X127364659Y-99025639D01*
X127293768Y-99123211D01*
X127215128Y-99277552D01*
X127161597Y-99442302D01*
X127154072Y-99489815D01*
X127134500Y-99613389D01*
X116759282Y-99613389D01*
X116790449Y-99552222D01*
X116797892Y-99537611D01*
X116797895Y-99537606D01*
X116866015Y-99327951D01*
X116900500Y-99110222D01*
X116900500Y-98889778D01*
X116866015Y-98672049D01*
X116797895Y-98462394D01*
X116797895Y-98462393D01*
X116744263Y-98357136D01*
X116697815Y-98265978D01*
X116596193Y-98126106D01*
X116568247Y-98087641D01*
X116568243Y-98087636D01*
X116412363Y-97931756D01*
X116412358Y-97931752D01*
X116234025Y-97802187D01*
X116234024Y-97802186D01*
X116234022Y-97802185D01*
X116165045Y-97767039D01*
X116037606Y-97702104D01*
X116037603Y-97702103D01*
X115827952Y-97633985D01*
X115684383Y-97611246D01*
X115610222Y-97599500D01*
X115389778Y-97599500D01*
X115389773Y-97599500D01*
X115315611Y-97611246D01*
X115246317Y-97602291D01*
X115208532Y-97576454D01*
X101091819Y-83459741D01*
X101058334Y-83398418D01*
X101055500Y-83372060D01*
X101055500Y-74317204D01*
X101075185Y-74250165D01*
X101091819Y-74229523D01*
X101094414Y-74226928D01*
X101196232Y-74086788D01*
X101274873Y-73932445D01*
X101328402Y-73767701D01*
X101355500Y-73596611D01*
X101355500Y-73423389D01*
X104234500Y-73423389D01*
X104234500Y-73596610D01*
X104245756Y-73667682D01*
X104261598Y-73767701D01*
X104315127Y-73932445D01*
X104393768Y-74086788D01*
X104495586Y-74226928D01*
X104495588Y-74226930D01*
X104498181Y-74229523D01*
X104531666Y-74290846D01*
X104534500Y-74317204D01*
X104534500Y-78913846D01*
X104565261Y-79068489D01*
X104565264Y-79068501D01*
X104625602Y-79214172D01*
X104625609Y-79214185D01*
X104713210Y-79345288D01*
X104713213Y-79345292D01*
X114076454Y-88708532D01*
X114109939Y-88769855D01*
X114111246Y-88815611D01*
X114099500Y-88889772D01*
X114099500Y-89110221D01*
X114133985Y-89327952D01*
X114202103Y-89537603D01*
X114202104Y-89537606D01*
X114233890Y-89599987D01*
X114286220Y-89702690D01*
X114302187Y-89734025D01*
X114431752Y-89912358D01*
X114431756Y-89912363D01*
X114587636Y-90068243D01*
X114587641Y-90068247D01*
X114689588Y-90142315D01*
X114765978Y-90197815D01*
X114894375Y-90263237D01*
X114962393Y-90297895D01*
X114962396Y-90297896D01*
X115067221Y-90331955D01*
X115172049Y-90366015D01*
X115389778Y-90400500D01*
X115389779Y-90400500D01*
X115610221Y-90400500D01*
X115610222Y-90400500D01*
X115827951Y-90366015D01*
X116037606Y-90297895D01*
X116234022Y-90197815D01*
X116412365Y-90068242D01*
X116568242Y-89912365D01*
X116697815Y-89734022D01*
X116797895Y-89537606D01*
X116866015Y-89327951D01*
X116900500Y-89110222D01*
X116900500Y-88889778D01*
X116866015Y-88672049D01*
X116819385Y-88528535D01*
X116797896Y-88462396D01*
X116797895Y-88462393D01*
X116754516Y-88377259D01*
X116697815Y-88265978D01*
X116630417Y-88173212D01*
X116568247Y-88087641D01*
X116568243Y-88087636D01*
X116412363Y-87931756D01*
X116412358Y-87931752D01*
X116234025Y-87802187D01*
X116234024Y-87802186D01*
X116234022Y-87802185D01*
X116160562Y-87764755D01*
X116037606Y-87702104D01*
X116037603Y-87702103D01*
X115827952Y-87633985D01*
X115684383Y-87611246D01*
X115610222Y-87599500D01*
X115389778Y-87599500D01*
X115389773Y-87599500D01*
X115315611Y-87611246D01*
X115246317Y-87602291D01*
X115208532Y-87576454D01*
X106171819Y-78539741D01*
X106138334Y-78478418D01*
X106135500Y-78452060D01*
X106135500Y-74317204D01*
X106155185Y-74250165D01*
X106171819Y-74229523D01*
X106174414Y-74226928D01*
X106276232Y-74086788D01*
X106354873Y-73932445D01*
X106408402Y-73767701D01*
X106435500Y-73596611D01*
X106435500Y-73423389D01*
X106408402Y-73252299D01*
X106354873Y-73087555D01*
X106276232Y-72933212D01*
X106174414Y-72793072D01*
X106051928Y-72670586D01*
X105911788Y-72568768D01*
X105757445Y-72490127D01*
X105592701Y-72436598D01*
X105592699Y-72436597D01*
X105592698Y-72436597D01*
X105461271Y-72415781D01*
X105421611Y-72409500D01*
X105248389Y-72409500D01*
X105208728Y-72415781D01*
X105077302Y-72436597D01*
X104912552Y-72490128D01*
X104758211Y-72568768D01*
X104678256Y-72626859D01*
X104618072Y-72670586D01*
X104618070Y-72670588D01*
X104618069Y-72670588D01*
X104495588Y-72793069D01*
X104495588Y-72793070D01*
X104495586Y-72793072D01*
X104469651Y-72828768D01*
X104393768Y-72933211D01*
X104315128Y-73087552D01*
X104261597Y-73252302D01*
X104234500Y-73423389D01*
X101355500Y-73423389D01*
X101328402Y-73252299D01*
X101274873Y-73087555D01*
X101196232Y-72933212D01*
X101094414Y-72793072D01*
X100971928Y-72670586D01*
X100831788Y-72568768D01*
X100677445Y-72490127D01*
X100512701Y-72436598D01*
X100512699Y-72436597D01*
X100512698Y-72436597D01*
X100381271Y-72415781D01*
X100341611Y-72409500D01*
X100168389Y-72409500D01*
X100128728Y-72415781D01*
X99997302Y-72436597D01*
X99832552Y-72490128D01*
X99678211Y-72568768D01*
X99598256Y-72626859D01*
X99538072Y-72670586D01*
X99538070Y-72670588D01*
X99538069Y-72670588D01*
X99415588Y-72793069D01*
X99415588Y-72793070D01*
X99415586Y-72793072D01*
X99389651Y-72828768D01*
X99313768Y-72933211D01*
X99235128Y-73087552D01*
X99181597Y-73252302D01*
X99154500Y-73423389D01*
X90500500Y-73423389D01*
X90500500Y-66290000D01*
X99018067Y-66290000D01*
X99050244Y-66389029D01*
X99143140Y-66571349D01*
X99263417Y-66736894D01*
X99263417Y-66736895D01*
X99408104Y-66881582D01*
X99573650Y-67001859D01*
X99755970Y-67094755D01*
X99854999Y-67126932D01*
X99855000Y-67126932D01*
X100655000Y-67126932D01*
X100754029Y-67094755D01*
X100936349Y-67001859D01*
X101101894Y-66881582D01*
X101101895Y-66881582D01*
X101246582Y-66736895D01*
X101246582Y-66736894D01*
X101366859Y-66571349D01*
X101459755Y-66389029D01*
X101491933Y-66290000D01*
X100655000Y-66290000D01*
X100655000Y-67126932D01*
X99855000Y-67126932D01*
X99855000Y-66290000D01*
X99018067Y-66290000D01*
X90500500Y-66290000D01*
X90500500Y-63878711D01*
X92149500Y-63878711D01*
X92149500Y-64121288D01*
X92181161Y-64361785D01*
X92243947Y-64596104D01*
X92325261Y-64792413D01*
X92336776Y-64820212D01*
X92458064Y-65030289D01*
X92458066Y-65030292D01*
X92458067Y-65030293D01*
X92605733Y-65222736D01*
X92605739Y-65222743D01*
X92777256Y-65394260D01*
X92777262Y-65394265D01*
X92969711Y-65541936D01*
X93179788Y-65663224D01*
X93318094Y-65720512D01*
X93383958Y-65747794D01*
X93403900Y-65756054D01*
X93638211Y-65818838D01*
X93778743Y-65837339D01*
X93878711Y-65850500D01*
X93878712Y-65850500D01*
X94121289Y-65850500D01*
X94169388Y-65844167D01*
X94221254Y-65837339D01*
X99855000Y-65837339D01*
X99855000Y-65942661D01*
X99882259Y-66044394D01*
X99934920Y-66135606D01*
X100009394Y-66210080D01*
X100100606Y-66262741D01*
X100202339Y-66290000D01*
X100307661Y-66290000D01*
X100409394Y-66262741D01*
X100500606Y-66210080D01*
X100575080Y-66135606D01*
X100627741Y-66044394D01*
X100655000Y-65942661D01*
X100655000Y-65837339D01*
X100627741Y-65735606D01*
X100575080Y-65644394D01*
X100500606Y-65569920D01*
X100409394Y-65517259D01*
X100307661Y-65490000D01*
X100655000Y-65490000D01*
X101491933Y-65490000D01*
X101491932Y-65489999D01*
X101459755Y-65390970D01*
X101366859Y-65208650D01*
X101298411Y-65114440D01*
X101248055Y-65045131D01*
X104234500Y-65045131D01*
X104234500Y-66734856D01*
X104234502Y-66734882D01*
X104237413Y-66759987D01*
X104237415Y-66759991D01*
X104282793Y-66862764D01*
X104282794Y-66862765D01*
X104362235Y-66942206D01*
X104465009Y-66987585D01*
X104490135Y-66990500D01*
X106179864Y-66990499D01*
X106179879Y-66990497D01*
X106179882Y-66990497D01*
X106204987Y-66987586D01*
X106204988Y-66987585D01*
X106204991Y-66987585D01*
X106307765Y-66942206D01*
X106387206Y-66862765D01*
X106430633Y-66764413D01*
X106475719Y-66711037D01*
X106542505Y-66690510D01*
X106544067Y-66690500D01*
X109433101Y-66690500D01*
X109500140Y-66710185D01*
X109520782Y-66726819D01*
X114463181Y-71669218D01*
X114496666Y-71730541D01*
X114499500Y-71756899D01*
X114499500Y-73067050D01*
X114510123Y-73155521D01*
X114565639Y-73296301D01*
X114565640Y-73296303D01*
X114657077Y-73416881D01*
X114777655Y-73508318D01*
X114777658Y-73508320D01*
X114918436Y-73563835D01*
X115006901Y-73574459D01*
X116391018Y-73574458D01*
X116458057Y-73594143D01*
X116478699Y-73610777D01*
X121078211Y-78210289D01*
X121145619Y-78277697D01*
X121189712Y-78321790D01*
X121320816Y-78409391D01*
X121320817Y-78409391D01*
X121320821Y-78409394D01*
X121400614Y-78442445D01*
X121466502Y-78469737D01*
X121621152Y-78500499D01*
X121621155Y-78500500D01*
X121621157Y-78500500D01*
X121621158Y-78500500D01*
X127583001Y-78500500D01*
X127650040Y-78520185D01*
X127695795Y-78572989D01*
X127707001Y-78624500D01*
X127707001Y-78744856D01*
X127707002Y-78744882D01*
X127709913Y-78769987D01*
X127709915Y-78769991D01*
X127755293Y-78872764D01*
X127755294Y-78872765D01*
X127834735Y-78952206D01*
X127937509Y-78997585D01*
X127962635Y-79000500D01*
X128075500Y-79000499D01*
X128142539Y-79020183D01*
X128188294Y-79072987D01*
X128199500Y-79124499D01*
X128199500Y-79942796D01*
X128179815Y-80009835D01*
X128163181Y-80030477D01*
X128110588Y-80083069D01*
X128110588Y-80083070D01*
X128110586Y-80083072D01*
X128097924Y-80100500D01*
X128008768Y-80223211D01*
X127930128Y-80377552D01*
X127876597Y-80542302D01*
X127849500Y-80713389D01*
X127849500Y-80886610D01*
X127871206Y-81023662D01*
X127876598Y-81057701D01*
X127930127Y-81222445D01*
X128008768Y-81376788D01*
X128110586Y-81516928D01*
X128233072Y-81639414D01*
X128373212Y-81741232D01*
X128527555Y-81819873D01*
X128692299Y-81873402D01*
X128863389Y-81900500D01*
X128863390Y-81900500D01*
X129036610Y-81900500D01*
X129036611Y-81900500D01*
X129207701Y-81873402D01*
X129372445Y-81819873D01*
X129526788Y-81741232D01*
X129666928Y-81639414D01*
X129789414Y-81516928D01*
X129891232Y-81376788D01*
X129969873Y-81222445D01*
X129977185Y-81199938D01*
X130016621Y-81142264D01*
X130080980Y-81115065D01*
X130149826Y-81126979D01*
X130201303Y-81174223D01*
X130213047Y-81199938D01*
X130245243Y-81299027D01*
X130245246Y-81299034D01*
X130292512Y-81391801D01*
X130884314Y-80800000D01*
X130884314Y-80799999D01*
X130292512Y-80208197D01*
X130245243Y-80300972D01*
X130213047Y-80400060D01*
X130173609Y-80457735D01*
X130109250Y-80484933D01*
X130040404Y-80473018D01*
X129988928Y-80425774D01*
X129977185Y-80400060D01*
X129969871Y-80377550D01*
X129905993Y-80252182D01*
X129891232Y-80223212D01*
X129789414Y-80083072D01*
X129666928Y-79960586D01*
X129526788Y-79858768D01*
X129497539Y-79843865D01*
X129403605Y-79796003D01*
X129403605Y-79796002D01*
X129368206Y-79777966D01*
X129317409Y-79729992D01*
X129300500Y-79667481D01*
X129300500Y-79642512D01*
X130858197Y-79642512D01*
X131450000Y-80234314D01*
X131450001Y-80234314D01*
X132041801Y-79642512D01*
X131949034Y-79595246D01*
X131949027Y-79595243D01*
X131754417Y-79532009D01*
X131552317Y-79500000D01*
X131347683Y-79500000D01*
X131145581Y-79532010D01*
X131145578Y-79532010D01*
X130950974Y-79595242D01*
X130950973Y-79595242D01*
X130858197Y-79642512D01*
X129300500Y-79642512D01*
X129300500Y-79124499D01*
X129320185Y-79057460D01*
X129372989Y-79011705D01*
X129424500Y-79000499D01*
X129957356Y-79000499D01*
X129957364Y-79000499D01*
X129957379Y-79000497D01*
X129957382Y-79000497D01*
X129982487Y-78997586D01*
X129982488Y-78997585D01*
X129982491Y-78997585D01*
X130085265Y-78952206D01*
X130164706Y-78872765D01*
X130210085Y-78769991D01*
X130210084Y-78769991D01*
X130213853Y-78761458D01*
X130215908Y-78762365D01*
X130245764Y-78713785D01*
X130308722Y-78683486D01*
X130378067Y-78692035D01*
X130416518Y-78718163D01*
X130553757Y-78855402D01*
X130738723Y-78989788D01*
X130942433Y-79093583D01*
X130942436Y-79093585D01*
X131099999Y-79144779D01*
X131100000Y-79144779D01*
X131100000Y-78077818D01*
X131162292Y-78140110D01*
X131287708Y-78212518D01*
X131427591Y-78250000D01*
X131572409Y-78250000D01*
X131712292Y-78212518D01*
X131837708Y-78140110D01*
X131900000Y-78077818D01*
X131900000Y-79144779D01*
X132057563Y-79093585D01*
X132057566Y-79093583D01*
X132261276Y-78989788D01*
X132446242Y-78855402D01*
X132607902Y-78693742D01*
X132742288Y-78508776D01*
X132774918Y-78444735D01*
X132822892Y-78393938D01*
X132890713Y-78377142D01*
X132956848Y-78399678D01*
X132985721Y-78428141D01*
X133084265Y-78563775D01*
X133223725Y-78703235D01*
X133383285Y-78819162D01*
X133421794Y-78838783D01*
X133472590Y-78886756D01*
X133489500Y-78949268D01*
X133489500Y-79749005D01*
X133469815Y-79816044D01*
X133426666Y-79855084D01*
X133427364Y-79856223D01*
X133423218Y-79858763D01*
X133367477Y-79899262D01*
X133283072Y-79960586D01*
X133283070Y-79960588D01*
X133283069Y-79960588D01*
X133160588Y-80083069D01*
X133160588Y-80083070D01*
X133160586Y-80083072D01*
X133147924Y-80100500D01*
X133058768Y-80223211D01*
X132980128Y-80377550D01*
X132947814Y-80477002D01*
X132908375Y-80534677D01*
X132844016Y-80561875D01*
X132775170Y-80549960D01*
X132723695Y-80502715D01*
X132711952Y-80477001D01*
X132654755Y-80300970D01*
X132607485Y-80208198D01*
X131770080Y-81045605D01*
X131822741Y-80954394D01*
X131850000Y-80852661D01*
X131850000Y-80747339D01*
X131822741Y-80645606D01*
X131770080Y-80554394D01*
X131695606Y-80479920D01*
X131604394Y-80427259D01*
X131502661Y-80400000D01*
X131397339Y-80400000D01*
X131295606Y-80427259D01*
X131204394Y-80479920D01*
X131129920Y-80554394D01*
X131077259Y-80645606D01*
X131050000Y-80747339D01*
X131050000Y-80852661D01*
X131077259Y-80954394D01*
X131129920Y-81045606D01*
X131204394Y-81120080D01*
X131295606Y-81172741D01*
X131397339Y-81200000D01*
X131502661Y-81200000D01*
X131604394Y-81172741D01*
X131695606Y-81120080D01*
X130858198Y-81957485D01*
X130950968Y-82004755D01*
X131145582Y-82067990D01*
X131347683Y-82100000D01*
X131422111Y-82100000D01*
X131489150Y-82119685D01*
X131534905Y-82172489D01*
X131544849Y-82241647D01*
X131515824Y-82305203D01*
X131509792Y-82311681D01*
X128914967Y-84906506D01*
X128853644Y-84939991D01*
X128788971Y-84936757D01*
X128757702Y-84926598D01*
X128630845Y-84906506D01*
X128586611Y-84899500D01*
X128413389Y-84899500D01*
X128373728Y-84905781D01*
X128242302Y-84926597D01*
X128077552Y-84980128D01*
X127923211Y-85058768D01*
X127857348Y-85106621D01*
X127783072Y-85160586D01*
X127783070Y-85160588D01*
X127783069Y-85160588D01*
X127660588Y-85283069D01*
X127660588Y-85283070D01*
X127660586Y-85283072D01*
X127616859Y-85343256D01*
X127558768Y-85423211D01*
X127480128Y-85577552D01*
X127426597Y-85742302D01*
X127399500Y-85913389D01*
X127399500Y-86086610D01*
X127426261Y-86255578D01*
X127426598Y-86257701D01*
X127454074Y-86342264D01*
X127480128Y-86422447D01*
X127523382Y-86507339D01*
X127558768Y-86576788D01*
X127660586Y-86716928D01*
X127783072Y-86839414D01*
X127883386Y-86912297D01*
X127926051Y-86967624D01*
X127934500Y-87012613D01*
X127934500Y-87976488D01*
X127914815Y-88043527D01*
X127883385Y-88076806D01*
X127768075Y-88160583D01*
X127768069Y-88160588D01*
X127645588Y-88283069D01*
X127645588Y-88283070D01*
X127645586Y-88283072D01*
X127613269Y-88327552D01*
X127543768Y-88423211D01*
X127465128Y-88577552D01*
X127465127Y-88577554D01*
X127465127Y-88577555D01*
X127448977Y-88627259D01*
X127411597Y-88742302D01*
X127388240Y-88889778D01*
X127384500Y-88913389D01*
X127384500Y-89086611D01*
X127388240Y-89110222D01*
X127410224Y-89249031D01*
X127411598Y-89257701D01*
X127465127Y-89422445D01*
X127543768Y-89576788D01*
X127645586Y-89716928D01*
X127768072Y-89839414D01*
X127908212Y-89941232D01*
X128062555Y-90019873D01*
X128227299Y-90073402D01*
X128398389Y-90100500D01*
X128398390Y-90100500D01*
X128571610Y-90100500D01*
X128571611Y-90100500D01*
X128742701Y-90073402D01*
X128907445Y-90019873D01*
X129061788Y-89941232D01*
X129201928Y-89839414D01*
X129324414Y-89716928D01*
X129426232Y-89576788D01*
X129504873Y-89422445D01*
X129558402Y-89257701D01*
X129585500Y-89086611D01*
X129585500Y-88913389D01*
X129924500Y-88913389D01*
X129924500Y-89086611D01*
X129928240Y-89110222D01*
X129950224Y-89249031D01*
X129951598Y-89257701D01*
X130005127Y-89422445D01*
X130083768Y-89576788D01*
X130185586Y-89716928D01*
X130308072Y-89839414D01*
X130448212Y-89941232D01*
X130602555Y-90019873D01*
X130767299Y-90073402D01*
X130938389Y-90100500D01*
X130938390Y-90100500D01*
X131111610Y-90100500D01*
X131111611Y-90100500D01*
X131282701Y-90073402D01*
X131447445Y-90019873D01*
X131601788Y-89941232D01*
X131741928Y-89839414D01*
X131864414Y-89716928D01*
X131966232Y-89576788D01*
X132044873Y-89422445D01*
X132098402Y-89257701D01*
X132125500Y-89086611D01*
X132125500Y-88913389D01*
X132103202Y-88772606D01*
X132112156Y-88703315D01*
X132137991Y-88665532D01*
X132333523Y-88470000D01*
X132394844Y-88436517D01*
X132464536Y-88441501D01*
X132520469Y-88483373D01*
X132544886Y-88548837D01*
X132539133Y-88596001D01*
X132491597Y-88742301D01*
X132468240Y-88889778D01*
X132464500Y-88913389D01*
X132464500Y-89086611D01*
X132468240Y-89110222D01*
X132490224Y-89249031D01*
X132491598Y-89257701D01*
X132545127Y-89422445D01*
X132623768Y-89576788D01*
X132725586Y-89716928D01*
X132848072Y-89839414D01*
X132948477Y-89912363D01*
X132963385Y-89923194D01*
X133006051Y-89978524D01*
X133014500Y-90023512D01*
X133014500Y-92220613D01*
X132994815Y-92287652D01*
X132978181Y-92308294D01*
X130584491Y-94701983D01*
X130584490Y-94701985D01*
X130517221Y-94818500D01*
X130512016Y-94827515D01*
X130474500Y-94967525D01*
X130474500Y-94967527D01*
X130474500Y-95596488D01*
X130454815Y-95663527D01*
X130423385Y-95696806D01*
X130308075Y-95780583D01*
X130308069Y-95780588D01*
X130185588Y-95903069D01*
X130185588Y-95903070D01*
X130185586Y-95903072D01*
X130147263Y-95955819D01*
X130083768Y-96043211D01*
X130005128Y-96197552D01*
X129951597Y-96362302D01*
X129924722Y-96531985D01*
X129924500Y-96533389D01*
X129924500Y-96706611D01*
X129931451Y-96750500D01*
X129939744Y-96802861D01*
X129951598Y-96877701D01*
X130005127Y-97042445D01*
X130083768Y-97196788D01*
X130185586Y-97336928D01*
X130308072Y-97459414D01*
X130448212Y-97561232D01*
X130602555Y-97639873D01*
X130767299Y-97693402D01*
X130938389Y-97720500D01*
X130938390Y-97720500D01*
X131111610Y-97720500D01*
X131111611Y-97720500D01*
X131282701Y-97693402D01*
X131447445Y-97639873D01*
X131601788Y-97561232D01*
X131741928Y-97459414D01*
X131864414Y-97336928D01*
X131966232Y-97196788D01*
X132044873Y-97042445D01*
X132098402Y-96877701D01*
X132125500Y-96706611D01*
X132125500Y-96533389D01*
X132464500Y-96533389D01*
X132464500Y-96706611D01*
X132471451Y-96750500D01*
X132479744Y-96802861D01*
X132491598Y-96877701D01*
X132545127Y-97042445D01*
X132623768Y-97196788D01*
X132725586Y-97336928D01*
X132848072Y-97459414D01*
X132988212Y-97561232D01*
X133142555Y-97639873D01*
X133307299Y-97693402D01*
X133478389Y-97720500D01*
X133478390Y-97720500D01*
X133651610Y-97720500D01*
X133651611Y-97720500D01*
X133822701Y-97693402D01*
X133987445Y-97639873D01*
X134141788Y-97561232D01*
X134281928Y-97459414D01*
X134404414Y-97336928D01*
X134506232Y-97196788D01*
X134584873Y-97042445D01*
X134638402Y-96877701D01*
X134665500Y-96706611D01*
X134665500Y-96533389D01*
X134643202Y-96392606D01*
X134652156Y-96323315D01*
X134677991Y-96285532D01*
X134873522Y-96090002D01*
X134934844Y-96056518D01*
X135004536Y-96061502D01*
X135060469Y-96103374D01*
X135084886Y-96168838D01*
X135079133Y-96216002D01*
X135031597Y-96362301D01*
X135004722Y-96531985D01*
X135004500Y-96533389D01*
X135004500Y-96706611D01*
X135011451Y-96750500D01*
X135019744Y-96802861D01*
X135031598Y-96877701D01*
X135085127Y-97042445D01*
X135163768Y-97196788D01*
X135265586Y-97336928D01*
X135388072Y-97459414D01*
X135528212Y-97561232D01*
X135682555Y-97639873D01*
X135847299Y-97693402D01*
X136018389Y-97720500D01*
X136018390Y-97720500D01*
X136191610Y-97720500D01*
X136191611Y-97720500D01*
X136362701Y-97693402D01*
X136408432Y-97678543D01*
X138604499Y-97678543D01*
X138642947Y-97871829D01*
X138642950Y-97871839D01*
X138718364Y-98053907D01*
X138718371Y-98053920D01*
X138827860Y-98217781D01*
X138827863Y-98217785D01*
X138967214Y-98357136D01*
X138967218Y-98357139D01*
X139131079Y-98466628D01*
X139131092Y-98466635D01*
X139313160Y-98542049D01*
X139313165Y-98542051D01*
X139313169Y-98542051D01*
X139313170Y-98542052D01*
X139506456Y-98580500D01*
X139506459Y-98580500D01*
X139703541Y-98580500D01*
X139741488Y-98572951D01*
X139811078Y-98579177D01*
X139853362Y-98606887D01*
X140844158Y-99597682D01*
X141746986Y-100500510D01*
X141746988Y-100500511D01*
X141746992Y-100500514D01*
X141757426Y-100506538D01*
X141757429Y-100506539D01*
X141757434Y-100506542D01*
X141872515Y-100572984D01*
X142012525Y-100610500D01*
X142012526Y-100610500D01*
X142157474Y-100610500D01*
X145284384Y-100610500D01*
X145351423Y-100630185D01*
X145397178Y-100682989D01*
X145407499Y-100719715D01*
X145408488Y-100727950D01*
X145410122Y-100741561D01*
X145465639Y-100882343D01*
X145557077Y-101002922D01*
X145677656Y-101094360D01*
X145677657Y-101094360D01*
X145677658Y-101094361D01*
X145818436Y-101149877D01*
X145906898Y-101160500D01*
X145906903Y-101160500D01*
X147093097Y-101160500D01*
X147093102Y-101160500D01*
X147181564Y-101149877D01*
X147322342Y-101094361D01*
X147442922Y-101002922D01*
X147534361Y-100882342D01*
X147589877Y-100741564D01*
X147600500Y-100653102D01*
X147600500Y-99466898D01*
X147589877Y-99378436D01*
X147534361Y-99237658D01*
X147534360Y-99237657D01*
X147534360Y-99237656D01*
X147442922Y-99117077D01*
X147322343Y-99025639D01*
X147214395Y-98983070D01*
X147181564Y-98970123D01*
X147181563Y-98970122D01*
X147181561Y-98970122D01*
X147135926Y-98964642D01*
X147093102Y-98959500D01*
X145906898Y-98959500D01*
X145867853Y-98964188D01*
X145818438Y-98970122D01*
X145677656Y-99025639D01*
X145557077Y-99117077D01*
X145465639Y-99237656D01*
X145410122Y-99378438D01*
X145407500Y-99400282D01*
X145379964Y-99464497D01*
X145322082Y-99503631D01*
X145284384Y-99509500D01*
X142364386Y-99509500D01*
X142297347Y-99489815D01*
X142276705Y-99473181D01*
X140631887Y-97828362D01*
X140598402Y-97767039D01*
X140597951Y-97716490D01*
X140605500Y-97678541D01*
X140605500Y-97481459D01*
X140605500Y-97481456D01*
X140567052Y-97288170D01*
X140567051Y-97288169D01*
X140567051Y-97288165D01*
X140529202Y-97196788D01*
X140491635Y-97106092D01*
X140491628Y-97106079D01*
X140382139Y-96942218D01*
X140382136Y-96942214D01*
X140242785Y-96802863D01*
X140242781Y-96802860D01*
X140078920Y-96693371D01*
X140078907Y-96693364D01*
X139896839Y-96617950D01*
X139896829Y-96617947D01*
X139703543Y-96579500D01*
X139703541Y-96579500D01*
X139506459Y-96579500D01*
X139506457Y-96579500D01*
X139313170Y-96617947D01*
X139313160Y-96617950D01*
X139131092Y-96693364D01*
X139131079Y-96693371D01*
X138967218Y-96802860D01*
X138967214Y-96802863D01*
X138827863Y-96942214D01*
X138827860Y-96942218D01*
X138718371Y-97106079D01*
X138718364Y-97106092D01*
X138642950Y-97288160D01*
X138642947Y-97288170D01*
X138604500Y-97481456D01*
X138604500Y-97481459D01*
X138604500Y-97678541D01*
X138604500Y-97678543D01*
X138604499Y-97678543D01*
X136408432Y-97678543D01*
X136527445Y-97639873D01*
X136681788Y-97561232D01*
X136821928Y-97459414D01*
X136944414Y-97336928D01*
X137046232Y-97196788D01*
X137124873Y-97042445D01*
X137178402Y-96877701D01*
X137205500Y-96706611D01*
X137205500Y-96533389D01*
X137178402Y-96362299D01*
X137124873Y-96197555D01*
X137075061Y-96099794D01*
X137062166Y-96031126D01*
X137088442Y-95966385D01*
X137145549Y-95926128D01*
X137185547Y-95919500D01*
X140364613Y-95919500D01*
X140431652Y-95939185D01*
X140452294Y-95955819D01*
X141963181Y-97466706D01*
X141996666Y-97528029D01*
X141999500Y-97554387D01*
X141999500Y-97678541D01*
X141999500Y-97678543D01*
X141999499Y-97678543D01*
X142037947Y-97871829D01*
X142037950Y-97871839D01*
X142113364Y-98053907D01*
X142113371Y-98053920D01*
X142222860Y-98217781D01*
X142222863Y-98217785D01*
X142362214Y-98357136D01*
X142362218Y-98357139D01*
X142526079Y-98466628D01*
X142526092Y-98466635D01*
X142708160Y-98542049D01*
X142708165Y-98542051D01*
X142708169Y-98542051D01*
X142708170Y-98542052D01*
X142901456Y-98580500D01*
X142901459Y-98580500D01*
X143098543Y-98580500D01*
X143228582Y-98554632D01*
X143291835Y-98542051D01*
X143473914Y-98466632D01*
X143637782Y-98357139D01*
X143777139Y-98217782D01*
X143886632Y-98053914D01*
X143962051Y-97871835D01*
X143982390Y-97769586D01*
X144000500Y-97678543D01*
X144000500Y-97481456D01*
X143962052Y-97288170D01*
X143962051Y-97288169D01*
X143962051Y-97288165D01*
X143924202Y-97196788D01*
X143886635Y-97106092D01*
X143886628Y-97106079D01*
X143777139Y-96942218D01*
X143777136Y-96942214D01*
X143637785Y-96802863D01*
X143637781Y-96802860D01*
X143473920Y-96693371D01*
X143473907Y-96693364D01*
X143291839Y-96617950D01*
X143291829Y-96617947D01*
X143098543Y-96579500D01*
X143098541Y-96579500D01*
X142901459Y-96579500D01*
X142901454Y-96579500D01*
X142742566Y-96611105D01*
X142672975Y-96604878D01*
X142630694Y-96577169D01*
X140982016Y-94928491D01*
X140982015Y-94928490D01*
X140856485Y-94856016D01*
X140856486Y-94856016D01*
X140821482Y-94846637D01*
X140716475Y-94818500D01*
X134743525Y-94818500D01*
X134638517Y-94846637D01*
X134603514Y-94856016D01*
X134477986Y-94928489D01*
X134477983Y-94928491D01*
X133899468Y-95507005D01*
X133838145Y-95540490D01*
X133792389Y-95541797D01*
X133651611Y-95519500D01*
X133478389Y-95519500D01*
X133438728Y-95525781D01*
X133307302Y-95546597D01*
X133142552Y-95600128D01*
X132988211Y-95678768D01*
X132948400Y-95707693D01*
X132848072Y-95780586D01*
X132848070Y-95780588D01*
X132848069Y-95780588D01*
X132725588Y-95903069D01*
X132725588Y-95903070D01*
X132725586Y-95903072D01*
X132687263Y-95955819D01*
X132623768Y-96043211D01*
X132545128Y-96197552D01*
X132491597Y-96362302D01*
X132464722Y-96531985D01*
X132464500Y-96533389D01*
X132125500Y-96533389D01*
X132098402Y-96362299D01*
X132044873Y-96197555D01*
X131966232Y-96043212D01*
X131864414Y-95903072D01*
X131741928Y-95780586D01*
X131626614Y-95696805D01*
X131583949Y-95641476D01*
X131575500Y-95596488D01*
X131575500Y-95319387D01*
X131595185Y-95252348D01*
X131611819Y-95231706D01*
X133756706Y-93086819D01*
X133818029Y-93053334D01*
X133844387Y-93050500D01*
X134322525Y-93050500D01*
X138703261Y-93050500D01*
X138770300Y-93070185D01*
X138806363Y-93105609D01*
X138827860Y-93137781D01*
X138827863Y-93137785D01*
X138967214Y-93277136D01*
X138967218Y-93277139D01*
X139131079Y-93386628D01*
X139131092Y-93386635D01*
X139261131Y-93440498D01*
X139313165Y-93462051D01*
X139313169Y-93462051D01*
X139313170Y-93462052D01*
X139506456Y-93500500D01*
X139506459Y-93500500D01*
X139703543Y-93500500D01*
X139833582Y-93474632D01*
X139896835Y-93462051D01*
X140078914Y-93386632D01*
X140242782Y-93277139D01*
X140382139Y-93137782D01*
X140392818Y-93121798D01*
X140403637Y-93105609D01*
X140457250Y-93060804D01*
X140506739Y-93050500D01*
X142098261Y-93050500D01*
X142165300Y-93070185D01*
X142201363Y-93105609D01*
X142222860Y-93137781D01*
X142222863Y-93137785D01*
X142362214Y-93277136D01*
X142362218Y-93277139D01*
X142526079Y-93386628D01*
X142526092Y-93386635D01*
X142656131Y-93440498D01*
X142708165Y-93462051D01*
X142708169Y-93462051D01*
X142708170Y-93462052D01*
X142901456Y-93500500D01*
X142901459Y-93500500D01*
X143098543Y-93500500D01*
X143228582Y-93474632D01*
X143291835Y-93462051D01*
X143473914Y-93386632D01*
X143637782Y-93277139D01*
X143777139Y-93137782D01*
X143886632Y-92973914D01*
X143962051Y-92791835D01*
X143980776Y-92697701D01*
X144000500Y-92598543D01*
X144000500Y-92401456D01*
X143962052Y-92208170D01*
X143962051Y-92208169D01*
X143962051Y-92208165D01*
X143927271Y-92124197D01*
X143886635Y-92026092D01*
X143886628Y-92026079D01*
X143777139Y-91862218D01*
X143777136Y-91862214D01*
X143637785Y-91722863D01*
X143637781Y-91722860D01*
X143473920Y-91613371D01*
X143473907Y-91613364D01*
X143291839Y-91537950D01*
X143291829Y-91537947D01*
X143098543Y-91499500D01*
X143098541Y-91499500D01*
X142901459Y-91499500D01*
X142901457Y-91499500D01*
X142708170Y-91537947D01*
X142708160Y-91537950D01*
X142526092Y-91613364D01*
X142526079Y-91613371D01*
X142362218Y-91722860D01*
X142362214Y-91722863D01*
X142222863Y-91862214D01*
X142222860Y-91862218D01*
X142201363Y-91894391D01*
X142147750Y-91939196D01*
X142098261Y-91949500D01*
X140506739Y-91949500D01*
X140499121Y-91947263D01*
X140491285Y-91948533D01*
X140466077Y-91937560D01*
X140439700Y-91929815D01*
X140432869Y-91923105D01*
X140427222Y-91920647D01*
X140403637Y-91894391D01*
X140386398Y-91868591D01*
X140365520Y-91801913D01*
X140365500Y-91799700D01*
X140365500Y-89773512D01*
X140385185Y-89706473D01*
X140416615Y-89673194D01*
X140531928Y-89589414D01*
X140654414Y-89466928D01*
X140756232Y-89326788D01*
X140834873Y-89172445D01*
X140888402Y-89007701D01*
X140915500Y-88836611D01*
X140915500Y-88663389D01*
X140888402Y-88492299D01*
X140834873Y-88327555D01*
X140756232Y-88173212D01*
X140654414Y-88033072D01*
X140633523Y-88012181D01*
X140600038Y-87950858D01*
X140605022Y-87881166D01*
X140646894Y-87825233D01*
X140712358Y-87800816D01*
X140721204Y-87800500D01*
X141030613Y-87800500D01*
X141097652Y-87820185D01*
X141118294Y-87836819D01*
X145387005Y-92105530D01*
X145420490Y-92166853D01*
X145421797Y-92212608D01*
X145399501Y-92353382D01*
X145399500Y-92353388D01*
X145399500Y-92526610D01*
X145416404Y-92633342D01*
X145426598Y-92697701D01*
X145480127Y-92862445D01*
X145558768Y-93016788D01*
X145660586Y-93156928D01*
X145783072Y-93279414D01*
X145923212Y-93381232D01*
X146077555Y-93459873D01*
X146242299Y-93513402D01*
X146413389Y-93540500D01*
X146413390Y-93540500D01*
X146586610Y-93540500D01*
X146586611Y-93540500D01*
X146757701Y-93513402D01*
X146922445Y-93459873D01*
X147076788Y-93381232D01*
X147216928Y-93279414D01*
X147339414Y-93156928D01*
X147441232Y-93016788D01*
X147519873Y-92862445D01*
X147573402Y-92697701D01*
X147600500Y-92526611D01*
X147600500Y-92353389D01*
X147596401Y-92327512D01*
X147587605Y-92271975D01*
X147573402Y-92182299D01*
X147519873Y-92017555D01*
X147441232Y-91863212D01*
X147339414Y-91723072D01*
X147216928Y-91600586D01*
X147076788Y-91498768D01*
X146922445Y-91420127D01*
X146757701Y-91366598D01*
X146757699Y-91366597D01*
X146757698Y-91366597D01*
X146626271Y-91345781D01*
X146586611Y-91339500D01*
X146413389Y-91339500D01*
X146272608Y-91361797D01*
X146203315Y-91352842D01*
X146165530Y-91327005D01*
X145063979Y-90225454D01*
X145030494Y-90164131D01*
X145035478Y-90094439D01*
X145077350Y-90038506D01*
X145115186Y-90020736D01*
X145114783Y-90019496D01*
X145314031Y-89954755D01*
X145406801Y-89907485D01*
X144569394Y-89070080D01*
X144660606Y-89122741D01*
X144762339Y-89150000D01*
X144867661Y-89150000D01*
X144969394Y-89122741D01*
X145060606Y-89070080D01*
X145135080Y-88995606D01*
X145187741Y-88904394D01*
X145215000Y-88802661D01*
X145215000Y-88749999D01*
X145380685Y-88749999D01*
X145380685Y-88750000D01*
X145972485Y-89341800D01*
X146019755Y-89249031D01*
X146082990Y-89054417D01*
X146115000Y-88852317D01*
X146115000Y-88647682D01*
X146082990Y-88445582D01*
X146019755Y-88250968D01*
X145972485Y-88158198D01*
X145380685Y-88749999D01*
X145215000Y-88749999D01*
X145215000Y-88697339D01*
X145187741Y-88595606D01*
X145135080Y-88504394D01*
X145060606Y-88429920D01*
X144969394Y-88377259D01*
X144867661Y-88350000D01*
X144762339Y-88350000D01*
X144660606Y-88377259D01*
X144569394Y-88429920D01*
X144494920Y-88504394D01*
X144442259Y-88595606D01*
X144415000Y-88697339D01*
X144415000Y-88802661D01*
X144442259Y-88904394D01*
X144494920Y-88995606D01*
X144285633Y-88786319D01*
X143657512Y-88158197D01*
X143610242Y-88250973D01*
X143610242Y-88250974D01*
X143545504Y-88450216D01*
X143543619Y-88449603D01*
X143512948Y-88502937D01*
X143450899Y-88535058D01*
X143381335Y-88528535D01*
X143339545Y-88501020D01*
X142431037Y-87592512D01*
X144223197Y-87592512D01*
X144815000Y-88184314D01*
X144815001Y-88184314D01*
X145281828Y-87717485D01*
X157348198Y-87717485D01*
X157440968Y-87764755D01*
X157635582Y-87827990D01*
X157837683Y-87860000D01*
X158042317Y-87860000D01*
X158244417Y-87827990D01*
X158439031Y-87764755D01*
X158531801Y-87717485D01*
X164968198Y-87717485D01*
X165060968Y-87764755D01*
X165255582Y-87827990D01*
X165457683Y-87860000D01*
X165662317Y-87860000D01*
X165864417Y-87827990D01*
X166059031Y-87764755D01*
X166151801Y-87717485D01*
X165560001Y-87125685D01*
X165560000Y-87125685D01*
X164968198Y-87717485D01*
X158531801Y-87717485D01*
X157940001Y-87125685D01*
X157940000Y-87125685D01*
X157348198Y-87717485D01*
X145281828Y-87717485D01*
X145406801Y-87592512D01*
X145314034Y-87545246D01*
X145314027Y-87545243D01*
X145119417Y-87482009D01*
X144917317Y-87450000D01*
X144712683Y-87450000D01*
X144510581Y-87482010D01*
X144510578Y-87482010D01*
X144315974Y-87545242D01*
X144315973Y-87545242D01*
X144223197Y-87592512D01*
X142431037Y-87592512D01*
X142196206Y-87357681D01*
X142162721Y-87296358D01*
X142167705Y-87226666D01*
X142196206Y-87182319D01*
X142920843Y-86457682D01*
X156640000Y-86457682D01*
X156640000Y-86662317D01*
X156672009Y-86864417D01*
X156735243Y-87059027D01*
X156735246Y-87059034D01*
X156782512Y-87151801D01*
X157374314Y-86560000D01*
X157374314Y-86559999D01*
X157321654Y-86507339D01*
X157540000Y-86507339D01*
X157540000Y-86612661D01*
X157567259Y-86714394D01*
X157619920Y-86805606D01*
X157694394Y-86880080D01*
X157785606Y-86932741D01*
X157887339Y-86960000D01*
X157992661Y-86960000D01*
X158094394Y-86932741D01*
X158185606Y-86880080D01*
X158260080Y-86805606D01*
X158312741Y-86714394D01*
X158340000Y-86612661D01*
X158340000Y-86559999D01*
X158505685Y-86559999D01*
X158505685Y-86560000D01*
X159097485Y-87151801D01*
X159144755Y-87059031D01*
X159207990Y-86864417D01*
X159240000Y-86662317D01*
X159240000Y-86457682D01*
X164260000Y-86457682D01*
X164260000Y-86662317D01*
X164292009Y-86864417D01*
X164355243Y-87059027D01*
X164355246Y-87059034D01*
X164402512Y-87151801D01*
X164994314Y-86560000D01*
X164994314Y-86559999D01*
X164941654Y-86507339D01*
X165160000Y-86507339D01*
X165160000Y-86612661D01*
X165187259Y-86714394D01*
X165239920Y-86805606D01*
X165314394Y-86880080D01*
X165405606Y-86932741D01*
X165507339Y-86960000D01*
X165612661Y-86960000D01*
X165714394Y-86932741D01*
X165805606Y-86880080D01*
X165880080Y-86805606D01*
X165932741Y-86714394D01*
X165960000Y-86612661D01*
X165960000Y-86559999D01*
X166125685Y-86559999D01*
X166125685Y-86560000D01*
X166717485Y-87151801D01*
X166764755Y-87059031D01*
X166827990Y-86864417D01*
X166860000Y-86662317D01*
X166860000Y-86457682D01*
X166827990Y-86255582D01*
X166764755Y-86060968D01*
X166717485Y-85968198D01*
X166125685Y-86559999D01*
X165960000Y-86559999D01*
X165960000Y-86507339D01*
X165932741Y-86405606D01*
X165880080Y-86314394D01*
X165805606Y-86239920D01*
X165714394Y-86187259D01*
X165612661Y-86160000D01*
X165507339Y-86160000D01*
X165405606Y-86187259D01*
X165314394Y-86239920D01*
X165239920Y-86314394D01*
X165187259Y-86405606D01*
X165160000Y-86507339D01*
X164941654Y-86507339D01*
X164402512Y-85968197D01*
X164355242Y-86060973D01*
X164355242Y-86060974D01*
X164292010Y-86255578D01*
X164292010Y-86255581D01*
X164260000Y-86457682D01*
X159240000Y-86457682D01*
X159207990Y-86255582D01*
X159144755Y-86060968D01*
X159097485Y-85968198D01*
X158505685Y-86559999D01*
X158340000Y-86559999D01*
X158340000Y-86507339D01*
X158312741Y-86405606D01*
X158260080Y-86314394D01*
X158185606Y-86239920D01*
X158094394Y-86187259D01*
X157992661Y-86160000D01*
X157887339Y-86160000D01*
X157785606Y-86187259D01*
X157694394Y-86239920D01*
X157619920Y-86314394D01*
X157567259Y-86405606D01*
X157540000Y-86507339D01*
X157321654Y-86507339D01*
X156782512Y-85968197D01*
X156735242Y-86060973D01*
X156735242Y-86060974D01*
X156672010Y-86255578D01*
X156672010Y-86255581D01*
X156640000Y-86457682D01*
X142920843Y-86457682D01*
X144771706Y-84606819D01*
X144833029Y-84573334D01*
X144859387Y-84570500D01*
X156916487Y-84570500D01*
X156983526Y-84590185D01*
X157016805Y-84621614D01*
X157031461Y-84641786D01*
X157100586Y-84736928D01*
X157223072Y-84859414D01*
X157363212Y-84961232D01*
X157517555Y-85039873D01*
X157601614Y-85067185D01*
X157659288Y-85106621D01*
X157686487Y-85170979D01*
X157674573Y-85239826D01*
X157627329Y-85291302D01*
X157601614Y-85303046D01*
X157440972Y-85355243D01*
X157348197Y-85402512D01*
X157940000Y-85994314D01*
X157940001Y-85994314D01*
X158531801Y-85402512D01*
X158439034Y-85355246D01*
X158439027Y-85355243D01*
X158278385Y-85303047D01*
X158220710Y-85263609D01*
X158193512Y-85199250D01*
X158205427Y-85130404D01*
X158252671Y-85078928D01*
X158278381Y-85067187D01*
X158362445Y-85039873D01*
X158516788Y-84961232D01*
X158656928Y-84859414D01*
X158779414Y-84736928D01*
X158881232Y-84596788D01*
X158959873Y-84442445D01*
X159013402Y-84277701D01*
X159040500Y-84106611D01*
X159040500Y-83933389D01*
X159013402Y-83762299D01*
X158959873Y-83597555D01*
X158881232Y-83443212D01*
X158779414Y-83303072D01*
X158656928Y-83180586D01*
X158516788Y-83078768D01*
X158362445Y-83000127D01*
X158197701Y-82946598D01*
X158197699Y-82946597D01*
X158197698Y-82946597D01*
X158066271Y-82925781D01*
X158026611Y-82919500D01*
X157853389Y-82919500D01*
X157813728Y-82925781D01*
X157682302Y-82946597D01*
X157517552Y-83000128D01*
X157363211Y-83078768D01*
X157283256Y-83136859D01*
X157223072Y-83180586D01*
X157223070Y-83180588D01*
X157223069Y-83180588D01*
X157100587Y-83303070D01*
X157016805Y-83418386D01*
X156961474Y-83461051D01*
X156916487Y-83469500D01*
X144507525Y-83469500D01*
X144402517Y-83497637D01*
X144367514Y-83507016D01*
X144241986Y-83579489D01*
X144241983Y-83579491D01*
X141158294Y-86663181D01*
X141096971Y-86696666D01*
X141070613Y-86699500D01*
X132702525Y-86699500D01*
X132597517Y-86727637D01*
X132562514Y-86737016D01*
X132436986Y-86809489D01*
X132436983Y-86809491D01*
X131359468Y-87887005D01*
X131298145Y-87920490D01*
X131252389Y-87921797D01*
X131235922Y-87919189D01*
X131181605Y-87910586D01*
X131111611Y-87899500D01*
X130938389Y-87899500D01*
X130898728Y-87905781D01*
X130767302Y-87926597D01*
X130602552Y-87980128D01*
X130448211Y-88058768D01*
X130368256Y-88116859D01*
X130308072Y-88160586D01*
X130308070Y-88160588D01*
X130308069Y-88160588D01*
X130185588Y-88283069D01*
X130185588Y-88283070D01*
X130185586Y-88283072D01*
X130153269Y-88327552D01*
X130083768Y-88423211D01*
X130005128Y-88577552D01*
X130005127Y-88577554D01*
X130005127Y-88577555D01*
X129988977Y-88627259D01*
X129951597Y-88742302D01*
X129928240Y-88889778D01*
X129924500Y-88913389D01*
X129585500Y-88913389D01*
X129558402Y-88742299D01*
X129504873Y-88577555D01*
X129426232Y-88423212D01*
X129324414Y-88283072D01*
X129201928Y-88160586D01*
X129086614Y-88076805D01*
X129043949Y-88021476D01*
X129035500Y-87976488D01*
X129035500Y-87157485D01*
X130408198Y-87157485D01*
X130500968Y-87204755D01*
X130695582Y-87267990D01*
X130897683Y-87300000D01*
X131102317Y-87300000D01*
X131304417Y-87267990D01*
X131499031Y-87204755D01*
X131591801Y-87157485D01*
X131000001Y-86565685D01*
X131000000Y-86565685D01*
X130408198Y-87157485D01*
X129035500Y-87157485D01*
X129035500Y-87034410D01*
X129055185Y-86967371D01*
X129086615Y-86934092D01*
X129216928Y-86839414D01*
X129339414Y-86716928D01*
X129441232Y-86576788D01*
X129519873Y-86422445D01*
X129527185Y-86399938D01*
X129566621Y-86342264D01*
X129630980Y-86315065D01*
X129699826Y-86326979D01*
X129751303Y-86374223D01*
X129763047Y-86399938D01*
X129795243Y-86499027D01*
X129795246Y-86499034D01*
X129842512Y-86591801D01*
X130486975Y-85947339D01*
X130600000Y-85947339D01*
X130600000Y-86052661D01*
X130627259Y-86154394D01*
X130679920Y-86245606D01*
X130754394Y-86320080D01*
X130845606Y-86372741D01*
X130947339Y-86400000D01*
X131052661Y-86400000D01*
X131154394Y-86372741D01*
X131245606Y-86320080D01*
X131320080Y-86245606D01*
X131372741Y-86154394D01*
X131400000Y-86052661D01*
X131400000Y-85999999D01*
X131565685Y-85999999D01*
X131565685Y-86000000D01*
X132157485Y-86591800D01*
X132204755Y-86499031D01*
X132267990Y-86304417D01*
X132300000Y-86102317D01*
X132300000Y-85897682D01*
X132267990Y-85695582D01*
X132204755Y-85500968D01*
X132157485Y-85408198D01*
X131565685Y-85999999D01*
X131400000Y-85999999D01*
X131400000Y-85947339D01*
X131372741Y-85845606D01*
X131320080Y-85754394D01*
X131245606Y-85679920D01*
X131154394Y-85627259D01*
X131052661Y-85600000D01*
X130947339Y-85600000D01*
X130845606Y-85627259D01*
X130754394Y-85679920D01*
X130679920Y-85754394D01*
X130627259Y-85845606D01*
X130600000Y-85947339D01*
X130486975Y-85947339D01*
X130573357Y-85860957D01*
X131591801Y-84842512D01*
X131499034Y-84795246D01*
X131499027Y-84795243D01*
X131304417Y-84732009D01*
X131102317Y-84700000D01*
X130977885Y-84700000D01*
X130910846Y-84680315D01*
X130865091Y-84627511D01*
X130855147Y-84558353D01*
X130884172Y-84494797D01*
X130890190Y-84488333D01*
X133509557Y-81868966D01*
X133570878Y-81835483D01*
X133635553Y-81838717D01*
X133742299Y-81873402D01*
X133913389Y-81900500D01*
X133913390Y-81900500D01*
X134086610Y-81900500D01*
X134086611Y-81900500D01*
X134257701Y-81873402D01*
X134422445Y-81819873D01*
X134454064Y-81803761D01*
X134522732Y-81790865D01*
X134587473Y-81817141D01*
X134598040Y-81826565D01*
X135461985Y-82690510D01*
X135587515Y-82762984D01*
X135727525Y-82800500D01*
X135727528Y-82800500D01*
X153371108Y-82800500D01*
X153371110Y-82800500D01*
X153371111Y-82800500D01*
X153511121Y-82762984D01*
X153636651Y-82690510D01*
X156675569Y-79651591D01*
X156736890Y-79618108D01*
X156806582Y-79623092D01*
X156862515Y-79664964D01*
X156878602Y-79693784D01*
X156905637Y-79762339D01*
X156905638Y-79762341D01*
X156997077Y-79882922D01*
X157117656Y-79974360D01*
X157117657Y-79974360D01*
X157117658Y-79974361D01*
X157258436Y-80029877D01*
X157346898Y-80040500D01*
X157346903Y-80040500D01*
X158301612Y-80040500D01*
X158368651Y-80060185D01*
X158414406Y-80112989D01*
X158424350Y-80182147D01*
X158395325Y-80245703D01*
X158389306Y-80252167D01*
X158283461Y-80358013D01*
X158274468Y-80367006D01*
X158213145Y-80400490D01*
X158167389Y-80401797D01*
X158026611Y-80379500D01*
X157853389Y-80379500D01*
X157813728Y-80385781D01*
X157682302Y-80406597D01*
X157517552Y-80460128D01*
X157363211Y-80538768D01*
X157283256Y-80596859D01*
X157223072Y-80640586D01*
X157223070Y-80640588D01*
X157223069Y-80640588D01*
X157100588Y-80763069D01*
X157100588Y-80763070D01*
X157100586Y-80763072D01*
X157094118Y-80771975D01*
X156998768Y-80903211D01*
X156920128Y-81057552D01*
X156920127Y-81057554D01*
X156920127Y-81057555D01*
X156901441Y-81115065D01*
X156866597Y-81222302D01*
X156839500Y-81393389D01*
X156839500Y-81566610D01*
X156860547Y-81699500D01*
X156866598Y-81737701D01*
X156920127Y-81902445D01*
X156998768Y-82056788D01*
X157100586Y-82196928D01*
X157223072Y-82319414D01*
X157363212Y-82421232D01*
X157517555Y-82499873D01*
X157682299Y-82553402D01*
X157853389Y-82580500D01*
X157853390Y-82580500D01*
X158026610Y-82580500D01*
X158026611Y-82580500D01*
X158197701Y-82553402D01*
X158362445Y-82499873D01*
X158516788Y-82421232D01*
X158656928Y-82319414D01*
X158779414Y-82196928D01*
X158881232Y-82056788D01*
X158959873Y-81902445D01*
X159013402Y-81737701D01*
X159040500Y-81566611D01*
X159040500Y-81393389D01*
X164459500Y-81393389D01*
X164459500Y-81566610D01*
X164480547Y-81699500D01*
X164486598Y-81737701D01*
X164540127Y-81902445D01*
X164618768Y-82056788D01*
X164720586Y-82196928D01*
X164843072Y-82319414D01*
X164983212Y-82421232D01*
X165137555Y-82499873D01*
X165302299Y-82553402D01*
X165473389Y-82580500D01*
X165473390Y-82580500D01*
X165646610Y-82580500D01*
X165646611Y-82580500D01*
X165817701Y-82553402D01*
X165982445Y-82499873D01*
X166136788Y-82421232D01*
X166276928Y-82319414D01*
X166279523Y-82316819D01*
X166340846Y-82283334D01*
X166367204Y-82280500D01*
X167058061Y-82280500D01*
X167125100Y-82300185D01*
X167170855Y-82352989D01*
X167180799Y-82422147D01*
X167151774Y-82485703D01*
X167145745Y-82492177D01*
X166782805Y-82855117D01*
X166454813Y-83183109D01*
X166393490Y-83216594D01*
X166323798Y-83211610D01*
X166279451Y-83183109D01*
X166276930Y-83180588D01*
X166276928Y-83180586D01*
X166136788Y-83078768D01*
X165982445Y-83000127D01*
X165817701Y-82946598D01*
X165817699Y-82946597D01*
X165817698Y-82946597D01*
X165686271Y-82925781D01*
X165646611Y-82919500D01*
X165473389Y-82919500D01*
X165433728Y-82925781D01*
X165302302Y-82946597D01*
X165137552Y-83000128D01*
X164983211Y-83078768D01*
X164903256Y-83136859D01*
X164843072Y-83180586D01*
X164843070Y-83180588D01*
X164843069Y-83180588D01*
X164720588Y-83303069D01*
X164720588Y-83303070D01*
X164720586Y-83303072D01*
X164676859Y-83363256D01*
X164618768Y-83443211D01*
X164540128Y-83597552D01*
X164486597Y-83762302D01*
X164459500Y-83933389D01*
X164459500Y-84106610D01*
X164484632Y-84265292D01*
X164486598Y-84277701D01*
X164540127Y-84442445D01*
X164618768Y-84596788D01*
X164720586Y-84736928D01*
X164843072Y-84859414D01*
X164983212Y-84961232D01*
X165137555Y-85039873D01*
X165221614Y-85067185D01*
X165279288Y-85106621D01*
X165306487Y-85170979D01*
X165294573Y-85239826D01*
X165247329Y-85291302D01*
X165221614Y-85303046D01*
X165060972Y-85355243D01*
X164968197Y-85402512D01*
X165560000Y-85994314D01*
X165560001Y-85994314D01*
X166151801Y-85402512D01*
X166059034Y-85355246D01*
X166059027Y-85355243D01*
X165898385Y-85303047D01*
X165840710Y-85263609D01*
X165813512Y-85199250D01*
X165825427Y-85130404D01*
X165872671Y-85078928D01*
X165898381Y-85067187D01*
X165982445Y-85039873D01*
X166136788Y-84961232D01*
X166276928Y-84859414D01*
X166279523Y-84856819D01*
X166340846Y-84823334D01*
X166367204Y-84820500D01*
X166828844Y-84820500D01*
X166828845Y-84820499D01*
X166983497Y-84789737D01*
X167129179Y-84729394D01*
X167260289Y-84641789D01*
X169173184Y-82728891D01*
X169234505Y-82695408D01*
X169236497Y-82694992D01*
X169351835Y-82672051D01*
X169512572Y-82605471D01*
X169533907Y-82596635D01*
X169533907Y-82596634D01*
X169533914Y-82596632D01*
X169697782Y-82487139D01*
X169837139Y-82347782D01*
X169946632Y-82183914D01*
X170022051Y-82001835D01*
X170048480Y-81868968D01*
X170060500Y-81808543D01*
X170060500Y-81611456D01*
X170022052Y-81418170D01*
X170022051Y-81418169D01*
X170022051Y-81418165D01*
X170022049Y-81418160D01*
X169946635Y-81236092D01*
X169946628Y-81236079D01*
X169837139Y-81072218D01*
X169837136Y-81072214D01*
X169697785Y-80932863D01*
X169697781Y-80932860D01*
X169533920Y-80823371D01*
X169533907Y-80823364D01*
X169351839Y-80747950D01*
X169351829Y-80747947D01*
X169158543Y-80709500D01*
X169158541Y-80709500D01*
X169071872Y-80709500D01*
X169047681Y-80707117D01*
X169000248Y-80697682D01*
X168908844Y-80679500D01*
X168908842Y-80679500D01*
X166367204Y-80679500D01*
X166300165Y-80659815D01*
X166279523Y-80643181D01*
X166276930Y-80640588D01*
X166276928Y-80640586D01*
X166136788Y-80538768D01*
X165982445Y-80460127D01*
X165817701Y-80406598D01*
X165817699Y-80406597D01*
X165817698Y-80406597D01*
X165686271Y-80385781D01*
X165646611Y-80379500D01*
X165473389Y-80379500D01*
X165433728Y-80385781D01*
X165302302Y-80406597D01*
X165137552Y-80460128D01*
X164983211Y-80538768D01*
X164903256Y-80596859D01*
X164843072Y-80640586D01*
X164843070Y-80640588D01*
X164843069Y-80640588D01*
X164720588Y-80763069D01*
X164720588Y-80763070D01*
X164720586Y-80763072D01*
X164714118Y-80771975D01*
X164618768Y-80903211D01*
X164540128Y-81057552D01*
X164540127Y-81057554D01*
X164540127Y-81057555D01*
X164521441Y-81115065D01*
X164486597Y-81222302D01*
X164459500Y-81393389D01*
X159040500Y-81393389D01*
X159018137Y-81252197D01*
X159018109Y-81252012D01*
X159022718Y-81217655D01*
X159027156Y-81183315D01*
X159027367Y-81183005D01*
X159027400Y-81182763D01*
X159028081Y-81181960D01*
X159052991Y-81145532D01*
X159840510Y-80358015D01*
X159912984Y-80232485D01*
X159922354Y-80197515D01*
X159950500Y-80092475D01*
X159950500Y-78853389D01*
X164459500Y-78853389D01*
X164459500Y-79026611D01*
X164464386Y-79057460D01*
X164474370Y-79120500D01*
X164486598Y-79197701D01*
X164540127Y-79362445D01*
X164618768Y-79516788D01*
X164720586Y-79656928D01*
X164843072Y-79779414D01*
X164983212Y-79881232D01*
X165137555Y-79959873D01*
X165302299Y-80013402D01*
X165473389Y-80040500D01*
X165473390Y-80040500D01*
X165646610Y-80040500D01*
X165646611Y-80040500D01*
X165817701Y-80013402D01*
X165982445Y-79959873D01*
X166136788Y-79881232D01*
X166215311Y-79824181D01*
X166281117Y-79800702D01*
X166288196Y-79800500D01*
X167992796Y-79800500D01*
X168059835Y-79820185D01*
X168080477Y-79836819D01*
X168083072Y-79839414D01*
X168223212Y-79941232D01*
X168377555Y-80019873D01*
X168542299Y-80073402D01*
X168713389Y-80100500D01*
X168713390Y-80100500D01*
X168886610Y-80100500D01*
X168886611Y-80100500D01*
X169057701Y-80073402D01*
X169222445Y-80019873D01*
X169376788Y-79941232D01*
X169516928Y-79839414D01*
X169639414Y-79716928D01*
X169741232Y-79576788D01*
X169819873Y-79422445D01*
X169873402Y-79257701D01*
X169900500Y-79086611D01*
X169900500Y-78913389D01*
X169873402Y-78742299D01*
X169819873Y-78577555D01*
X169741232Y-78423212D01*
X169639414Y-78283072D01*
X169516928Y-78160586D01*
X169376788Y-78058768D01*
X169222446Y-77980127D01*
X169199936Y-77972813D01*
X169142262Y-77933374D01*
X169115065Y-77869015D01*
X169126981Y-77800169D01*
X169174226Y-77748694D01*
X169199939Y-77736952D01*
X169299029Y-77704755D01*
X169391801Y-77657485D01*
X168800001Y-77065685D01*
X168800000Y-77065685D01*
X168208198Y-77657485D01*
X168300970Y-77704755D01*
X168400060Y-77736952D01*
X168457736Y-77776389D01*
X168484934Y-77840748D01*
X168473019Y-77909594D01*
X168425775Y-77961070D01*
X168400064Y-77972813D01*
X168377551Y-77980128D01*
X168223211Y-78058768D01*
X168165652Y-78100588D01*
X168083072Y-78160586D01*
X168083070Y-78160588D01*
X168083069Y-78160588D01*
X168080477Y-78163181D01*
X168019154Y-78196666D01*
X167992796Y-78199500D01*
X166427204Y-78199500D01*
X166360165Y-78179815D01*
X166339523Y-78163181D01*
X166276930Y-78100588D01*
X166276928Y-78100586D01*
X166136788Y-77998768D01*
X165982445Y-77920127D01*
X165817701Y-77866598D01*
X165817699Y-77866597D01*
X165817698Y-77866597D01*
X165686271Y-77845781D01*
X165646611Y-77839500D01*
X165473389Y-77839500D01*
X165433728Y-77845781D01*
X165302302Y-77866597D01*
X165259347Y-77880554D01*
X165161669Y-77912292D01*
X165137552Y-77920128D01*
X164983211Y-77998768D01*
X164903256Y-78056859D01*
X164843072Y-78100586D01*
X164843070Y-78100588D01*
X164843069Y-78100588D01*
X164720588Y-78223069D01*
X164720588Y-78223070D01*
X164720586Y-78223072D01*
X164680896Y-78277701D01*
X164618768Y-78363211D01*
X164540128Y-78517552D01*
X164486597Y-78682302D01*
X164459500Y-78853389D01*
X159950500Y-78853389D01*
X159950500Y-76397682D01*
X167500000Y-76397682D01*
X167500000Y-76602317D01*
X167532009Y-76804417D01*
X167595243Y-76999027D01*
X167595246Y-76999034D01*
X167642512Y-77091801D01*
X168234314Y-76500000D01*
X168234314Y-76499999D01*
X168181654Y-76447339D01*
X168400000Y-76447339D01*
X168400000Y-76552661D01*
X168427259Y-76654394D01*
X168479920Y-76745606D01*
X168554394Y-76820080D01*
X168645606Y-76872741D01*
X168747339Y-76900000D01*
X168852661Y-76900000D01*
X168954394Y-76872741D01*
X169045606Y-76820080D01*
X169120080Y-76745606D01*
X169172741Y-76654394D01*
X169200000Y-76552661D01*
X169200000Y-76499999D01*
X169365685Y-76499999D01*
X169365685Y-76500000D01*
X169957485Y-77091800D01*
X170004755Y-76999031D01*
X170067990Y-76804417D01*
X170100000Y-76602317D01*
X170100000Y-76397682D01*
X170067990Y-76195582D01*
X170004755Y-76000968D01*
X169957485Y-75908198D01*
X169365685Y-76499999D01*
X169200000Y-76499999D01*
X169200000Y-76447339D01*
X169172741Y-76345606D01*
X169120080Y-76254394D01*
X169045606Y-76179920D01*
X168954394Y-76127259D01*
X168852661Y-76100000D01*
X168747339Y-76100000D01*
X168645606Y-76127259D01*
X168554394Y-76179920D01*
X168479920Y-76254394D01*
X168427259Y-76345606D01*
X168400000Y-76447339D01*
X168181654Y-76447339D01*
X167642512Y-75908197D01*
X167595242Y-76000973D01*
X167595242Y-76000974D01*
X167532010Y-76195578D01*
X167532010Y-76195581D01*
X167500000Y-76397682D01*
X159950500Y-76397682D01*
X159950500Y-75557525D01*
X159912984Y-75417515D01*
X159869681Y-75342512D01*
X168208197Y-75342512D01*
X168800000Y-75934314D01*
X168800001Y-75934314D01*
X169391801Y-75342512D01*
X169299034Y-75295246D01*
X169299027Y-75295243D01*
X169104417Y-75232009D01*
X168902317Y-75200000D01*
X168697683Y-75200000D01*
X168495581Y-75232010D01*
X168495578Y-75232010D01*
X168300974Y-75295242D01*
X168300973Y-75295242D01*
X168208197Y-75342512D01*
X159869681Y-75342512D01*
X159840510Y-75291985D01*
X159550003Y-75001478D01*
X159516518Y-74940155D01*
X159517424Y-74927485D01*
X164568198Y-74927485D01*
X164660968Y-74974755D01*
X164855582Y-75037990D01*
X165057683Y-75070000D01*
X165262317Y-75070000D01*
X165464417Y-75037990D01*
X165659031Y-74974755D01*
X165751801Y-74927485D01*
X165160001Y-74335685D01*
X165160000Y-74335685D01*
X164568198Y-74927485D01*
X159517424Y-74927485D01*
X159521502Y-74870463D01*
X159563374Y-74814530D01*
X159628838Y-74790113D01*
X159675997Y-74795865D01*
X159822299Y-74843402D01*
X159993389Y-74870500D01*
X159993390Y-74870500D01*
X160166610Y-74870500D01*
X160166611Y-74870500D01*
X160337701Y-74843402D01*
X160502445Y-74789873D01*
X160656788Y-74711232D01*
X160796928Y-74609414D01*
X160919414Y-74486928D01*
X161021232Y-74346788D01*
X161099873Y-74192445D01*
X161153402Y-74027701D01*
X161180500Y-73856611D01*
X161180500Y-73683389D01*
X161519500Y-73683389D01*
X161519500Y-73856610D01*
X161546597Y-74027697D01*
X161546597Y-74027699D01*
X161546598Y-74027701D01*
X161600127Y-74192445D01*
X161678768Y-74346788D01*
X161780586Y-74486928D01*
X161903072Y-74609414D01*
X162043212Y-74711232D01*
X162197555Y-74789873D01*
X162362299Y-74843402D01*
X162533389Y-74870500D01*
X162533390Y-74870500D01*
X162706610Y-74870500D01*
X162706611Y-74870500D01*
X162877701Y-74843402D01*
X163042445Y-74789873D01*
X163196788Y-74711232D01*
X163336928Y-74609414D01*
X163459414Y-74486928D01*
X163561232Y-74346788D01*
X163639873Y-74192445D01*
X163667186Y-74108384D01*
X163706622Y-74050711D01*
X163770981Y-74023512D01*
X163839827Y-74035427D01*
X163891303Y-74082671D01*
X163903047Y-74108385D01*
X163955243Y-74269027D01*
X163955246Y-74269034D01*
X164002512Y-74361801D01*
X164594314Y-73770000D01*
X164594314Y-73769999D01*
X164541654Y-73717339D01*
X164760000Y-73717339D01*
X164760000Y-73822661D01*
X164787259Y-73924394D01*
X164839920Y-74015606D01*
X164914394Y-74090080D01*
X165005606Y-74142741D01*
X165107339Y-74170000D01*
X165212661Y-74170000D01*
X165314394Y-74142741D01*
X165405606Y-74090080D01*
X165480080Y-74015606D01*
X165532741Y-73924394D01*
X165560000Y-73822661D01*
X165560000Y-73769999D01*
X165725685Y-73769999D01*
X165725685Y-73770000D01*
X166317485Y-74361800D01*
X166364755Y-74269031D01*
X166427990Y-74074417D01*
X166460000Y-73872317D01*
X166460000Y-73667682D01*
X166427990Y-73465582D01*
X166364755Y-73270968D01*
X166317485Y-73178198D01*
X165725685Y-73769999D01*
X165560000Y-73769999D01*
X165560000Y-73717339D01*
X165532741Y-73615606D01*
X165480080Y-73524394D01*
X165405606Y-73449920D01*
X165314394Y-73397259D01*
X165212661Y-73370000D01*
X165107339Y-73370000D01*
X165005606Y-73397259D01*
X164914394Y-73449920D01*
X164839920Y-73524394D01*
X164787259Y-73615606D01*
X164760000Y-73717339D01*
X164541654Y-73717339D01*
X164002512Y-73178197D01*
X163955243Y-73270972D01*
X163903046Y-73431614D01*
X163863608Y-73489289D01*
X163799249Y-73516487D01*
X163730403Y-73504572D01*
X163678927Y-73457327D01*
X163667187Y-73431619D01*
X163639873Y-73347555D01*
X163561232Y-73193212D01*
X163459414Y-73053072D01*
X163336928Y-72930586D01*
X163196788Y-72828768D01*
X163073604Y-72766003D01*
X163073602Y-72766001D01*
X163042450Y-72750129D01*
X163042447Y-72750128D01*
X163042445Y-72750127D01*
X162877701Y-72696598D01*
X162877699Y-72696597D01*
X162877698Y-72696597D01*
X162713480Y-72670588D01*
X162706611Y-72669500D01*
X162533389Y-72669500D01*
X162526520Y-72670588D01*
X162362302Y-72696597D01*
X162197552Y-72750128D01*
X162043211Y-72828768D01*
X161963256Y-72886859D01*
X161903072Y-72930586D01*
X161903070Y-72930588D01*
X161903069Y-72930588D01*
X161780588Y-73053069D01*
X161780588Y-73053070D01*
X161780586Y-73053072D01*
X161755535Y-73087552D01*
X161678768Y-73193211D01*
X161600128Y-73347552D01*
X161546597Y-73512302D01*
X161519500Y-73683389D01*
X161180500Y-73683389D01*
X161153402Y-73512299D01*
X161099873Y-73347555D01*
X161021232Y-73193212D01*
X160919414Y-73053072D01*
X160796928Y-72930586D01*
X160656788Y-72828768D01*
X160502445Y-72750127D01*
X160337701Y-72696598D01*
X160337699Y-72696597D01*
X160337698Y-72696597D01*
X160173480Y-72670588D01*
X160166611Y-72669500D01*
X159993389Y-72669500D01*
X159986520Y-72670588D01*
X159822302Y-72696597D01*
X159657552Y-72750128D01*
X159503211Y-72828768D01*
X159423256Y-72886859D01*
X159363072Y-72930586D01*
X159363070Y-72930588D01*
X159363069Y-72930588D01*
X159240588Y-73053069D01*
X159240588Y-73053070D01*
X159240586Y-73053072D01*
X159215535Y-73087552D01*
X159138768Y-73193211D01*
X159060128Y-73347552D01*
X159006597Y-73512302D01*
X158979500Y-73683389D01*
X158979500Y-73856610D01*
X159006597Y-74027698D01*
X159054133Y-74173997D01*
X159056128Y-74243838D01*
X159020048Y-74303671D01*
X158957347Y-74334499D01*
X158887933Y-74326534D01*
X158848521Y-74299996D01*
X158652994Y-74104469D01*
X158619509Y-74043146D01*
X158618202Y-73997394D01*
X158640500Y-73856611D01*
X158640500Y-73683389D01*
X158613402Y-73512299D01*
X158559873Y-73347555D01*
X158481232Y-73193212D01*
X158379414Y-73053072D01*
X158256928Y-72930586D01*
X158116788Y-72828768D01*
X157962445Y-72750127D01*
X157797701Y-72696598D01*
X157797699Y-72696597D01*
X157797698Y-72696597D01*
X157633480Y-72670588D01*
X157626611Y-72669500D01*
X157453389Y-72669500D01*
X157446520Y-72670588D01*
X157282302Y-72696597D01*
X157117552Y-72750128D01*
X156963211Y-72828768D01*
X156883256Y-72886859D01*
X156823072Y-72930586D01*
X156823070Y-72930588D01*
X156823069Y-72930588D01*
X156700588Y-73053069D01*
X156700588Y-73053070D01*
X156700586Y-73053072D01*
X156675535Y-73087552D01*
X156598768Y-73193211D01*
X156520128Y-73347552D01*
X156466597Y-73512302D01*
X156439500Y-73683389D01*
X156439500Y-73856610D01*
X156466597Y-74027697D01*
X156466597Y-74027699D01*
X156466598Y-74027701D01*
X156520127Y-74192445D01*
X156598768Y-74346788D01*
X156700586Y-74486928D01*
X156823072Y-74609414D01*
X156963212Y-74711232D01*
X157117555Y-74789873D01*
X157282299Y-74843402D01*
X157453389Y-74870500D01*
X157453390Y-74870500D01*
X157626610Y-74870500D01*
X157626611Y-74870500D01*
X157767392Y-74848202D01*
X157836683Y-74857156D01*
X157874469Y-74882994D01*
X158813181Y-75821706D01*
X158846666Y-75883029D01*
X158849500Y-75909387D01*
X158849500Y-77757816D01*
X158829815Y-77824855D01*
X158777011Y-77870610D01*
X158707853Y-77880554D01*
X158680011Y-77873171D01*
X158621563Y-77850122D01*
X158568978Y-77843808D01*
X158533102Y-77839500D01*
X157346898Y-77839500D01*
X157307853Y-77844188D01*
X157258438Y-77850122D01*
X157117656Y-77905639D01*
X156997077Y-77997077D01*
X156905639Y-78117656D01*
X156850122Y-78258438D01*
X156847500Y-78280282D01*
X156819964Y-78344497D01*
X156762082Y-78383631D01*
X156724384Y-78389500D01*
X156536161Y-78389500D01*
X156410351Y-78423210D01*
X156410352Y-78423211D01*
X156396149Y-78427016D01*
X156270622Y-78499489D01*
X156270619Y-78499491D01*
X153106930Y-81663181D01*
X153045607Y-81696666D01*
X153019249Y-81699500D01*
X137696728Y-81699500D01*
X137629689Y-81679815D01*
X137583934Y-81627011D01*
X137573990Y-81557853D01*
X137596410Y-81502615D01*
X137611857Y-81481352D01*
X137704755Y-81299031D01*
X137767990Y-81104417D01*
X137800000Y-80902317D01*
X137800000Y-80697682D01*
X137767990Y-80495582D01*
X137704755Y-80300968D01*
X137657485Y-80208198D01*
X136870523Y-80995161D01*
X136839389Y-81012161D01*
X136872741Y-80954394D01*
X136900000Y-80852661D01*
X136900000Y-80747339D01*
X136872741Y-80645606D01*
X136820080Y-80554394D01*
X136745606Y-80479920D01*
X136654394Y-80427259D01*
X136552661Y-80400000D01*
X136447339Y-80400000D01*
X136345606Y-80427259D01*
X136254394Y-80479920D01*
X136179920Y-80554394D01*
X136127259Y-80645606D01*
X136100000Y-80747339D01*
X136100000Y-80852661D01*
X136127259Y-80954394D01*
X136163373Y-81016946D01*
X136129476Y-80995161D01*
X135342512Y-80208197D01*
X135295243Y-80300972D01*
X135263047Y-80400060D01*
X135223609Y-80457735D01*
X135159250Y-80484933D01*
X135090404Y-80473018D01*
X135038928Y-80425774D01*
X135027185Y-80400060D01*
X135019871Y-80377550D01*
X134955993Y-80252182D01*
X134941232Y-80223212D01*
X134839414Y-80083072D01*
X134716928Y-79960586D01*
X134641613Y-79905866D01*
X134638273Y-79901534D01*
X134633297Y-79899262D01*
X134617164Y-79874159D01*
X134598949Y-79850536D01*
X134597696Y-79843865D01*
X134595523Y-79840484D01*
X134590500Y-79805549D01*
X134590500Y-79642512D01*
X135908197Y-79642512D01*
X136500000Y-80234314D01*
X136500001Y-80234314D01*
X137091801Y-79642512D01*
X136999034Y-79595246D01*
X136999027Y-79595243D01*
X136804417Y-79532009D01*
X136602317Y-79500000D01*
X136397683Y-79500000D01*
X136195581Y-79532010D01*
X136195578Y-79532010D01*
X136000974Y-79595242D01*
X136000973Y-79595242D01*
X135908197Y-79642512D01*
X134590500Y-79642512D01*
X134590500Y-79177485D01*
X144158198Y-79177485D01*
X144250968Y-79224755D01*
X144445582Y-79287990D01*
X144647683Y-79320000D01*
X144852317Y-79320000D01*
X145054417Y-79287990D01*
X145249031Y-79224755D01*
X145341801Y-79177485D01*
X144750001Y-78585685D01*
X144750000Y-78585685D01*
X144158198Y-79177485D01*
X134590500Y-79177485D01*
X134590500Y-78949268D01*
X134610185Y-78882229D01*
X134658205Y-78838783D01*
X134696715Y-78819162D01*
X134856275Y-78703235D01*
X134995735Y-78563775D01*
X135111662Y-78404215D01*
X135201201Y-78228485D01*
X135262147Y-78040912D01*
X135279179Y-77933374D01*
X135281665Y-77917682D01*
X143450000Y-77917682D01*
X143450000Y-78122317D01*
X143482009Y-78324417D01*
X143545243Y-78519027D01*
X143545246Y-78519034D01*
X143592512Y-78611801D01*
X144184314Y-78020000D01*
X144184314Y-78019999D01*
X144131654Y-77967339D01*
X144350000Y-77967339D01*
X144350000Y-78072661D01*
X144377259Y-78174394D01*
X144429920Y-78265606D01*
X144504394Y-78340080D01*
X144595606Y-78392741D01*
X144697339Y-78420000D01*
X144802661Y-78420000D01*
X144904394Y-78392741D01*
X144995606Y-78340080D01*
X145070080Y-78265606D01*
X145122741Y-78174394D01*
X145150000Y-78072661D01*
X145150000Y-78019999D01*
X145315685Y-78019999D01*
X145315685Y-78020000D01*
X145907485Y-78611800D01*
X145954755Y-78519031D01*
X146017990Y-78324417D01*
X146050000Y-78122317D01*
X146050000Y-77917682D01*
X146017990Y-77715582D01*
X145954755Y-77520968D01*
X145907485Y-77428198D01*
X145315685Y-78019999D01*
X145150000Y-78019999D01*
X145150000Y-77967339D01*
X145122741Y-77865606D01*
X145070080Y-77774394D01*
X144995606Y-77699920D01*
X144904394Y-77647259D01*
X144802661Y-77620000D01*
X144697339Y-77620000D01*
X144595606Y-77647259D01*
X144504394Y-77699920D01*
X144429920Y-77774394D01*
X144377259Y-77865606D01*
X144350000Y-77967339D01*
X144131654Y-77967339D01*
X143592512Y-77428197D01*
X143545242Y-77520973D01*
X143545242Y-77520974D01*
X143482010Y-77715578D01*
X143482010Y-77715581D01*
X143450000Y-77917682D01*
X135281665Y-77917682D01*
X135285508Y-77893418D01*
X135285508Y-77893417D01*
X135293000Y-77846117D01*
X135293000Y-77553881D01*
X135262654Y-77362292D01*
X135262147Y-77359088D01*
X135204149Y-77180588D01*
X135201202Y-77171517D01*
X135194903Y-77159154D01*
X135111662Y-76995785D01*
X135104915Y-76986498D01*
X135099036Y-76978406D01*
X135099034Y-76978404D01*
X135082222Y-76955264D01*
X135014834Y-76862512D01*
X144158197Y-76862512D01*
X144750000Y-77454314D01*
X144750001Y-77454314D01*
X145341801Y-76862512D01*
X145249034Y-76815246D01*
X145249027Y-76815243D01*
X145054417Y-76752009D01*
X144852317Y-76720000D01*
X144647683Y-76720000D01*
X144445581Y-76752010D01*
X144445578Y-76752010D01*
X144250974Y-76815242D01*
X144250973Y-76815242D01*
X144158197Y-76862512D01*
X135014834Y-76862512D01*
X134995735Y-76836225D01*
X134856275Y-76696765D01*
X134760817Y-76627411D01*
X134696710Y-76580834D01*
X134658205Y-76561215D01*
X134607409Y-76513241D01*
X134590500Y-76450731D01*
X134590500Y-75007527D01*
X134590500Y-75007525D01*
X134552984Y-74867515D01*
X134552982Y-74867512D01*
X134552983Y-74867512D01*
X134548574Y-74859876D01*
X134548572Y-74859874D01*
X134547003Y-74857156D01*
X134480510Y-74741985D01*
X131300206Y-71561681D01*
X131266721Y-71500358D01*
X131271705Y-71430666D01*
X131313577Y-71374733D01*
X131379041Y-71350316D01*
X131387887Y-71350000D01*
X131552317Y-71350000D01*
X131754417Y-71317990D01*
X131949031Y-71254755D01*
X132041801Y-71207485D01*
X135908198Y-71207485D01*
X136000968Y-71254755D01*
X136195582Y-71317990D01*
X136397683Y-71350000D01*
X136602317Y-71350000D01*
X136804417Y-71317990D01*
X136999031Y-71254755D01*
X137091801Y-71207485D01*
X136500001Y-70615685D01*
X136500000Y-70615685D01*
X135908198Y-71207485D01*
X132041801Y-71207485D01*
X131204394Y-70370080D01*
X131295606Y-70422741D01*
X131397339Y-70450000D01*
X131502661Y-70450000D01*
X131604394Y-70422741D01*
X131695606Y-70370080D01*
X131770080Y-70295606D01*
X131822741Y-70204394D01*
X131850000Y-70102661D01*
X131850000Y-69997339D01*
X131822741Y-69895606D01*
X131770080Y-69804394D01*
X131695606Y-69729920D01*
X131604394Y-69677259D01*
X131502661Y-69650000D01*
X131397339Y-69650000D01*
X131295606Y-69677259D01*
X131204394Y-69729920D01*
X131129920Y-69804394D01*
X131077259Y-69895606D01*
X131050000Y-69997339D01*
X131050000Y-70102661D01*
X131077259Y-70204394D01*
X131129919Y-70295605D01*
X130292512Y-69458197D01*
X130245243Y-69550972D01*
X130213047Y-69650060D01*
X130173609Y-69707735D01*
X130109250Y-69734933D01*
X130040404Y-69723018D01*
X129988928Y-69675774D01*
X129977185Y-69650060D01*
X129969871Y-69627550D01*
X129928387Y-69546133D01*
X129891232Y-69473212D01*
X129789414Y-69333072D01*
X129666928Y-69210586D01*
X129611613Y-69170397D01*
X129608273Y-69166065D01*
X129603297Y-69163793D01*
X129587164Y-69138690D01*
X129568949Y-69115067D01*
X129567696Y-69108396D01*
X129565523Y-69105015D01*
X129560500Y-69070080D01*
X129560500Y-68892512D01*
X130858197Y-68892512D01*
X131450000Y-69484314D01*
X131450001Y-69484314D01*
X132041801Y-68892512D01*
X131949034Y-68845246D01*
X131949027Y-68845243D01*
X131754417Y-68782009D01*
X131552317Y-68750000D01*
X131347683Y-68750000D01*
X131145581Y-68782010D01*
X131145578Y-68782010D01*
X130950974Y-68845242D01*
X130950973Y-68845242D01*
X130858197Y-68892512D01*
X129560500Y-68892512D01*
X129560500Y-68424499D01*
X129580185Y-68357460D01*
X129632989Y-68311705D01*
X129684500Y-68300499D01*
X129927356Y-68300499D01*
X129927364Y-68300499D01*
X129927379Y-68300497D01*
X129927382Y-68300497D01*
X129952487Y-68297586D01*
X129952488Y-68297585D01*
X129952491Y-68297585D01*
X130055265Y-68252206D01*
X130134706Y-68172765D01*
X130180085Y-68069991D01*
X130180084Y-68069991D01*
X130183853Y-68061458D01*
X130185908Y-68062365D01*
X130215764Y-68013785D01*
X130278722Y-67983486D01*
X130348067Y-67992035D01*
X130386518Y-68018163D01*
X130523757Y-68155402D01*
X130708723Y-68289788D01*
X130912433Y-68393583D01*
X130912436Y-68393585D01*
X131069999Y-68444779D01*
X131070000Y-68444779D01*
X131070000Y-67377818D01*
X131132292Y-67440110D01*
X131257708Y-67512518D01*
X131397591Y-67550000D01*
X131542409Y-67550000D01*
X131682292Y-67512518D01*
X131807708Y-67440110D01*
X131870000Y-67377818D01*
X131870000Y-68444779D01*
X132027563Y-68393585D01*
X132027566Y-68393583D01*
X132231276Y-68289788D01*
X132416242Y-68155402D01*
X132577902Y-67993742D01*
X132712288Y-67808776D01*
X132744918Y-67744735D01*
X132792892Y-67693938D01*
X132860713Y-67677142D01*
X132926848Y-67699678D01*
X132955721Y-67728141D01*
X133054265Y-67863775D01*
X133193725Y-68003235D01*
X133285607Y-68069991D01*
X133353286Y-68119163D01*
X133381794Y-68133688D01*
X133432590Y-68181661D01*
X133449500Y-68244173D01*
X133449500Y-69026488D01*
X133429815Y-69093527D01*
X133398385Y-69126806D01*
X133283075Y-69210583D01*
X133283069Y-69210588D01*
X133160588Y-69333069D01*
X133160588Y-69333070D01*
X133160586Y-69333072D01*
X133116859Y-69393256D01*
X133058768Y-69473211D01*
X132980128Y-69627550D01*
X132947814Y-69727002D01*
X132908375Y-69784677D01*
X132844016Y-69811875D01*
X132775170Y-69799960D01*
X132723695Y-69752715D01*
X132711952Y-69727001D01*
X132654755Y-69550970D01*
X132607485Y-69458198D01*
X132015685Y-70049999D01*
X132015685Y-70050000D01*
X132607485Y-70641800D01*
X132654755Y-70549029D01*
X132711952Y-70372998D01*
X132751389Y-70315322D01*
X132815748Y-70288124D01*
X132884594Y-70300039D01*
X132936070Y-70347283D01*
X132947814Y-70372997D01*
X132980128Y-70472449D01*
X133053111Y-70615685D01*
X133058768Y-70626788D01*
X133160586Y-70766928D01*
X133283072Y-70889414D01*
X133423212Y-70991232D01*
X133577555Y-71069873D01*
X133742299Y-71123402D01*
X133913389Y-71150500D01*
X133913390Y-71150500D01*
X134086610Y-71150500D01*
X134086611Y-71150500D01*
X134257701Y-71123402D01*
X134422445Y-71069873D01*
X134576788Y-70991232D01*
X134716928Y-70889414D01*
X134839414Y-70766928D01*
X134941232Y-70626788D01*
X135019873Y-70472445D01*
X135027185Y-70449938D01*
X135066621Y-70392264D01*
X135130980Y-70365065D01*
X135199826Y-70376979D01*
X135251303Y-70424223D01*
X135263047Y-70449938D01*
X135295243Y-70549027D01*
X135295246Y-70549034D01*
X135342512Y-70641801D01*
X135934314Y-70050000D01*
X135934314Y-70049999D01*
X135881654Y-69997339D01*
X136100000Y-69997339D01*
X136100000Y-70102661D01*
X136127259Y-70204394D01*
X136179920Y-70295606D01*
X136254394Y-70370080D01*
X136345606Y-70422741D01*
X136447339Y-70450000D01*
X136552661Y-70450000D01*
X136654394Y-70422741D01*
X136745606Y-70370080D01*
X136820080Y-70295606D01*
X136872741Y-70204394D01*
X136900000Y-70102661D01*
X136900000Y-70049999D01*
X137065685Y-70049999D01*
X137065685Y-70050000D01*
X137657485Y-70641800D01*
X137704755Y-70549031D01*
X137767990Y-70354417D01*
X137800000Y-70152317D01*
X137800000Y-69947682D01*
X137767990Y-69745582D01*
X137704755Y-69550968D01*
X137657485Y-69458198D01*
X137065685Y-70049999D01*
X136900000Y-70049999D01*
X136900000Y-69997339D01*
X136872741Y-69895606D01*
X136820080Y-69804394D01*
X136745606Y-69729920D01*
X136654394Y-69677259D01*
X136552661Y-69650000D01*
X136447339Y-69650000D01*
X136345606Y-69677259D01*
X136254394Y-69729920D01*
X136179920Y-69804394D01*
X136127259Y-69895606D01*
X136100000Y-69997339D01*
X135881654Y-69997339D01*
X135342512Y-69458197D01*
X135295243Y-69550972D01*
X135263047Y-69650060D01*
X135223609Y-69707735D01*
X135159250Y-69734933D01*
X135090404Y-69723018D01*
X135038928Y-69675774D01*
X135027185Y-69650060D01*
X135019871Y-69627550D01*
X134978387Y-69546133D01*
X134941232Y-69473212D01*
X134839414Y-69333072D01*
X134716928Y-69210586D01*
X134601614Y-69126805D01*
X134598274Y-69122474D01*
X134593297Y-69120201D01*
X134577164Y-69095098D01*
X134558949Y-69071476D01*
X134557696Y-69064804D01*
X134555523Y-69061423D01*
X134550500Y-69026488D01*
X134550500Y-68892512D01*
X135908197Y-68892512D01*
X136500000Y-69484314D01*
X136500001Y-69484314D01*
X137091801Y-68892512D01*
X136999034Y-68845246D01*
X136999027Y-68845243D01*
X136804417Y-68782009D01*
X136602317Y-68750000D01*
X136397683Y-68750000D01*
X136195581Y-68782010D01*
X136195578Y-68782010D01*
X136000974Y-68845242D01*
X136000973Y-68845242D01*
X135908197Y-68892512D01*
X134550500Y-68892512D01*
X134550500Y-68254363D01*
X134570185Y-68187324D01*
X134618205Y-68143878D01*
X134666715Y-68119162D01*
X134826275Y-68003235D01*
X134965735Y-67863775D01*
X135081662Y-67704215D01*
X135171201Y-67528485D01*
X135171950Y-67526181D01*
X135172472Y-67525416D01*
X135173067Y-67523982D01*
X135173368Y-67524106D01*
X135211388Y-67468506D01*
X135275747Y-67441308D01*
X135289881Y-67440500D01*
X144421421Y-67440500D01*
X144488460Y-67460185D01*
X144534215Y-67512989D01*
X144544159Y-67582147D01*
X144524523Y-67633391D01*
X144495647Y-67676605D01*
X144495640Y-67676618D01*
X144418718Y-67862326D01*
X144418715Y-67862338D01*
X144379500Y-68059484D01*
X144379500Y-68260515D01*
X144418715Y-68457661D01*
X144418718Y-68457673D01*
X144495640Y-68643381D01*
X144495647Y-68643394D01*
X144607325Y-68810530D01*
X144607328Y-68810534D01*
X144749465Y-68952671D01*
X144749469Y-68952674D01*
X144916605Y-69064352D01*
X144916618Y-69064359D01*
X145067380Y-69126806D01*
X145102331Y-69141283D01*
X145248703Y-69170398D01*
X145299484Y-69180499D01*
X145299488Y-69180500D01*
X145299489Y-69180500D01*
X145500512Y-69180500D01*
X145500513Y-69180499D01*
X145697669Y-69141283D01*
X145869569Y-69070080D01*
X145883381Y-69064359D01*
X145883381Y-69064358D01*
X145883388Y-69064356D01*
X146050531Y-68952674D01*
X146192674Y-68810531D01*
X146217111Y-68773959D01*
X146222690Y-68765610D01*
X146228780Y-68760519D01*
X146232079Y-68753297D01*
X146255209Y-68738432D01*
X146276302Y-68720804D01*
X146285676Y-68718852D01*
X146290857Y-68715523D01*
X146325792Y-68710500D01*
X146570613Y-68710500D01*
X146637652Y-68730185D01*
X146658294Y-68746819D01*
X150369294Y-72457819D01*
X150402779Y-72519142D01*
X150397795Y-72588834D01*
X150355923Y-72644767D01*
X150290459Y-72669184D01*
X150281613Y-72669500D01*
X149499386Y-72669500D01*
X149432347Y-72649815D01*
X149411705Y-72633181D01*
X147038016Y-70259491D01*
X147038015Y-70259490D01*
X146912485Y-70187016D01*
X146912486Y-70187016D01*
X146877482Y-70177637D01*
X146772475Y-70149500D01*
X146772472Y-70149500D01*
X146325792Y-70149500D01*
X146258753Y-70129815D01*
X146222690Y-70094390D01*
X146192677Y-70049473D01*
X146192671Y-70049465D01*
X146050534Y-69907328D01*
X146050530Y-69907325D01*
X145883394Y-69795647D01*
X145883381Y-69795640D01*
X145697673Y-69718718D01*
X145697661Y-69718715D01*
X145500515Y-69679500D01*
X145500511Y-69679500D01*
X145299489Y-69679500D01*
X145299484Y-69679500D01*
X145102338Y-69718715D01*
X145102326Y-69718718D01*
X144916618Y-69795640D01*
X144916605Y-69795647D01*
X144749469Y-69907325D01*
X144749465Y-69907328D01*
X144607328Y-70049465D01*
X144607325Y-70049469D01*
X144495647Y-70216605D01*
X144495640Y-70216618D01*
X144418718Y-70402326D01*
X144418715Y-70402338D01*
X144379500Y-70599484D01*
X144379500Y-70800515D01*
X144418715Y-70997661D01*
X144418718Y-70997673D01*
X144495640Y-71183381D01*
X144495647Y-71183394D01*
X144607325Y-71350530D01*
X144607328Y-71350534D01*
X144749465Y-71492671D01*
X144749469Y-71492674D01*
X144916605Y-71604352D01*
X144916618Y-71604359D01*
X145073203Y-71669218D01*
X145102331Y-71681283D01*
X145224265Y-71705537D01*
X145299484Y-71720499D01*
X145299488Y-71720500D01*
X145299489Y-71720500D01*
X145500512Y-71720500D01*
X145500513Y-71720499D01*
X145697669Y-71681283D01*
X145883388Y-71604356D01*
X146050531Y-71492674D01*
X146192674Y-71350531D01*
X146204064Y-71333483D01*
X146222690Y-71305610D01*
X146228780Y-71300519D01*
X146232079Y-71293297D01*
X146255209Y-71278432D01*
X146276302Y-71260804D01*
X146285676Y-71258852D01*
X146290857Y-71255523D01*
X146325792Y-71250500D01*
X146420613Y-71250500D01*
X146487652Y-71270185D01*
X146508294Y-71286819D01*
X148783181Y-73561705D01*
X148816666Y-73623028D01*
X148819500Y-73649386D01*
X148819500Y-74363102D01*
X148825126Y-74409954D01*
X148830122Y-74451561D01*
X148885639Y-74592343D01*
X148977077Y-74712922D01*
X149097656Y-74804360D01*
X149097657Y-74804360D01*
X149097658Y-74804361D01*
X149238436Y-74859877D01*
X149260283Y-74862500D01*
X149324497Y-74890036D01*
X149363631Y-74947918D01*
X149369500Y-74985616D01*
X149369500Y-76902767D01*
X149349815Y-76969806D01*
X149301795Y-77013252D01*
X149173211Y-77078768D01*
X149098849Y-77132796D01*
X149033072Y-77180586D01*
X149033070Y-77180588D01*
X149033069Y-77180588D01*
X148910588Y-77303069D01*
X148910588Y-77303070D01*
X148910586Y-77303072D01*
X148869889Y-77359086D01*
X148808768Y-77443211D01*
X148730128Y-77597552D01*
X148676597Y-77762302D01*
X148649500Y-77933389D01*
X148649500Y-78106610D01*
X148673546Y-78258436D01*
X148676598Y-78277701D01*
X148730127Y-78442445D01*
X148808768Y-78596788D01*
X148910586Y-78736928D01*
X149033072Y-78859414D01*
X149173212Y-78961232D01*
X149327555Y-79039873D01*
X149492299Y-79093402D01*
X149663389Y-79120500D01*
X149663390Y-79120500D01*
X149836610Y-79120500D01*
X149836611Y-79120500D01*
X150007701Y-79093402D01*
X150172445Y-79039873D01*
X150326788Y-78961232D01*
X150466928Y-78859414D01*
X150589414Y-78736928D01*
X150691232Y-78596788D01*
X150769873Y-78442445D01*
X150823402Y-78277701D01*
X150850500Y-78106611D01*
X150850500Y-77933389D01*
X150823402Y-77762299D01*
X150769873Y-77597555D01*
X150691232Y-77443212D01*
X150589414Y-77303072D01*
X150506819Y-77220477D01*
X150473334Y-77159154D01*
X150470500Y-77132796D01*
X150470500Y-74985616D01*
X150490185Y-74918577D01*
X150542989Y-74872822D01*
X150579715Y-74862500D01*
X150601564Y-74859877D01*
X150742342Y-74804361D01*
X150862922Y-74712922D01*
X150954361Y-74592342D01*
X151009877Y-74451564D01*
X151020500Y-74363102D01*
X151020500Y-73408387D01*
X151040185Y-73341348D01*
X151092989Y-73295593D01*
X151162147Y-73285649D01*
X151225703Y-73314674D01*
X151232181Y-73320706D01*
X151347005Y-73435530D01*
X151380490Y-73496853D01*
X151381797Y-73542608D01*
X151359500Y-73683388D01*
X151359500Y-73856610D01*
X151386597Y-74027697D01*
X151386597Y-74027699D01*
X151386598Y-74027701D01*
X151440127Y-74192445D01*
X151518768Y-74346788D01*
X151620586Y-74486928D01*
X151743072Y-74609414D01*
X151883212Y-74711232D01*
X152037555Y-74789873D01*
X152202299Y-74843402D01*
X152373389Y-74870500D01*
X152373390Y-74870500D01*
X152546610Y-74870500D01*
X152546611Y-74870500D01*
X152717701Y-74843402D01*
X152882445Y-74789873D01*
X153036788Y-74711232D01*
X153176928Y-74609414D01*
X153299414Y-74486928D01*
X153383195Y-74371614D01*
X153438526Y-74328949D01*
X153483513Y-74320500D01*
X153976487Y-74320500D01*
X154043526Y-74340185D01*
X154076805Y-74371614D01*
X154160586Y-74486928D01*
X154283072Y-74609414D01*
X154423212Y-74711232D01*
X154577555Y-74789873D01*
X154742299Y-74843402D01*
X154913389Y-74870500D01*
X154913390Y-74870500D01*
X155086610Y-74870500D01*
X155086611Y-74870500D01*
X155257701Y-74843402D01*
X155422445Y-74789873D01*
X155576788Y-74711232D01*
X155716928Y-74609414D01*
X155839414Y-74486928D01*
X155941232Y-74346788D01*
X156019873Y-74192445D01*
X156073402Y-74027701D01*
X156100500Y-73856611D01*
X156100500Y-73683389D01*
X156073402Y-73512299D01*
X156019873Y-73347555D01*
X155941232Y-73193212D01*
X155839414Y-73053072D01*
X155716928Y-72930586D01*
X155576788Y-72828768D01*
X155422445Y-72750127D01*
X155257701Y-72696598D01*
X155257699Y-72696597D01*
X155257698Y-72696597D01*
X155093480Y-72670588D01*
X155086611Y-72669500D01*
X154913389Y-72669500D01*
X154906520Y-72670588D01*
X154742302Y-72696597D01*
X154577552Y-72750128D01*
X154423211Y-72828768D01*
X154343256Y-72886859D01*
X154283072Y-72930586D01*
X154283070Y-72930588D01*
X154283069Y-72930588D01*
X154160587Y-73053070D01*
X154076805Y-73168386D01*
X154021474Y-73211051D01*
X153976487Y-73219500D01*
X153483513Y-73219500D01*
X153416474Y-73199815D01*
X153383195Y-73168386D01*
X153324465Y-73087552D01*
X153299414Y-73053072D01*
X153176928Y-72930586D01*
X153036788Y-72828768D01*
X152882445Y-72750127D01*
X152717701Y-72696598D01*
X152717699Y-72696597D01*
X152717698Y-72696597D01*
X152553480Y-72670588D01*
X152546611Y-72669500D01*
X152373389Y-72669500D01*
X152232608Y-72691797D01*
X152163315Y-72682842D01*
X152125530Y-72657005D01*
X152081037Y-72612512D01*
X164568197Y-72612512D01*
X165160000Y-73204314D01*
X165160001Y-73204314D01*
X165751801Y-72612512D01*
X165659034Y-72565246D01*
X165659027Y-72565243D01*
X165464417Y-72502009D01*
X165262317Y-72470000D01*
X165057683Y-72470000D01*
X164855581Y-72502010D01*
X164855578Y-72502010D01*
X164660974Y-72565242D01*
X164660973Y-72565242D01*
X164568197Y-72612512D01*
X152081037Y-72612512D01*
X147188016Y-67719491D01*
X147188011Y-67719487D01*
X147105564Y-67671887D01*
X147057349Y-67621321D01*
X147044125Y-67552714D01*
X147070093Y-67487849D01*
X147127007Y-67447320D01*
X147167564Y-67440500D01*
X147732472Y-67440500D01*
X147732474Y-67440500D01*
X147732475Y-67440500D01*
X147872485Y-67402984D01*
X147872695Y-67402863D01*
X147998015Y-67330510D01*
X148591706Y-66736819D01*
X148618633Y-66722115D01*
X148644452Y-66705523D01*
X148650652Y-66704631D01*
X148653029Y-66703334D01*
X148679387Y-66700500D01*
X148896487Y-66700500D01*
X148963526Y-66720185D01*
X148996805Y-66751614D01*
X149002891Y-66759991D01*
X149080586Y-66866928D01*
X149203072Y-66989414D01*
X149343212Y-67091232D01*
X149497555Y-67169873D01*
X149662299Y-67223402D01*
X149833389Y-67250500D01*
X149833390Y-67250500D01*
X150006610Y-67250500D01*
X150006611Y-67250500D01*
X150177701Y-67223402D01*
X150342445Y-67169873D01*
X150496788Y-67091232D01*
X150636928Y-66989414D01*
X150759414Y-66866928D01*
X150861232Y-66726788D01*
X150939873Y-66572445D01*
X150993402Y-66407701D01*
X151020500Y-66236611D01*
X151020500Y-66063389D01*
X151359500Y-66063389D01*
X151359500Y-66236610D01*
X151383640Y-66389029D01*
X151386598Y-66407701D01*
X151425146Y-66526340D01*
X151440128Y-66572447D01*
X151500284Y-66690510D01*
X151518768Y-66726788D01*
X151620586Y-66866928D01*
X151743072Y-66989414D01*
X151883212Y-67091232D01*
X152037555Y-67169873D01*
X152202299Y-67223402D01*
X152373389Y-67250500D01*
X152373390Y-67250500D01*
X152546610Y-67250500D01*
X152546611Y-67250500D01*
X152717701Y-67223402D01*
X152882445Y-67169873D01*
X153036788Y-67091232D01*
X153176928Y-66989414D01*
X153299414Y-66866928D01*
X153401232Y-66726788D01*
X153479873Y-66572445D01*
X153533402Y-66407701D01*
X153560500Y-66236611D01*
X153560500Y-66063389D01*
X153899500Y-66063389D01*
X153899500Y-66236610D01*
X153923640Y-66389029D01*
X153926598Y-66407701D01*
X153965146Y-66526340D01*
X153980128Y-66572447D01*
X154040284Y-66690510D01*
X154058768Y-66726788D01*
X154160586Y-66866928D01*
X154283072Y-66989414D01*
X154423212Y-67091232D01*
X154577555Y-67169873D01*
X154742299Y-67223402D01*
X154913389Y-67250500D01*
X154913390Y-67250500D01*
X155086610Y-67250500D01*
X155086611Y-67250500D01*
X155257701Y-67223402D01*
X155422445Y-67169873D01*
X155576788Y-67091232D01*
X155716928Y-66989414D01*
X155839414Y-66866928D01*
X155941232Y-66726788D01*
X156019873Y-66572445D01*
X156073402Y-66407701D01*
X156100500Y-66236611D01*
X156100500Y-66063389D01*
X156439500Y-66063389D01*
X156439500Y-66236610D01*
X156463640Y-66389029D01*
X156466598Y-66407701D01*
X156505146Y-66526340D01*
X156520128Y-66572447D01*
X156580284Y-66690510D01*
X156598768Y-66726788D01*
X156700586Y-66866928D01*
X156823072Y-66989414D01*
X156963212Y-67091232D01*
X157117555Y-67169873D01*
X157282299Y-67223402D01*
X157453389Y-67250500D01*
X157453390Y-67250500D01*
X157626610Y-67250500D01*
X157626611Y-67250500D01*
X157797701Y-67223402D01*
X157962445Y-67169873D01*
X158116788Y-67091232D01*
X158256928Y-66989414D01*
X158379414Y-66866928D01*
X158481232Y-66726788D01*
X158559873Y-66572445D01*
X158613402Y-66407701D01*
X158640500Y-66236611D01*
X158640500Y-66063389D01*
X158979500Y-66063389D01*
X158979500Y-66236610D01*
X159003640Y-66389029D01*
X159006598Y-66407701D01*
X159045146Y-66526340D01*
X159060128Y-66572447D01*
X159120284Y-66690510D01*
X159138768Y-66726788D01*
X159240586Y-66866928D01*
X159363072Y-66989414D01*
X159503212Y-67091232D01*
X159657555Y-67169873D01*
X159822299Y-67223402D01*
X159993389Y-67250500D01*
X159993390Y-67250500D01*
X160166610Y-67250500D01*
X160166611Y-67250500D01*
X160337701Y-67223402D01*
X160502445Y-67169873D01*
X160656788Y-67091232D01*
X160796928Y-66989414D01*
X160919414Y-66866928D01*
X161021232Y-66726788D01*
X161099873Y-66572445D01*
X161153402Y-66407701D01*
X161180500Y-66236611D01*
X161180500Y-66063389D01*
X161519500Y-66063389D01*
X161519500Y-66236610D01*
X161543640Y-66389029D01*
X161546598Y-66407701D01*
X161585146Y-66526340D01*
X161600128Y-66572447D01*
X161660284Y-66690510D01*
X161678768Y-66726788D01*
X161780586Y-66866928D01*
X161903072Y-66989414D01*
X162043212Y-67091232D01*
X162197555Y-67169873D01*
X162362299Y-67223402D01*
X162533389Y-67250500D01*
X162533390Y-67250500D01*
X162706610Y-67250500D01*
X162706611Y-67250500D01*
X162877701Y-67223402D01*
X163042445Y-67169873D01*
X163196788Y-67091232D01*
X163336928Y-66989414D01*
X163459414Y-66866928D01*
X163561232Y-66726788D01*
X163639873Y-66572445D01*
X163693402Y-66407701D01*
X163720500Y-66236611D01*
X163720500Y-66063389D01*
X164059500Y-66063389D01*
X164059500Y-66236610D01*
X164083640Y-66389029D01*
X164086598Y-66407701D01*
X164125146Y-66526340D01*
X164140128Y-66572447D01*
X164200284Y-66690510D01*
X164218768Y-66726788D01*
X164320586Y-66866928D01*
X164443072Y-66989414D01*
X164583212Y-67091232D01*
X164737555Y-67169873D01*
X164902299Y-67223402D01*
X165073389Y-67250500D01*
X165073390Y-67250500D01*
X165246610Y-67250500D01*
X165246611Y-67250500D01*
X165417701Y-67223402D01*
X165582445Y-67169873D01*
X165736788Y-67091232D01*
X165876928Y-66989414D01*
X165999414Y-66866928D01*
X166101232Y-66726788D01*
X166179873Y-66572445D01*
X166233402Y-66407701D01*
X166260500Y-66236611D01*
X166260500Y-66063389D01*
X166233402Y-65892299D01*
X166179873Y-65727555D01*
X166101232Y-65573212D01*
X165999414Y-65433072D01*
X165876928Y-65310586D01*
X165736788Y-65208768D01*
X165582445Y-65130127D01*
X165417701Y-65076598D01*
X165417699Y-65076597D01*
X165417698Y-65076597D01*
X165286271Y-65055781D01*
X165246611Y-65049500D01*
X165073389Y-65049500D01*
X165033728Y-65055781D01*
X164902302Y-65076597D01*
X164737552Y-65130128D01*
X164583211Y-65208768D01*
X164503256Y-65266859D01*
X164443072Y-65310586D01*
X164443070Y-65310588D01*
X164443069Y-65310588D01*
X164320588Y-65433069D01*
X164320588Y-65433070D01*
X164320586Y-65433072D01*
X164300497Y-65460722D01*
X164218768Y-65573211D01*
X164140128Y-65727552D01*
X164086597Y-65892302D01*
X164059500Y-66063389D01*
X163720500Y-66063389D01*
X163693402Y-65892299D01*
X163639873Y-65727555D01*
X163561232Y-65573212D01*
X163459414Y-65433072D01*
X163336928Y-65310586D01*
X163196788Y-65208768D01*
X163042445Y-65130127D01*
X162877701Y-65076598D01*
X162877699Y-65076597D01*
X162877698Y-65076597D01*
X162746271Y-65055781D01*
X162706611Y-65049500D01*
X162533389Y-65049500D01*
X162493728Y-65055781D01*
X162362302Y-65076597D01*
X162197552Y-65130128D01*
X162043211Y-65208768D01*
X161963256Y-65266859D01*
X161903072Y-65310586D01*
X161903070Y-65310588D01*
X161903069Y-65310588D01*
X161780588Y-65433069D01*
X161780588Y-65433070D01*
X161780586Y-65433072D01*
X161760497Y-65460722D01*
X161678768Y-65573211D01*
X161600128Y-65727552D01*
X161546597Y-65892302D01*
X161519500Y-66063389D01*
X161180500Y-66063389D01*
X161153402Y-65892299D01*
X161099873Y-65727555D01*
X161021232Y-65573212D01*
X160919414Y-65433072D01*
X160796928Y-65310586D01*
X160656788Y-65208768D01*
X160502445Y-65130127D01*
X160337701Y-65076598D01*
X160337699Y-65076597D01*
X160337698Y-65076597D01*
X160206271Y-65055781D01*
X160166611Y-65049500D01*
X159993389Y-65049500D01*
X159953728Y-65055781D01*
X159822302Y-65076597D01*
X159657552Y-65130128D01*
X159503211Y-65208768D01*
X159423256Y-65266859D01*
X159363072Y-65310586D01*
X159363070Y-65310588D01*
X159363069Y-65310588D01*
X159240588Y-65433069D01*
X159240588Y-65433070D01*
X159240586Y-65433072D01*
X159220497Y-65460722D01*
X159138768Y-65573211D01*
X159060128Y-65727552D01*
X159006597Y-65892302D01*
X158979500Y-66063389D01*
X158640500Y-66063389D01*
X158613402Y-65892299D01*
X158559873Y-65727555D01*
X158481232Y-65573212D01*
X158379414Y-65433072D01*
X158256928Y-65310586D01*
X158116788Y-65208768D01*
X157962445Y-65130127D01*
X157797701Y-65076598D01*
X157797699Y-65076597D01*
X157797698Y-65076597D01*
X157666271Y-65055781D01*
X157626611Y-65049500D01*
X157453389Y-65049500D01*
X157413728Y-65055781D01*
X157282302Y-65076597D01*
X157117552Y-65130128D01*
X156963211Y-65208768D01*
X156883256Y-65266859D01*
X156823072Y-65310586D01*
X156823070Y-65310588D01*
X156823069Y-65310588D01*
X156700588Y-65433069D01*
X156700588Y-65433070D01*
X156700586Y-65433072D01*
X156680497Y-65460722D01*
X156598768Y-65573211D01*
X156520128Y-65727552D01*
X156466597Y-65892302D01*
X156439500Y-66063389D01*
X156100500Y-66063389D01*
X156073402Y-65892299D01*
X156019873Y-65727555D01*
X155941232Y-65573212D01*
X155839414Y-65433072D01*
X155716928Y-65310586D01*
X155576788Y-65208768D01*
X155422445Y-65130127D01*
X155257701Y-65076598D01*
X155257699Y-65076597D01*
X155257698Y-65076597D01*
X155126271Y-65055781D01*
X155086611Y-65049500D01*
X154913389Y-65049500D01*
X154873728Y-65055781D01*
X154742302Y-65076597D01*
X154577552Y-65130128D01*
X154423211Y-65208768D01*
X154343256Y-65266859D01*
X154283072Y-65310586D01*
X154283070Y-65310588D01*
X154283069Y-65310588D01*
X154160588Y-65433069D01*
X154160588Y-65433070D01*
X154160586Y-65433072D01*
X154140497Y-65460722D01*
X154058768Y-65573211D01*
X153980128Y-65727552D01*
X153926597Y-65892302D01*
X153899500Y-66063389D01*
X153560500Y-66063389D01*
X153533402Y-65892299D01*
X153479873Y-65727555D01*
X153401232Y-65573212D01*
X153299414Y-65433072D01*
X153176928Y-65310586D01*
X153036788Y-65208768D01*
X152882445Y-65130127D01*
X152717701Y-65076598D01*
X152717699Y-65076597D01*
X152717698Y-65076597D01*
X152586271Y-65055781D01*
X152546611Y-65049500D01*
X152373389Y-65049500D01*
X152333728Y-65055781D01*
X152202302Y-65076597D01*
X152037552Y-65130128D01*
X151883211Y-65208768D01*
X151803256Y-65266859D01*
X151743072Y-65310586D01*
X151743070Y-65310588D01*
X151743069Y-65310588D01*
X151620588Y-65433069D01*
X151620588Y-65433070D01*
X151620586Y-65433072D01*
X151600497Y-65460722D01*
X151518768Y-65573211D01*
X151440128Y-65727552D01*
X151386597Y-65892302D01*
X151359500Y-66063389D01*
X151020500Y-66063389D01*
X150993402Y-65892299D01*
X150939873Y-65727555D01*
X150861232Y-65573212D01*
X150759414Y-65433072D01*
X150636928Y-65310586D01*
X150521614Y-65226805D01*
X150478949Y-65171476D01*
X150470500Y-65126488D01*
X150470500Y-64257485D01*
X151693198Y-64257485D01*
X151785968Y-64304755D01*
X151980582Y-64367990D01*
X152182683Y-64400000D01*
X152387317Y-64400000D01*
X152589417Y-64367990D01*
X152784031Y-64304755D01*
X152876801Y-64257485D01*
X152498027Y-63878711D01*
X169149500Y-63878711D01*
X169149500Y-64121288D01*
X169181161Y-64361785D01*
X169243947Y-64596104D01*
X169325261Y-64792413D01*
X169336776Y-64820212D01*
X169458064Y-65030289D01*
X169458066Y-65030292D01*
X169458067Y-65030293D01*
X169605733Y-65222736D01*
X169605739Y-65222743D01*
X169777256Y-65394260D01*
X169777262Y-65394265D01*
X169969711Y-65541936D01*
X170179788Y-65663224D01*
X170318094Y-65720512D01*
X170383958Y-65747794D01*
X170403900Y-65756054D01*
X170638211Y-65818838D01*
X170778743Y-65837339D01*
X170878711Y-65850500D01*
X170878712Y-65850500D01*
X171121289Y-65850500D01*
X171169388Y-65844167D01*
X171361789Y-65818838D01*
X171596100Y-65756054D01*
X171820212Y-65663224D01*
X172030289Y-65541936D01*
X172222738Y-65394265D01*
X172394265Y-65222738D01*
X172541936Y-65030289D01*
X172663224Y-64820212D01*
X172756054Y-64596100D01*
X172818838Y-64361789D01*
X172850500Y-64121288D01*
X172850500Y-63878712D01*
X172818838Y-63638211D01*
X172756054Y-63403900D01*
X172663224Y-63179788D01*
X172541936Y-62969711D01*
X172444170Y-62842299D01*
X172394266Y-62777263D01*
X172394260Y-62777256D01*
X172222743Y-62605739D01*
X172222736Y-62605733D01*
X172030293Y-62458067D01*
X172030292Y-62458066D01*
X172030289Y-62458064D01*
X171820212Y-62336776D01*
X171820205Y-62336773D01*
X171596104Y-62243947D01*
X171361785Y-62181161D01*
X171121289Y-62149500D01*
X171121288Y-62149500D01*
X170878712Y-62149500D01*
X170878711Y-62149500D01*
X170638214Y-62181161D01*
X170403895Y-62243947D01*
X170179794Y-62336773D01*
X170179785Y-62336777D01*
X169969706Y-62458067D01*
X169777263Y-62605733D01*
X169777256Y-62605739D01*
X169605739Y-62777256D01*
X169605733Y-62777263D01*
X169458067Y-62969706D01*
X169336777Y-63179785D01*
X169336773Y-63179794D01*
X169243947Y-63403895D01*
X169181161Y-63638214D01*
X169149500Y-63878711D01*
X152498027Y-63878711D01*
X152285001Y-63665685D01*
X152285000Y-63665685D01*
X151693198Y-64257485D01*
X150470500Y-64257485D01*
X150470500Y-64022204D01*
X150490185Y-63955165D01*
X150506819Y-63934523D01*
X150562631Y-63878711D01*
X150624414Y-63816928D01*
X150726232Y-63676788D01*
X150804873Y-63522445D01*
X150812185Y-63499938D01*
X150851621Y-63442264D01*
X150915980Y-63415065D01*
X150984826Y-63426979D01*
X151036303Y-63474223D01*
X151048047Y-63499938D01*
X151080243Y-63599027D01*
X151080246Y-63599034D01*
X151127512Y-63691801D01*
X151719314Y-63100000D01*
X151719314Y-63099999D01*
X151666654Y-63047339D01*
X151885000Y-63047339D01*
X151885000Y-63152661D01*
X151912259Y-63254394D01*
X151964920Y-63345606D01*
X152039394Y-63420080D01*
X152130606Y-63472741D01*
X152232339Y-63500000D01*
X152337661Y-63500000D01*
X152439394Y-63472741D01*
X152530606Y-63420080D01*
X152605080Y-63345606D01*
X152657741Y-63254394D01*
X152685000Y-63152661D01*
X152685000Y-63099999D01*
X152850685Y-63099999D01*
X152850685Y-63100000D01*
X153442485Y-63691800D01*
X153489755Y-63599031D01*
X153552990Y-63404417D01*
X153585000Y-63202317D01*
X153585000Y-62997682D01*
X153552990Y-62795582D01*
X153489755Y-62600968D01*
X153442485Y-62508198D01*
X152850685Y-63099999D01*
X152685000Y-63099999D01*
X152685000Y-63047339D01*
X152657741Y-62945606D01*
X152605080Y-62854394D01*
X152530606Y-62779920D01*
X152439394Y-62727259D01*
X152337661Y-62700000D01*
X152232339Y-62700000D01*
X152130606Y-62727259D01*
X152039394Y-62779920D01*
X151964920Y-62854394D01*
X151912259Y-62945606D01*
X151885000Y-63047339D01*
X151666654Y-63047339D01*
X151127512Y-62508197D01*
X151080243Y-62600972D01*
X151048047Y-62700060D01*
X151008609Y-62757735D01*
X150944250Y-62784933D01*
X150875404Y-62773018D01*
X150823928Y-62725774D01*
X150812185Y-62700060D01*
X150804871Y-62677550D01*
X150763387Y-62596133D01*
X150726232Y-62523212D01*
X150624414Y-62383072D01*
X150501928Y-62260586D01*
X150361788Y-62158768D01*
X150238604Y-62096003D01*
X150238602Y-62096001D01*
X150207450Y-62080129D01*
X150207447Y-62080128D01*
X150207445Y-62080127D01*
X150042701Y-62026598D01*
X150042699Y-62026597D01*
X150042698Y-62026597D01*
X149911271Y-62005781D01*
X149871611Y-61999500D01*
X149698389Y-61999500D01*
X149658728Y-62005781D01*
X149527302Y-62026597D01*
X149362552Y-62080128D01*
X149208211Y-62158768D01*
X149177389Y-62181162D01*
X149068072Y-62260586D01*
X149068070Y-62260588D01*
X149068069Y-62260588D01*
X148945588Y-62383069D01*
X148945588Y-62383070D01*
X148945586Y-62383072D01*
X148901859Y-62443256D01*
X148843768Y-62523211D01*
X148765128Y-62677552D01*
X148711597Y-62842302D01*
X148709682Y-62854394D01*
X148684500Y-63013389D01*
X148684500Y-63186611D01*
X148711598Y-63357701D01*
X148765127Y-63522445D01*
X148843768Y-63676788D01*
X148945586Y-63816928D01*
X149068072Y-63939414D01*
X149173177Y-64015777D01*
X149208213Y-64041233D01*
X149301794Y-64088914D01*
X149352590Y-64136888D01*
X149369500Y-64199399D01*
X149369500Y-65126488D01*
X149349815Y-65193527D01*
X149318385Y-65226806D01*
X149203075Y-65310583D01*
X149203069Y-65310588D01*
X149080587Y-65433070D01*
X148996805Y-65548386D01*
X148941474Y-65591051D01*
X148896487Y-65599500D01*
X148327525Y-65599500D01*
X148241999Y-65622417D01*
X148187514Y-65637016D01*
X148061986Y-65709489D01*
X148061983Y-65709491D01*
X147468294Y-66303181D01*
X147406971Y-66336666D01*
X147380613Y-66339500D01*
X146378579Y-66339500D01*
X146311540Y-66319815D01*
X146265785Y-66267011D01*
X146255841Y-66197853D01*
X146275477Y-66146609D01*
X146304352Y-66103394D01*
X146304352Y-66103393D01*
X146304356Y-66103388D01*
X146381283Y-65917669D01*
X146420500Y-65720511D01*
X146420500Y-65519489D01*
X146381283Y-65322331D01*
X146358866Y-65268211D01*
X146304359Y-65136618D01*
X146304352Y-65136605D01*
X146192674Y-64969469D01*
X146192671Y-64969465D01*
X146050534Y-64827328D01*
X146050530Y-64827325D01*
X145883394Y-64715647D01*
X145883381Y-64715640D01*
X145697673Y-64638718D01*
X145697661Y-64638715D01*
X145500515Y-64599500D01*
X145500511Y-64599500D01*
X145299489Y-64599500D01*
X145299484Y-64599500D01*
X145102338Y-64638715D01*
X145102326Y-64638718D01*
X144916618Y-64715640D01*
X144916605Y-64715647D01*
X144749469Y-64827325D01*
X144749465Y-64827328D01*
X144607328Y-64969465D01*
X144607325Y-64969469D01*
X144495647Y-65136605D01*
X144495640Y-65136618D01*
X144418718Y-65322326D01*
X144418715Y-65322338D01*
X144379500Y-65519484D01*
X144379500Y-65720515D01*
X144418715Y-65917661D01*
X144418718Y-65917673D01*
X144495640Y-66103381D01*
X144495647Y-66103394D01*
X144524523Y-66146609D01*
X144545401Y-66213286D01*
X144526917Y-66280666D01*
X144474938Y-66327357D01*
X144421421Y-66339500D01*
X135176604Y-66339500D01*
X135109565Y-66319815D01*
X135076286Y-66288385D01*
X134965737Y-66136228D01*
X134965732Y-66136222D01*
X134826277Y-65996767D01*
X134826275Y-65996765D01*
X134666715Y-65880838D01*
X134490982Y-65791297D01*
X134303413Y-65730353D01*
X134108618Y-65699500D01*
X134108613Y-65699500D01*
X133911387Y-65699500D01*
X133911382Y-65699500D01*
X133716586Y-65730353D01*
X133529017Y-65791297D01*
X133353284Y-65880838D01*
X133193722Y-65996767D01*
X133054267Y-66136222D01*
X133054260Y-66136231D01*
X132955721Y-66271856D01*
X132900391Y-66314522D01*
X132830778Y-66320500D01*
X132768983Y-66287894D01*
X132744919Y-66255264D01*
X132712290Y-66191225D01*
X132577902Y-66006257D01*
X132416242Y-65844597D01*
X132231276Y-65710211D01*
X132027570Y-65606417D01*
X131870000Y-65555219D01*
X131870000Y-66622182D01*
X131807708Y-66559890D01*
X131682292Y-66487482D01*
X131542409Y-66450000D01*
X131397591Y-66450000D01*
X131257708Y-66487482D01*
X131132292Y-66559890D01*
X131070000Y-66622182D01*
X131070000Y-65555219D01*
X130912429Y-65606417D01*
X130708723Y-65710211D01*
X130523761Y-65844594D01*
X130386518Y-65981837D01*
X130325195Y-66015321D01*
X130255503Y-66010337D01*
X130199570Y-65968465D01*
X130184767Y-65938138D01*
X130183853Y-65938542D01*
X130134706Y-65827235D01*
X130055265Y-65747794D01*
X129952492Y-65702415D01*
X129927365Y-65699500D01*
X127932643Y-65699500D01*
X127932617Y-65699502D01*
X127907512Y-65702413D01*
X127907508Y-65702415D01*
X127804735Y-65747793D01*
X127725294Y-65827234D01*
X127679915Y-65930006D01*
X127679915Y-65930008D01*
X127677000Y-65955131D01*
X127677000Y-68044856D01*
X127677002Y-68044882D01*
X127679913Y-68069987D01*
X127679915Y-68069991D01*
X127725293Y-68172764D01*
X127725294Y-68172765D01*
X127804735Y-68252206D01*
X127907509Y-68297585D01*
X127932635Y-68300500D01*
X128335500Y-68300499D01*
X128402539Y-68320183D01*
X128448294Y-68372987D01*
X128459500Y-68424499D01*
X128459500Y-68988814D01*
X128439815Y-69055853D01*
X128391797Y-69099298D01*
X128373942Y-69108396D01*
X128373212Y-69108768D01*
X128233072Y-69210586D01*
X128233070Y-69210588D01*
X128233069Y-69210588D01*
X128110588Y-69333069D01*
X128110588Y-69333070D01*
X128110586Y-69333072D01*
X128066859Y-69393256D01*
X128008768Y-69473211D01*
X127930128Y-69627552D01*
X127876597Y-69792302D01*
X127858379Y-69907328D01*
X127849500Y-69963389D01*
X127849500Y-70136611D01*
X127876598Y-70307701D01*
X127930127Y-70472445D01*
X128008768Y-70626788D01*
X128110586Y-70766928D01*
X128233072Y-70889414D01*
X128373212Y-70991232D01*
X128527555Y-71069873D01*
X128692299Y-71123402D01*
X128863389Y-71150500D01*
X128863390Y-71150500D01*
X129036610Y-71150500D01*
X129036611Y-71150500D01*
X129207701Y-71123402D01*
X129208757Y-71123058D01*
X129209179Y-71123046D01*
X129212440Y-71122264D01*
X129212604Y-71122948D01*
X129278592Y-71121049D01*
X129334776Y-71153301D01*
X133453181Y-75271706D01*
X133486666Y-75333029D01*
X133489500Y-75359387D01*
X133489500Y-76450731D01*
X133469815Y-76517770D01*
X133421795Y-76561215D01*
X133383289Y-76580834D01*
X133223722Y-76696767D01*
X133084267Y-76836222D01*
X133084260Y-76836231D01*
X132985721Y-76971856D01*
X132930391Y-77014522D01*
X132860778Y-77020500D01*
X132798983Y-76987894D01*
X132774919Y-76955264D01*
X132742290Y-76891225D01*
X132607902Y-76706257D01*
X132446242Y-76544597D01*
X132261276Y-76410211D01*
X132057570Y-76306417D01*
X131900000Y-76255219D01*
X131900000Y-77322182D01*
X131837708Y-77259890D01*
X131712292Y-77187482D01*
X131572409Y-77150000D01*
X131427591Y-77150000D01*
X131287708Y-77187482D01*
X131162292Y-77259890D01*
X131100000Y-77322182D01*
X131100000Y-76255219D01*
X130942429Y-76306417D01*
X130738723Y-76410211D01*
X130553761Y-76544594D01*
X130416518Y-76681837D01*
X130355195Y-76715321D01*
X130285503Y-76710337D01*
X130229570Y-76668465D01*
X130214767Y-76638138D01*
X130213853Y-76638542D01*
X130164706Y-76527235D01*
X130085265Y-76447794D01*
X129982492Y-76402415D01*
X129957365Y-76399500D01*
X127962643Y-76399500D01*
X127962617Y-76399502D01*
X127937512Y-76402413D01*
X127937508Y-76402415D01*
X127834735Y-76447793D01*
X127755294Y-76527234D01*
X127709915Y-76630006D01*
X127709915Y-76630008D01*
X127707000Y-76655131D01*
X127707000Y-76775500D01*
X127687315Y-76842539D01*
X127634511Y-76888294D01*
X127583000Y-76899500D01*
X122082940Y-76899500D01*
X122015901Y-76879815D01*
X121995259Y-76863181D01*
X117536818Y-72404740D01*
X117503333Y-72343417D01*
X117500499Y-72317059D01*
X117500499Y-71080867D01*
X117500499Y-71080861D01*
X117489876Y-70992395D01*
X117434361Y-70851617D01*
X117370140Y-70766929D01*
X117342922Y-70731036D01*
X117222344Y-70639599D01*
X117222342Y-70639598D01*
X117081564Y-70584083D01*
X117081561Y-70584082D01*
X116993099Y-70573459D01*
X115682940Y-70573459D01*
X115615901Y-70553774D01*
X115595259Y-70537140D01*
X113626859Y-68568739D01*
X112020654Y-66962534D01*
X114300000Y-66962534D01*
X114300000Y-67185383D01*
X114329085Y-67406313D01*
X114329088Y-67406326D01*
X114386763Y-67621577D01*
X114472045Y-67827461D01*
X114472050Y-67827472D01*
X114548458Y-67959814D01*
X114548459Y-67959815D01*
X115400000Y-67108274D01*
X115400000Y-67152950D01*
X115440889Y-67305550D01*
X115519881Y-67442367D01*
X115631592Y-67554078D01*
X115768409Y-67633070D01*
X115921009Y-67673959D01*
X115965685Y-67673959D01*
X115114143Y-68525499D01*
X115114143Y-68525500D01*
X115246487Y-68601909D01*
X115246488Y-68601910D01*
X115452381Y-68687195D01*
X115667632Y-68744870D01*
X115667645Y-68744873D01*
X115888575Y-68773959D01*
X116111425Y-68773959D01*
X116332354Y-68744873D01*
X116332367Y-68744870D01*
X116547618Y-68687195D01*
X116753503Y-68601913D01*
X116753514Y-68601908D01*
X116885856Y-68525500D01*
X116885856Y-68525499D01*
X116034315Y-67673959D01*
X116078991Y-67673959D01*
X116231591Y-67633070D01*
X116368408Y-67554078D01*
X116480119Y-67442367D01*
X116559111Y-67305550D01*
X116600000Y-67152950D01*
X116600000Y-67108274D01*
X117451540Y-67959815D01*
X117451541Y-67959815D01*
X117527949Y-67827473D01*
X117527954Y-67827462D01*
X117613236Y-67621577D01*
X117670911Y-67406326D01*
X117670914Y-67406313D01*
X117700000Y-67185383D01*
X117700000Y-66962534D01*
X117670914Y-66741604D01*
X117670911Y-66741591D01*
X117613236Y-66526340D01*
X117527951Y-66320447D01*
X117527950Y-66320446D01*
X117451541Y-66188102D01*
X117451540Y-66188102D01*
X116600000Y-67039642D01*
X116600000Y-66994968D01*
X116559111Y-66842368D01*
X116480119Y-66705551D01*
X116368408Y-66593840D01*
X116231591Y-66514848D01*
X116078991Y-66473959D01*
X116034313Y-66473959D01*
X116885855Y-65622417D01*
X116753513Y-65546009D01*
X116753502Y-65546004D01*
X116547618Y-65460722D01*
X116332367Y-65403047D01*
X116332354Y-65403044D01*
X116111425Y-65373959D01*
X115888575Y-65373959D01*
X115667645Y-65403044D01*
X115667632Y-65403047D01*
X115452381Y-65460722D01*
X115246502Y-65546000D01*
X115246497Y-65546003D01*
X115114143Y-65622417D01*
X115114142Y-65622417D01*
X115965685Y-66473959D01*
X115921009Y-66473959D01*
X115768409Y-66514848D01*
X115631592Y-66593840D01*
X115519881Y-66705551D01*
X115440889Y-66842368D01*
X115400000Y-66994968D01*
X115400000Y-67039643D01*
X114548458Y-66188101D01*
X114548458Y-66188102D01*
X114472044Y-66320456D01*
X114472041Y-66320461D01*
X114386763Y-66526340D01*
X114329088Y-66741591D01*
X114329085Y-66741604D01*
X114300000Y-66962534D01*
X112020654Y-66962534D01*
X110326333Y-65268213D01*
X110326329Y-65268210D01*
X110195226Y-65180609D01*
X110195213Y-65180602D01*
X110049542Y-65120264D01*
X110049530Y-65120261D01*
X109894886Y-65089500D01*
X109894883Y-65089500D01*
X106544066Y-65089500D01*
X106477027Y-65069815D01*
X106431272Y-65017011D01*
X106430688Y-65015714D01*
X106387206Y-64917235D01*
X106307765Y-64837794D01*
X106267950Y-64820214D01*
X106204992Y-64792415D01*
X106179865Y-64789500D01*
X104490143Y-64789500D01*
X104490117Y-64789502D01*
X104465012Y-64792413D01*
X104465008Y-64792415D01*
X104362235Y-64837793D01*
X104282794Y-64917234D01*
X104237415Y-65020006D01*
X104237415Y-65020008D01*
X104234500Y-65045131D01*
X101248055Y-65045131D01*
X101246582Y-65043104D01*
X101101895Y-64898417D01*
X100936349Y-64778140D01*
X100754031Y-64685244D01*
X100655000Y-64653066D01*
X100655000Y-65490000D01*
X100307661Y-65490000D01*
X100202339Y-65490000D01*
X100100606Y-65517259D01*
X100009394Y-65569920D01*
X99934920Y-65644394D01*
X99882259Y-65735606D01*
X99855000Y-65837339D01*
X94221254Y-65837339D01*
X94361789Y-65818838D01*
X94596100Y-65756054D01*
X94820212Y-65663224D01*
X95030289Y-65541936D01*
X95097975Y-65489999D01*
X99018067Y-65489999D01*
X99018067Y-65490000D01*
X99855000Y-65490000D01*
X99855000Y-64653066D01*
X99755968Y-64685244D01*
X99573650Y-64778140D01*
X99408105Y-64898417D01*
X99408104Y-64898417D01*
X99263417Y-65043104D01*
X99263417Y-65043105D01*
X99143140Y-65208650D01*
X99050244Y-65390970D01*
X99018067Y-65489999D01*
X95097975Y-65489999D01*
X95172164Y-65433072D01*
X95197808Y-65413395D01*
X95211297Y-65403044D01*
X95222738Y-65394265D01*
X95394265Y-65222738D01*
X95541936Y-65030289D01*
X95663224Y-64820212D01*
X95756054Y-64596100D01*
X95818838Y-64361789D01*
X95850500Y-64121288D01*
X95850500Y-63878712D01*
X95818838Y-63638211D01*
X95756054Y-63403900D01*
X95663224Y-63179788D01*
X95541936Y-62969711D01*
X95444170Y-62842299D01*
X95394266Y-62777263D01*
X95394260Y-62777256D01*
X95222743Y-62605739D01*
X95222736Y-62605733D01*
X95030293Y-62458067D01*
X95030292Y-62458066D01*
X95030289Y-62458064D01*
X94820212Y-62336776D01*
X94820205Y-62336773D01*
X94596104Y-62243947D01*
X94361785Y-62181161D01*
X94121289Y-62149500D01*
X94121288Y-62149500D01*
X93878712Y-62149500D01*
X93878711Y-62149500D01*
X93638214Y-62181161D01*
X93403895Y-62243947D01*
X93179794Y-62336773D01*
X93179785Y-62336777D01*
X92969706Y-62458067D01*
X92777263Y-62605733D01*
X92777256Y-62605739D01*
X92605739Y-62777256D01*
X92605733Y-62777263D01*
X92458067Y-62969706D01*
X92336777Y-63179785D01*
X92336773Y-63179794D01*
X92243947Y-63403895D01*
X92181161Y-63638214D01*
X92149500Y-63878711D01*
X90500500Y-63878711D01*
X90500500Y-61942512D01*
X151693197Y-61942512D01*
X152285000Y-62534314D01*
X152285001Y-62534314D01*
X152876801Y-61942512D01*
X152784034Y-61895246D01*
X152784027Y-61895243D01*
X152589417Y-61832009D01*
X152387317Y-61800000D01*
X152182683Y-61800000D01*
X151980581Y-61832010D01*
X151980578Y-61832010D01*
X151785974Y-61895242D01*
X151785973Y-61895242D01*
X151693197Y-61942512D01*
X90500500Y-61942512D01*
X90500500Y-60624500D01*
X90520185Y-60557461D01*
X90572989Y-60511706D01*
X90624500Y-60500500D01*
X174375500Y-60500500D01*
X174442539Y-60520185D01*
G37*
G04 #@! TD.AperFunction*
M02*
