M48
; DRILL file {KiCad 9.0.2} date 2025-07-06T18:46:00-0600
; FORMAT={-:-/ absolute / metric / decimal}
; #@! TF.CreationDate,2025-07-06T18:46:00-06:00
; #@! TF.GenerationSoftware,Kicad,Pcbnew,9.0.2
; #@! TF.FileFunction,Plated,1,2,PTH
FMAT,2
METRIC
; #@! TA.AperFunction,Plated,PTH,ComponentDrill
T1C0.700
; #@! TA.AperFunction,Plated,PTH,ComponentDrill
T2C0.800
; #@! TA.AperFunction,Plated,PTH,ComponentDrill
T3C1.000
; #@! TA.AperFunction,Plated,PTH,ComponentDrill
T4C1.100
; #@! TA.AperFunction,Plated,PTH,ComponentDrill
T5C1.200
; #@! TA.AperFunction,Plated,PTH,ComponentDrill
T6C1.300
; #@! TA.AperFunction,Plated,PTH,ComponentDrill
T7C1.500
; #@! TA.AperFunction,Plated,PTH,ComponentDrill
T8C1.600
; #@! TA.AperFunction,Plated,PTH,ComponentDrill
T9C2.000
%
G90
G05
T1
X106.73Y-53.5
X109.27Y-53.5
X112.96Y-51.96
X112.96Y-57.04
X117.96Y-59.0
X119.5Y-37.92
X119.5Y-43.0
X123.04Y-59.0
X136.185Y-55.27
X136.185Y-58.27
X136.185Y-61.27
X138.725Y-55.27
X138.725Y-58.27
X138.725Y-61.27
X145.92Y-50.77
X148.46Y-50.77
X156.0Y-59.46
X156.0Y-64.54
T2
X88.5Y-63.25
X88.5Y-65.75
X98.55Y-46.79
X98.55Y-49.29
X98.55Y-60.5
X98.55Y-63.0
X105.5Y-47.5
X106.75Y-57.0
X106.755Y-70.75
X106.755Y-78.37
X107.75Y-33.055
X107.96Y-36.185
X107.96Y-43.805
X109.25Y-57.0
X109.295Y-70.75
X109.295Y-78.37
X110.25Y-33.055
X110.5Y-36.185
X110.5Y-43.805
X110.5Y-47.5
X111.835Y-70.75
X111.835Y-78.37
X113.04Y-36.185
X113.04Y-43.805
X113.25Y-33.055
X114.375Y-70.75
X114.375Y-78.37
X115.58Y-36.185
X115.58Y-43.805
X115.75Y-33.055
X115.795Y-66.37
X116.915Y-70.75
X116.915Y-78.37
X118.335Y-66.37
X119.325Y-81.375
X119.455Y-70.75
X119.455Y-78.37
X120.875Y-66.37
X121.825Y-81.375
X121.995Y-70.75
X121.995Y-78.37
X127.0Y-70.875
X127.0Y-75.875
X127.5Y-94.0
X127.5Y-99.0
X132.5Y-55.5
X132.5Y-58.0
X137.92Y-43.5
X138.0Y-37.0
X140.46Y-43.5
X140.54Y-37.0
X143.0Y-43.5
X143.08Y-37.0
X143.38Y-53.96
X143.38Y-56.5
X143.38Y-59.04
X143.38Y-61.58
X145.935Y-65.54
X148.435Y-65.54
X151.0Y-53.96
X151.0Y-56.5
X151.0Y-59.04
X151.0Y-61.58
T3
X107.5Y-61.5
X135.415Y-76.0
X135.415Y-86.0
X141.1Y-76.0
X141.1Y-86.0
X147.0Y-76.0
X147.0Y-86.0
T4
X87.55Y-46.73
X87.55Y-54.35
X92.55Y-46.92
X92.55Y-49.46
X92.55Y-52.0
X92.55Y-60.42
X92.55Y-62.96
X92.55Y-65.5
X116.69Y-51.5
X116.69Y-55.5
X123.69Y-38.0
X123.69Y-42.5
X124.31Y-51.5
X124.31Y-55.5
X131.31Y-38.0
X131.31Y-42.5
T5
X78.0Y-46.5
X78.0Y-51.5
X78.0Y-60.324
X78.0Y-65.324
X136.65Y-71.0
X136.65Y-91.5
X149.35Y-71.0
X149.35Y-91.5
T6
X65.0Y-44.0
X65.0Y-49.0
X65.0Y-58.5
X65.0Y-63.5
X65.0Y-68.5
X75.0Y-34.5
X80.0Y-34.5
X85.0Y-34.5
X136.0Y-102.5
X141.0Y-102.5
X146.0Y-102.5
T7
X156.0Y-70.6
X156.0Y-76.05
X156.0Y-81.5
T8
X70.25Y-77.45
X75.33Y-77.45
X80.41Y-77.45
X85.49Y-77.45
T9
X80.5Y-88.895
X80.5Y-98.895
X107.5Y-89.0
X107.5Y-99.0
M30
