G04 #@! TF.GenerationSoftware,KiCad,Pcbnew,9.0.2*
G04 #@! TF.CreationDate,2025-07-06T18:44:46-06:00*
G04 #@! TF.ProjectId,MMS_SSTC,4d4d535f-5353-4544-932e-6b696361645f,0.0.0*
G04 #@! TF.SameCoordinates,Original*
G04 #@! TF.FileFunction,Legend,Top*
G04 #@! TF.FilePolarity,Positive*
%FSLAX46Y46*%
G04 Gerber Fmt 4.6, Leading zero omitted, Abs format (unit mm)*
G04 Created by KiCad (PCBNEW 9.0.2) date 2025-07-06 18:44:46*
%MOMM*%
%LPD*%
G01*
G04 APERTURE LIST*
%ADD10C,0.150000*%
%ADD11C,0.120000*%
%ADD12C,0.200000*%
%ADD13C,0.400000*%
G04 APERTURE END LIST*
D10*
X120333333Y-61454819D02*
X120000000Y-60978628D01*
X119761905Y-61454819D02*
X119761905Y-60454819D01*
X119761905Y-60454819D02*
X120142857Y-60454819D01*
X120142857Y-60454819D02*
X120238095Y-60502438D01*
X120238095Y-60502438D02*
X120285714Y-60550057D01*
X120285714Y-60550057D02*
X120333333Y-60645295D01*
X120333333Y-60645295D02*
X120333333Y-60788152D01*
X120333333Y-60788152D02*
X120285714Y-60883390D01*
X120285714Y-60883390D02*
X120238095Y-60931009D01*
X120238095Y-60931009D02*
X120142857Y-60978628D01*
X120142857Y-60978628D02*
X119761905Y-60978628D01*
X120714286Y-60550057D02*
X120761905Y-60502438D01*
X120761905Y-60502438D02*
X120857143Y-60454819D01*
X120857143Y-60454819D02*
X121095238Y-60454819D01*
X121095238Y-60454819D02*
X121190476Y-60502438D01*
X121190476Y-60502438D02*
X121238095Y-60550057D01*
X121238095Y-60550057D02*
X121285714Y-60645295D01*
X121285714Y-60645295D02*
X121285714Y-60740533D01*
X121285714Y-60740533D02*
X121238095Y-60883390D01*
X121238095Y-60883390D02*
X120666667Y-61454819D01*
X120666667Y-61454819D02*
X121285714Y-61454819D01*
X146166666Y-47954819D02*
X146166666Y-48669104D01*
X146166666Y-48669104D02*
X146119047Y-48811961D01*
X146119047Y-48811961D02*
X146023809Y-48907200D01*
X146023809Y-48907200D02*
X145880952Y-48954819D01*
X145880952Y-48954819D02*
X145785714Y-48954819D01*
X146642857Y-48954819D02*
X146642857Y-47954819D01*
X146642857Y-47954819D02*
X147023809Y-47954819D01*
X147023809Y-47954819D02*
X147119047Y-48002438D01*
X147119047Y-48002438D02*
X147166666Y-48050057D01*
X147166666Y-48050057D02*
X147214285Y-48145295D01*
X147214285Y-48145295D02*
X147214285Y-48288152D01*
X147214285Y-48288152D02*
X147166666Y-48383390D01*
X147166666Y-48383390D02*
X147119047Y-48431009D01*
X147119047Y-48431009D02*
X147023809Y-48478628D01*
X147023809Y-48478628D02*
X146642857Y-48478628D01*
X148119047Y-47954819D02*
X147642857Y-47954819D01*
X147642857Y-47954819D02*
X147595238Y-48431009D01*
X147595238Y-48431009D02*
X147642857Y-48383390D01*
X147642857Y-48383390D02*
X147738095Y-48335771D01*
X147738095Y-48335771D02*
X147976190Y-48335771D01*
X147976190Y-48335771D02*
X148071428Y-48383390D01*
X148071428Y-48383390D02*
X148119047Y-48431009D01*
X148119047Y-48431009D02*
X148166666Y-48526247D01*
X148166666Y-48526247D02*
X148166666Y-48764342D01*
X148166666Y-48764342D02*
X148119047Y-48859580D01*
X148119047Y-48859580D02*
X148071428Y-48907200D01*
X148071428Y-48907200D02*
X147976190Y-48954819D01*
X147976190Y-48954819D02*
X147738095Y-48954819D01*
X147738095Y-48954819D02*
X147642857Y-48907200D01*
X147642857Y-48907200D02*
X147595238Y-48859580D01*
X146404761Y-37454819D02*
X146071428Y-36978628D01*
X145833333Y-37454819D02*
X145833333Y-36454819D01*
X145833333Y-36454819D02*
X146214285Y-36454819D01*
X146214285Y-36454819D02*
X146309523Y-36502438D01*
X146309523Y-36502438D02*
X146357142Y-36550057D01*
X146357142Y-36550057D02*
X146404761Y-36645295D01*
X146404761Y-36645295D02*
X146404761Y-36788152D01*
X146404761Y-36788152D02*
X146357142Y-36883390D01*
X146357142Y-36883390D02*
X146309523Y-36931009D01*
X146309523Y-36931009D02*
X146214285Y-36978628D01*
X146214285Y-36978628D02*
X145833333Y-36978628D01*
X146690476Y-36454819D02*
X147023809Y-37454819D01*
X147023809Y-37454819D02*
X147357142Y-36454819D01*
X147642857Y-36550057D02*
X147690476Y-36502438D01*
X147690476Y-36502438D02*
X147785714Y-36454819D01*
X147785714Y-36454819D02*
X148023809Y-36454819D01*
X148023809Y-36454819D02*
X148119047Y-36502438D01*
X148119047Y-36502438D02*
X148166666Y-36550057D01*
X148166666Y-36550057D02*
X148214285Y-36645295D01*
X148214285Y-36645295D02*
X148214285Y-36740533D01*
X148214285Y-36740533D02*
X148166666Y-36883390D01*
X148166666Y-36883390D02*
X147595238Y-37454819D01*
X147595238Y-37454819D02*
X148214285Y-37454819D01*
X88333333Y-61359580D02*
X88285714Y-61407200D01*
X88285714Y-61407200D02*
X88142857Y-61454819D01*
X88142857Y-61454819D02*
X88047619Y-61454819D01*
X88047619Y-61454819D02*
X87904762Y-61407200D01*
X87904762Y-61407200D02*
X87809524Y-61311961D01*
X87809524Y-61311961D02*
X87761905Y-61216723D01*
X87761905Y-61216723D02*
X87714286Y-61026247D01*
X87714286Y-61026247D02*
X87714286Y-60883390D01*
X87714286Y-60883390D02*
X87761905Y-60692914D01*
X87761905Y-60692914D02*
X87809524Y-60597676D01*
X87809524Y-60597676D02*
X87904762Y-60502438D01*
X87904762Y-60502438D02*
X88047619Y-60454819D01*
X88047619Y-60454819D02*
X88142857Y-60454819D01*
X88142857Y-60454819D02*
X88285714Y-60502438D01*
X88285714Y-60502438D02*
X88333333Y-60550057D01*
X89238095Y-60454819D02*
X88761905Y-60454819D01*
X88761905Y-60454819D02*
X88714286Y-60931009D01*
X88714286Y-60931009D02*
X88761905Y-60883390D01*
X88761905Y-60883390D02*
X88857143Y-60835771D01*
X88857143Y-60835771D02*
X89095238Y-60835771D01*
X89095238Y-60835771D02*
X89190476Y-60883390D01*
X89190476Y-60883390D02*
X89238095Y-60931009D01*
X89238095Y-60931009D02*
X89285714Y-61026247D01*
X89285714Y-61026247D02*
X89285714Y-61264342D01*
X89285714Y-61264342D02*
X89238095Y-61359580D01*
X89238095Y-61359580D02*
X89190476Y-61407200D01*
X89190476Y-61407200D02*
X89095238Y-61454819D01*
X89095238Y-61454819D02*
X88857143Y-61454819D01*
X88857143Y-61454819D02*
X88761905Y-61407200D01*
X88761905Y-61407200D02*
X88714286Y-61359580D01*
X112857142Y-47859580D02*
X112809523Y-47907200D01*
X112809523Y-47907200D02*
X112666666Y-47954819D01*
X112666666Y-47954819D02*
X112571428Y-47954819D01*
X112571428Y-47954819D02*
X112428571Y-47907200D01*
X112428571Y-47907200D02*
X112333333Y-47811961D01*
X112333333Y-47811961D02*
X112285714Y-47716723D01*
X112285714Y-47716723D02*
X112238095Y-47526247D01*
X112238095Y-47526247D02*
X112238095Y-47383390D01*
X112238095Y-47383390D02*
X112285714Y-47192914D01*
X112285714Y-47192914D02*
X112333333Y-47097676D01*
X112333333Y-47097676D02*
X112428571Y-47002438D01*
X112428571Y-47002438D02*
X112571428Y-46954819D01*
X112571428Y-46954819D02*
X112666666Y-46954819D01*
X112666666Y-46954819D02*
X112809523Y-47002438D01*
X112809523Y-47002438D02*
X112857142Y-47050057D01*
X113809523Y-47954819D02*
X113238095Y-47954819D01*
X113523809Y-47954819D02*
X113523809Y-46954819D01*
X113523809Y-46954819D02*
X113428571Y-47097676D01*
X113428571Y-47097676D02*
X113333333Y-47192914D01*
X113333333Y-47192914D02*
X113238095Y-47240533D01*
X114285714Y-47954819D02*
X114476190Y-47954819D01*
X114476190Y-47954819D02*
X114571428Y-47907200D01*
X114571428Y-47907200D02*
X114619047Y-47859580D01*
X114619047Y-47859580D02*
X114714285Y-47716723D01*
X114714285Y-47716723D02*
X114761904Y-47526247D01*
X114761904Y-47526247D02*
X114761904Y-47145295D01*
X114761904Y-47145295D02*
X114714285Y-47050057D01*
X114714285Y-47050057D02*
X114666666Y-47002438D01*
X114666666Y-47002438D02*
X114571428Y-46954819D01*
X114571428Y-46954819D02*
X114380952Y-46954819D01*
X114380952Y-46954819D02*
X114285714Y-47002438D01*
X114285714Y-47002438D02*
X114238095Y-47050057D01*
X114238095Y-47050057D02*
X114190476Y-47145295D01*
X114190476Y-47145295D02*
X114190476Y-47383390D01*
X114190476Y-47383390D02*
X114238095Y-47478628D01*
X114238095Y-47478628D02*
X114285714Y-47526247D01*
X114285714Y-47526247D02*
X114380952Y-47573866D01*
X114380952Y-47573866D02*
X114571428Y-47573866D01*
X114571428Y-47573866D02*
X114666666Y-47526247D01*
X114666666Y-47526247D02*
X114714285Y-47478628D01*
X114714285Y-47478628D02*
X114761904Y-47383390D01*
X151238095Y-51084819D02*
X151238095Y-51894342D01*
X151238095Y-51894342D02*
X151285714Y-51989580D01*
X151285714Y-51989580D02*
X151333333Y-52037200D01*
X151333333Y-52037200D02*
X151428571Y-52084819D01*
X151428571Y-52084819D02*
X151619047Y-52084819D01*
X151619047Y-52084819D02*
X151714285Y-52037200D01*
X151714285Y-52037200D02*
X151761904Y-51989580D01*
X151761904Y-51989580D02*
X151809523Y-51894342D01*
X151809523Y-51894342D02*
X151809523Y-51084819D01*
X152714285Y-51418152D02*
X152714285Y-52084819D01*
X152476190Y-51037200D02*
X152238095Y-51751485D01*
X152238095Y-51751485D02*
X152857142Y-51751485D01*
X90833333Y-84359580D02*
X90785714Y-84407200D01*
X90785714Y-84407200D02*
X90642857Y-84454819D01*
X90642857Y-84454819D02*
X90547619Y-84454819D01*
X90547619Y-84454819D02*
X90404762Y-84407200D01*
X90404762Y-84407200D02*
X90309524Y-84311961D01*
X90309524Y-84311961D02*
X90261905Y-84216723D01*
X90261905Y-84216723D02*
X90214286Y-84026247D01*
X90214286Y-84026247D02*
X90214286Y-83883390D01*
X90214286Y-83883390D02*
X90261905Y-83692914D01*
X90261905Y-83692914D02*
X90309524Y-83597676D01*
X90309524Y-83597676D02*
X90404762Y-83502438D01*
X90404762Y-83502438D02*
X90547619Y-83454819D01*
X90547619Y-83454819D02*
X90642857Y-83454819D01*
X90642857Y-83454819D02*
X90785714Y-83502438D01*
X90785714Y-83502438D02*
X90833333Y-83550057D01*
X91690476Y-83454819D02*
X91500000Y-83454819D01*
X91500000Y-83454819D02*
X91404762Y-83502438D01*
X91404762Y-83502438D02*
X91357143Y-83550057D01*
X91357143Y-83550057D02*
X91261905Y-83692914D01*
X91261905Y-83692914D02*
X91214286Y-83883390D01*
X91214286Y-83883390D02*
X91214286Y-84264342D01*
X91214286Y-84264342D02*
X91261905Y-84359580D01*
X91261905Y-84359580D02*
X91309524Y-84407200D01*
X91309524Y-84407200D02*
X91404762Y-84454819D01*
X91404762Y-84454819D02*
X91595238Y-84454819D01*
X91595238Y-84454819D02*
X91690476Y-84407200D01*
X91690476Y-84407200D02*
X91738095Y-84359580D01*
X91738095Y-84359580D02*
X91785714Y-84264342D01*
X91785714Y-84264342D02*
X91785714Y-84026247D01*
X91785714Y-84026247D02*
X91738095Y-83931009D01*
X91738095Y-83931009D02*
X91690476Y-83883390D01*
X91690476Y-83883390D02*
X91595238Y-83835771D01*
X91595238Y-83835771D02*
X91404762Y-83835771D01*
X91404762Y-83835771D02*
X91309524Y-83883390D01*
X91309524Y-83883390D02*
X91261905Y-83931009D01*
X91261905Y-83931009D02*
X91214286Y-84026247D01*
X150357142Y-65859580D02*
X150309523Y-65907200D01*
X150309523Y-65907200D02*
X150166666Y-65954819D01*
X150166666Y-65954819D02*
X150071428Y-65954819D01*
X150071428Y-65954819D02*
X149928571Y-65907200D01*
X149928571Y-65907200D02*
X149833333Y-65811961D01*
X149833333Y-65811961D02*
X149785714Y-65716723D01*
X149785714Y-65716723D02*
X149738095Y-65526247D01*
X149738095Y-65526247D02*
X149738095Y-65383390D01*
X149738095Y-65383390D02*
X149785714Y-65192914D01*
X149785714Y-65192914D02*
X149833333Y-65097676D01*
X149833333Y-65097676D02*
X149928571Y-65002438D01*
X149928571Y-65002438D02*
X150071428Y-64954819D01*
X150071428Y-64954819D02*
X150166666Y-64954819D01*
X150166666Y-64954819D02*
X150309523Y-65002438D01*
X150309523Y-65002438D02*
X150357142Y-65050057D01*
X151309523Y-65954819D02*
X150738095Y-65954819D01*
X151023809Y-65954819D02*
X151023809Y-64954819D01*
X151023809Y-64954819D02*
X150928571Y-65097676D01*
X150928571Y-65097676D02*
X150833333Y-65192914D01*
X150833333Y-65192914D02*
X150738095Y-65240533D01*
X152261904Y-65954819D02*
X151690476Y-65954819D01*
X151976190Y-65954819D02*
X151976190Y-64954819D01*
X151976190Y-64954819D02*
X151880952Y-65097676D01*
X151880952Y-65097676D02*
X151785714Y-65192914D01*
X151785714Y-65192914D02*
X151690476Y-65240533D01*
X119333333Y-35954819D02*
X119000000Y-35478628D01*
X118761905Y-35954819D02*
X118761905Y-34954819D01*
X118761905Y-34954819D02*
X119142857Y-34954819D01*
X119142857Y-34954819D02*
X119238095Y-35002438D01*
X119238095Y-35002438D02*
X119285714Y-35050057D01*
X119285714Y-35050057D02*
X119333333Y-35145295D01*
X119333333Y-35145295D02*
X119333333Y-35288152D01*
X119333333Y-35288152D02*
X119285714Y-35383390D01*
X119285714Y-35383390D02*
X119238095Y-35431009D01*
X119238095Y-35431009D02*
X119142857Y-35478628D01*
X119142857Y-35478628D02*
X118761905Y-35478628D01*
X119666667Y-34954819D02*
X120285714Y-34954819D01*
X120285714Y-34954819D02*
X119952381Y-35335771D01*
X119952381Y-35335771D02*
X120095238Y-35335771D01*
X120095238Y-35335771D02*
X120190476Y-35383390D01*
X120190476Y-35383390D02*
X120238095Y-35431009D01*
X120238095Y-35431009D02*
X120285714Y-35526247D01*
X120285714Y-35526247D02*
X120285714Y-35764342D01*
X120285714Y-35764342D02*
X120238095Y-35859580D01*
X120238095Y-35859580D02*
X120190476Y-35907200D01*
X120190476Y-35907200D02*
X120095238Y-35954819D01*
X120095238Y-35954819D02*
X119809524Y-35954819D01*
X119809524Y-35954819D02*
X119714286Y-35907200D01*
X119714286Y-35907200D02*
X119666667Y-35859580D01*
X86811905Y-44494819D02*
X86811905Y-43494819D01*
X86811905Y-43494819D02*
X87050000Y-43494819D01*
X87050000Y-43494819D02*
X87192857Y-43542438D01*
X87192857Y-43542438D02*
X87288095Y-43637676D01*
X87288095Y-43637676D02*
X87335714Y-43732914D01*
X87335714Y-43732914D02*
X87383333Y-43923390D01*
X87383333Y-43923390D02*
X87383333Y-44066247D01*
X87383333Y-44066247D02*
X87335714Y-44256723D01*
X87335714Y-44256723D02*
X87288095Y-44351961D01*
X87288095Y-44351961D02*
X87192857Y-44447200D01*
X87192857Y-44447200D02*
X87050000Y-44494819D01*
X87050000Y-44494819D02*
X86811905Y-44494819D01*
X88335714Y-44494819D02*
X87764286Y-44494819D01*
X88050000Y-44494819D02*
X88050000Y-43494819D01*
X88050000Y-43494819D02*
X87954762Y-43637676D01*
X87954762Y-43637676D02*
X87859524Y-43732914D01*
X87859524Y-43732914D02*
X87764286Y-43780533D01*
X108357142Y-31164580D02*
X108309523Y-31212200D01*
X108309523Y-31212200D02*
X108166666Y-31259819D01*
X108166666Y-31259819D02*
X108071428Y-31259819D01*
X108071428Y-31259819D02*
X107928571Y-31212200D01*
X107928571Y-31212200D02*
X107833333Y-31116961D01*
X107833333Y-31116961D02*
X107785714Y-31021723D01*
X107785714Y-31021723D02*
X107738095Y-30831247D01*
X107738095Y-30831247D02*
X107738095Y-30688390D01*
X107738095Y-30688390D02*
X107785714Y-30497914D01*
X107785714Y-30497914D02*
X107833333Y-30402676D01*
X107833333Y-30402676D02*
X107928571Y-30307438D01*
X107928571Y-30307438D02*
X108071428Y-30259819D01*
X108071428Y-30259819D02*
X108166666Y-30259819D01*
X108166666Y-30259819D02*
X108309523Y-30307438D01*
X108309523Y-30307438D02*
X108357142Y-30355057D01*
X109309523Y-31259819D02*
X108738095Y-31259819D01*
X109023809Y-31259819D02*
X109023809Y-30259819D01*
X109023809Y-30259819D02*
X108928571Y-30402676D01*
X108928571Y-30402676D02*
X108833333Y-30497914D01*
X108833333Y-30497914D02*
X108738095Y-30545533D01*
X109690476Y-30355057D02*
X109738095Y-30307438D01*
X109738095Y-30307438D02*
X109833333Y-30259819D01*
X109833333Y-30259819D02*
X110071428Y-30259819D01*
X110071428Y-30259819D02*
X110166666Y-30307438D01*
X110166666Y-30307438D02*
X110214285Y-30355057D01*
X110214285Y-30355057D02*
X110261904Y-30450295D01*
X110261904Y-30450295D02*
X110261904Y-30545533D01*
X110261904Y-30545533D02*
X110214285Y-30688390D01*
X110214285Y-30688390D02*
X109642857Y-31259819D01*
X109642857Y-31259819D02*
X110261904Y-31259819D01*
X109404761Y-66824819D02*
X109071428Y-66348628D01*
X108833333Y-66824819D02*
X108833333Y-65824819D01*
X108833333Y-65824819D02*
X109214285Y-65824819D01*
X109214285Y-65824819D02*
X109309523Y-65872438D01*
X109309523Y-65872438D02*
X109357142Y-65920057D01*
X109357142Y-65920057D02*
X109404761Y-66015295D01*
X109404761Y-66015295D02*
X109404761Y-66158152D01*
X109404761Y-66158152D02*
X109357142Y-66253390D01*
X109357142Y-66253390D02*
X109309523Y-66301009D01*
X109309523Y-66301009D02*
X109214285Y-66348628D01*
X109214285Y-66348628D02*
X108833333Y-66348628D01*
X109690476Y-65824819D02*
X110023809Y-66824819D01*
X110023809Y-66824819D02*
X110357142Y-65824819D01*
X111214285Y-66824819D02*
X110642857Y-66824819D01*
X110928571Y-66824819D02*
X110928571Y-65824819D01*
X110928571Y-65824819D02*
X110833333Y-65967676D01*
X110833333Y-65967676D02*
X110738095Y-66062914D01*
X110738095Y-66062914D02*
X110642857Y-66110533D01*
X103166666Y-52954819D02*
X103166666Y-53669104D01*
X103166666Y-53669104D02*
X103119047Y-53811961D01*
X103119047Y-53811961D02*
X103023809Y-53907200D01*
X103023809Y-53907200D02*
X102880952Y-53954819D01*
X102880952Y-53954819D02*
X102785714Y-53954819D01*
X103642857Y-53954819D02*
X103642857Y-52954819D01*
X103642857Y-52954819D02*
X104023809Y-52954819D01*
X104023809Y-52954819D02*
X104119047Y-53002438D01*
X104119047Y-53002438D02*
X104166666Y-53050057D01*
X104166666Y-53050057D02*
X104214285Y-53145295D01*
X104214285Y-53145295D02*
X104214285Y-53288152D01*
X104214285Y-53288152D02*
X104166666Y-53383390D01*
X104166666Y-53383390D02*
X104119047Y-53431009D01*
X104119047Y-53431009D02*
X104023809Y-53478628D01*
X104023809Y-53478628D02*
X103642857Y-53478628D01*
X105166666Y-53954819D02*
X104595238Y-53954819D01*
X104880952Y-53954819D02*
X104880952Y-52954819D01*
X104880952Y-52954819D02*
X104785714Y-53097676D01*
X104785714Y-53097676D02*
X104690476Y-53192914D01*
X104690476Y-53192914D02*
X104595238Y-53240533D01*
X64666666Y-39454819D02*
X64666666Y-40169104D01*
X64666666Y-40169104D02*
X64619047Y-40311961D01*
X64619047Y-40311961D02*
X64523809Y-40407200D01*
X64523809Y-40407200D02*
X64380952Y-40454819D01*
X64380952Y-40454819D02*
X64285714Y-40454819D01*
X65095238Y-39550057D02*
X65142857Y-39502438D01*
X65142857Y-39502438D02*
X65238095Y-39454819D01*
X65238095Y-39454819D02*
X65476190Y-39454819D01*
X65476190Y-39454819D02*
X65571428Y-39502438D01*
X65571428Y-39502438D02*
X65619047Y-39550057D01*
X65619047Y-39550057D02*
X65666666Y-39645295D01*
X65666666Y-39645295D02*
X65666666Y-39740533D01*
X65666666Y-39740533D02*
X65619047Y-39883390D01*
X65619047Y-39883390D02*
X65047619Y-40454819D01*
X65047619Y-40454819D02*
X65666666Y-40454819D01*
X130859580Y-81642857D02*
X130907200Y-81690476D01*
X130907200Y-81690476D02*
X130954819Y-81833333D01*
X130954819Y-81833333D02*
X130954819Y-81928571D01*
X130954819Y-81928571D02*
X130907200Y-82071428D01*
X130907200Y-82071428D02*
X130811961Y-82166666D01*
X130811961Y-82166666D02*
X130716723Y-82214285D01*
X130716723Y-82214285D02*
X130526247Y-82261904D01*
X130526247Y-82261904D02*
X130383390Y-82261904D01*
X130383390Y-82261904D02*
X130192914Y-82214285D01*
X130192914Y-82214285D02*
X130097676Y-82166666D01*
X130097676Y-82166666D02*
X130002438Y-82071428D01*
X130002438Y-82071428D02*
X129954819Y-81928571D01*
X129954819Y-81928571D02*
X129954819Y-81833333D01*
X129954819Y-81833333D02*
X130002438Y-81690476D01*
X130002438Y-81690476D02*
X130050057Y-81642857D01*
X130954819Y-80690476D02*
X130954819Y-81261904D01*
X130954819Y-80976190D02*
X129954819Y-80976190D01*
X129954819Y-80976190D02*
X130097676Y-81071428D01*
X130097676Y-81071428D02*
X130192914Y-81166666D01*
X130192914Y-81166666D02*
X130240533Y-81261904D01*
X129954819Y-79785714D02*
X129954819Y-80261904D01*
X129954819Y-80261904D02*
X130431009Y-80309523D01*
X130431009Y-80309523D02*
X130383390Y-80261904D01*
X130383390Y-80261904D02*
X130335771Y-80166666D01*
X130335771Y-80166666D02*
X130335771Y-79928571D01*
X130335771Y-79928571D02*
X130383390Y-79833333D01*
X130383390Y-79833333D02*
X130431009Y-79785714D01*
X130431009Y-79785714D02*
X130526247Y-79738095D01*
X130526247Y-79738095D02*
X130764342Y-79738095D01*
X130764342Y-79738095D02*
X130859580Y-79785714D01*
X130859580Y-79785714D02*
X130907200Y-79833333D01*
X130907200Y-79833333D02*
X130954819Y-79928571D01*
X130954819Y-79928571D02*
X130954819Y-80166666D01*
X130954819Y-80166666D02*
X130907200Y-80261904D01*
X130907200Y-80261904D02*
X130859580Y-80309523D01*
X127333333Y-91859580D02*
X127285714Y-91907200D01*
X127285714Y-91907200D02*
X127142857Y-91954819D01*
X127142857Y-91954819D02*
X127047619Y-91954819D01*
X127047619Y-91954819D02*
X126904762Y-91907200D01*
X126904762Y-91907200D02*
X126809524Y-91811961D01*
X126809524Y-91811961D02*
X126761905Y-91716723D01*
X126761905Y-91716723D02*
X126714286Y-91526247D01*
X126714286Y-91526247D02*
X126714286Y-91383390D01*
X126714286Y-91383390D02*
X126761905Y-91192914D01*
X126761905Y-91192914D02*
X126809524Y-91097676D01*
X126809524Y-91097676D02*
X126904762Y-91002438D01*
X126904762Y-91002438D02*
X127047619Y-90954819D01*
X127047619Y-90954819D02*
X127142857Y-90954819D01*
X127142857Y-90954819D02*
X127285714Y-91002438D01*
X127285714Y-91002438D02*
X127333333Y-91050057D01*
X127904762Y-91383390D02*
X127809524Y-91335771D01*
X127809524Y-91335771D02*
X127761905Y-91288152D01*
X127761905Y-91288152D02*
X127714286Y-91192914D01*
X127714286Y-91192914D02*
X127714286Y-91145295D01*
X127714286Y-91145295D02*
X127761905Y-91050057D01*
X127761905Y-91050057D02*
X127809524Y-91002438D01*
X127809524Y-91002438D02*
X127904762Y-90954819D01*
X127904762Y-90954819D02*
X128095238Y-90954819D01*
X128095238Y-90954819D02*
X128190476Y-91002438D01*
X128190476Y-91002438D02*
X128238095Y-91050057D01*
X128238095Y-91050057D02*
X128285714Y-91145295D01*
X128285714Y-91145295D02*
X128285714Y-91192914D01*
X128285714Y-91192914D02*
X128238095Y-91288152D01*
X128238095Y-91288152D02*
X128190476Y-91335771D01*
X128190476Y-91335771D02*
X128095238Y-91383390D01*
X128095238Y-91383390D02*
X127904762Y-91383390D01*
X127904762Y-91383390D02*
X127809524Y-91431009D01*
X127809524Y-91431009D02*
X127761905Y-91478628D01*
X127761905Y-91478628D02*
X127714286Y-91573866D01*
X127714286Y-91573866D02*
X127714286Y-91764342D01*
X127714286Y-91764342D02*
X127761905Y-91859580D01*
X127761905Y-91859580D02*
X127809524Y-91907200D01*
X127809524Y-91907200D02*
X127904762Y-91954819D01*
X127904762Y-91954819D02*
X128095238Y-91954819D01*
X128095238Y-91954819D02*
X128190476Y-91907200D01*
X128190476Y-91907200D02*
X128238095Y-91859580D01*
X128238095Y-91859580D02*
X128285714Y-91764342D01*
X128285714Y-91764342D02*
X128285714Y-91573866D01*
X128285714Y-91573866D02*
X128238095Y-91478628D01*
X128238095Y-91478628D02*
X128190476Y-91431009D01*
X128190476Y-91431009D02*
X128095238Y-91383390D01*
X98383333Y-44899580D02*
X98335714Y-44947200D01*
X98335714Y-44947200D02*
X98192857Y-44994819D01*
X98192857Y-44994819D02*
X98097619Y-44994819D01*
X98097619Y-44994819D02*
X97954762Y-44947200D01*
X97954762Y-44947200D02*
X97859524Y-44851961D01*
X97859524Y-44851961D02*
X97811905Y-44756723D01*
X97811905Y-44756723D02*
X97764286Y-44566247D01*
X97764286Y-44566247D02*
X97764286Y-44423390D01*
X97764286Y-44423390D02*
X97811905Y-44232914D01*
X97811905Y-44232914D02*
X97859524Y-44137676D01*
X97859524Y-44137676D02*
X97954762Y-44042438D01*
X97954762Y-44042438D02*
X98097619Y-43994819D01*
X98097619Y-43994819D02*
X98192857Y-43994819D01*
X98192857Y-43994819D02*
X98335714Y-44042438D01*
X98335714Y-44042438D02*
X98383333Y-44090057D01*
X98764286Y-44090057D02*
X98811905Y-44042438D01*
X98811905Y-44042438D02*
X98907143Y-43994819D01*
X98907143Y-43994819D02*
X99145238Y-43994819D01*
X99145238Y-43994819D02*
X99240476Y-44042438D01*
X99240476Y-44042438D02*
X99288095Y-44090057D01*
X99288095Y-44090057D02*
X99335714Y-44185295D01*
X99335714Y-44185295D02*
X99335714Y-44280533D01*
X99335714Y-44280533D02*
X99288095Y-44423390D01*
X99288095Y-44423390D02*
X98716667Y-44994819D01*
X98716667Y-44994819D02*
X99335714Y-44994819D01*
X83333333Y-43859580D02*
X83285714Y-43907200D01*
X83285714Y-43907200D02*
X83142857Y-43954819D01*
X83142857Y-43954819D02*
X83047619Y-43954819D01*
X83047619Y-43954819D02*
X82904762Y-43907200D01*
X82904762Y-43907200D02*
X82809524Y-43811961D01*
X82809524Y-43811961D02*
X82761905Y-43716723D01*
X82761905Y-43716723D02*
X82714286Y-43526247D01*
X82714286Y-43526247D02*
X82714286Y-43383390D01*
X82714286Y-43383390D02*
X82761905Y-43192914D01*
X82761905Y-43192914D02*
X82809524Y-43097676D01*
X82809524Y-43097676D02*
X82904762Y-43002438D01*
X82904762Y-43002438D02*
X83047619Y-42954819D01*
X83047619Y-42954819D02*
X83142857Y-42954819D01*
X83142857Y-42954819D02*
X83285714Y-43002438D01*
X83285714Y-43002438D02*
X83333333Y-43050057D01*
X84285714Y-43954819D02*
X83714286Y-43954819D01*
X84000000Y-43954819D02*
X84000000Y-42954819D01*
X84000000Y-42954819D02*
X83904762Y-43097676D01*
X83904762Y-43097676D02*
X83809524Y-43192914D01*
X83809524Y-43192914D02*
X83714286Y-43240533D01*
X151761905Y-91954819D02*
X151761905Y-90954819D01*
X151761905Y-90954819D02*
X152000000Y-90954819D01*
X152000000Y-90954819D02*
X152142857Y-91002438D01*
X152142857Y-91002438D02*
X152238095Y-91097676D01*
X152238095Y-91097676D02*
X152285714Y-91192914D01*
X152285714Y-91192914D02*
X152333333Y-91383390D01*
X152333333Y-91383390D02*
X152333333Y-91526247D01*
X152333333Y-91526247D02*
X152285714Y-91716723D01*
X152285714Y-91716723D02*
X152238095Y-91811961D01*
X152238095Y-91811961D02*
X152142857Y-91907200D01*
X152142857Y-91907200D02*
X152000000Y-91954819D01*
X152000000Y-91954819D02*
X151761905Y-91954819D01*
X153190476Y-91288152D02*
X153190476Y-91954819D01*
X152952381Y-90907200D02*
X152714286Y-91621485D01*
X152714286Y-91621485D02*
X153333333Y-91621485D01*
X155833333Y-57954819D02*
X155500000Y-57478628D01*
X155261905Y-57954819D02*
X155261905Y-56954819D01*
X155261905Y-56954819D02*
X155642857Y-56954819D01*
X155642857Y-56954819D02*
X155738095Y-57002438D01*
X155738095Y-57002438D02*
X155785714Y-57050057D01*
X155785714Y-57050057D02*
X155833333Y-57145295D01*
X155833333Y-57145295D02*
X155833333Y-57288152D01*
X155833333Y-57288152D02*
X155785714Y-57383390D01*
X155785714Y-57383390D02*
X155738095Y-57431009D01*
X155738095Y-57431009D02*
X155642857Y-57478628D01*
X155642857Y-57478628D02*
X155261905Y-57478628D01*
X156785714Y-57954819D02*
X156214286Y-57954819D01*
X156500000Y-57954819D02*
X156500000Y-56954819D01*
X156500000Y-56954819D02*
X156404762Y-57097676D01*
X156404762Y-57097676D02*
X156309524Y-57192914D01*
X156309524Y-57192914D02*
X156214286Y-57240533D01*
X92738095Y-42454819D02*
X92738095Y-43264342D01*
X92738095Y-43264342D02*
X92785714Y-43359580D01*
X92785714Y-43359580D02*
X92833333Y-43407200D01*
X92833333Y-43407200D02*
X92928571Y-43454819D01*
X92928571Y-43454819D02*
X93119047Y-43454819D01*
X93119047Y-43454819D02*
X93214285Y-43407200D01*
X93214285Y-43407200D02*
X93261904Y-43359580D01*
X93261904Y-43359580D02*
X93309523Y-43264342D01*
X93309523Y-43264342D02*
X93309523Y-42454819D01*
X94309523Y-43454819D02*
X93738095Y-43454819D01*
X94023809Y-43454819D02*
X94023809Y-42454819D01*
X94023809Y-42454819D02*
X93928571Y-42597676D01*
X93928571Y-42597676D02*
X93833333Y-42692914D01*
X93833333Y-42692914D02*
X93738095Y-42740533D01*
X136666666Y-49454819D02*
X136666666Y-50169104D01*
X136666666Y-50169104D02*
X136619047Y-50311961D01*
X136619047Y-50311961D02*
X136523809Y-50407200D01*
X136523809Y-50407200D02*
X136380952Y-50454819D01*
X136380952Y-50454819D02*
X136285714Y-50454819D01*
X137142857Y-50454819D02*
X137142857Y-49454819D01*
X137142857Y-49454819D02*
X137523809Y-49454819D01*
X137523809Y-49454819D02*
X137619047Y-49502438D01*
X137619047Y-49502438D02*
X137666666Y-49550057D01*
X137666666Y-49550057D02*
X137714285Y-49645295D01*
X137714285Y-49645295D02*
X137714285Y-49788152D01*
X137714285Y-49788152D02*
X137666666Y-49883390D01*
X137666666Y-49883390D02*
X137619047Y-49931009D01*
X137619047Y-49931009D02*
X137523809Y-49978628D01*
X137523809Y-49978628D02*
X137142857Y-49978628D01*
X138571428Y-49788152D02*
X138571428Y-50454819D01*
X138333333Y-49407200D02*
X138095238Y-50121485D01*
X138095238Y-50121485D02*
X138714285Y-50121485D01*
X132359580Y-81642857D02*
X132407200Y-81690476D01*
X132407200Y-81690476D02*
X132454819Y-81833333D01*
X132454819Y-81833333D02*
X132454819Y-81928571D01*
X132454819Y-81928571D02*
X132407200Y-82071428D01*
X132407200Y-82071428D02*
X132311961Y-82166666D01*
X132311961Y-82166666D02*
X132216723Y-82214285D01*
X132216723Y-82214285D02*
X132026247Y-82261904D01*
X132026247Y-82261904D02*
X131883390Y-82261904D01*
X131883390Y-82261904D02*
X131692914Y-82214285D01*
X131692914Y-82214285D02*
X131597676Y-82166666D01*
X131597676Y-82166666D02*
X131502438Y-82071428D01*
X131502438Y-82071428D02*
X131454819Y-81928571D01*
X131454819Y-81928571D02*
X131454819Y-81833333D01*
X131454819Y-81833333D02*
X131502438Y-81690476D01*
X131502438Y-81690476D02*
X131550057Y-81642857D01*
X132454819Y-80690476D02*
X132454819Y-81261904D01*
X132454819Y-80976190D02*
X131454819Y-80976190D01*
X131454819Y-80976190D02*
X131597676Y-81071428D01*
X131597676Y-81071428D02*
X131692914Y-81166666D01*
X131692914Y-81166666D02*
X131740533Y-81261904D01*
X131788152Y-79833333D02*
X132454819Y-79833333D01*
X131407200Y-80071428D02*
X132121485Y-80309523D01*
X132121485Y-80309523D02*
X132121485Y-79690476D01*
X113857142Y-31359580D02*
X113809523Y-31407200D01*
X113809523Y-31407200D02*
X113666666Y-31454819D01*
X113666666Y-31454819D02*
X113571428Y-31454819D01*
X113571428Y-31454819D02*
X113428571Y-31407200D01*
X113428571Y-31407200D02*
X113333333Y-31311961D01*
X113333333Y-31311961D02*
X113285714Y-31216723D01*
X113285714Y-31216723D02*
X113238095Y-31026247D01*
X113238095Y-31026247D02*
X113238095Y-30883390D01*
X113238095Y-30883390D02*
X113285714Y-30692914D01*
X113285714Y-30692914D02*
X113333333Y-30597676D01*
X113333333Y-30597676D02*
X113428571Y-30502438D01*
X113428571Y-30502438D02*
X113571428Y-30454819D01*
X113571428Y-30454819D02*
X113666666Y-30454819D01*
X113666666Y-30454819D02*
X113809523Y-30502438D01*
X113809523Y-30502438D02*
X113857142Y-30550057D01*
X114809523Y-31454819D02*
X114238095Y-31454819D01*
X114523809Y-31454819D02*
X114523809Y-30454819D01*
X114523809Y-30454819D02*
X114428571Y-30597676D01*
X114428571Y-30597676D02*
X114333333Y-30692914D01*
X114333333Y-30692914D02*
X114238095Y-30740533D01*
X115380952Y-30883390D02*
X115285714Y-30835771D01*
X115285714Y-30835771D02*
X115238095Y-30788152D01*
X115238095Y-30788152D02*
X115190476Y-30692914D01*
X115190476Y-30692914D02*
X115190476Y-30645295D01*
X115190476Y-30645295D02*
X115238095Y-30550057D01*
X115238095Y-30550057D02*
X115285714Y-30502438D01*
X115285714Y-30502438D02*
X115380952Y-30454819D01*
X115380952Y-30454819D02*
X115571428Y-30454819D01*
X115571428Y-30454819D02*
X115666666Y-30502438D01*
X115666666Y-30502438D02*
X115714285Y-30550057D01*
X115714285Y-30550057D02*
X115761904Y-30645295D01*
X115761904Y-30645295D02*
X115761904Y-30692914D01*
X115761904Y-30692914D02*
X115714285Y-30788152D01*
X115714285Y-30788152D02*
X115666666Y-30835771D01*
X115666666Y-30835771D02*
X115571428Y-30883390D01*
X115571428Y-30883390D02*
X115380952Y-30883390D01*
X115380952Y-30883390D02*
X115285714Y-30931009D01*
X115285714Y-30931009D02*
X115238095Y-30978628D01*
X115238095Y-30978628D02*
X115190476Y-31073866D01*
X115190476Y-31073866D02*
X115190476Y-31264342D01*
X115190476Y-31264342D02*
X115238095Y-31359580D01*
X115238095Y-31359580D02*
X115285714Y-31407200D01*
X115285714Y-31407200D02*
X115380952Y-31454819D01*
X115380952Y-31454819D02*
X115571428Y-31454819D01*
X115571428Y-31454819D02*
X115666666Y-31407200D01*
X115666666Y-31407200D02*
X115714285Y-31359580D01*
X115714285Y-31359580D02*
X115761904Y-31264342D01*
X115761904Y-31264342D02*
X115761904Y-31073866D01*
X115761904Y-31073866D02*
X115714285Y-30978628D01*
X115714285Y-30978628D02*
X115666666Y-30931009D01*
X115666666Y-30931009D02*
X115571428Y-30883390D01*
X100833333Y-62109580D02*
X100785714Y-62157200D01*
X100785714Y-62157200D02*
X100642857Y-62204819D01*
X100642857Y-62204819D02*
X100547619Y-62204819D01*
X100547619Y-62204819D02*
X100404762Y-62157200D01*
X100404762Y-62157200D02*
X100309524Y-62061961D01*
X100309524Y-62061961D02*
X100261905Y-61966723D01*
X100261905Y-61966723D02*
X100214286Y-61776247D01*
X100214286Y-61776247D02*
X100214286Y-61633390D01*
X100214286Y-61633390D02*
X100261905Y-61442914D01*
X100261905Y-61442914D02*
X100309524Y-61347676D01*
X100309524Y-61347676D02*
X100404762Y-61252438D01*
X100404762Y-61252438D02*
X100547619Y-61204819D01*
X100547619Y-61204819D02*
X100642857Y-61204819D01*
X100642857Y-61204819D02*
X100785714Y-61252438D01*
X100785714Y-61252438D02*
X100833333Y-61300057D01*
X101690476Y-61538152D02*
X101690476Y-62204819D01*
X101452381Y-61157200D02*
X101214286Y-61871485D01*
X101214286Y-61871485D02*
X101833333Y-61871485D01*
X146404761Y-43954819D02*
X146071428Y-43478628D01*
X145833333Y-43954819D02*
X145833333Y-42954819D01*
X145833333Y-42954819D02*
X146214285Y-42954819D01*
X146214285Y-42954819D02*
X146309523Y-43002438D01*
X146309523Y-43002438D02*
X146357142Y-43050057D01*
X146357142Y-43050057D02*
X146404761Y-43145295D01*
X146404761Y-43145295D02*
X146404761Y-43288152D01*
X146404761Y-43288152D02*
X146357142Y-43383390D01*
X146357142Y-43383390D02*
X146309523Y-43431009D01*
X146309523Y-43431009D02*
X146214285Y-43478628D01*
X146214285Y-43478628D02*
X145833333Y-43478628D01*
X146690476Y-42954819D02*
X147023809Y-43954819D01*
X147023809Y-43954819D02*
X147357142Y-42954819D01*
X147595238Y-42954819D02*
X148214285Y-42954819D01*
X148214285Y-42954819D02*
X147880952Y-43335771D01*
X147880952Y-43335771D02*
X148023809Y-43335771D01*
X148023809Y-43335771D02*
X148119047Y-43383390D01*
X148119047Y-43383390D02*
X148166666Y-43431009D01*
X148166666Y-43431009D02*
X148214285Y-43526247D01*
X148214285Y-43526247D02*
X148214285Y-43764342D01*
X148214285Y-43764342D02*
X148166666Y-43859580D01*
X148166666Y-43859580D02*
X148119047Y-43907200D01*
X148119047Y-43907200D02*
X148023809Y-43954819D01*
X148023809Y-43954819D02*
X147738095Y-43954819D01*
X147738095Y-43954819D02*
X147642857Y-43907200D01*
X147642857Y-43907200D02*
X147595238Y-43859580D01*
X119857142Y-83859580D02*
X119809523Y-83907200D01*
X119809523Y-83907200D02*
X119666666Y-83954819D01*
X119666666Y-83954819D02*
X119571428Y-83954819D01*
X119571428Y-83954819D02*
X119428571Y-83907200D01*
X119428571Y-83907200D02*
X119333333Y-83811961D01*
X119333333Y-83811961D02*
X119285714Y-83716723D01*
X119285714Y-83716723D02*
X119238095Y-83526247D01*
X119238095Y-83526247D02*
X119238095Y-83383390D01*
X119238095Y-83383390D02*
X119285714Y-83192914D01*
X119285714Y-83192914D02*
X119333333Y-83097676D01*
X119333333Y-83097676D02*
X119428571Y-83002438D01*
X119428571Y-83002438D02*
X119571428Y-82954819D01*
X119571428Y-82954819D02*
X119666666Y-82954819D01*
X119666666Y-82954819D02*
X119809523Y-83002438D01*
X119809523Y-83002438D02*
X119857142Y-83050057D01*
X120809523Y-83954819D02*
X120238095Y-83954819D01*
X120523809Y-83954819D02*
X120523809Y-82954819D01*
X120523809Y-82954819D02*
X120428571Y-83097676D01*
X120428571Y-83097676D02*
X120333333Y-83192914D01*
X120333333Y-83192914D02*
X120238095Y-83240533D01*
X121428571Y-82954819D02*
X121523809Y-82954819D01*
X121523809Y-82954819D02*
X121619047Y-83002438D01*
X121619047Y-83002438D02*
X121666666Y-83050057D01*
X121666666Y-83050057D02*
X121714285Y-83145295D01*
X121714285Y-83145295D02*
X121761904Y-83335771D01*
X121761904Y-83335771D02*
X121761904Y-83573866D01*
X121761904Y-83573866D02*
X121714285Y-83764342D01*
X121714285Y-83764342D02*
X121666666Y-83859580D01*
X121666666Y-83859580D02*
X121619047Y-83907200D01*
X121619047Y-83907200D02*
X121523809Y-83954819D01*
X121523809Y-83954819D02*
X121428571Y-83954819D01*
X121428571Y-83954819D02*
X121333333Y-83907200D01*
X121333333Y-83907200D02*
X121285714Y-83859580D01*
X121285714Y-83859580D02*
X121238095Y-83764342D01*
X121238095Y-83764342D02*
X121190476Y-83573866D01*
X121190476Y-83573866D02*
X121190476Y-83335771D01*
X121190476Y-83335771D02*
X121238095Y-83145295D01*
X121238095Y-83145295D02*
X121285714Y-83050057D01*
X121285714Y-83050057D02*
X121333333Y-83002438D01*
X121333333Y-83002438D02*
X121428571Y-82954819D01*
X126261905Y-51954819D02*
X126261905Y-50954819D01*
X126261905Y-50954819D02*
X126500000Y-50954819D01*
X126500000Y-50954819D02*
X126642857Y-51002438D01*
X126642857Y-51002438D02*
X126738095Y-51097676D01*
X126738095Y-51097676D02*
X126785714Y-51192914D01*
X126785714Y-51192914D02*
X126833333Y-51383390D01*
X126833333Y-51383390D02*
X126833333Y-51526247D01*
X126833333Y-51526247D02*
X126785714Y-51716723D01*
X126785714Y-51716723D02*
X126738095Y-51811961D01*
X126738095Y-51811961D02*
X126642857Y-51907200D01*
X126642857Y-51907200D02*
X126500000Y-51954819D01*
X126500000Y-51954819D02*
X126261905Y-51954819D01*
X127166667Y-50954819D02*
X127785714Y-50954819D01*
X127785714Y-50954819D02*
X127452381Y-51335771D01*
X127452381Y-51335771D02*
X127595238Y-51335771D01*
X127595238Y-51335771D02*
X127690476Y-51383390D01*
X127690476Y-51383390D02*
X127738095Y-51431009D01*
X127738095Y-51431009D02*
X127785714Y-51526247D01*
X127785714Y-51526247D02*
X127785714Y-51764342D01*
X127785714Y-51764342D02*
X127738095Y-51859580D01*
X127738095Y-51859580D02*
X127690476Y-51907200D01*
X127690476Y-51907200D02*
X127595238Y-51954819D01*
X127595238Y-51954819D02*
X127309524Y-51954819D01*
X127309524Y-51954819D02*
X127214286Y-51907200D01*
X127214286Y-51907200D02*
X127166667Y-51859580D01*
X136666666Y-50954819D02*
X136666666Y-51669104D01*
X136666666Y-51669104D02*
X136619047Y-51811961D01*
X136619047Y-51811961D02*
X136523809Y-51907200D01*
X136523809Y-51907200D02*
X136380952Y-51954819D01*
X136380952Y-51954819D02*
X136285714Y-51954819D01*
X137142857Y-51954819D02*
X137142857Y-50954819D01*
X137142857Y-50954819D02*
X137523809Y-50954819D01*
X137523809Y-50954819D02*
X137619047Y-51002438D01*
X137619047Y-51002438D02*
X137666666Y-51050057D01*
X137666666Y-51050057D02*
X137714285Y-51145295D01*
X137714285Y-51145295D02*
X137714285Y-51288152D01*
X137714285Y-51288152D02*
X137666666Y-51383390D01*
X137666666Y-51383390D02*
X137619047Y-51431009D01*
X137619047Y-51431009D02*
X137523809Y-51478628D01*
X137523809Y-51478628D02*
X137142857Y-51478628D01*
X138047619Y-50954819D02*
X138666666Y-50954819D01*
X138666666Y-50954819D02*
X138333333Y-51335771D01*
X138333333Y-51335771D02*
X138476190Y-51335771D01*
X138476190Y-51335771D02*
X138571428Y-51383390D01*
X138571428Y-51383390D02*
X138619047Y-51431009D01*
X138619047Y-51431009D02*
X138666666Y-51526247D01*
X138666666Y-51526247D02*
X138666666Y-51764342D01*
X138666666Y-51764342D02*
X138619047Y-51859580D01*
X138619047Y-51859580D02*
X138571428Y-51907200D01*
X138571428Y-51907200D02*
X138476190Y-51954819D01*
X138476190Y-51954819D02*
X138190476Y-51954819D01*
X138190476Y-51954819D02*
X138095238Y-51907200D01*
X138095238Y-51907200D02*
X138047619Y-51859580D01*
X126761905Y-35954819D02*
X126761905Y-34954819D01*
X126761905Y-34954819D02*
X127000000Y-34954819D01*
X127000000Y-34954819D02*
X127142857Y-35002438D01*
X127142857Y-35002438D02*
X127238095Y-35097676D01*
X127238095Y-35097676D02*
X127285714Y-35192914D01*
X127285714Y-35192914D02*
X127333333Y-35383390D01*
X127333333Y-35383390D02*
X127333333Y-35526247D01*
X127333333Y-35526247D02*
X127285714Y-35716723D01*
X127285714Y-35716723D02*
X127238095Y-35811961D01*
X127238095Y-35811961D02*
X127142857Y-35907200D01*
X127142857Y-35907200D02*
X127000000Y-35954819D01*
X127000000Y-35954819D02*
X126761905Y-35954819D01*
X127904762Y-35383390D02*
X127809524Y-35335771D01*
X127809524Y-35335771D02*
X127761905Y-35288152D01*
X127761905Y-35288152D02*
X127714286Y-35192914D01*
X127714286Y-35192914D02*
X127714286Y-35145295D01*
X127714286Y-35145295D02*
X127761905Y-35050057D01*
X127761905Y-35050057D02*
X127809524Y-35002438D01*
X127809524Y-35002438D02*
X127904762Y-34954819D01*
X127904762Y-34954819D02*
X128095238Y-34954819D01*
X128095238Y-34954819D02*
X128190476Y-35002438D01*
X128190476Y-35002438D02*
X128238095Y-35050057D01*
X128238095Y-35050057D02*
X128285714Y-35145295D01*
X128285714Y-35145295D02*
X128285714Y-35192914D01*
X128285714Y-35192914D02*
X128238095Y-35288152D01*
X128238095Y-35288152D02*
X128190476Y-35335771D01*
X128190476Y-35335771D02*
X128095238Y-35383390D01*
X128095238Y-35383390D02*
X127904762Y-35383390D01*
X127904762Y-35383390D02*
X127809524Y-35431009D01*
X127809524Y-35431009D02*
X127761905Y-35478628D01*
X127761905Y-35478628D02*
X127714286Y-35573866D01*
X127714286Y-35573866D02*
X127714286Y-35764342D01*
X127714286Y-35764342D02*
X127761905Y-35859580D01*
X127761905Y-35859580D02*
X127809524Y-35907200D01*
X127809524Y-35907200D02*
X127904762Y-35954819D01*
X127904762Y-35954819D02*
X128095238Y-35954819D01*
X128095238Y-35954819D02*
X128190476Y-35907200D01*
X128190476Y-35907200D02*
X128238095Y-35859580D01*
X128238095Y-35859580D02*
X128285714Y-35764342D01*
X128285714Y-35764342D02*
X128285714Y-35573866D01*
X128285714Y-35573866D02*
X128238095Y-35478628D01*
X128238095Y-35478628D02*
X128190476Y-35431009D01*
X128190476Y-35431009D02*
X128095238Y-35383390D01*
X126761905Y-45454819D02*
X126761905Y-44454819D01*
X126761905Y-44454819D02*
X127000000Y-44454819D01*
X127000000Y-44454819D02*
X127142857Y-44502438D01*
X127142857Y-44502438D02*
X127238095Y-44597676D01*
X127238095Y-44597676D02*
X127285714Y-44692914D01*
X127285714Y-44692914D02*
X127333333Y-44883390D01*
X127333333Y-44883390D02*
X127333333Y-45026247D01*
X127333333Y-45026247D02*
X127285714Y-45216723D01*
X127285714Y-45216723D02*
X127238095Y-45311961D01*
X127238095Y-45311961D02*
X127142857Y-45407200D01*
X127142857Y-45407200D02*
X127000000Y-45454819D01*
X127000000Y-45454819D02*
X126761905Y-45454819D01*
X127666667Y-44454819D02*
X128333333Y-44454819D01*
X128333333Y-44454819D02*
X127904762Y-45454819D01*
X105738095Y-67954819D02*
X105738095Y-68764342D01*
X105738095Y-68764342D02*
X105785714Y-68859580D01*
X105785714Y-68859580D02*
X105833333Y-68907200D01*
X105833333Y-68907200D02*
X105928571Y-68954819D01*
X105928571Y-68954819D02*
X106119047Y-68954819D01*
X106119047Y-68954819D02*
X106214285Y-68907200D01*
X106214285Y-68907200D02*
X106261904Y-68859580D01*
X106261904Y-68859580D02*
X106309523Y-68764342D01*
X106309523Y-68764342D02*
X106309523Y-67954819D01*
X106690476Y-67954819D02*
X107309523Y-67954819D01*
X107309523Y-67954819D02*
X106976190Y-68335771D01*
X106976190Y-68335771D02*
X107119047Y-68335771D01*
X107119047Y-68335771D02*
X107214285Y-68383390D01*
X107214285Y-68383390D02*
X107261904Y-68431009D01*
X107261904Y-68431009D02*
X107309523Y-68526247D01*
X107309523Y-68526247D02*
X107309523Y-68764342D01*
X107309523Y-68764342D02*
X107261904Y-68859580D01*
X107261904Y-68859580D02*
X107214285Y-68907200D01*
X107214285Y-68907200D02*
X107119047Y-68954819D01*
X107119047Y-68954819D02*
X106833333Y-68954819D01*
X106833333Y-68954819D02*
X106738095Y-68907200D01*
X106738095Y-68907200D02*
X106690476Y-68859580D01*
X83833333Y-58035621D02*
X83785714Y-58083241D01*
X83785714Y-58083241D02*
X83642857Y-58130860D01*
X83642857Y-58130860D02*
X83547619Y-58130860D01*
X83547619Y-58130860D02*
X83404762Y-58083241D01*
X83404762Y-58083241D02*
X83309524Y-57988002D01*
X83309524Y-57988002D02*
X83261905Y-57892764D01*
X83261905Y-57892764D02*
X83214286Y-57702288D01*
X83214286Y-57702288D02*
X83214286Y-57559431D01*
X83214286Y-57559431D02*
X83261905Y-57368955D01*
X83261905Y-57368955D02*
X83309524Y-57273717D01*
X83309524Y-57273717D02*
X83404762Y-57178479D01*
X83404762Y-57178479D02*
X83547619Y-57130860D01*
X83547619Y-57130860D02*
X83642857Y-57130860D01*
X83642857Y-57130860D02*
X83785714Y-57178479D01*
X83785714Y-57178479D02*
X83833333Y-57226098D01*
X84166667Y-57130860D02*
X84785714Y-57130860D01*
X84785714Y-57130860D02*
X84452381Y-57511812D01*
X84452381Y-57511812D02*
X84595238Y-57511812D01*
X84595238Y-57511812D02*
X84690476Y-57559431D01*
X84690476Y-57559431D02*
X84738095Y-57607050D01*
X84738095Y-57607050D02*
X84785714Y-57702288D01*
X84785714Y-57702288D02*
X84785714Y-57940383D01*
X84785714Y-57940383D02*
X84738095Y-58035621D01*
X84738095Y-58035621D02*
X84690476Y-58083241D01*
X84690476Y-58083241D02*
X84595238Y-58130860D01*
X84595238Y-58130860D02*
X84309524Y-58130860D01*
X84309524Y-58130860D02*
X84214286Y-58083241D01*
X84214286Y-58083241D02*
X84166667Y-58035621D01*
X141261905Y-67669819D02*
X141261905Y-66669819D01*
X141261905Y-66669819D02*
X141500000Y-66669819D01*
X141500000Y-66669819D02*
X141642857Y-66717438D01*
X141642857Y-66717438D02*
X141738095Y-66812676D01*
X141738095Y-66812676D02*
X141785714Y-66907914D01*
X141785714Y-66907914D02*
X141833333Y-67098390D01*
X141833333Y-67098390D02*
X141833333Y-67241247D01*
X141833333Y-67241247D02*
X141785714Y-67431723D01*
X141785714Y-67431723D02*
X141738095Y-67526961D01*
X141738095Y-67526961D02*
X141642857Y-67622200D01*
X141642857Y-67622200D02*
X141500000Y-67669819D01*
X141500000Y-67669819D02*
X141261905Y-67669819D01*
X142738095Y-66669819D02*
X142261905Y-66669819D01*
X142261905Y-66669819D02*
X142214286Y-67146009D01*
X142214286Y-67146009D02*
X142261905Y-67098390D01*
X142261905Y-67098390D02*
X142357143Y-67050771D01*
X142357143Y-67050771D02*
X142595238Y-67050771D01*
X142595238Y-67050771D02*
X142690476Y-67098390D01*
X142690476Y-67098390D02*
X142738095Y-67146009D01*
X142738095Y-67146009D02*
X142785714Y-67241247D01*
X142785714Y-67241247D02*
X142785714Y-67479342D01*
X142785714Y-67479342D02*
X142738095Y-67574580D01*
X142738095Y-67574580D02*
X142690476Y-67622200D01*
X142690476Y-67622200D02*
X142595238Y-67669819D01*
X142595238Y-67669819D02*
X142357143Y-67669819D01*
X142357143Y-67669819D02*
X142261905Y-67622200D01*
X142261905Y-67622200D02*
X142214286Y-67574580D01*
X140666666Y-96819819D02*
X140666666Y-97534104D01*
X140666666Y-97534104D02*
X140619047Y-97676961D01*
X140619047Y-97676961D02*
X140523809Y-97772200D01*
X140523809Y-97772200D02*
X140380952Y-97819819D01*
X140380952Y-97819819D02*
X140285714Y-97819819D01*
X141571428Y-97153152D02*
X141571428Y-97819819D01*
X141333333Y-96772200D02*
X141095238Y-97486485D01*
X141095238Y-97486485D02*
X141714285Y-97486485D01*
X155904761Y-67550057D02*
X155809523Y-67502438D01*
X155809523Y-67502438D02*
X155714285Y-67407200D01*
X155714285Y-67407200D02*
X155571428Y-67264342D01*
X155571428Y-67264342D02*
X155476190Y-67216723D01*
X155476190Y-67216723D02*
X155380952Y-67216723D01*
X155428571Y-67454819D02*
X155333333Y-67407200D01*
X155333333Y-67407200D02*
X155238095Y-67311961D01*
X155238095Y-67311961D02*
X155190476Y-67121485D01*
X155190476Y-67121485D02*
X155190476Y-66788152D01*
X155190476Y-66788152D02*
X155238095Y-66597676D01*
X155238095Y-66597676D02*
X155333333Y-66502438D01*
X155333333Y-66502438D02*
X155428571Y-66454819D01*
X155428571Y-66454819D02*
X155619047Y-66454819D01*
X155619047Y-66454819D02*
X155714285Y-66502438D01*
X155714285Y-66502438D02*
X155809523Y-66597676D01*
X155809523Y-66597676D02*
X155857142Y-66788152D01*
X155857142Y-66788152D02*
X155857142Y-67121485D01*
X155857142Y-67121485D02*
X155809523Y-67311961D01*
X155809523Y-67311961D02*
X155714285Y-67407200D01*
X155714285Y-67407200D02*
X155619047Y-67454819D01*
X155619047Y-67454819D02*
X155428571Y-67454819D01*
X156809523Y-67454819D02*
X156238095Y-67454819D01*
X156523809Y-67454819D02*
X156523809Y-66454819D01*
X156523809Y-66454819D02*
X156428571Y-66597676D01*
X156428571Y-66597676D02*
X156333333Y-66692914D01*
X156333333Y-66692914D02*
X156238095Y-66740533D01*
X79666666Y-38954819D02*
X79666666Y-39669104D01*
X79666666Y-39669104D02*
X79619047Y-39811961D01*
X79619047Y-39811961D02*
X79523809Y-39907200D01*
X79523809Y-39907200D02*
X79380952Y-39954819D01*
X79380952Y-39954819D02*
X79285714Y-39954819D01*
X80666666Y-39954819D02*
X80095238Y-39954819D01*
X80380952Y-39954819D02*
X80380952Y-38954819D01*
X80380952Y-38954819D02*
X80285714Y-39097676D01*
X80285714Y-39097676D02*
X80190476Y-39192914D01*
X80190476Y-39192914D02*
X80095238Y-39240533D01*
X104238095Y-41954819D02*
X104238095Y-42764342D01*
X104238095Y-42764342D02*
X104285714Y-42859580D01*
X104285714Y-42859580D02*
X104333333Y-42907200D01*
X104333333Y-42907200D02*
X104428571Y-42954819D01*
X104428571Y-42954819D02*
X104619047Y-42954819D01*
X104619047Y-42954819D02*
X104714285Y-42907200D01*
X104714285Y-42907200D02*
X104761904Y-42859580D01*
X104761904Y-42859580D02*
X104809523Y-42764342D01*
X104809523Y-42764342D02*
X104809523Y-41954819D01*
X105761904Y-41954819D02*
X105285714Y-41954819D01*
X105285714Y-41954819D02*
X105238095Y-42431009D01*
X105238095Y-42431009D02*
X105285714Y-42383390D01*
X105285714Y-42383390D02*
X105380952Y-42335771D01*
X105380952Y-42335771D02*
X105619047Y-42335771D01*
X105619047Y-42335771D02*
X105714285Y-42383390D01*
X105714285Y-42383390D02*
X105761904Y-42431009D01*
X105761904Y-42431009D02*
X105809523Y-42526247D01*
X105809523Y-42526247D02*
X105809523Y-42764342D01*
X105809523Y-42764342D02*
X105761904Y-42859580D01*
X105761904Y-42859580D02*
X105714285Y-42907200D01*
X105714285Y-42907200D02*
X105619047Y-42954819D01*
X105619047Y-42954819D02*
X105380952Y-42954819D01*
X105380952Y-42954819D02*
X105285714Y-42907200D01*
X105285714Y-42907200D02*
X105238095Y-42859580D01*
X89761905Y-78454819D02*
X89761905Y-77454819D01*
X89761905Y-77454819D02*
X90000000Y-77454819D01*
X90000000Y-77454819D02*
X90142857Y-77502438D01*
X90142857Y-77502438D02*
X90238095Y-77597676D01*
X90238095Y-77597676D02*
X90285714Y-77692914D01*
X90285714Y-77692914D02*
X90333333Y-77883390D01*
X90333333Y-77883390D02*
X90333333Y-78026247D01*
X90333333Y-78026247D02*
X90285714Y-78216723D01*
X90285714Y-78216723D02*
X90238095Y-78311961D01*
X90238095Y-78311961D02*
X90142857Y-78407200D01*
X90142857Y-78407200D02*
X90000000Y-78454819D01*
X90000000Y-78454819D02*
X89761905Y-78454819D01*
X90714286Y-77550057D02*
X90761905Y-77502438D01*
X90761905Y-77502438D02*
X90857143Y-77454819D01*
X90857143Y-77454819D02*
X91095238Y-77454819D01*
X91095238Y-77454819D02*
X91190476Y-77502438D01*
X91190476Y-77502438D02*
X91238095Y-77550057D01*
X91238095Y-77550057D02*
X91285714Y-77645295D01*
X91285714Y-77645295D02*
X91285714Y-77740533D01*
X91285714Y-77740533D02*
X91238095Y-77883390D01*
X91238095Y-77883390D02*
X90666667Y-78454819D01*
X90666667Y-78454819D02*
X91285714Y-78454819D01*
X92238095Y-68954819D02*
X92238095Y-69764342D01*
X92238095Y-69764342D02*
X92285714Y-69859580D01*
X92285714Y-69859580D02*
X92333333Y-69907200D01*
X92333333Y-69907200D02*
X92428571Y-69954819D01*
X92428571Y-69954819D02*
X92619047Y-69954819D01*
X92619047Y-69954819D02*
X92714285Y-69907200D01*
X92714285Y-69907200D02*
X92761904Y-69859580D01*
X92761904Y-69859580D02*
X92809523Y-69764342D01*
X92809523Y-69764342D02*
X92809523Y-68954819D01*
X93238095Y-69050057D02*
X93285714Y-69002438D01*
X93285714Y-69002438D02*
X93380952Y-68954819D01*
X93380952Y-68954819D02*
X93619047Y-68954819D01*
X93619047Y-68954819D02*
X93714285Y-69002438D01*
X93714285Y-69002438D02*
X93761904Y-69050057D01*
X93761904Y-69050057D02*
X93809523Y-69145295D01*
X93809523Y-69145295D02*
X93809523Y-69240533D01*
X93809523Y-69240533D02*
X93761904Y-69383390D01*
X93761904Y-69383390D02*
X93190476Y-69954819D01*
X93190476Y-69954819D02*
X93809523Y-69954819D01*
X126261905Y-55954819D02*
X126261905Y-54954819D01*
X126261905Y-54954819D02*
X126500000Y-54954819D01*
X126500000Y-54954819D02*
X126642857Y-55002438D01*
X126642857Y-55002438D02*
X126738095Y-55097676D01*
X126738095Y-55097676D02*
X126785714Y-55192914D01*
X126785714Y-55192914D02*
X126833333Y-55383390D01*
X126833333Y-55383390D02*
X126833333Y-55526247D01*
X126833333Y-55526247D02*
X126785714Y-55716723D01*
X126785714Y-55716723D02*
X126738095Y-55811961D01*
X126738095Y-55811961D02*
X126642857Y-55907200D01*
X126642857Y-55907200D02*
X126500000Y-55954819D01*
X126500000Y-55954819D02*
X126261905Y-55954819D01*
X127690476Y-54954819D02*
X127500000Y-54954819D01*
X127500000Y-54954819D02*
X127404762Y-55002438D01*
X127404762Y-55002438D02*
X127357143Y-55050057D01*
X127357143Y-55050057D02*
X127261905Y-55192914D01*
X127261905Y-55192914D02*
X127214286Y-55383390D01*
X127214286Y-55383390D02*
X127214286Y-55764342D01*
X127214286Y-55764342D02*
X127261905Y-55859580D01*
X127261905Y-55859580D02*
X127309524Y-55907200D01*
X127309524Y-55907200D02*
X127404762Y-55954819D01*
X127404762Y-55954819D02*
X127595238Y-55954819D01*
X127595238Y-55954819D02*
X127690476Y-55907200D01*
X127690476Y-55907200D02*
X127738095Y-55859580D01*
X127738095Y-55859580D02*
X127785714Y-55764342D01*
X127785714Y-55764342D02*
X127785714Y-55526247D01*
X127785714Y-55526247D02*
X127738095Y-55431009D01*
X127738095Y-55431009D02*
X127690476Y-55383390D01*
X127690476Y-55383390D02*
X127595238Y-55335771D01*
X127595238Y-55335771D02*
X127404762Y-55335771D01*
X127404762Y-55335771D02*
X127309524Y-55383390D01*
X127309524Y-55383390D02*
X127261905Y-55431009D01*
X127261905Y-55431009D02*
X127214286Y-55526247D01*
X131357142Y-60859580D02*
X131309523Y-60907200D01*
X131309523Y-60907200D02*
X131166666Y-60954819D01*
X131166666Y-60954819D02*
X131071428Y-60954819D01*
X131071428Y-60954819D02*
X130928571Y-60907200D01*
X130928571Y-60907200D02*
X130833333Y-60811961D01*
X130833333Y-60811961D02*
X130785714Y-60716723D01*
X130785714Y-60716723D02*
X130738095Y-60526247D01*
X130738095Y-60526247D02*
X130738095Y-60383390D01*
X130738095Y-60383390D02*
X130785714Y-60192914D01*
X130785714Y-60192914D02*
X130833333Y-60097676D01*
X130833333Y-60097676D02*
X130928571Y-60002438D01*
X130928571Y-60002438D02*
X131071428Y-59954819D01*
X131071428Y-59954819D02*
X131166666Y-59954819D01*
X131166666Y-59954819D02*
X131309523Y-60002438D01*
X131309523Y-60002438D02*
X131357142Y-60050057D01*
X132309523Y-60954819D02*
X131738095Y-60954819D01*
X132023809Y-60954819D02*
X132023809Y-59954819D01*
X132023809Y-59954819D02*
X131928571Y-60097676D01*
X131928571Y-60097676D02*
X131833333Y-60192914D01*
X131833333Y-60192914D02*
X131738095Y-60240533D01*
X132642857Y-59954819D02*
X133309523Y-59954819D01*
X133309523Y-59954819D02*
X132880952Y-60954819D01*
X129359580Y-81642857D02*
X129407200Y-81690476D01*
X129407200Y-81690476D02*
X129454819Y-81833333D01*
X129454819Y-81833333D02*
X129454819Y-81928571D01*
X129454819Y-81928571D02*
X129407200Y-82071428D01*
X129407200Y-82071428D02*
X129311961Y-82166666D01*
X129311961Y-82166666D02*
X129216723Y-82214285D01*
X129216723Y-82214285D02*
X129026247Y-82261904D01*
X129026247Y-82261904D02*
X128883390Y-82261904D01*
X128883390Y-82261904D02*
X128692914Y-82214285D01*
X128692914Y-82214285D02*
X128597676Y-82166666D01*
X128597676Y-82166666D02*
X128502438Y-82071428D01*
X128502438Y-82071428D02*
X128454819Y-81928571D01*
X128454819Y-81928571D02*
X128454819Y-81833333D01*
X128454819Y-81833333D02*
X128502438Y-81690476D01*
X128502438Y-81690476D02*
X128550057Y-81642857D01*
X129454819Y-80690476D02*
X129454819Y-81261904D01*
X129454819Y-80976190D02*
X128454819Y-80976190D01*
X128454819Y-80976190D02*
X128597676Y-81071428D01*
X128597676Y-81071428D02*
X128692914Y-81166666D01*
X128692914Y-81166666D02*
X128740533Y-81261904D01*
X128454819Y-79833333D02*
X128454819Y-80023809D01*
X128454819Y-80023809D02*
X128502438Y-80119047D01*
X128502438Y-80119047D02*
X128550057Y-80166666D01*
X128550057Y-80166666D02*
X128692914Y-80261904D01*
X128692914Y-80261904D02*
X128883390Y-80309523D01*
X128883390Y-80309523D02*
X129264342Y-80309523D01*
X129264342Y-80309523D02*
X129359580Y-80261904D01*
X129359580Y-80261904D02*
X129407200Y-80214285D01*
X129407200Y-80214285D02*
X129454819Y-80119047D01*
X129454819Y-80119047D02*
X129454819Y-79928571D01*
X129454819Y-79928571D02*
X129407200Y-79833333D01*
X129407200Y-79833333D02*
X129359580Y-79785714D01*
X129359580Y-79785714D02*
X129264342Y-79738095D01*
X129264342Y-79738095D02*
X129026247Y-79738095D01*
X129026247Y-79738095D02*
X128931009Y-79785714D01*
X128931009Y-79785714D02*
X128883390Y-79833333D01*
X128883390Y-79833333D02*
X128835771Y-79928571D01*
X128835771Y-79928571D02*
X128835771Y-80119047D01*
X128835771Y-80119047D02*
X128883390Y-80214285D01*
X128883390Y-80214285D02*
X128931009Y-80261904D01*
X128931009Y-80261904D02*
X129026247Y-80309523D01*
X103333333Y-60669104D02*
X103809523Y-60669104D01*
X103238095Y-60954819D02*
X103571428Y-59954819D01*
X103571428Y-59954819D02*
X103904761Y-60954819D01*
X104238095Y-60431009D02*
X104571428Y-60431009D01*
X104714285Y-60954819D02*
X104238095Y-60954819D01*
X104238095Y-60954819D02*
X104238095Y-59954819D01*
X104238095Y-59954819D02*
X104714285Y-59954819D01*
X105666666Y-60954819D02*
X105095238Y-60954819D01*
X105380952Y-60954819D02*
X105380952Y-59954819D01*
X105380952Y-59954819D02*
X105285714Y-60097676D01*
X105285714Y-60097676D02*
X105190476Y-60192914D01*
X105190476Y-60192914D02*
X105095238Y-60240533D01*
X126833333Y-68859580D02*
X126785714Y-68907200D01*
X126785714Y-68907200D02*
X126642857Y-68954819D01*
X126642857Y-68954819D02*
X126547619Y-68954819D01*
X126547619Y-68954819D02*
X126404762Y-68907200D01*
X126404762Y-68907200D02*
X126309524Y-68811961D01*
X126309524Y-68811961D02*
X126261905Y-68716723D01*
X126261905Y-68716723D02*
X126214286Y-68526247D01*
X126214286Y-68526247D02*
X126214286Y-68383390D01*
X126214286Y-68383390D02*
X126261905Y-68192914D01*
X126261905Y-68192914D02*
X126309524Y-68097676D01*
X126309524Y-68097676D02*
X126404762Y-68002438D01*
X126404762Y-68002438D02*
X126547619Y-67954819D01*
X126547619Y-67954819D02*
X126642857Y-67954819D01*
X126642857Y-67954819D02*
X126785714Y-68002438D01*
X126785714Y-68002438D02*
X126833333Y-68050057D01*
X127309524Y-68954819D02*
X127500000Y-68954819D01*
X127500000Y-68954819D02*
X127595238Y-68907200D01*
X127595238Y-68907200D02*
X127642857Y-68859580D01*
X127642857Y-68859580D02*
X127738095Y-68716723D01*
X127738095Y-68716723D02*
X127785714Y-68526247D01*
X127785714Y-68526247D02*
X127785714Y-68145295D01*
X127785714Y-68145295D02*
X127738095Y-68050057D01*
X127738095Y-68050057D02*
X127690476Y-68002438D01*
X127690476Y-68002438D02*
X127595238Y-67954819D01*
X127595238Y-67954819D02*
X127404762Y-67954819D01*
X127404762Y-67954819D02*
X127309524Y-68002438D01*
X127309524Y-68002438D02*
X127261905Y-68050057D01*
X127261905Y-68050057D02*
X127214286Y-68145295D01*
X127214286Y-68145295D02*
X127214286Y-68383390D01*
X127214286Y-68383390D02*
X127261905Y-68478628D01*
X127261905Y-68478628D02*
X127309524Y-68526247D01*
X127309524Y-68526247D02*
X127404762Y-68573866D01*
X127404762Y-68573866D02*
X127595238Y-68573866D01*
X127595238Y-68573866D02*
X127690476Y-68526247D01*
X127690476Y-68526247D02*
X127738095Y-68478628D01*
X127738095Y-68478628D02*
X127785714Y-68383390D01*
X64666666Y-53954819D02*
X64666666Y-54669104D01*
X64666666Y-54669104D02*
X64619047Y-54811961D01*
X64619047Y-54811961D02*
X64523809Y-54907200D01*
X64523809Y-54907200D02*
X64380952Y-54954819D01*
X64380952Y-54954819D02*
X64285714Y-54954819D01*
X65047619Y-53954819D02*
X65666666Y-53954819D01*
X65666666Y-53954819D02*
X65333333Y-54335771D01*
X65333333Y-54335771D02*
X65476190Y-54335771D01*
X65476190Y-54335771D02*
X65571428Y-54383390D01*
X65571428Y-54383390D02*
X65619047Y-54431009D01*
X65619047Y-54431009D02*
X65666666Y-54526247D01*
X65666666Y-54526247D02*
X65666666Y-54764342D01*
X65666666Y-54764342D02*
X65619047Y-54859580D01*
X65619047Y-54859580D02*
X65571428Y-54907200D01*
X65571428Y-54907200D02*
X65476190Y-54954819D01*
X65476190Y-54954819D02*
X65190476Y-54954819D01*
X65190476Y-54954819D02*
X65095238Y-54907200D01*
X65095238Y-54907200D02*
X65047619Y-54859580D01*
X136666666Y-52454819D02*
X136666666Y-53169104D01*
X136666666Y-53169104D02*
X136619047Y-53311961D01*
X136619047Y-53311961D02*
X136523809Y-53407200D01*
X136523809Y-53407200D02*
X136380952Y-53454819D01*
X136380952Y-53454819D02*
X136285714Y-53454819D01*
X137142857Y-53454819D02*
X137142857Y-52454819D01*
X137142857Y-52454819D02*
X137523809Y-52454819D01*
X137523809Y-52454819D02*
X137619047Y-52502438D01*
X137619047Y-52502438D02*
X137666666Y-52550057D01*
X137666666Y-52550057D02*
X137714285Y-52645295D01*
X137714285Y-52645295D02*
X137714285Y-52788152D01*
X137714285Y-52788152D02*
X137666666Y-52883390D01*
X137666666Y-52883390D02*
X137619047Y-52931009D01*
X137619047Y-52931009D02*
X137523809Y-52978628D01*
X137523809Y-52978628D02*
X137142857Y-52978628D01*
X138095238Y-52550057D02*
X138142857Y-52502438D01*
X138142857Y-52502438D02*
X138238095Y-52454819D01*
X138238095Y-52454819D02*
X138476190Y-52454819D01*
X138476190Y-52454819D02*
X138571428Y-52502438D01*
X138571428Y-52502438D02*
X138619047Y-52550057D01*
X138619047Y-52550057D02*
X138666666Y-52645295D01*
X138666666Y-52645295D02*
X138666666Y-52740533D01*
X138666666Y-52740533D02*
X138619047Y-52883390D01*
X138619047Y-52883390D02*
X138047619Y-53454819D01*
X138047619Y-53454819D02*
X138666666Y-53454819D01*
X112833333Y-59454819D02*
X112500000Y-58978628D01*
X112261905Y-59454819D02*
X112261905Y-58454819D01*
X112261905Y-58454819D02*
X112642857Y-58454819D01*
X112642857Y-58454819D02*
X112738095Y-58502438D01*
X112738095Y-58502438D02*
X112785714Y-58550057D01*
X112785714Y-58550057D02*
X112833333Y-58645295D01*
X112833333Y-58645295D02*
X112833333Y-58788152D01*
X112833333Y-58788152D02*
X112785714Y-58883390D01*
X112785714Y-58883390D02*
X112738095Y-58931009D01*
X112738095Y-58931009D02*
X112642857Y-58978628D01*
X112642857Y-58978628D02*
X112261905Y-58978628D01*
X113738095Y-58454819D02*
X113261905Y-58454819D01*
X113261905Y-58454819D02*
X113214286Y-58931009D01*
X113214286Y-58931009D02*
X113261905Y-58883390D01*
X113261905Y-58883390D02*
X113357143Y-58835771D01*
X113357143Y-58835771D02*
X113595238Y-58835771D01*
X113595238Y-58835771D02*
X113690476Y-58883390D01*
X113690476Y-58883390D02*
X113738095Y-58931009D01*
X113738095Y-58931009D02*
X113785714Y-59026247D01*
X113785714Y-59026247D02*
X113785714Y-59264342D01*
X113785714Y-59264342D02*
X113738095Y-59359580D01*
X113738095Y-59359580D02*
X113690476Y-59407200D01*
X113690476Y-59407200D02*
X113595238Y-59454819D01*
X113595238Y-59454819D02*
X113357143Y-59454819D01*
X113357143Y-59454819D02*
X113261905Y-59407200D01*
X113261905Y-59407200D02*
X113214286Y-59359580D01*
X97333333Y-84359580D02*
X97285714Y-84407200D01*
X97285714Y-84407200D02*
X97142857Y-84454819D01*
X97142857Y-84454819D02*
X97047619Y-84454819D01*
X97047619Y-84454819D02*
X96904762Y-84407200D01*
X96904762Y-84407200D02*
X96809524Y-84311961D01*
X96809524Y-84311961D02*
X96761905Y-84216723D01*
X96761905Y-84216723D02*
X96714286Y-84026247D01*
X96714286Y-84026247D02*
X96714286Y-83883390D01*
X96714286Y-83883390D02*
X96761905Y-83692914D01*
X96761905Y-83692914D02*
X96809524Y-83597676D01*
X96809524Y-83597676D02*
X96904762Y-83502438D01*
X96904762Y-83502438D02*
X97047619Y-83454819D01*
X97047619Y-83454819D02*
X97142857Y-83454819D01*
X97142857Y-83454819D02*
X97285714Y-83502438D01*
X97285714Y-83502438D02*
X97333333Y-83550057D01*
X97666667Y-83454819D02*
X98333333Y-83454819D01*
X98333333Y-83454819D02*
X97904762Y-84454819D01*
X102857142Y-57359580D02*
X102809523Y-57407200D01*
X102809523Y-57407200D02*
X102666666Y-57454819D01*
X102666666Y-57454819D02*
X102571428Y-57454819D01*
X102571428Y-57454819D02*
X102428571Y-57407200D01*
X102428571Y-57407200D02*
X102333333Y-57311961D01*
X102333333Y-57311961D02*
X102285714Y-57216723D01*
X102285714Y-57216723D02*
X102238095Y-57026247D01*
X102238095Y-57026247D02*
X102238095Y-56883390D01*
X102238095Y-56883390D02*
X102285714Y-56692914D01*
X102285714Y-56692914D02*
X102333333Y-56597676D01*
X102333333Y-56597676D02*
X102428571Y-56502438D01*
X102428571Y-56502438D02*
X102571428Y-56454819D01*
X102571428Y-56454819D02*
X102666666Y-56454819D01*
X102666666Y-56454819D02*
X102809523Y-56502438D01*
X102809523Y-56502438D02*
X102857142Y-56550057D01*
X103809523Y-57454819D02*
X103238095Y-57454819D01*
X103523809Y-57454819D02*
X103523809Y-56454819D01*
X103523809Y-56454819D02*
X103428571Y-56597676D01*
X103428571Y-56597676D02*
X103333333Y-56692914D01*
X103333333Y-56692914D02*
X103238095Y-56740533D01*
X104142857Y-56454819D02*
X104761904Y-56454819D01*
X104761904Y-56454819D02*
X104428571Y-56835771D01*
X104428571Y-56835771D02*
X104571428Y-56835771D01*
X104571428Y-56835771D02*
X104666666Y-56883390D01*
X104666666Y-56883390D02*
X104714285Y-56931009D01*
X104714285Y-56931009D02*
X104761904Y-57026247D01*
X104761904Y-57026247D02*
X104761904Y-57264342D01*
X104761904Y-57264342D02*
X104714285Y-57359580D01*
X104714285Y-57359580D02*
X104666666Y-57407200D01*
X104666666Y-57407200D02*
X104571428Y-57454819D01*
X104571428Y-57454819D02*
X104285714Y-57454819D01*
X104285714Y-57454819D02*
X104190476Y-57407200D01*
X104190476Y-57407200D02*
X104142857Y-57359580D01*
D11*
X118580000Y-58080000D02*
X122420000Y-58080000D01*
X118580000Y-59920000D02*
X122420000Y-59920000D01*
X145060000Y-49870000D02*
X145060000Y-51670000D01*
X145060000Y-49870000D02*
X149360000Y-49870000D01*
X149360000Y-51670000D02*
X145060000Y-51670000D01*
X149360000Y-51670000D02*
X149360000Y-49870000D01*
X135665000Y-39520000D02*
X135665000Y-34470000D01*
X145415000Y-34470000D02*
X135665000Y-34470000D01*
X145415000Y-39520000D02*
X135665000Y-39520000D01*
X145415000Y-39520000D02*
X145415000Y-34470000D01*
X87380000Y-62880000D02*
X87528000Y-62880000D01*
X87380000Y-66120000D02*
X87380000Y-62880000D01*
X87380000Y-66120000D02*
X87528000Y-66120000D01*
X89472000Y-62880000D02*
X89620000Y-62880000D01*
X89472000Y-66120000D02*
X89620000Y-66120000D01*
X89620000Y-66120000D02*
X89620000Y-62880000D01*
X104280000Y-49370000D02*
X104280000Y-45630000D01*
X111720000Y-45630000D02*
X104280000Y-45630000D01*
X111720000Y-49370000D02*
X104280000Y-49370000D01*
X111720000Y-49370000D02*
X111720000Y-45630000D01*
X144540000Y-52630000D02*
X144540000Y-62910000D01*
X144540000Y-62910000D02*
X149840000Y-62910000D01*
X146190000Y-52630000D02*
X144540000Y-52630000D01*
X149840000Y-52630000D02*
X148190000Y-52630000D01*
X149840000Y-62910000D02*
X149840000Y-52630000D01*
X148190000Y-52630000D02*
G75*
G02*
X146190000Y-52630000I-1000000J0D01*
G01*
X78260000Y-96694630D02*
X68235000Y-96694630D01*
X78260000Y-96734630D02*
X68244000Y-96734630D01*
X78260000Y-96774630D02*
X68253000Y-96774630D01*
X78260000Y-96814630D02*
X68262000Y-96814630D01*
X78260000Y-96854630D02*
X68272000Y-96854630D01*
X78260000Y-96894630D02*
X68282000Y-96894630D01*
X78260000Y-96934630D02*
X68292000Y-96934630D01*
X78260000Y-96974630D02*
X68302000Y-96974630D01*
X78260000Y-97014630D02*
X68312000Y-97014630D01*
X78260000Y-97054630D02*
X68322000Y-97054630D01*
X78260000Y-97094630D02*
X68332000Y-97094630D01*
X78260000Y-97134630D02*
X68343000Y-97134630D01*
X78260000Y-97174630D02*
X68354000Y-97174630D01*
X78260000Y-97214630D02*
X68365000Y-97214630D01*
X78260000Y-97254630D02*
X68376000Y-97254630D01*
X78260000Y-97294630D02*
X68387000Y-97294630D01*
X78260000Y-97334630D02*
X68398000Y-97334630D01*
X78260000Y-97374630D02*
X68409000Y-97374630D01*
X78260000Y-97414630D02*
X68421000Y-97414630D01*
X78260000Y-97454630D02*
X68433000Y-97454630D01*
X78260000Y-97494630D02*
X68444000Y-97494630D01*
X78260000Y-97534630D02*
X68456000Y-97534630D01*
X78260000Y-97574630D02*
X68468000Y-97574630D01*
X78260000Y-97614630D02*
X68481000Y-97614630D01*
X78260000Y-97654630D02*
X68493000Y-97654630D01*
X78260000Y-97694630D02*
X68506000Y-97694630D01*
X78260000Y-97734630D02*
X68518000Y-97734630D01*
X78260000Y-97774630D02*
X68531000Y-97774630D01*
X78260000Y-97814630D02*
X68544000Y-97814630D01*
X78260000Y-97854630D02*
X68557000Y-97854630D01*
X78260000Y-97894630D02*
X68571000Y-97894630D01*
X78260000Y-97934630D02*
X68584000Y-97934630D01*
X78260000Y-97974630D02*
X68598000Y-97974630D01*
X78260000Y-98014630D02*
X68611000Y-98014630D01*
X78260000Y-98054630D02*
X68625000Y-98054630D01*
X78260000Y-98094630D02*
X68639000Y-98094630D01*
X78260000Y-98134630D02*
X68654000Y-98134630D01*
X78260000Y-98174630D02*
X68668000Y-98174630D01*
X78260000Y-98214630D02*
X68682000Y-98214630D01*
X78260000Y-98254630D02*
X68697000Y-98254630D01*
X78260000Y-98294630D02*
X68712000Y-98294630D01*
X78260000Y-98334630D02*
X68727000Y-98334630D01*
X78260000Y-98374630D02*
X68742000Y-98374630D01*
X78260000Y-98414630D02*
X68757000Y-98414630D01*
X78260000Y-98454630D02*
X68773000Y-98454630D01*
X78260000Y-98494630D02*
X68788000Y-98494630D01*
X78260000Y-98534630D02*
X68804000Y-98534630D01*
X78260000Y-98574630D02*
X68820000Y-98574630D01*
X78260000Y-98614630D02*
X68836000Y-98614630D01*
X78260000Y-98654630D02*
X68852000Y-98654630D01*
X78260000Y-98694630D02*
X68868000Y-98694630D01*
X78260000Y-98734630D02*
X68885000Y-98734630D01*
X78260000Y-98774630D02*
X68902000Y-98774630D01*
X78260000Y-98814630D02*
X68919000Y-98814630D01*
X78260000Y-98854630D02*
X68936000Y-98854630D01*
X78260000Y-98894630D02*
X68953000Y-98894630D01*
X78260000Y-98934630D02*
X68970000Y-98934630D01*
X78260000Y-98974630D02*
X68988000Y-98974630D01*
X78260000Y-99014630D02*
X69005000Y-99014630D01*
X78260000Y-99054630D02*
X69023000Y-99054630D01*
X78260000Y-99094630D02*
X69041000Y-99094630D01*
X78260000Y-99134630D02*
X69059000Y-99134630D01*
X78260000Y-99174630D02*
X69078000Y-99174630D01*
X78260000Y-99214630D02*
X69096000Y-99214630D01*
X78260000Y-99254630D02*
X69115000Y-99254630D01*
X78260000Y-99294630D02*
X69134000Y-99294630D01*
X78260000Y-99334630D02*
X69153000Y-99334630D01*
X78260000Y-99374630D02*
X69172000Y-99374630D01*
X78260000Y-99414630D02*
X69191000Y-99414630D01*
X78260000Y-99454630D02*
X69211000Y-99454630D01*
X78260000Y-99494630D02*
X69231000Y-99494630D01*
X78260000Y-99534630D02*
X69250000Y-99534630D01*
X78260000Y-99574630D02*
X69270000Y-99574630D01*
X78260000Y-99614630D02*
X69291000Y-99614630D01*
X78260000Y-99654630D02*
X69311000Y-99654630D01*
X78260000Y-99694630D02*
X69332000Y-99694630D01*
X78260000Y-99734630D02*
X69353000Y-99734630D01*
X78260000Y-99774630D02*
X69374000Y-99774630D01*
X78260000Y-99814630D02*
X69395000Y-99814630D01*
X78260000Y-99854630D02*
X69416000Y-99854630D01*
X78260000Y-99894630D02*
X69438000Y-99894630D01*
X78260000Y-99934630D02*
X69459000Y-99934630D01*
X78260000Y-99974630D02*
X69481000Y-99974630D01*
X78260000Y-100014630D02*
X69503000Y-100014630D01*
X78260000Y-100054630D02*
X69526000Y-100054630D01*
X78260000Y-100094630D02*
X69548000Y-100094630D01*
X78260000Y-100134630D02*
X69571000Y-100134630D01*
X78260000Y-100174630D02*
X69593000Y-100174630D01*
X78260000Y-100214630D02*
X69617000Y-100214630D01*
X78260000Y-100254630D02*
X69640000Y-100254630D01*
X78260000Y-100294630D02*
X69663000Y-100294630D01*
X78260000Y-100334630D02*
X69687000Y-100334630D01*
X78260000Y-100374630D02*
X69711000Y-100374630D01*
X78260000Y-100414630D02*
X69735000Y-100414630D01*
X78260000Y-100454630D02*
X69759000Y-100454630D01*
X78260000Y-100494630D02*
X69783000Y-100494630D01*
X78260000Y-100534630D02*
X69808000Y-100534630D01*
X78260000Y-100574630D02*
X69833000Y-100574630D01*
X78260000Y-100614630D02*
X69858000Y-100614630D01*
X78260000Y-100654630D02*
X69883000Y-100654630D01*
X78260000Y-100694630D02*
X69909000Y-100694630D01*
X78260000Y-100734630D02*
X69934000Y-100734630D01*
X78260000Y-100774630D02*
X69960000Y-100774630D01*
X78260000Y-100814630D02*
X69986000Y-100814630D01*
X78260000Y-100854630D02*
X70013000Y-100854630D01*
X78260000Y-100894630D02*
X70039000Y-100894630D01*
X78260000Y-100934630D02*
X70066000Y-100934630D01*
X78260000Y-100974630D02*
X70093000Y-100974630D01*
X78260000Y-101014630D02*
X70120000Y-101014630D01*
X78260000Y-101054630D02*
X70148000Y-101054630D01*
X78260000Y-101094630D02*
X70175000Y-101094630D01*
X81170000Y-106494630D02*
X79830000Y-106494630D01*
X81689000Y-106454630D02*
X79311000Y-106454630D01*
X82046000Y-106414630D02*
X78954000Y-106414630D01*
X82335000Y-106374630D02*
X78665000Y-106374630D01*
X82584000Y-106334630D02*
X78416000Y-106334630D01*
X82806000Y-106294630D02*
X78194000Y-106294630D01*
X83008000Y-106254630D02*
X77992000Y-106254630D01*
X83195000Y-106214630D02*
X77805000Y-106214630D01*
X83370000Y-106174630D02*
X77630000Y-106174630D01*
X83534000Y-106134630D02*
X77466000Y-106134630D01*
X83689000Y-106094630D02*
X77311000Y-106094630D01*
X83836000Y-106054630D02*
X77164000Y-106054630D01*
X83977000Y-106014630D02*
X77023000Y-106014630D01*
X84112000Y-105974630D02*
X76888000Y-105974630D01*
X84242000Y-105934630D02*
X76758000Y-105934630D01*
X84367000Y-105894630D02*
X76633000Y-105894630D01*
X84488000Y-105854630D02*
X76512000Y-105854630D01*
X84605000Y-105814630D02*
X76395000Y-105814630D01*
X84718000Y-105774630D02*
X76282000Y-105774630D01*
X84828000Y-105734630D02*
X76172000Y-105734630D01*
X84935000Y-105694630D02*
X76065000Y-105694630D01*
X85039000Y-105654630D02*
X75961000Y-105654630D01*
X85140000Y-105614630D02*
X75860000Y-105614630D01*
X85239000Y-105574630D02*
X75761000Y-105574630D01*
X85336000Y-105534630D02*
X75664000Y-105534630D01*
X85430000Y-105494630D02*
X75570000Y-105494630D01*
X85523000Y-105454630D02*
X75477000Y-105454630D01*
X85613000Y-105414630D02*
X75387000Y-105414630D01*
X85702000Y-105374630D02*
X75298000Y-105374630D01*
X85788000Y-105334630D02*
X75212000Y-105334630D01*
X85873000Y-105294630D02*
X75127000Y-105294630D01*
X85957000Y-105254630D02*
X75043000Y-105254630D01*
X86039000Y-105214630D02*
X74961000Y-105214630D01*
X86119000Y-105174630D02*
X74881000Y-105174630D01*
X86198000Y-105134630D02*
X74802000Y-105134630D01*
X86276000Y-105094630D02*
X74724000Y-105094630D01*
X86352000Y-105054630D02*
X74648000Y-105054630D01*
X86427000Y-105014630D02*
X74573000Y-105014630D01*
X86501000Y-104974630D02*
X74499000Y-104974630D01*
X86574000Y-104934630D02*
X74426000Y-104934630D01*
X86646000Y-104894630D02*
X74354000Y-104894630D01*
X86716000Y-104854630D02*
X74284000Y-104854630D01*
X86786000Y-104814630D02*
X74214000Y-104814630D01*
X86855000Y-104774630D02*
X74145000Y-104774630D01*
X86922000Y-104734630D02*
X74078000Y-104734630D01*
X86989000Y-104694630D02*
X74011000Y-104694630D01*
X87054000Y-104654630D02*
X73946000Y-104654630D01*
X87119000Y-104614630D02*
X73881000Y-104614630D01*
X87183000Y-104574630D02*
X73817000Y-104574630D01*
X87246000Y-104534630D02*
X73754000Y-104534630D01*
X87309000Y-104494630D02*
X73691000Y-104494630D01*
X87370000Y-104454630D02*
X73630000Y-104454630D01*
X87431000Y-104414630D02*
X73569000Y-104414630D01*
X87491000Y-104374630D02*
X73509000Y-104374630D01*
X87550000Y-104334630D02*
X73450000Y-104334630D01*
X87575000Y-80390371D02*
X87575000Y-82890371D01*
X87609000Y-104294630D02*
X73391000Y-104294630D01*
X87667000Y-104254630D02*
X73333000Y-104254630D01*
X87724000Y-104214630D02*
X73276000Y-104214630D01*
X87780000Y-104174630D02*
X73220000Y-104174630D01*
X87836000Y-104134630D02*
X73164000Y-104134630D01*
X87891000Y-104094630D02*
X73109000Y-104094630D01*
X87946000Y-104054630D02*
X73054000Y-104054630D01*
X88000000Y-104014630D02*
X73000000Y-104014630D01*
X88053000Y-103974630D02*
X72947000Y-103974630D01*
X88106000Y-103934630D02*
X72894000Y-103934630D01*
X88158000Y-103894630D02*
X72842000Y-103894630D01*
X88210000Y-103854630D02*
X72790000Y-103854630D01*
X88261000Y-103814630D02*
X72739000Y-103814630D01*
X88312000Y-103774630D02*
X72688000Y-103774630D01*
X88362000Y-103734630D02*
X72638000Y-103734630D01*
X88411000Y-103694630D02*
X72589000Y-103694630D01*
X88460000Y-103654630D02*
X72540000Y-103654630D01*
X88509000Y-103614630D02*
X72491000Y-103614630D01*
X88557000Y-103574630D02*
X72443000Y-103574630D01*
X88605000Y-103534630D02*
X72395000Y-103534630D01*
X88652000Y-103494630D02*
X72348000Y-103494630D01*
X88698000Y-103454630D02*
X72302000Y-103454630D01*
X88745000Y-103414630D02*
X72255000Y-103414630D01*
X88790000Y-103374630D02*
X72210000Y-103374630D01*
X88825000Y-81640371D02*
X86325000Y-81640371D01*
X88836000Y-103334630D02*
X72164000Y-103334630D01*
X88880000Y-103294630D02*
X72120000Y-103294630D01*
X88925000Y-103254630D02*
X72075000Y-103254630D01*
X88969000Y-103214630D02*
X72031000Y-103214630D01*
X89013000Y-103174630D02*
X71987000Y-103174630D01*
X89056000Y-103134630D02*
X71944000Y-103134630D01*
X89099000Y-103094630D02*
X71901000Y-103094630D01*
X89141000Y-103054630D02*
X71859000Y-103054630D01*
X89183000Y-103014630D02*
X71817000Y-103014630D01*
X89225000Y-102974630D02*
X71775000Y-102974630D01*
X89266000Y-102934630D02*
X71734000Y-102934630D01*
X89307000Y-102894630D02*
X71693000Y-102894630D01*
X89347000Y-102854630D02*
X71653000Y-102854630D01*
X89387000Y-102814630D02*
X71613000Y-102814630D01*
X89427000Y-102774630D02*
X71573000Y-102774630D01*
X89467000Y-102734630D02*
X71533000Y-102734630D01*
X89506000Y-102694630D02*
X71494000Y-102694630D01*
X89544000Y-102654630D02*
X71456000Y-102654630D01*
X89583000Y-102614630D02*
X71417000Y-102614630D01*
X89621000Y-102574630D02*
X71379000Y-102574630D01*
X89659000Y-102534630D02*
X71341000Y-102534630D01*
X89696000Y-102494630D02*
X71304000Y-102494630D01*
X89733000Y-102454630D02*
X71267000Y-102454630D01*
X89770000Y-102414630D02*
X71230000Y-102414630D01*
X89806000Y-102374630D02*
X71194000Y-102374630D01*
X89842000Y-102334630D02*
X71158000Y-102334630D01*
X89878000Y-102294630D02*
X71122000Y-102294630D01*
X89914000Y-102254630D02*
X71086000Y-102254630D01*
X89949000Y-102214630D02*
X71051000Y-102214630D01*
X89984000Y-102174630D02*
X71016000Y-102174630D01*
X90019000Y-102134630D02*
X70981000Y-102134630D01*
X90053000Y-102094630D02*
X70947000Y-102094630D01*
X90087000Y-102054630D02*
X70913000Y-102054630D01*
X90121000Y-102014630D02*
X70879000Y-102014630D01*
X90154000Y-101974630D02*
X70846000Y-101974630D01*
X90187000Y-101934630D02*
X70813000Y-101934630D01*
X90220000Y-101894630D02*
X70780000Y-101894630D01*
X90253000Y-101854630D02*
X70747000Y-101854630D01*
X90285000Y-101814630D02*
X70715000Y-101814630D01*
X90317000Y-101774630D02*
X70683000Y-101774630D01*
X90349000Y-101734630D02*
X70651000Y-101734630D01*
X90381000Y-101694630D02*
X70619000Y-101694630D01*
X90412000Y-101654630D02*
X70588000Y-101654630D01*
X90443000Y-101614630D02*
X70557000Y-101614630D01*
X90474000Y-101574630D02*
X70526000Y-101574630D01*
X90505000Y-101534630D02*
X70495000Y-101534630D01*
X90535000Y-101494630D02*
X70465000Y-101494630D01*
X90565000Y-101454630D02*
X70435000Y-101454630D01*
X90595000Y-101414630D02*
X70405000Y-101414630D01*
X90624000Y-101374630D02*
X70376000Y-101374630D01*
X90654000Y-101334630D02*
X70346000Y-101334630D01*
X90683000Y-101294630D02*
X70317000Y-101294630D01*
X90712000Y-101254630D02*
X70288000Y-101254630D01*
X90740000Y-101214630D02*
X70260000Y-101214630D01*
X90769000Y-101174630D02*
X70231000Y-101174630D01*
X90797000Y-101134630D02*
X70203000Y-101134630D01*
X90825000Y-101094630D02*
X82740000Y-101094630D01*
X90852000Y-101054630D02*
X82740000Y-101054630D01*
X90880000Y-101014630D02*
X82740000Y-101014630D01*
X90907000Y-100974630D02*
X82740000Y-100974630D01*
X90934000Y-100934630D02*
X82740000Y-100934630D01*
X90961000Y-100894630D02*
X82740000Y-100894630D01*
X90987000Y-100854630D02*
X82740000Y-100854630D01*
X91014000Y-100814630D02*
X82740000Y-100814630D01*
X91040000Y-100774630D02*
X82740000Y-100774630D01*
X91066000Y-100734630D02*
X82740000Y-100734630D01*
X91091000Y-100694630D02*
X82740000Y-100694630D01*
X91117000Y-100654630D02*
X82740000Y-100654630D01*
X91142000Y-100614630D02*
X82740000Y-100614630D01*
X91167000Y-100574630D02*
X82740000Y-100574630D01*
X91192000Y-100534630D02*
X82740000Y-100534630D01*
X91217000Y-100494630D02*
X82740000Y-100494630D01*
X91241000Y-100454630D02*
X82740000Y-100454630D01*
X91265000Y-100414630D02*
X82740000Y-100414630D01*
X91289000Y-100374630D02*
X82740000Y-100374630D01*
X91313000Y-100334630D02*
X82740000Y-100334630D01*
X91337000Y-100294630D02*
X82740000Y-100294630D01*
X91360000Y-100254630D02*
X82740000Y-100254630D01*
X91383000Y-100214630D02*
X82740000Y-100214630D01*
X91407000Y-100174630D02*
X82740000Y-100174630D01*
X91429000Y-100134630D02*
X82740000Y-100134630D01*
X91452000Y-100094630D02*
X82740000Y-100094630D01*
X91474000Y-100054630D02*
X82740000Y-100054630D01*
X91497000Y-100014630D02*
X82740000Y-100014630D01*
X91519000Y-99974630D02*
X82740000Y-99974630D01*
X91541000Y-99934630D02*
X82740000Y-99934630D01*
X91562000Y-99894630D02*
X82740000Y-99894630D01*
X91584000Y-99854630D02*
X82740000Y-99854630D01*
X91605000Y-99814630D02*
X82740000Y-99814630D01*
X91626000Y-99774630D02*
X82740000Y-99774630D01*
X91647000Y-99734630D02*
X82740000Y-99734630D01*
X91668000Y-99694630D02*
X82740000Y-99694630D01*
X91689000Y-99654630D02*
X82740000Y-99654630D01*
X91709000Y-99614630D02*
X82740000Y-99614630D01*
X91730000Y-99574630D02*
X82740000Y-99574630D01*
X91750000Y-99534630D02*
X82740000Y-99534630D01*
X91769000Y-99494630D02*
X82740000Y-99494630D01*
X91789000Y-99454630D02*
X82740000Y-99454630D01*
X91809000Y-99414630D02*
X82740000Y-99414630D01*
X91828000Y-99374630D02*
X82740000Y-99374630D01*
X91847000Y-99334630D02*
X82740000Y-99334630D01*
X91866000Y-99294630D02*
X82740000Y-99294630D01*
X91885000Y-99254630D02*
X82740000Y-99254630D01*
X91904000Y-99214630D02*
X82740000Y-99214630D01*
X91922000Y-99174630D02*
X82740000Y-99174630D01*
X91941000Y-99134630D02*
X82740000Y-99134630D01*
X91959000Y-99094630D02*
X82740000Y-99094630D01*
X91977000Y-99054630D02*
X82740000Y-99054630D01*
X91995000Y-99014630D02*
X82740000Y-99014630D01*
X92012000Y-98974630D02*
X82740000Y-98974630D01*
X92030000Y-98934630D02*
X82740000Y-98934630D01*
X92047000Y-98894630D02*
X82740000Y-98894630D01*
X92064000Y-98854630D02*
X82740000Y-98854630D01*
X92081000Y-98814630D02*
X82740000Y-98814630D01*
X92098000Y-98774630D02*
X82740000Y-98774630D01*
X92115000Y-98734630D02*
X82740000Y-98734630D01*
X92132000Y-98694630D02*
X82740000Y-98694630D01*
X92148000Y-98654630D02*
X82740000Y-98654630D01*
X92164000Y-98614630D02*
X82740000Y-98614630D01*
X92180000Y-98574630D02*
X82740000Y-98574630D01*
X92196000Y-98534630D02*
X82740000Y-98534630D01*
X92212000Y-98494630D02*
X82740000Y-98494630D01*
X92227000Y-98454630D02*
X82740000Y-98454630D01*
X92243000Y-98414630D02*
X82740000Y-98414630D01*
X92258000Y-98374630D02*
X82740000Y-98374630D01*
X92273000Y-98334630D02*
X82740000Y-98334630D01*
X92288000Y-98294630D02*
X82740000Y-98294630D01*
X92303000Y-98254630D02*
X82740000Y-98254630D01*
X92318000Y-98214630D02*
X82740000Y-98214630D01*
X92332000Y-98174630D02*
X82740000Y-98174630D01*
X92346000Y-98134630D02*
X82740000Y-98134630D01*
X92361000Y-98094630D02*
X82740000Y-98094630D01*
X92375000Y-98054630D02*
X82740000Y-98054630D01*
X92389000Y-98014630D02*
X82740000Y-98014630D01*
X92402000Y-97974630D02*
X82740000Y-97974630D01*
X92416000Y-97934630D02*
X82740000Y-97934630D01*
X92429000Y-97894630D02*
X82740000Y-97894630D01*
X92443000Y-97854630D02*
X82740000Y-97854630D01*
X92456000Y-97814630D02*
X82740000Y-97814630D01*
X92469000Y-97774630D02*
X82740000Y-97774630D01*
X92482000Y-97734630D02*
X82740000Y-97734630D01*
X92494000Y-97694630D02*
X82740000Y-97694630D01*
X92507000Y-97654630D02*
X82740000Y-97654630D01*
X92519000Y-97614630D02*
X82740000Y-97614630D01*
X92532000Y-97574630D02*
X82740000Y-97574630D01*
X92544000Y-97534630D02*
X82740000Y-97534630D01*
X92556000Y-97494630D02*
X82740000Y-97494630D01*
X92567000Y-97454630D02*
X82740000Y-97454630D01*
X92579000Y-97414630D02*
X82740000Y-97414630D01*
X92591000Y-97374630D02*
X82740000Y-97374630D01*
X92602000Y-97334630D02*
X82740000Y-97334630D01*
X92613000Y-97294630D02*
X82740000Y-97294630D01*
X92624000Y-97254630D02*
X82740000Y-97254630D01*
X92635000Y-97214630D02*
X82740000Y-97214630D01*
X92646000Y-97174630D02*
X82740000Y-97174630D01*
X92657000Y-97134630D02*
X82740000Y-97134630D01*
X92668000Y-97094630D02*
X82740000Y-97094630D01*
X92678000Y-97054630D02*
X82740000Y-97054630D01*
X92688000Y-97014630D02*
X82740000Y-97014630D01*
X92698000Y-96974630D02*
X82740000Y-96974630D01*
X92708000Y-96934630D02*
X82740000Y-96934630D01*
X92718000Y-96894630D02*
X82740000Y-96894630D01*
X92728000Y-96854630D02*
X82740000Y-96854630D01*
X92738000Y-96814630D02*
X82740000Y-96814630D01*
X92747000Y-96774630D02*
X82740000Y-96774630D01*
X92756000Y-96734630D02*
X82740000Y-96734630D01*
X92765000Y-96694630D02*
X82740000Y-96694630D01*
X92774000Y-96654630D02*
X68226000Y-96654630D01*
X92783000Y-96614630D02*
X68217000Y-96614630D01*
X92792000Y-96574630D02*
X68208000Y-96574630D01*
X92801000Y-96534630D02*
X68199000Y-96534630D01*
X92809000Y-96494630D02*
X68191000Y-96494630D01*
X92818000Y-96454630D02*
X68182000Y-96454630D01*
X92826000Y-96414630D02*
X68174000Y-96414630D01*
X92834000Y-96374630D02*
X68166000Y-96374630D01*
X92842000Y-96334630D02*
X68158000Y-96334630D01*
X92850000Y-96294630D02*
X68150000Y-96294630D01*
X92857000Y-96254630D02*
X68143000Y-96254630D01*
X92865000Y-96214630D02*
X68135000Y-96214630D01*
X92872000Y-96174630D02*
X68128000Y-96174630D01*
X92880000Y-96134630D02*
X68120000Y-96134630D01*
X92887000Y-96094630D02*
X68113000Y-96094630D01*
X92894000Y-96054630D02*
X68106000Y-96054630D01*
X92901000Y-96014630D02*
X68099000Y-96014630D01*
X92907000Y-95974630D02*
X68093000Y-95974630D01*
X92914000Y-95934630D02*
X68086000Y-95934630D01*
X92921000Y-95894630D02*
X68079000Y-95894630D01*
X92927000Y-95854630D02*
X68073000Y-95854630D01*
X92933000Y-95814630D02*
X68067000Y-95814630D01*
X92939000Y-95774630D02*
X68061000Y-95774630D01*
X92945000Y-95734630D02*
X68055000Y-95734630D01*
X92951000Y-95694630D02*
X68049000Y-95694630D01*
X92957000Y-95654630D02*
X68043000Y-95654630D01*
X92962000Y-95614630D02*
X68038000Y-95614630D01*
X92968000Y-95574630D02*
X68032000Y-95574630D01*
X92973000Y-95534630D02*
X68027000Y-95534630D01*
X92978000Y-95494630D02*
X68022000Y-95494630D01*
X92983000Y-95454630D02*
X68017000Y-95454630D01*
X92988000Y-95414630D02*
X68012000Y-95414630D01*
X92993000Y-95374630D02*
X68007000Y-95374630D01*
X92998000Y-95334630D02*
X68002000Y-95334630D01*
X93002000Y-95294630D02*
X67998000Y-95294630D01*
X93007000Y-95254630D02*
X67993000Y-95254630D01*
X93011000Y-95214630D02*
X67989000Y-95214630D01*
X93015000Y-95174630D02*
X67985000Y-95174630D01*
X93019000Y-95134630D02*
X67981000Y-95134630D01*
X93023000Y-95094630D02*
X67977000Y-95094630D01*
X93027000Y-95054630D02*
X67973000Y-95054630D01*
X93030000Y-95014630D02*
X67970000Y-95014630D01*
X93034000Y-94974630D02*
X67966000Y-94974630D01*
X93037000Y-94934630D02*
X67963000Y-94934630D01*
X93040000Y-94894630D02*
X67960000Y-94894630D01*
X93043000Y-94854630D02*
X67957000Y-94854630D01*
X93046000Y-94814630D02*
X67954000Y-94814630D01*
X93049000Y-94774630D02*
X67951000Y-94774630D01*
X93052000Y-94734630D02*
X67948000Y-94734630D01*
X93055000Y-94694630D02*
X67945000Y-94694630D01*
X93057000Y-94654630D02*
X67943000Y-94654630D01*
X93059000Y-94614630D02*
X67941000Y-94614630D01*
X93062000Y-94574630D02*
X67938000Y-94574630D01*
X93064000Y-94534630D02*
X67936000Y-94534630D01*
X93066000Y-94494630D02*
X67934000Y-94494630D01*
X93068000Y-94454630D02*
X67932000Y-94454630D01*
X93069000Y-94414630D02*
X67931000Y-94414630D01*
X93071000Y-94374630D02*
X67929000Y-94374630D01*
X93072000Y-94334630D02*
X67928000Y-94334630D01*
X93074000Y-94294630D02*
X67926000Y-94294630D01*
X93075000Y-94254630D02*
X67925000Y-94254630D01*
X93076000Y-94214630D02*
X67924000Y-94214630D01*
X93077000Y-94174630D02*
X67923000Y-94174630D01*
X93078000Y-94094630D02*
X67922000Y-94094630D01*
X93078000Y-94134630D02*
X67922000Y-94134630D01*
X93079000Y-94014630D02*
X67921000Y-94014630D01*
X93079000Y-94054630D02*
X67921000Y-94054630D01*
X93080000Y-93894630D02*
X67920000Y-93894630D01*
X93080000Y-93934630D02*
X67920000Y-93934630D01*
X93080000Y-93974630D02*
X67920000Y-93974630D01*
X93120000Y-93894630D02*
G75*
G02*
X67880000Y-93894630I-12620000J0D01*
G01*
X67880000Y-93894630D02*
G75*
G02*
X93120000Y-93894630I12620000J0D01*
G01*
X145565000Y-64420000D02*
X145565000Y-64568000D01*
X145565000Y-64420000D02*
X148805000Y-64420000D01*
X145565000Y-66512000D02*
X145565000Y-66660000D01*
X145565000Y-66660000D02*
X148805000Y-66660000D01*
X148805000Y-64420000D02*
X148805000Y-64568000D01*
X148805000Y-66512000D02*
X148805000Y-66660000D01*
X118580000Y-42380000D02*
X118580000Y-38540000D01*
X120420000Y-42380000D02*
X120420000Y-38540000D01*
X86080000Y-47820000D02*
X86080000Y-53260000D01*
X86080000Y-53260000D02*
X86210000Y-53260000D01*
X86210000Y-47820000D02*
X86080000Y-47820000D01*
X88890000Y-47820000D02*
X89020000Y-47820000D01*
X89020000Y-47820000D02*
X89020000Y-53260000D01*
X89020000Y-48600000D02*
X86080000Y-48600000D01*
X89020000Y-48720000D02*
X86080000Y-48720000D01*
X89020000Y-48840000D02*
X86080000Y-48840000D01*
X89020000Y-53260000D02*
X88890000Y-53260000D01*
X107380000Y-31935000D02*
X107380000Y-32083000D01*
X107380000Y-31935000D02*
X110620000Y-31935000D01*
X107380000Y-34027000D02*
X107380000Y-34175000D01*
X107380000Y-34175000D02*
X110620000Y-34175000D01*
X110620000Y-31935000D02*
X110620000Y-32083000D01*
X110620000Y-34027000D02*
X110620000Y-34175000D01*
X111940000Y-66315000D02*
X111940000Y-68725000D01*
X111940000Y-66315000D02*
X113460000Y-66315000D01*
X111940000Y-67520000D02*
X112700000Y-67520000D01*
X111940000Y-68725000D02*
X113460000Y-68725000D01*
X113460000Y-63850000D02*
X113460000Y-68900000D01*
X113460000Y-63850000D02*
X123210000Y-63850000D01*
X113460000Y-66315000D02*
X113460000Y-68725000D01*
X113460000Y-68900000D02*
X123210000Y-68900000D01*
X123210000Y-63850000D02*
X123210000Y-68900000D01*
X105830000Y-52600000D02*
X105830000Y-54400000D01*
X105830000Y-52600000D02*
X110130000Y-52600000D01*
X110130000Y-54400000D02*
X105830000Y-54400000D01*
X110130000Y-54400000D02*
X110130000Y-52600000D01*
D12*
X60900000Y-41400000D02*
X68600000Y-41400000D01*
X60900000Y-51600000D02*
X60900000Y-41400000D01*
X68600000Y-41400000D02*
X68600000Y-51600000D01*
X68600000Y-51600000D02*
X60900000Y-51600000D01*
D13*
X66500000Y-43100000D02*
G75*
G02*
X66300000Y-43100000I-100000J0D01*
G01*
X66300000Y-43100000D02*
G75*
G02*
X66500000Y-43100000I100000J0D01*
G01*
D11*
X138980000Y-74380000D02*
X138980000Y-87620000D01*
X143220000Y-74380000D02*
X138980000Y-74380000D01*
X143220000Y-74380000D02*
X143220000Y-87620000D01*
X143220000Y-87620000D02*
X138980000Y-87620000D01*
X124630000Y-92780000D02*
X124630000Y-100220000D01*
X130370000Y-92780000D02*
X124630000Y-92780000D01*
X130370000Y-92780000D02*
X130370000Y-100220000D01*
X130370000Y-100220000D02*
X124630000Y-100220000D01*
X97430000Y-46420000D02*
X97430000Y-49660000D01*
X97578000Y-46420000D02*
X97430000Y-46420000D01*
X97578000Y-49660000D02*
X97430000Y-49660000D01*
X99670000Y-46420000D02*
X99522000Y-46420000D01*
X99670000Y-46420000D02*
X99670000Y-49660000D01*
X99670000Y-49660000D02*
X99522000Y-49660000D01*
X71670000Y-48960000D02*
X84330000Y-48960000D01*
X71670000Y-49000000D02*
X84330000Y-49000000D01*
X71671000Y-48880000D02*
X84329000Y-48880000D01*
X71671000Y-48920000D02*
X84329000Y-48920000D01*
X71672000Y-48840000D02*
X84328000Y-48840000D01*
X71673000Y-48800000D02*
X84327000Y-48800000D01*
X71675000Y-48760000D02*
X84325000Y-48760000D01*
X71676000Y-48720000D02*
X84324000Y-48720000D01*
X71678000Y-48680000D02*
X84322000Y-48680000D01*
X71680000Y-48640000D02*
X84320000Y-48640000D01*
X71683000Y-48600000D02*
X84317000Y-48600000D01*
X71685000Y-48560000D02*
X84315000Y-48560000D01*
X71688000Y-48520000D02*
X84312000Y-48520000D01*
X71691000Y-48480000D02*
X84309000Y-48480000D01*
X71695000Y-48440000D02*
X84305000Y-48440000D01*
X71698000Y-48400000D02*
X84302000Y-48400000D01*
X71702000Y-48360000D02*
X84298000Y-48360000D01*
X71706000Y-48320000D02*
X84294000Y-48320000D01*
X71711000Y-48280000D02*
X84289000Y-48280000D01*
X71716000Y-48240000D02*
X84284000Y-48240000D01*
X71720000Y-48200000D02*
X84280000Y-48200000D01*
X71726000Y-48160000D02*
X84274000Y-48160000D01*
X71731000Y-48120000D02*
X84269000Y-48120000D01*
X71737000Y-48080000D02*
X84263000Y-48080000D01*
X71743000Y-48040000D02*
X84257000Y-48040000D01*
X71749000Y-48000000D02*
X84251000Y-48000000D01*
X71755000Y-47960000D02*
X84245000Y-47960000D01*
X71762000Y-47920000D02*
X76560000Y-47920000D01*
X71769000Y-47880000D02*
X76560000Y-47880000D01*
X71777000Y-47840000D02*
X76560000Y-47840000D01*
X71784000Y-47800000D02*
X76560000Y-47800000D01*
X71792000Y-47760000D02*
X76560000Y-47760000D01*
X71800000Y-47720000D02*
X76560000Y-47720000D01*
X71808000Y-47680000D02*
X76560000Y-47680000D01*
X71817000Y-47640000D02*
X76560000Y-47640000D01*
X71826000Y-47600000D02*
X76560000Y-47600000D01*
X71835000Y-47560000D02*
X76560000Y-47560000D01*
X71844000Y-47520000D02*
X76560000Y-47520000D01*
X71854000Y-47480000D02*
X76560000Y-47480000D01*
X71864000Y-47440000D02*
X76560000Y-47440000D01*
X71874000Y-47400000D02*
X76560000Y-47400000D01*
X71885000Y-47360000D02*
X76560000Y-47360000D01*
X71896000Y-47320000D02*
X76560000Y-47320000D01*
X71907000Y-47280000D02*
X76560000Y-47280000D01*
X71918000Y-47240000D02*
X76560000Y-47240000D01*
X71930000Y-47200000D02*
X76560000Y-47200000D01*
X71942000Y-47160000D02*
X76560000Y-47160000D01*
X71954000Y-47120000D02*
X76560000Y-47120000D01*
X71966000Y-47080000D02*
X76560000Y-47080000D01*
X71979000Y-47040000D02*
X76560000Y-47040000D01*
X71992000Y-47000000D02*
X76560000Y-47000000D01*
X72005000Y-46960000D02*
X76560000Y-46960000D01*
X72019000Y-46920000D02*
X76560000Y-46920000D01*
X72033000Y-46880000D02*
X76560000Y-46880000D01*
X72047000Y-46840000D02*
X76560000Y-46840000D01*
X72062000Y-46800000D02*
X76560000Y-46800000D01*
X72077000Y-46760000D02*
X76560000Y-46760000D01*
X72092000Y-46720000D02*
X76560000Y-46720000D01*
X72108000Y-46680000D02*
X76560000Y-46680000D01*
X72123000Y-46640000D02*
X76560000Y-46640000D01*
X72139000Y-46600000D02*
X76560000Y-46600000D01*
X72156000Y-46560000D02*
X76560000Y-46560000D01*
X72173000Y-46520000D02*
X76560000Y-46520000D01*
X72190000Y-46480000D02*
X76560000Y-46480000D01*
X72207000Y-46440000D02*
X76560000Y-46440000D01*
X72225000Y-46400000D02*
X76560000Y-46400000D01*
X72243000Y-46360000D02*
X76560000Y-46360000D01*
X72261000Y-46320000D02*
X76560000Y-46320000D01*
X72280000Y-46280000D02*
X76560000Y-46280000D01*
X72299000Y-46240000D02*
X76560000Y-46240000D01*
X72318000Y-46200000D02*
X76560000Y-46200000D01*
X72338000Y-46160000D02*
X76560000Y-46160000D01*
X72358000Y-46120000D02*
X76560000Y-46120000D01*
X72379000Y-46080000D02*
X76560000Y-46080000D01*
X72399000Y-46040000D02*
X76560000Y-46040000D01*
X72421000Y-46000000D02*
X76560000Y-46000000D01*
X72442000Y-45960000D02*
X76560000Y-45960000D01*
X72464000Y-45920000D02*
X76560000Y-45920000D01*
X72486000Y-45880000D02*
X76560000Y-45880000D01*
X72509000Y-45840000D02*
X76560000Y-45840000D01*
X72532000Y-45800000D02*
X76560000Y-45800000D01*
X72556000Y-45760000D02*
X76560000Y-45760000D01*
X72579000Y-45720000D02*
X76560000Y-45720000D01*
X72604000Y-45680000D02*
X76560000Y-45680000D01*
X72628000Y-45640000D02*
X76560000Y-45640000D01*
X72653000Y-45600000D02*
X76560000Y-45600000D01*
X72679000Y-45560000D02*
X76560000Y-45560000D01*
X72705000Y-45520000D02*
X76560000Y-45520000D01*
X72731000Y-45480000D02*
X76560000Y-45480000D01*
X72758000Y-45440000D02*
X76560000Y-45440000D01*
X72785000Y-45400000D02*
X76560000Y-45400000D01*
X72812000Y-45360000D02*
X76560000Y-45360000D01*
X72841000Y-45320000D02*
X76560000Y-45320000D01*
X72869000Y-45280000D02*
X76560000Y-45280000D01*
X72898000Y-45240000D02*
X76560000Y-45240000D01*
X72928000Y-45200000D02*
X76560000Y-45200000D01*
X72958000Y-45160000D02*
X76560000Y-45160000D01*
X72988000Y-45120000D02*
X76560000Y-45120000D01*
X73019000Y-45080000D02*
X76560000Y-45080000D01*
X73050000Y-45040000D02*
X82950000Y-45040000D01*
X73082000Y-45000000D02*
X82918000Y-45000000D01*
X73115000Y-44960000D02*
X82885000Y-44960000D01*
X73148000Y-44920000D02*
X82852000Y-44920000D01*
X73182000Y-44880000D02*
X82818000Y-44880000D01*
X73216000Y-44840000D02*
X82784000Y-44840000D01*
X73251000Y-44800000D02*
X82749000Y-44800000D01*
X73286000Y-44760000D02*
X82714000Y-44760000D01*
X73322000Y-44720000D02*
X82678000Y-44720000D01*
X73359000Y-44680000D02*
X82641000Y-44680000D01*
X73396000Y-44640000D02*
X82604000Y-44640000D01*
X73434000Y-44600000D02*
X82566000Y-44600000D01*
X73472000Y-44560000D02*
X82528000Y-44560000D01*
X73512000Y-44520000D02*
X82488000Y-44520000D01*
X73552000Y-44480000D02*
X82448000Y-44480000D01*
X73592000Y-44440000D02*
X82408000Y-44440000D01*
X73634000Y-44400000D02*
X82366000Y-44400000D01*
X73676000Y-44360000D02*
X82324000Y-44360000D01*
X73719000Y-44320000D02*
X82281000Y-44320000D01*
X73762000Y-44280000D02*
X82238000Y-44280000D01*
X73800000Y-55192082D02*
X75050000Y-55192082D01*
X73807000Y-44240000D02*
X82193000Y-44240000D01*
X73852000Y-44200000D02*
X82148000Y-44200000D01*
X73899000Y-44160000D02*
X82101000Y-44160000D01*
X73946000Y-44120000D02*
X82054000Y-44120000D01*
X73994000Y-44080000D02*
X82006000Y-44080000D01*
X74043000Y-44040000D02*
X81957000Y-44040000D01*
X74093000Y-44000000D02*
X81907000Y-44000000D01*
X74144000Y-43960000D02*
X81856000Y-43960000D01*
X74197000Y-43920000D02*
X81803000Y-43920000D01*
X74250000Y-43880000D02*
X81750000Y-43880000D01*
X74305000Y-43840000D02*
X81695000Y-43840000D01*
X74361000Y-43800000D02*
X81639000Y-43800000D01*
X74418000Y-43760000D02*
X81582000Y-43760000D01*
X74425000Y-55817082D02*
X74425000Y-54567082D01*
X74477000Y-43720000D02*
X81523000Y-43720000D01*
X74537000Y-43680000D02*
X81463000Y-43680000D01*
X74598000Y-43640000D02*
X81402000Y-43640000D01*
X74661000Y-43600000D02*
X81339000Y-43600000D01*
X74726000Y-43560000D02*
X81274000Y-43560000D01*
X74792000Y-43520000D02*
X81208000Y-43520000D01*
X74861000Y-43480000D02*
X81139000Y-43480000D01*
X74931000Y-43440000D02*
X81069000Y-43440000D01*
X75004000Y-43400000D02*
X80996000Y-43400000D01*
X75079000Y-43360000D02*
X80921000Y-43360000D01*
X75157000Y-43320000D02*
X80843000Y-43320000D01*
X75237000Y-43280000D02*
X80763000Y-43280000D01*
X75320000Y-43240000D02*
X80680000Y-43240000D01*
X75406000Y-43200000D02*
X80594000Y-43200000D01*
X75496000Y-43160000D02*
X80504000Y-43160000D01*
X75590000Y-43120000D02*
X80410000Y-43120000D01*
X75688000Y-43080000D02*
X80312000Y-43080000D01*
X75792000Y-43040000D02*
X80208000Y-43040000D01*
X75901000Y-43000000D02*
X80099000Y-43000000D01*
X76016000Y-42960000D02*
X79984000Y-42960000D01*
X76140000Y-42920000D02*
X79860000Y-42920000D01*
X76273000Y-42880000D02*
X79727000Y-42880000D01*
X76418000Y-42840000D02*
X79582000Y-42840000D01*
X76578000Y-42800000D02*
X79422000Y-42800000D01*
X76760000Y-42760000D02*
X79240000Y-42760000D01*
X76973000Y-42720000D02*
X79027000Y-42720000D01*
X77243000Y-42680000D02*
X78757000Y-42680000D01*
X77683000Y-42640000D02*
X78317000Y-42640000D01*
X79440000Y-45080000D02*
X82981000Y-45080000D01*
X79440000Y-45120000D02*
X83012000Y-45120000D01*
X79440000Y-45160000D02*
X83042000Y-45160000D01*
X79440000Y-45200000D02*
X83072000Y-45200000D01*
X79440000Y-45240000D02*
X83102000Y-45240000D01*
X79440000Y-45280000D02*
X83131000Y-45280000D01*
X79440000Y-45320000D02*
X83159000Y-45320000D01*
X79440000Y-45360000D02*
X83188000Y-45360000D01*
X79440000Y-45400000D02*
X83215000Y-45400000D01*
X79440000Y-45440000D02*
X83242000Y-45440000D01*
X79440000Y-45480000D02*
X83269000Y-45480000D01*
X79440000Y-45520000D02*
X83295000Y-45520000D01*
X79440000Y-45560000D02*
X83321000Y-45560000D01*
X79440000Y-45600000D02*
X83347000Y-45600000D01*
X79440000Y-45640000D02*
X83372000Y-45640000D01*
X79440000Y-45680000D02*
X83396000Y-45680000D01*
X79440000Y-45720000D02*
X83421000Y-45720000D01*
X79440000Y-45760000D02*
X83444000Y-45760000D01*
X79440000Y-45800000D02*
X83468000Y-45800000D01*
X79440000Y-45840000D02*
X83491000Y-45840000D01*
X79440000Y-45880000D02*
X83514000Y-45880000D01*
X79440000Y-45920000D02*
X83536000Y-45920000D01*
X79440000Y-45960000D02*
X83558000Y-45960000D01*
X79440000Y-46000000D02*
X83579000Y-46000000D01*
X79440000Y-46040000D02*
X83601000Y-46040000D01*
X79440000Y-46080000D02*
X83621000Y-46080000D01*
X79440000Y-46120000D02*
X83642000Y-46120000D01*
X79440000Y-46160000D02*
X83662000Y-46160000D01*
X79440000Y-46200000D02*
X83682000Y-46200000D01*
X79440000Y-46240000D02*
X83701000Y-46240000D01*
X79440000Y-46280000D02*
X83720000Y-46280000D01*
X79440000Y-46320000D02*
X83739000Y-46320000D01*
X79440000Y-46360000D02*
X83757000Y-46360000D01*
X79440000Y-46400000D02*
X83775000Y-46400000D01*
X79440000Y-46440000D02*
X83793000Y-46440000D01*
X79440000Y-46480000D02*
X83810000Y-46480000D01*
X79440000Y-46520000D02*
X83827000Y-46520000D01*
X79440000Y-46560000D02*
X83844000Y-46560000D01*
X79440000Y-46600000D02*
X83861000Y-46600000D01*
X79440000Y-46640000D02*
X83877000Y-46640000D01*
X79440000Y-46680000D02*
X83892000Y-46680000D01*
X79440000Y-46720000D02*
X83908000Y-46720000D01*
X79440000Y-46760000D02*
X83923000Y-46760000D01*
X79440000Y-46800000D02*
X83938000Y-46800000D01*
X79440000Y-46840000D02*
X83953000Y-46840000D01*
X79440000Y-46880000D02*
X83967000Y-46880000D01*
X79440000Y-46920000D02*
X83981000Y-46920000D01*
X79440000Y-46960000D02*
X83995000Y-46960000D01*
X79440000Y-47000000D02*
X84008000Y-47000000D01*
X79440000Y-47040000D02*
X84021000Y-47040000D01*
X79440000Y-47080000D02*
X84034000Y-47080000D01*
X79440000Y-47120000D02*
X84046000Y-47120000D01*
X79440000Y-47160000D02*
X84058000Y-47160000D01*
X79440000Y-47200000D02*
X84070000Y-47200000D01*
X79440000Y-47240000D02*
X84082000Y-47240000D01*
X79440000Y-47280000D02*
X84093000Y-47280000D01*
X79440000Y-47320000D02*
X84104000Y-47320000D01*
X79440000Y-47360000D02*
X84115000Y-47360000D01*
X79440000Y-47400000D02*
X84126000Y-47400000D01*
X79440000Y-47440000D02*
X84136000Y-47440000D01*
X79440000Y-47480000D02*
X84146000Y-47480000D01*
X79440000Y-47520000D02*
X84156000Y-47520000D01*
X79440000Y-47560000D02*
X84165000Y-47560000D01*
X79440000Y-47600000D02*
X84174000Y-47600000D01*
X79440000Y-47640000D02*
X84183000Y-47640000D01*
X79440000Y-47680000D02*
X84192000Y-47680000D01*
X79440000Y-47720000D02*
X84200000Y-47720000D01*
X79440000Y-47760000D02*
X84208000Y-47760000D01*
X79440000Y-47800000D02*
X84216000Y-47800000D01*
X79440000Y-47840000D02*
X84223000Y-47840000D01*
X79440000Y-47880000D02*
X84231000Y-47880000D01*
X79440000Y-47920000D02*
X84238000Y-47920000D01*
X84370000Y-49000000D02*
G75*
G02*
X71630000Y-49000000I-6370000J0D01*
G01*
X71630000Y-49000000D02*
G75*
G02*
X84370000Y-49000000I6370000J0D01*
G01*
X138090000Y-91500000D02*
X138120000Y-91500000D01*
X139548000Y-88715000D02*
X139548000Y-94285000D01*
X139668000Y-88715000D02*
X139668000Y-94285000D01*
X139788000Y-88715000D02*
X139788000Y-94285000D01*
X147910000Y-91500000D02*
X147880000Y-91500000D01*
X138120000Y-88715000D02*
X147880000Y-88715000D01*
X147880000Y-94285000D01*
X138120000Y-94285000D01*
X138120000Y-88715000D01*
X155080000Y-63920000D02*
X155080000Y-60080000D01*
X156920000Y-63920000D02*
X156920000Y-60080000D01*
X91190000Y-44350000D02*
X91190000Y-54570000D01*
X94430000Y-44350000D02*
X94430000Y-54570000D01*
X95810000Y-44350000D02*
X91190000Y-44350000D01*
X95810000Y-44350000D02*
X95810000Y-54570000D01*
X95810000Y-47610000D02*
X94430000Y-47610000D01*
X95810000Y-51310000D02*
X94430000Y-51310000D01*
X95810000Y-54570000D02*
X91190000Y-54570000D01*
X135285000Y-54370000D02*
X135285000Y-56170000D01*
X135285000Y-54370000D02*
X139585000Y-54370000D01*
X139585000Y-56170000D02*
X135285000Y-56170000D01*
X139585000Y-56170000D02*
X139585000Y-54370000D01*
X144880000Y-74380000D02*
X144880000Y-87620000D01*
X149120000Y-74380000D02*
X144880000Y-74380000D01*
X149120000Y-74380000D02*
X149120000Y-87620000D01*
X149120000Y-87620000D02*
X144880000Y-87620000D01*
X112880000Y-32083000D02*
X112880000Y-31935000D01*
X112880000Y-34175000D02*
X112880000Y-34027000D01*
X116120000Y-31935000D02*
X112880000Y-31935000D01*
X116120000Y-32083000D02*
X116120000Y-31935000D01*
X116120000Y-34175000D02*
X112880000Y-34175000D01*
X116120000Y-34175000D02*
X116120000Y-34027000D01*
X97430000Y-60130000D02*
X97430000Y-63370000D01*
X97578000Y-60130000D02*
X97430000Y-60130000D01*
X97578000Y-63370000D02*
X97430000Y-63370000D01*
X99670000Y-60130000D02*
X99522000Y-60130000D01*
X99670000Y-60130000D02*
X99670000Y-63370000D01*
X99670000Y-63370000D02*
X99522000Y-63370000D01*
X135585000Y-46020000D02*
X135585000Y-40970000D01*
X145335000Y-40970000D02*
X135585000Y-40970000D01*
X145335000Y-46020000D02*
X135585000Y-46020000D01*
X145335000Y-46020000D02*
X145335000Y-40970000D01*
X118955000Y-80255000D02*
X118955000Y-80403000D01*
X118955000Y-80255000D02*
X122195000Y-80255000D01*
X118955000Y-82347000D02*
X118955000Y-82495000D01*
X118955000Y-82495000D02*
X122195000Y-82495000D01*
X122195000Y-80255000D02*
X122195000Y-80403000D01*
X122195000Y-82347000D02*
X122195000Y-82495000D01*
X117780000Y-50030000D02*
X117780000Y-50160000D01*
X117780000Y-52970000D02*
X117780000Y-52840000D01*
X122200000Y-52970000D02*
X122200000Y-50030000D01*
X122320000Y-52970000D02*
X122320000Y-50030000D01*
X122440000Y-52970000D02*
X122440000Y-50030000D01*
X123220000Y-50030000D02*
X117780000Y-50030000D01*
X123220000Y-50160000D02*
X123220000Y-50030000D01*
X123220000Y-52840000D02*
X123220000Y-52970000D01*
X123220000Y-52970000D02*
X117780000Y-52970000D01*
X135285000Y-57370000D02*
X135285000Y-59170000D01*
X135285000Y-57370000D02*
X139585000Y-57370000D01*
X139585000Y-59170000D02*
X135285000Y-59170000D01*
X139585000Y-59170000D02*
X139585000Y-57370000D01*
X124780000Y-41030000D02*
X130220000Y-41030000D01*
X124780000Y-41160000D02*
X124780000Y-41030000D01*
X124780000Y-43840000D02*
X124780000Y-43970000D01*
X124780000Y-43970000D02*
X130220000Y-43970000D01*
X125560000Y-41030000D02*
X125560000Y-43970000D01*
X125680000Y-41030000D02*
X125680000Y-43970000D01*
X125800000Y-41030000D02*
X125800000Y-43970000D01*
X130220000Y-41030000D02*
X130220000Y-41160000D01*
X130220000Y-43970000D02*
X130220000Y-43840000D01*
X124780000Y-36530000D02*
X124780000Y-36660000D01*
X124780000Y-39470000D02*
X124780000Y-39340000D01*
X129200000Y-39470000D02*
X129200000Y-36530000D01*
X129320000Y-39470000D02*
X129320000Y-36530000D01*
X129440000Y-39470000D02*
X129440000Y-36530000D01*
X130220000Y-36530000D02*
X124780000Y-36530000D01*
X130220000Y-36660000D02*
X130220000Y-36530000D01*
X130220000Y-39340000D02*
X130220000Y-39470000D01*
X130220000Y-39470000D02*
X124780000Y-39470000D01*
X105425000Y-71910000D02*
X105425000Y-77210000D01*
X105425000Y-77210000D02*
X123325000Y-77210000D01*
X123325000Y-71910000D02*
X105425000Y-71910000D01*
X123325000Y-73560000D02*
X123325000Y-71910000D01*
X123325000Y-77210000D02*
X123325000Y-75560000D01*
X123325000Y-75560000D02*
G75*
G02*
X123325000Y-73560000I0J1000000D01*
G01*
X71670000Y-62783959D02*
X84330000Y-62783959D01*
X71670000Y-62823959D02*
X84330000Y-62823959D01*
X71671000Y-62703959D02*
X84329000Y-62703959D01*
X71671000Y-62743959D02*
X84329000Y-62743959D01*
X71672000Y-62663959D02*
X84328000Y-62663959D01*
X71673000Y-62623959D02*
X84327000Y-62623959D01*
X71675000Y-62583959D02*
X84325000Y-62583959D01*
X71676000Y-62543959D02*
X84324000Y-62543959D01*
X71678000Y-62503959D02*
X84322000Y-62503959D01*
X71680000Y-62463959D02*
X84320000Y-62463959D01*
X71683000Y-62423959D02*
X84317000Y-62423959D01*
X71685000Y-62383959D02*
X84315000Y-62383959D01*
X71688000Y-62343959D02*
X84312000Y-62343959D01*
X71691000Y-62303959D02*
X84309000Y-62303959D01*
X71695000Y-62263959D02*
X84305000Y-62263959D01*
X71698000Y-62223959D02*
X84302000Y-62223959D01*
X71702000Y-62183959D02*
X84298000Y-62183959D01*
X71706000Y-62143959D02*
X84294000Y-62143959D01*
X71711000Y-62103959D02*
X84289000Y-62103959D01*
X71716000Y-62063959D02*
X84284000Y-62063959D01*
X71720000Y-62023959D02*
X84280000Y-62023959D01*
X71726000Y-61983959D02*
X84274000Y-61983959D01*
X71731000Y-61943959D02*
X84269000Y-61943959D01*
X71737000Y-61903959D02*
X84263000Y-61903959D01*
X71743000Y-61863959D02*
X84257000Y-61863959D01*
X71749000Y-61823959D02*
X84251000Y-61823959D01*
X71755000Y-61783959D02*
X84245000Y-61783959D01*
X71762000Y-61743959D02*
X76560000Y-61743959D01*
X71769000Y-61703959D02*
X76560000Y-61703959D01*
X71777000Y-61663959D02*
X76560000Y-61663959D01*
X71784000Y-61623959D02*
X76560000Y-61623959D01*
X71792000Y-61583959D02*
X76560000Y-61583959D01*
X71800000Y-61543959D02*
X76560000Y-61543959D01*
X71808000Y-61503959D02*
X76560000Y-61503959D01*
X71817000Y-61463959D02*
X76560000Y-61463959D01*
X71826000Y-61423959D02*
X76560000Y-61423959D01*
X71835000Y-61383959D02*
X76560000Y-61383959D01*
X71844000Y-61343959D02*
X76560000Y-61343959D01*
X71854000Y-61303959D02*
X76560000Y-61303959D01*
X71864000Y-61263959D02*
X76560000Y-61263959D01*
X71874000Y-61223959D02*
X76560000Y-61223959D01*
X71885000Y-61183959D02*
X76560000Y-61183959D01*
X71896000Y-61143959D02*
X76560000Y-61143959D01*
X71907000Y-61103959D02*
X76560000Y-61103959D01*
X71918000Y-61063959D02*
X76560000Y-61063959D01*
X71930000Y-61023959D02*
X76560000Y-61023959D01*
X71942000Y-60983959D02*
X76560000Y-60983959D01*
X71954000Y-60943959D02*
X76560000Y-60943959D01*
X71966000Y-60903959D02*
X76560000Y-60903959D01*
X71979000Y-60863959D02*
X76560000Y-60863959D01*
X71992000Y-60823959D02*
X76560000Y-60823959D01*
X72005000Y-60783959D02*
X76560000Y-60783959D01*
X72019000Y-60743959D02*
X76560000Y-60743959D01*
X72033000Y-60703959D02*
X76560000Y-60703959D01*
X72047000Y-60663959D02*
X76560000Y-60663959D01*
X72062000Y-60623959D02*
X76560000Y-60623959D01*
X72077000Y-60583959D02*
X76560000Y-60583959D01*
X72092000Y-60543959D02*
X76560000Y-60543959D01*
X72108000Y-60503959D02*
X76560000Y-60503959D01*
X72123000Y-60463959D02*
X76560000Y-60463959D01*
X72139000Y-60423959D02*
X76560000Y-60423959D01*
X72156000Y-60383959D02*
X76560000Y-60383959D01*
X72173000Y-60343959D02*
X76560000Y-60343959D01*
X72190000Y-60303959D02*
X76560000Y-60303959D01*
X72207000Y-60263959D02*
X76560000Y-60263959D01*
X72225000Y-60223959D02*
X76560000Y-60223959D01*
X72243000Y-60183959D02*
X76560000Y-60183959D01*
X72261000Y-60143959D02*
X76560000Y-60143959D01*
X72280000Y-60103959D02*
X76560000Y-60103959D01*
X72299000Y-60063959D02*
X76560000Y-60063959D01*
X72318000Y-60023959D02*
X76560000Y-60023959D01*
X72338000Y-59983959D02*
X76560000Y-59983959D01*
X72358000Y-59943959D02*
X76560000Y-59943959D01*
X72379000Y-59903959D02*
X76560000Y-59903959D01*
X72399000Y-59863959D02*
X76560000Y-59863959D01*
X72421000Y-59823959D02*
X76560000Y-59823959D01*
X72442000Y-59783959D02*
X76560000Y-59783959D01*
X72464000Y-59743959D02*
X76560000Y-59743959D01*
X72486000Y-59703959D02*
X76560000Y-59703959D01*
X72509000Y-59663959D02*
X76560000Y-59663959D01*
X72532000Y-59623959D02*
X76560000Y-59623959D01*
X72556000Y-59583959D02*
X76560000Y-59583959D01*
X72579000Y-59543959D02*
X76560000Y-59543959D01*
X72604000Y-59503959D02*
X76560000Y-59503959D01*
X72628000Y-59463959D02*
X76560000Y-59463959D01*
X72653000Y-59423959D02*
X76560000Y-59423959D01*
X72679000Y-59383959D02*
X76560000Y-59383959D01*
X72705000Y-59343959D02*
X76560000Y-59343959D01*
X72731000Y-59303959D02*
X76560000Y-59303959D01*
X72758000Y-59263959D02*
X76560000Y-59263959D01*
X72785000Y-59223959D02*
X76560000Y-59223959D01*
X72812000Y-59183959D02*
X76560000Y-59183959D01*
X72841000Y-59143959D02*
X76560000Y-59143959D01*
X72869000Y-59103959D02*
X76560000Y-59103959D01*
X72898000Y-59063959D02*
X76560000Y-59063959D01*
X72928000Y-59023959D02*
X76560000Y-59023959D01*
X72958000Y-58983959D02*
X76560000Y-58983959D01*
X72988000Y-58943959D02*
X76560000Y-58943959D01*
X73019000Y-58903959D02*
X76560000Y-58903959D01*
X73050000Y-58863959D02*
X82950000Y-58863959D01*
X73082000Y-58823959D02*
X82918000Y-58823959D01*
X73115000Y-58783959D02*
X82885000Y-58783959D01*
X73148000Y-58743959D02*
X82852000Y-58743959D01*
X73182000Y-58703959D02*
X82818000Y-58703959D01*
X73216000Y-58663959D02*
X82784000Y-58663959D01*
X73251000Y-58623959D02*
X82749000Y-58623959D01*
X73286000Y-58583959D02*
X82714000Y-58583959D01*
X73322000Y-58543959D02*
X82678000Y-58543959D01*
X73359000Y-58503959D02*
X82641000Y-58503959D01*
X73396000Y-58463959D02*
X82604000Y-58463959D01*
X73434000Y-58423959D02*
X82566000Y-58423959D01*
X73472000Y-58383959D02*
X82528000Y-58383959D01*
X73512000Y-58343959D02*
X82488000Y-58343959D01*
X73552000Y-58303959D02*
X82448000Y-58303959D01*
X73592000Y-58263959D02*
X82408000Y-58263959D01*
X73634000Y-58223959D02*
X82366000Y-58223959D01*
X73676000Y-58183959D02*
X82324000Y-58183959D01*
X73719000Y-58143959D02*
X82281000Y-58143959D01*
X73762000Y-58103959D02*
X82238000Y-58103959D01*
X73800000Y-69016041D02*
X75050000Y-69016041D01*
X73807000Y-58063959D02*
X82193000Y-58063959D01*
X73852000Y-58023959D02*
X82148000Y-58023959D01*
X73899000Y-57983959D02*
X82101000Y-57983959D01*
X73946000Y-57943959D02*
X82054000Y-57943959D01*
X73994000Y-57903959D02*
X82006000Y-57903959D01*
X74043000Y-57863959D02*
X81957000Y-57863959D01*
X74093000Y-57823959D02*
X81907000Y-57823959D01*
X74144000Y-57783959D02*
X81856000Y-57783959D01*
X74197000Y-57743959D02*
X81803000Y-57743959D01*
X74250000Y-57703959D02*
X81750000Y-57703959D01*
X74305000Y-57663959D02*
X81695000Y-57663959D01*
X74361000Y-57623959D02*
X81639000Y-57623959D01*
X74418000Y-57583959D02*
X81582000Y-57583959D01*
X74425000Y-69641041D02*
X74425000Y-68391041D01*
X74477000Y-57543959D02*
X81523000Y-57543959D01*
X74537000Y-57503959D02*
X81463000Y-57503959D01*
X74598000Y-57463959D02*
X81402000Y-57463959D01*
X74661000Y-57423959D02*
X81339000Y-57423959D01*
X74726000Y-57383959D02*
X81274000Y-57383959D01*
X74792000Y-57343959D02*
X81208000Y-57343959D01*
X74861000Y-57303959D02*
X81139000Y-57303959D01*
X74931000Y-57263959D02*
X81069000Y-57263959D01*
X75004000Y-57223959D02*
X80996000Y-57223959D01*
X75079000Y-57183959D02*
X80921000Y-57183959D01*
X75157000Y-57143959D02*
X80843000Y-57143959D01*
X75237000Y-57103959D02*
X80763000Y-57103959D01*
X75320000Y-57063959D02*
X80680000Y-57063959D01*
X75406000Y-57023959D02*
X80594000Y-57023959D01*
X75496000Y-56983959D02*
X80504000Y-56983959D01*
X75590000Y-56943959D02*
X80410000Y-56943959D01*
X75688000Y-56903959D02*
X80312000Y-56903959D01*
X75792000Y-56863959D02*
X80208000Y-56863959D01*
X75901000Y-56823959D02*
X80099000Y-56823959D01*
X76016000Y-56783959D02*
X79984000Y-56783959D01*
X76140000Y-56743959D02*
X79860000Y-56743959D01*
X76273000Y-56703959D02*
X79727000Y-56703959D01*
X76418000Y-56663959D02*
X79582000Y-56663959D01*
X76578000Y-56623959D02*
X79422000Y-56623959D01*
X76760000Y-56583959D02*
X79240000Y-56583959D01*
X76973000Y-56543959D02*
X79027000Y-56543959D01*
X77243000Y-56503959D02*
X78757000Y-56503959D01*
X77683000Y-56463959D02*
X78317000Y-56463959D01*
X79440000Y-58903959D02*
X82981000Y-58903959D01*
X79440000Y-58943959D02*
X83012000Y-58943959D01*
X79440000Y-58983959D02*
X83042000Y-58983959D01*
X79440000Y-59023959D02*
X83072000Y-59023959D01*
X79440000Y-59063959D02*
X83102000Y-59063959D01*
X79440000Y-59103959D02*
X83131000Y-59103959D01*
X79440000Y-59143959D02*
X83159000Y-59143959D01*
X79440000Y-59183959D02*
X83188000Y-59183959D01*
X79440000Y-59223959D02*
X83215000Y-59223959D01*
X79440000Y-59263959D02*
X83242000Y-59263959D01*
X79440000Y-59303959D02*
X83269000Y-59303959D01*
X79440000Y-59343959D02*
X83295000Y-59343959D01*
X79440000Y-59383959D02*
X83321000Y-59383959D01*
X79440000Y-59423959D02*
X83347000Y-59423959D01*
X79440000Y-59463959D02*
X83372000Y-59463959D01*
X79440000Y-59503959D02*
X83396000Y-59503959D01*
X79440000Y-59543959D02*
X83421000Y-59543959D01*
X79440000Y-59583959D02*
X83444000Y-59583959D01*
X79440000Y-59623959D02*
X83468000Y-59623959D01*
X79440000Y-59663959D02*
X83491000Y-59663959D01*
X79440000Y-59703959D02*
X83514000Y-59703959D01*
X79440000Y-59743959D02*
X83536000Y-59743959D01*
X79440000Y-59783959D02*
X83558000Y-59783959D01*
X79440000Y-59823959D02*
X83579000Y-59823959D01*
X79440000Y-59863959D02*
X83601000Y-59863959D01*
X79440000Y-59903959D02*
X83621000Y-59903959D01*
X79440000Y-59943959D02*
X83642000Y-59943959D01*
X79440000Y-59983959D02*
X83662000Y-59983959D01*
X79440000Y-60023959D02*
X83682000Y-60023959D01*
X79440000Y-60063959D02*
X83701000Y-60063959D01*
X79440000Y-60103959D02*
X83720000Y-60103959D01*
X79440000Y-60143959D02*
X83739000Y-60143959D01*
X79440000Y-60183959D02*
X83757000Y-60183959D01*
X79440000Y-60223959D02*
X83775000Y-60223959D01*
X79440000Y-60263959D02*
X83793000Y-60263959D01*
X79440000Y-60303959D02*
X83810000Y-60303959D01*
X79440000Y-60343959D02*
X83827000Y-60343959D01*
X79440000Y-60383959D02*
X83844000Y-60383959D01*
X79440000Y-60423959D02*
X83861000Y-60423959D01*
X79440000Y-60463959D02*
X83877000Y-60463959D01*
X79440000Y-60503959D02*
X83892000Y-60503959D01*
X79440000Y-60543959D02*
X83908000Y-60543959D01*
X79440000Y-60583959D02*
X83923000Y-60583959D01*
X79440000Y-60623959D02*
X83938000Y-60623959D01*
X79440000Y-60663959D02*
X83953000Y-60663959D01*
X79440000Y-60703959D02*
X83967000Y-60703959D01*
X79440000Y-60743959D02*
X83981000Y-60743959D01*
X79440000Y-60783959D02*
X83995000Y-60783959D01*
X79440000Y-60823959D02*
X84008000Y-60823959D01*
X79440000Y-60863959D02*
X84021000Y-60863959D01*
X79440000Y-60903959D02*
X84034000Y-60903959D01*
X79440000Y-60943959D02*
X84046000Y-60943959D01*
X79440000Y-60983959D02*
X84058000Y-60983959D01*
X79440000Y-61023959D02*
X84070000Y-61023959D01*
X79440000Y-61063959D02*
X84082000Y-61063959D01*
X79440000Y-61103959D02*
X84093000Y-61103959D01*
X79440000Y-61143959D02*
X84104000Y-61143959D01*
X79440000Y-61183959D02*
X84115000Y-61183959D01*
X79440000Y-61223959D02*
X84126000Y-61223959D01*
X79440000Y-61263959D02*
X84136000Y-61263959D01*
X79440000Y-61303959D02*
X84146000Y-61303959D01*
X79440000Y-61343959D02*
X84156000Y-61343959D01*
X79440000Y-61383959D02*
X84165000Y-61383959D01*
X79440000Y-61423959D02*
X84174000Y-61423959D01*
X79440000Y-61463959D02*
X84183000Y-61463959D01*
X79440000Y-61503959D02*
X84192000Y-61503959D01*
X79440000Y-61543959D02*
X84200000Y-61543959D01*
X79440000Y-61583959D02*
X84208000Y-61583959D01*
X79440000Y-61623959D02*
X84216000Y-61623959D01*
X79440000Y-61663959D02*
X84223000Y-61663959D01*
X79440000Y-61703959D02*
X84231000Y-61703959D01*
X79440000Y-61743959D02*
X84238000Y-61743959D01*
X84370000Y-62823959D02*
G75*
G02*
X71630000Y-62823959I-6370000J0D01*
G01*
X71630000Y-62823959D02*
G75*
G02*
X84370000Y-62823959I6370000J0D01*
G01*
X138090000Y-71000000D02*
X138120000Y-71000000D01*
X139548000Y-68215000D02*
X139548000Y-73785000D01*
X139668000Y-68215000D02*
X139668000Y-73785000D01*
X139788000Y-68215000D02*
X139788000Y-73785000D01*
X147910000Y-71000000D02*
X147880000Y-71000000D01*
X138120000Y-68215000D02*
X147880000Y-68215000D01*
X147880000Y-73785000D01*
X138120000Y-73785000D01*
X138120000Y-68215000D01*
D12*
X133400000Y-98900000D02*
X148600000Y-98900000D01*
X133400000Y-106600000D02*
X133400000Y-98900000D01*
X148600000Y-98900000D02*
X148600000Y-106600000D01*
X148600000Y-106600000D02*
X133400000Y-106600000D01*
D11*
X153190000Y-67990000D02*
X153190000Y-84110000D01*
X158440000Y-67990000D02*
X153190000Y-67990000D01*
X158440000Y-67990000D02*
X158440000Y-69090000D01*
X158440000Y-72110000D02*
X158440000Y-74540000D01*
X158440000Y-74245000D02*
X158220000Y-74245000D01*
X158440000Y-77560000D02*
X158440000Y-79990000D01*
X158440000Y-77855000D02*
X158220000Y-77855000D01*
X158440000Y-83010000D02*
X158440000Y-84110000D01*
X158440000Y-84110000D02*
X153190000Y-84110000D01*
D12*
X72400000Y-30400000D02*
X87600000Y-30400000D01*
X72400000Y-38100000D02*
X72400000Y-30400000D01*
X87600000Y-30400000D02*
X87600000Y-38100000D01*
X87600000Y-38100000D02*
X72400000Y-38100000D01*
D11*
X106630000Y-37345000D02*
X106630000Y-38995000D01*
X106630000Y-40995000D02*
X106630000Y-42645000D01*
X106630000Y-42645000D02*
X116910000Y-42645000D01*
X116910000Y-37345000D02*
X106630000Y-37345000D01*
X116910000Y-42645000D02*
X116910000Y-37345000D01*
X106630000Y-38995000D02*
G75*
G02*
X106630000Y-40995000I0J-1000000D01*
G01*
X66750000Y-76250000D02*
X68250000Y-76250000D01*
X66750000Y-79850000D02*
X66750000Y-76250000D01*
X69950000Y-79850000D02*
X69950000Y-79350000D01*
X72250000Y-76250000D02*
X73750000Y-76250000D01*
X76950000Y-76250000D02*
X78850000Y-76250000D01*
X81950000Y-76250000D02*
X83950000Y-76250000D01*
X87050000Y-76250000D02*
X89050000Y-76250000D01*
X89050000Y-76250000D02*
X89050000Y-79850000D01*
X89050000Y-79850000D02*
X66750000Y-79850000D01*
X91190000Y-57850000D02*
X91190000Y-68070000D01*
X94430000Y-57850000D02*
X94430000Y-68070000D01*
X95810000Y-57850000D02*
X91190000Y-57850000D01*
X95810000Y-57850000D02*
X95810000Y-68070000D01*
X95810000Y-61110000D02*
X94430000Y-61110000D01*
X95810000Y-64810000D02*
X94430000Y-64810000D01*
X95810000Y-68070000D02*
X91190000Y-68070000D01*
X117780000Y-54030000D02*
X117780000Y-54160000D01*
X117780000Y-56970000D02*
X117780000Y-56840000D01*
X122200000Y-56970000D02*
X122200000Y-54030000D01*
X122320000Y-56970000D02*
X122320000Y-54030000D01*
X122440000Y-56970000D02*
X122440000Y-54030000D01*
X123220000Y-54030000D02*
X117780000Y-54030000D01*
X123220000Y-54160000D02*
X123220000Y-54030000D01*
X123220000Y-56840000D02*
X123220000Y-56970000D01*
X123220000Y-56970000D02*
X117780000Y-56970000D01*
X131130000Y-54130000D02*
X133870000Y-54130000D01*
X131130000Y-59370000D02*
X131130000Y-54130000D01*
X131130000Y-59370000D02*
X133870000Y-59370000D01*
X133870000Y-59370000D02*
X133870000Y-54130000D01*
X133295000Y-74380000D02*
X133295000Y-87620000D01*
X137535000Y-74380000D02*
X133295000Y-74380000D01*
X137535000Y-74380000D02*
X137535000Y-87620000D01*
X137535000Y-87620000D02*
X133295000Y-87620000D01*
X108900000Y-61500000D02*
G75*
G02*
X106100000Y-61500000I-1400000J0D01*
G01*
X106100000Y-61500000D02*
G75*
G02*
X108900000Y-61500000I1400000J0D01*
G01*
X124630000Y-69655000D02*
X124630000Y-77095000D01*
X129370000Y-69655000D02*
X124630000Y-69655000D01*
X129370000Y-69655000D02*
X129370000Y-77095000D01*
X129370000Y-77095000D02*
X124630000Y-77095000D01*
D12*
X60900000Y-55900000D02*
X68600000Y-55900000D01*
X60900000Y-71100000D02*
X60900000Y-55900000D01*
X68600000Y-55900000D02*
X68600000Y-71100000D01*
X68600000Y-71100000D02*
X60900000Y-71100000D01*
D11*
X135325000Y-60370000D02*
X135325000Y-62170000D01*
X135325000Y-60370000D02*
X139625000Y-60370000D01*
X139625000Y-62170000D02*
X135325000Y-62170000D01*
X139625000Y-62170000D02*
X139625000Y-60370000D01*
X112040000Y-56420000D02*
X112040000Y-52580000D01*
X113880000Y-56420000D02*
X113880000Y-52580000D01*
X105260000Y-96800000D02*
X95235000Y-96800000D01*
X105260000Y-96840000D02*
X95244000Y-96840000D01*
X105260000Y-96880000D02*
X95253000Y-96880000D01*
X105260000Y-96920000D02*
X95262000Y-96920000D01*
X105260000Y-96960000D02*
X95272000Y-96960000D01*
X105260000Y-97000000D02*
X95282000Y-97000000D01*
X105260000Y-97040000D02*
X95292000Y-97040000D01*
X105260000Y-97080000D02*
X95302000Y-97080000D01*
X105260000Y-97120000D02*
X95312000Y-97120000D01*
X105260000Y-97160000D02*
X95322000Y-97160000D01*
X105260000Y-97200000D02*
X95332000Y-97200000D01*
X105260000Y-97240000D02*
X95343000Y-97240000D01*
X105260000Y-97280000D02*
X95354000Y-97280000D01*
X105260000Y-97320000D02*
X95365000Y-97320000D01*
X105260000Y-97360000D02*
X95376000Y-97360000D01*
X105260000Y-97400000D02*
X95387000Y-97400000D01*
X105260000Y-97440000D02*
X95398000Y-97440000D01*
X105260000Y-97480000D02*
X95409000Y-97480000D01*
X105260000Y-97520000D02*
X95421000Y-97520000D01*
X105260000Y-97560000D02*
X95433000Y-97560000D01*
X105260000Y-97600000D02*
X95444000Y-97600000D01*
X105260000Y-97640000D02*
X95456000Y-97640000D01*
X105260000Y-97680000D02*
X95468000Y-97680000D01*
X105260000Y-97720000D02*
X95481000Y-97720000D01*
X105260000Y-97760000D02*
X95493000Y-97760000D01*
X105260000Y-97800000D02*
X95506000Y-97800000D01*
X105260000Y-97840000D02*
X95518000Y-97840000D01*
X105260000Y-97880000D02*
X95531000Y-97880000D01*
X105260000Y-97920000D02*
X95544000Y-97920000D01*
X105260000Y-97960000D02*
X95557000Y-97960000D01*
X105260000Y-98000000D02*
X95571000Y-98000000D01*
X105260000Y-98040000D02*
X95584000Y-98040000D01*
X105260000Y-98080000D02*
X95598000Y-98080000D01*
X105260000Y-98120000D02*
X95611000Y-98120000D01*
X105260000Y-98160000D02*
X95625000Y-98160000D01*
X105260000Y-98200000D02*
X95639000Y-98200000D01*
X105260000Y-98240000D02*
X95654000Y-98240000D01*
X105260000Y-98280000D02*
X95668000Y-98280000D01*
X105260000Y-98320000D02*
X95682000Y-98320000D01*
X105260000Y-98360000D02*
X95697000Y-98360000D01*
X105260000Y-98400000D02*
X95712000Y-98400000D01*
X105260000Y-98440000D02*
X95727000Y-98440000D01*
X105260000Y-98480000D02*
X95742000Y-98480000D01*
X105260000Y-98520000D02*
X95757000Y-98520000D01*
X105260000Y-98560000D02*
X95773000Y-98560000D01*
X105260000Y-98600000D02*
X95788000Y-98600000D01*
X105260000Y-98640000D02*
X95804000Y-98640000D01*
X105260000Y-98680000D02*
X95820000Y-98680000D01*
X105260000Y-98720000D02*
X95836000Y-98720000D01*
X105260000Y-98760000D02*
X95852000Y-98760000D01*
X105260000Y-98800000D02*
X95868000Y-98800000D01*
X105260000Y-98840000D02*
X95885000Y-98840000D01*
X105260000Y-98880000D02*
X95902000Y-98880000D01*
X105260000Y-98920000D02*
X95919000Y-98920000D01*
X105260000Y-98960000D02*
X95936000Y-98960000D01*
X105260000Y-99000000D02*
X95953000Y-99000000D01*
X105260000Y-99040000D02*
X95970000Y-99040000D01*
X105260000Y-99080000D02*
X95988000Y-99080000D01*
X105260000Y-99120000D02*
X96005000Y-99120000D01*
X105260000Y-99160000D02*
X96023000Y-99160000D01*
X105260000Y-99200000D02*
X96041000Y-99200000D01*
X105260000Y-99240000D02*
X96059000Y-99240000D01*
X105260000Y-99280000D02*
X96078000Y-99280000D01*
X105260000Y-99320000D02*
X96096000Y-99320000D01*
X105260000Y-99360000D02*
X96115000Y-99360000D01*
X105260000Y-99400000D02*
X96134000Y-99400000D01*
X105260000Y-99440000D02*
X96153000Y-99440000D01*
X105260000Y-99480000D02*
X96172000Y-99480000D01*
X105260000Y-99520000D02*
X96191000Y-99520000D01*
X105260000Y-99560000D02*
X96211000Y-99560000D01*
X105260000Y-99600000D02*
X96231000Y-99600000D01*
X105260000Y-99640000D02*
X96250000Y-99640000D01*
X105260000Y-99680000D02*
X96270000Y-99680000D01*
X105260000Y-99720000D02*
X96291000Y-99720000D01*
X105260000Y-99760000D02*
X96311000Y-99760000D01*
X105260000Y-99800000D02*
X96332000Y-99800000D01*
X105260000Y-99840000D02*
X96353000Y-99840000D01*
X105260000Y-99880000D02*
X96374000Y-99880000D01*
X105260000Y-99920000D02*
X96395000Y-99920000D01*
X105260000Y-99960000D02*
X96416000Y-99960000D01*
X105260000Y-100000000D02*
X96438000Y-100000000D01*
X105260000Y-100040000D02*
X96459000Y-100040000D01*
X105260000Y-100080000D02*
X96481000Y-100080000D01*
X105260000Y-100120000D02*
X96503000Y-100120000D01*
X105260000Y-100160000D02*
X96526000Y-100160000D01*
X105260000Y-100200000D02*
X96548000Y-100200000D01*
X105260000Y-100240000D02*
X96571000Y-100240000D01*
X105260000Y-100280000D02*
X96593000Y-100280000D01*
X105260000Y-100320000D02*
X96617000Y-100320000D01*
X105260000Y-100360000D02*
X96640000Y-100360000D01*
X105260000Y-100400000D02*
X96663000Y-100400000D01*
X105260000Y-100440000D02*
X96687000Y-100440000D01*
X105260000Y-100480000D02*
X96711000Y-100480000D01*
X105260000Y-100520000D02*
X96735000Y-100520000D01*
X105260000Y-100560000D02*
X96759000Y-100560000D01*
X105260000Y-100600000D02*
X96783000Y-100600000D01*
X105260000Y-100640000D02*
X96808000Y-100640000D01*
X105260000Y-100680000D02*
X96833000Y-100680000D01*
X105260000Y-100720000D02*
X96858000Y-100720000D01*
X105260000Y-100760000D02*
X96883000Y-100760000D01*
X105260000Y-100800000D02*
X96909000Y-100800000D01*
X105260000Y-100840000D02*
X96934000Y-100840000D01*
X105260000Y-100880000D02*
X96960000Y-100880000D01*
X105260000Y-100920000D02*
X96986000Y-100920000D01*
X105260000Y-100960000D02*
X97013000Y-100960000D01*
X105260000Y-101000000D02*
X97039000Y-101000000D01*
X105260000Y-101040000D02*
X97066000Y-101040000D01*
X105260000Y-101080000D02*
X97093000Y-101080000D01*
X105260000Y-101120000D02*
X97120000Y-101120000D01*
X105260000Y-101160000D02*
X97148000Y-101160000D01*
X105260000Y-101200000D02*
X97175000Y-101200000D01*
X108170000Y-106600000D02*
X106830000Y-106600000D01*
X108689000Y-106560000D02*
X106311000Y-106560000D01*
X109046000Y-106520000D02*
X105954000Y-106520000D01*
X109335000Y-106480000D02*
X105665000Y-106480000D01*
X109584000Y-106440000D02*
X105416000Y-106440000D01*
X109806000Y-106400000D02*
X105194000Y-106400000D01*
X110008000Y-106360000D02*
X104992000Y-106360000D01*
X110195000Y-106320000D02*
X104805000Y-106320000D01*
X110370000Y-106280000D02*
X104630000Y-106280000D01*
X110534000Y-106240000D02*
X104466000Y-106240000D01*
X110689000Y-106200000D02*
X104311000Y-106200000D01*
X110836000Y-106160000D02*
X104164000Y-106160000D01*
X110977000Y-106120000D02*
X104023000Y-106120000D01*
X111112000Y-106080000D02*
X103888000Y-106080000D01*
X111242000Y-106040000D02*
X103758000Y-106040000D01*
X111367000Y-106000000D02*
X103633000Y-106000000D01*
X111488000Y-105960000D02*
X103512000Y-105960000D01*
X111605000Y-105920000D02*
X103395000Y-105920000D01*
X111718000Y-105880000D02*
X103282000Y-105880000D01*
X111828000Y-105840000D02*
X103172000Y-105840000D01*
X111935000Y-105800000D02*
X103065000Y-105800000D01*
X112039000Y-105760000D02*
X102961000Y-105760000D01*
X112140000Y-105720000D02*
X102860000Y-105720000D01*
X112239000Y-105680000D02*
X102761000Y-105680000D01*
X112336000Y-105640000D02*
X102664000Y-105640000D01*
X112430000Y-105600000D02*
X102570000Y-105600000D01*
X112523000Y-105560000D02*
X102477000Y-105560000D01*
X112613000Y-105520000D02*
X102387000Y-105520000D01*
X112702000Y-105480000D02*
X102298000Y-105480000D01*
X112788000Y-105440000D02*
X102212000Y-105440000D01*
X112873000Y-105400000D02*
X102127000Y-105400000D01*
X112957000Y-105360000D02*
X102043000Y-105360000D01*
X113039000Y-105320000D02*
X101961000Y-105320000D01*
X113119000Y-105280000D02*
X101881000Y-105280000D01*
X113198000Y-105240000D02*
X101802000Y-105240000D01*
X113276000Y-105200000D02*
X101724000Y-105200000D01*
X113352000Y-105160000D02*
X101648000Y-105160000D01*
X113427000Y-105120000D02*
X101573000Y-105120000D01*
X113501000Y-105080000D02*
X101499000Y-105080000D01*
X113574000Y-105040000D02*
X101426000Y-105040000D01*
X113646000Y-105000000D02*
X101354000Y-105000000D01*
X113716000Y-104960000D02*
X101284000Y-104960000D01*
X113786000Y-104920000D02*
X101214000Y-104920000D01*
X113855000Y-104880000D02*
X101145000Y-104880000D01*
X113922000Y-104840000D02*
X101078000Y-104840000D01*
X113989000Y-104800000D02*
X101011000Y-104800000D01*
X114054000Y-104760000D02*
X100946000Y-104760000D01*
X114119000Y-104720000D02*
X100881000Y-104720000D01*
X114183000Y-104680000D02*
X100817000Y-104680000D01*
X114246000Y-104640000D02*
X100754000Y-104640000D01*
X114309000Y-104600000D02*
X100691000Y-104600000D01*
X114370000Y-104560000D02*
X100630000Y-104560000D01*
X114431000Y-104520000D02*
X100569000Y-104520000D01*
X114491000Y-104480000D02*
X100509000Y-104480000D01*
X114550000Y-104440000D02*
X100450000Y-104440000D01*
X114575000Y-80495741D02*
X114575000Y-82995741D01*
X114609000Y-104400000D02*
X100391000Y-104400000D01*
X114667000Y-104360000D02*
X100333000Y-104360000D01*
X114724000Y-104320000D02*
X100276000Y-104320000D01*
X114780000Y-104280000D02*
X100220000Y-104280000D01*
X114836000Y-104240000D02*
X100164000Y-104240000D01*
X114891000Y-104200000D02*
X100109000Y-104200000D01*
X114946000Y-104160000D02*
X100054000Y-104160000D01*
X115000000Y-104120000D02*
X100000000Y-104120000D01*
X115053000Y-104080000D02*
X99947000Y-104080000D01*
X115106000Y-104040000D02*
X99894000Y-104040000D01*
X115158000Y-104000000D02*
X99842000Y-104000000D01*
X115210000Y-103960000D02*
X99790000Y-103960000D01*
X115261000Y-103920000D02*
X99739000Y-103920000D01*
X115312000Y-103880000D02*
X99688000Y-103880000D01*
X115362000Y-103840000D02*
X99638000Y-103840000D01*
X115411000Y-103800000D02*
X99589000Y-103800000D01*
X115460000Y-103760000D02*
X99540000Y-103760000D01*
X115509000Y-103720000D02*
X99491000Y-103720000D01*
X115557000Y-103680000D02*
X99443000Y-103680000D01*
X115605000Y-103640000D02*
X99395000Y-103640000D01*
X115652000Y-103600000D02*
X99348000Y-103600000D01*
X115698000Y-103560000D02*
X99302000Y-103560000D01*
X115745000Y-103520000D02*
X99255000Y-103520000D01*
X115790000Y-103480000D02*
X99210000Y-103480000D01*
X115825000Y-81745741D02*
X113325000Y-81745741D01*
X115836000Y-103440000D02*
X99164000Y-103440000D01*
X115880000Y-103400000D02*
X99120000Y-103400000D01*
X115925000Y-103360000D02*
X99075000Y-103360000D01*
X115969000Y-103320000D02*
X99031000Y-103320000D01*
X116013000Y-103280000D02*
X98987000Y-103280000D01*
X116056000Y-103240000D02*
X98944000Y-103240000D01*
X116099000Y-103200000D02*
X98901000Y-103200000D01*
X116141000Y-103160000D02*
X98859000Y-103160000D01*
X116183000Y-103120000D02*
X98817000Y-103120000D01*
X116225000Y-103080000D02*
X98775000Y-103080000D01*
X116266000Y-103040000D02*
X98734000Y-103040000D01*
X116307000Y-103000000D02*
X98693000Y-103000000D01*
X116347000Y-102960000D02*
X98653000Y-102960000D01*
X116387000Y-102920000D02*
X98613000Y-102920000D01*
X116427000Y-102880000D02*
X98573000Y-102880000D01*
X116467000Y-102840000D02*
X98533000Y-102840000D01*
X116506000Y-102800000D02*
X98494000Y-102800000D01*
X116544000Y-102760000D02*
X98456000Y-102760000D01*
X116583000Y-102720000D02*
X98417000Y-102720000D01*
X116621000Y-102680000D02*
X98379000Y-102680000D01*
X116659000Y-102640000D02*
X98341000Y-102640000D01*
X116696000Y-102600000D02*
X98304000Y-102600000D01*
X116733000Y-102560000D02*
X98267000Y-102560000D01*
X116770000Y-102520000D02*
X98230000Y-102520000D01*
X116806000Y-102480000D02*
X98194000Y-102480000D01*
X116842000Y-102440000D02*
X98158000Y-102440000D01*
X116878000Y-102400000D02*
X98122000Y-102400000D01*
X116914000Y-102360000D02*
X98086000Y-102360000D01*
X116949000Y-102320000D02*
X98051000Y-102320000D01*
X116984000Y-102280000D02*
X98016000Y-102280000D01*
X117019000Y-102240000D02*
X97981000Y-102240000D01*
X117053000Y-102200000D02*
X97947000Y-102200000D01*
X117087000Y-102160000D02*
X97913000Y-102160000D01*
X117121000Y-102120000D02*
X97879000Y-102120000D01*
X117154000Y-102080000D02*
X97846000Y-102080000D01*
X117187000Y-102040000D02*
X97813000Y-102040000D01*
X117220000Y-102000000D02*
X97780000Y-102000000D01*
X117253000Y-101960000D02*
X97747000Y-101960000D01*
X117285000Y-101920000D02*
X97715000Y-101920000D01*
X117317000Y-101880000D02*
X97683000Y-101880000D01*
X117349000Y-101840000D02*
X97651000Y-101840000D01*
X117381000Y-101800000D02*
X97619000Y-101800000D01*
X117412000Y-101760000D02*
X97588000Y-101760000D01*
X117443000Y-101720000D02*
X97557000Y-101720000D01*
X117474000Y-101680000D02*
X97526000Y-101680000D01*
X117505000Y-101640000D02*
X97495000Y-101640000D01*
X117535000Y-101600000D02*
X97465000Y-101600000D01*
X117565000Y-101560000D02*
X97435000Y-101560000D01*
X117595000Y-101520000D02*
X97405000Y-101520000D01*
X117624000Y-101480000D02*
X97376000Y-101480000D01*
X117654000Y-101440000D02*
X97346000Y-101440000D01*
X117683000Y-101400000D02*
X97317000Y-101400000D01*
X117712000Y-101360000D02*
X97288000Y-101360000D01*
X117740000Y-101320000D02*
X97260000Y-101320000D01*
X117769000Y-101280000D02*
X97231000Y-101280000D01*
X117797000Y-101240000D02*
X97203000Y-101240000D01*
X117825000Y-101200000D02*
X109740000Y-101200000D01*
X117852000Y-101160000D02*
X109740000Y-101160000D01*
X117880000Y-101120000D02*
X109740000Y-101120000D01*
X117907000Y-101080000D02*
X109740000Y-101080000D01*
X117934000Y-101040000D02*
X109740000Y-101040000D01*
X117961000Y-101000000D02*
X109740000Y-101000000D01*
X117987000Y-100960000D02*
X109740000Y-100960000D01*
X118014000Y-100920000D02*
X109740000Y-100920000D01*
X118040000Y-100880000D02*
X109740000Y-100880000D01*
X118066000Y-100840000D02*
X109740000Y-100840000D01*
X118091000Y-100800000D02*
X109740000Y-100800000D01*
X118117000Y-100760000D02*
X109740000Y-100760000D01*
X118142000Y-100720000D02*
X109740000Y-100720000D01*
X118167000Y-100680000D02*
X109740000Y-100680000D01*
X118192000Y-100640000D02*
X109740000Y-100640000D01*
X118217000Y-100600000D02*
X109740000Y-100600000D01*
X118241000Y-100560000D02*
X109740000Y-100560000D01*
X118265000Y-100520000D02*
X109740000Y-100520000D01*
X118289000Y-100480000D02*
X109740000Y-100480000D01*
X118313000Y-100440000D02*
X109740000Y-100440000D01*
X118337000Y-100400000D02*
X109740000Y-100400000D01*
X118360000Y-100360000D02*
X109740000Y-100360000D01*
X118383000Y-100320000D02*
X109740000Y-100320000D01*
X118407000Y-100280000D02*
X109740000Y-100280000D01*
X118429000Y-100240000D02*
X109740000Y-100240000D01*
X118452000Y-100200000D02*
X109740000Y-100200000D01*
X118474000Y-100160000D02*
X109740000Y-100160000D01*
X118497000Y-100120000D02*
X109740000Y-100120000D01*
X118519000Y-100080000D02*
X109740000Y-100080000D01*
X118541000Y-100040000D02*
X109740000Y-100040000D01*
X118562000Y-100000000D02*
X109740000Y-100000000D01*
X118584000Y-99960000D02*
X109740000Y-99960000D01*
X118605000Y-99920000D02*
X109740000Y-99920000D01*
X118626000Y-99880000D02*
X109740000Y-99880000D01*
X118647000Y-99840000D02*
X109740000Y-99840000D01*
X118668000Y-99800000D02*
X109740000Y-99800000D01*
X118689000Y-99760000D02*
X109740000Y-99760000D01*
X118709000Y-99720000D02*
X109740000Y-99720000D01*
X118730000Y-99680000D02*
X109740000Y-99680000D01*
X118750000Y-99640000D02*
X109740000Y-99640000D01*
X118769000Y-99600000D02*
X109740000Y-99600000D01*
X118789000Y-99560000D02*
X109740000Y-99560000D01*
X118809000Y-99520000D02*
X109740000Y-99520000D01*
X118828000Y-99480000D02*
X109740000Y-99480000D01*
X118847000Y-99440000D02*
X109740000Y-99440000D01*
X118866000Y-99400000D02*
X109740000Y-99400000D01*
X118885000Y-99360000D02*
X109740000Y-99360000D01*
X118904000Y-99320000D02*
X109740000Y-99320000D01*
X118922000Y-99280000D02*
X109740000Y-99280000D01*
X118941000Y-99240000D02*
X109740000Y-99240000D01*
X118959000Y-99200000D02*
X109740000Y-99200000D01*
X118977000Y-99160000D02*
X109740000Y-99160000D01*
X118995000Y-99120000D02*
X109740000Y-99120000D01*
X119012000Y-99080000D02*
X109740000Y-99080000D01*
X119030000Y-99040000D02*
X109740000Y-99040000D01*
X119047000Y-99000000D02*
X109740000Y-99000000D01*
X119064000Y-98960000D02*
X109740000Y-98960000D01*
X119081000Y-98920000D02*
X109740000Y-98920000D01*
X119098000Y-98880000D02*
X109740000Y-98880000D01*
X119115000Y-98840000D02*
X109740000Y-98840000D01*
X119132000Y-98800000D02*
X109740000Y-98800000D01*
X119148000Y-98760000D02*
X109740000Y-98760000D01*
X119164000Y-98720000D02*
X109740000Y-98720000D01*
X119180000Y-98680000D02*
X109740000Y-98680000D01*
X119196000Y-98640000D02*
X109740000Y-98640000D01*
X119212000Y-98600000D02*
X109740000Y-98600000D01*
X119227000Y-98560000D02*
X109740000Y-98560000D01*
X119243000Y-98520000D02*
X109740000Y-98520000D01*
X119258000Y-98480000D02*
X109740000Y-98480000D01*
X119273000Y-98440000D02*
X109740000Y-98440000D01*
X119288000Y-98400000D02*
X109740000Y-98400000D01*
X119303000Y-98360000D02*
X109740000Y-98360000D01*
X119318000Y-98320000D02*
X109740000Y-98320000D01*
X119332000Y-98280000D02*
X109740000Y-98280000D01*
X119346000Y-98240000D02*
X109740000Y-98240000D01*
X119361000Y-98200000D02*
X109740000Y-98200000D01*
X119375000Y-98160000D02*
X109740000Y-98160000D01*
X119389000Y-98120000D02*
X109740000Y-98120000D01*
X119402000Y-98080000D02*
X109740000Y-98080000D01*
X119416000Y-98040000D02*
X109740000Y-98040000D01*
X119429000Y-98000000D02*
X109740000Y-98000000D01*
X119443000Y-97960000D02*
X109740000Y-97960000D01*
X119456000Y-97920000D02*
X109740000Y-97920000D01*
X119469000Y-97880000D02*
X109740000Y-97880000D01*
X119482000Y-97840000D02*
X109740000Y-97840000D01*
X119494000Y-97800000D02*
X109740000Y-97800000D01*
X119507000Y-97760000D02*
X109740000Y-97760000D01*
X119519000Y-97720000D02*
X109740000Y-97720000D01*
X119532000Y-97680000D02*
X109740000Y-97680000D01*
X119544000Y-97640000D02*
X109740000Y-97640000D01*
X119556000Y-97600000D02*
X109740000Y-97600000D01*
X119567000Y-97560000D02*
X109740000Y-97560000D01*
X119579000Y-97520000D02*
X109740000Y-97520000D01*
X119591000Y-97480000D02*
X109740000Y-97480000D01*
X119602000Y-97440000D02*
X109740000Y-97440000D01*
X119613000Y-97400000D02*
X109740000Y-97400000D01*
X119624000Y-97360000D02*
X109740000Y-97360000D01*
X119635000Y-97320000D02*
X109740000Y-97320000D01*
X119646000Y-97280000D02*
X109740000Y-97280000D01*
X119657000Y-97240000D02*
X109740000Y-97240000D01*
X119668000Y-97200000D02*
X109740000Y-97200000D01*
X119678000Y-97160000D02*
X109740000Y-97160000D01*
X119688000Y-97120000D02*
X109740000Y-97120000D01*
X119698000Y-97080000D02*
X109740000Y-97080000D01*
X119708000Y-97040000D02*
X109740000Y-97040000D01*
X119718000Y-97000000D02*
X109740000Y-97000000D01*
X119728000Y-96960000D02*
X109740000Y-96960000D01*
X119738000Y-96920000D02*
X109740000Y-96920000D01*
X119747000Y-96880000D02*
X109740000Y-96880000D01*
X119756000Y-96840000D02*
X109740000Y-96840000D01*
X119765000Y-96800000D02*
X109740000Y-96800000D01*
X119774000Y-96760000D02*
X95226000Y-96760000D01*
X119783000Y-96720000D02*
X95217000Y-96720000D01*
X119792000Y-96680000D02*
X95208000Y-96680000D01*
X119801000Y-96640000D02*
X95199000Y-96640000D01*
X119809000Y-96600000D02*
X95191000Y-96600000D01*
X119818000Y-96560000D02*
X95182000Y-96560000D01*
X119826000Y-96520000D02*
X95174000Y-96520000D01*
X119834000Y-96480000D02*
X95166000Y-96480000D01*
X119842000Y-96440000D02*
X95158000Y-96440000D01*
X119850000Y-96400000D02*
X95150000Y-96400000D01*
X119857000Y-96360000D02*
X95143000Y-96360000D01*
X119865000Y-96320000D02*
X95135000Y-96320000D01*
X119872000Y-96280000D02*
X95128000Y-96280000D01*
X119880000Y-96240000D02*
X95120000Y-96240000D01*
X119887000Y-96200000D02*
X95113000Y-96200000D01*
X119894000Y-96160000D02*
X95106000Y-96160000D01*
X119901000Y-96120000D02*
X95099000Y-96120000D01*
X119907000Y-96080000D02*
X95093000Y-96080000D01*
X119914000Y-96040000D02*
X95086000Y-96040000D01*
X119921000Y-96000000D02*
X95079000Y-96000000D01*
X119927000Y-95960000D02*
X95073000Y-95960000D01*
X119933000Y-95920000D02*
X95067000Y-95920000D01*
X119939000Y-95880000D02*
X95061000Y-95880000D01*
X119945000Y-95840000D02*
X95055000Y-95840000D01*
X119951000Y-95800000D02*
X95049000Y-95800000D01*
X119957000Y-95760000D02*
X95043000Y-95760000D01*
X119962000Y-95720000D02*
X95038000Y-95720000D01*
X119968000Y-95680000D02*
X95032000Y-95680000D01*
X119973000Y-95640000D02*
X95027000Y-95640000D01*
X119978000Y-95600000D02*
X95022000Y-95600000D01*
X119983000Y-95560000D02*
X95017000Y-95560000D01*
X119988000Y-95520000D02*
X95012000Y-95520000D01*
X119993000Y-95480000D02*
X95007000Y-95480000D01*
X119998000Y-95440000D02*
X95002000Y-95440000D01*
X120002000Y-95400000D02*
X94998000Y-95400000D01*
X120007000Y-95360000D02*
X94993000Y-95360000D01*
X120011000Y-95320000D02*
X94989000Y-95320000D01*
X120015000Y-95280000D02*
X94985000Y-95280000D01*
X120019000Y-95240000D02*
X94981000Y-95240000D01*
X120023000Y-95200000D02*
X94977000Y-95200000D01*
X120027000Y-95160000D02*
X94973000Y-95160000D01*
X120030000Y-95120000D02*
X94970000Y-95120000D01*
X120034000Y-95080000D02*
X94966000Y-95080000D01*
X120037000Y-95040000D02*
X94963000Y-95040000D01*
X120040000Y-95000000D02*
X94960000Y-95000000D01*
X120043000Y-94960000D02*
X94957000Y-94960000D01*
X120046000Y-94920000D02*
X94954000Y-94920000D01*
X120049000Y-94880000D02*
X94951000Y-94880000D01*
X120052000Y-94840000D02*
X94948000Y-94840000D01*
X120055000Y-94800000D02*
X94945000Y-94800000D01*
X120057000Y-94760000D02*
X94943000Y-94760000D01*
X120059000Y-94720000D02*
X94941000Y-94720000D01*
X120062000Y-94680000D02*
X94938000Y-94680000D01*
X120064000Y-94640000D02*
X94936000Y-94640000D01*
X120066000Y-94600000D02*
X94934000Y-94600000D01*
X120068000Y-94560000D02*
X94932000Y-94560000D01*
X120069000Y-94520000D02*
X94931000Y-94520000D01*
X120071000Y-94480000D02*
X94929000Y-94480000D01*
X120072000Y-94440000D02*
X94928000Y-94440000D01*
X120074000Y-94400000D02*
X94926000Y-94400000D01*
X120075000Y-94360000D02*
X94925000Y-94360000D01*
X120076000Y-94320000D02*
X94924000Y-94320000D01*
X120077000Y-94280000D02*
X94923000Y-94280000D01*
X120078000Y-94200000D02*
X94922000Y-94200000D01*
X120078000Y-94240000D02*
X94922000Y-94240000D01*
X120079000Y-94120000D02*
X94921000Y-94120000D01*
X120079000Y-94160000D02*
X94921000Y-94160000D01*
X120080000Y-94000000D02*
X94920000Y-94000000D01*
X120080000Y-94040000D02*
X94920000Y-94040000D01*
X120080000Y-94080000D02*
X94920000Y-94080000D01*
X120120000Y-94000000D02*
G75*
G02*
X94880000Y-94000000I-12620000J0D01*
G01*
X94880000Y-94000000D02*
G75*
G02*
X120120000Y-94000000I12620000J0D01*
G01*
X105380000Y-55630000D02*
X105380000Y-58370000D01*
X105380000Y-55630000D02*
X110620000Y-55630000D01*
X105380000Y-58370000D02*
X110620000Y-58370000D01*
X110620000Y-55630000D02*
X110620000Y-58370000D01*
M02*
