G04 #@! TF.GenerationSoftware,KiCad,Pcbnew,9.0.3*
G04 #@! TF.CreationDate,2025-08-02T15:40:20-06:00*
G04 #@! TF.ProjectId,MMS_SSTC,4d4d535f-5353-4544-932e-6b696361645f,1.0.0*
G04 #@! TF.SameCoordinates,Original*
G04 #@! TF.FileFunction,Soldermask,Bot*
G04 #@! TF.FilePolarity,Negative*
%FSLAX46Y46*%
G04 Gerber Fmt 4.6, Leading zero omitted, Abs format (unit mm)*
G04 Created by KiCad (PCBNEW 9.0.3) date 2025-08-02 15:40:20*
%MOMM*%
%LPD*%
G01*
G04 APERTURE LIST*
G04 Aperture macros list*
%AMRoundRect*
0 Rectangle with rounded corners*
0 $1 Rounding radius*
0 $2 $3 $4 $5 $6 $7 $8 $9 X,Y pos of 4 corners*
0 Add a 4 corners polygon primitive as box body*
4,1,4,$2,$3,$4,$5,$6,$7,$8,$9,$2,$3,0*
0 Add four circle primitives for the rounded corners*
1,1,$1+$1,$2,$3*
1,1,$1+$1,$4,$5*
1,1,$1+$1,$6,$7*
1,1,$1+$1,$8,$9*
0 Add four rect primitives between the rounded corners*
20,1,$1+$1,$2,$3,$4,$5,0*
20,1,$1+$1,$4,$5,$6,$7,0*
20,1,$1+$1,$6,$7,$8,$9,0*
20,1,$1+$1,$8,$9,$2,$3,0*%
G04 Aperture macros list end*
%ADD10R,1.800000X1.800000*%
%ADD11C,1.800000*%
%ADD12C,2.400000*%
%ADD13C,3.200000*%
%ADD14C,2.200000*%
%ADD15R,2.200000X2.200000*%
%ADD16R,4.500000X2.500000*%
%ADD17O,4.500000X2.500000*%
%ADD18C,1.600000*%
%ADD19RoundRect,0.250000X0.550000X-0.550000X0.550000X0.550000X-0.550000X0.550000X-0.550000X-0.550000X0*%
%ADD20C,1.400000*%
%ADD21C,2.154000*%
%ADD22C,1.440000*%
%ADD23RoundRect,0.250000X-0.550000X-0.550000X0.550000X-0.550000X0.550000X0.550000X-0.550000X0.550000X0*%
%ADD24R,1.905000X2.000000*%
%ADD25O,1.905000X2.000000*%
%ADD26R,1.600000X1.600000*%
%ADD27O,1.600000X1.600000*%
%ADD28C,2.000000*%
%ADD29RoundRect,0.250001X0.949999X-0.949999X0.949999X0.949999X-0.949999X0.949999X-0.949999X-0.949999X0*%
%ADD30R,3.200000X3.200000*%
%ADD31RoundRect,0.250000X1.750000X-1.750000X1.750000X1.750000X-1.750000X1.750000X-1.750000X-1.750000X0*%
%ADD32C,4.000000*%
%ADD33RoundRect,0.250000X-0.550000X0.550000X-0.550000X-0.550000X0.550000X-0.550000X0.550000X0.550000X0*%
G04 APERTURE END LIST*
D10*
X120480000Y-138165000D03*
D11*
X123020000Y-138165000D03*
D12*
X136140000Y-138000000D03*
X131060000Y-138000000D03*
D13*
X94000000Y-141000000D03*
X171000000Y-141000000D03*
D14*
X115500000Y-99000000D03*
X115500000Y-89000000D03*
X95500000Y-104000000D03*
D15*
X95500000Y-84000000D03*
D12*
X97000000Y-122650000D03*
X97000000Y-135350000D03*
D16*
X172100000Y-91350000D03*
D17*
X172100000Y-96800000D03*
X172100000Y-102250000D03*
D18*
X128235000Y-99700000D03*
X130735000Y-99700000D03*
X168800000Y-76500000D03*
X168800000Y-79000000D03*
D13*
X94000000Y-64000000D03*
D19*
X149920000Y-73770000D03*
D18*
X152460000Y-73770000D03*
X155000000Y-73770000D03*
X157540000Y-73770000D03*
X160080000Y-73770000D03*
X162620000Y-73770000D03*
X165160000Y-73770000D03*
X165160000Y-66150000D03*
X162620000Y-66150000D03*
X160080000Y-66150000D03*
X157540000Y-66150000D03*
X155000000Y-66150000D03*
X152460000Y-66150000D03*
X149920000Y-66150000D03*
X134000000Y-70050000D03*
X136500000Y-70050000D03*
D20*
X143000000Y-97580000D03*
X143000000Y-92500000D03*
D21*
X151450000Y-132600000D03*
X156450000Y-132600000D03*
X161450000Y-132600000D03*
D20*
X169060000Y-86790000D03*
X169060000Y-81710000D03*
D18*
X128950000Y-80800000D03*
X131450000Y-80800000D03*
D22*
X145400000Y-70700000D03*
X145400000Y-68160000D03*
X145400000Y-65620000D03*
D12*
X170400000Y-115200000D03*
X157700000Y-115200000D03*
D18*
X134000000Y-80800000D03*
X136500000Y-80800000D03*
X149750000Y-78020000D03*
X144750000Y-78020000D03*
D20*
X139605000Y-97580000D03*
X139605000Y-92500000D03*
D23*
X157940000Y-78940000D03*
D18*
X157940000Y-81480000D03*
X157940000Y-84020000D03*
X157940000Y-86560000D03*
X165560000Y-86560000D03*
X165560000Y-84020000D03*
X165560000Y-81480000D03*
X165560000Y-78940000D03*
D24*
X128960000Y-77700000D03*
D25*
X131500000Y-77700000D03*
X134040000Y-77700000D03*
D24*
X128930000Y-67000000D03*
D25*
X131470000Y-67000000D03*
X134010000Y-67000000D03*
D26*
X105335000Y-65890000D03*
D27*
X100255000Y-65890000D03*
X100255000Y-73510000D03*
X105335000Y-73510000D03*
D21*
X103740000Y-132600000D03*
X108740000Y-132600000D03*
X113740000Y-132600000D03*
D12*
X157700000Y-109200000D03*
X170400000Y-109200000D03*
D28*
X164050000Y-102700000D03*
X164050000Y-92700000D03*
D12*
X156800000Y-104050000D03*
X156800000Y-91350000D03*
D13*
X171000000Y-64000000D03*
D18*
X128950000Y-70050000D03*
X131450000Y-70050000D03*
D29*
X116000000Y-72073959D03*
D12*
X116000000Y-67073959D03*
X154580000Y-123250000D03*
X169580000Y-123250000D03*
D30*
X98670000Y-116500000D03*
D13*
X103750000Y-116500000D03*
X108830000Y-116500000D03*
X113910000Y-116500000D03*
D31*
X136000000Y-122000000D03*
D32*
X136000000Y-112000000D03*
D18*
X152285000Y-63100000D03*
X149785000Y-63100000D03*
X128500000Y-86000000D03*
X131000000Y-86000000D03*
D33*
X136105000Y-89000000D03*
D18*
X133565000Y-89000000D03*
X131025000Y-89000000D03*
X128485000Y-89000000D03*
X128485000Y-96620000D03*
X131025000Y-96620000D03*
X133565000Y-96620000D03*
X136105000Y-96620000D03*
X139815000Y-88750000D03*
X144815000Y-88750000D03*
D19*
X146500000Y-100060000D03*
D18*
X146500000Y-92440000D03*
D20*
X123000000Y-134140000D03*
X123000000Y-129060000D03*
M02*
