M48
; DRILL file {KiCad 9.0.3} date 2025-08-02T15:40:29-0600
; FORMAT={-:-/ absolute / metric / decimal}
; #@! TF.CreationDate,2025-08-02T15:40:29-06:00
; #@! TF.GenerationSoftware,Kicad,Pcbnew,9.0.3
; #@! TF.FileFunction,Plated,1,2,PTH
FMAT,2
METRIC
; #@! TA.AperFunction,Plated,PTH,ComponentDrill
T1C0.700
; #@! TA.AperFunction,Plated,PTH,ComponentDrill
T2C0.800
; #@! TA.AperFunction,Plated,PTH,ComponentDrill
T3C0.900
; #@! TA.AperFunction,Plated,PTH,ComponentDrill
T4C1.000
; #@! TA.AperFunction,Plated,PTH,ComponentDrill
T5C1.100
; #@! TA.AperFunction,Plated,PTH,ComponentDrill
T6C1.200
; #@! TA.AperFunction,Plated,PTH,ComponentDrill
T7C1.300
; #@! TA.AperFunction,Plated,PTH,ComponentDrill
T8C1.500
; #@! TA.AperFunction,Plated,PTH,ComponentDrill
T9C1.600
; #@! TA.AperFunction,Plated,PTH,ComponentDrill
T10C2.000
%
G90
G05
T1
X123.0Y-129.06
X123.0Y-134.14
X139.605Y-92.5
X139.605Y-97.58
X143.0Y-92.5
X143.0Y-97.58
X169.06Y-81.71
X169.06Y-86.79
T2
X100.255Y-65.89
X100.255Y-73.51
X105.335Y-65.89
X105.335Y-73.51
X128.235Y-99.7
X128.485Y-89.0
X128.485Y-96.62
X128.5Y-86.0
X128.95Y-70.05
X128.95Y-80.8
X130.735Y-99.7
X131.0Y-86.0
X131.025Y-89.0
X131.025Y-96.62
X131.45Y-70.05
X131.45Y-80.8
X133.565Y-89.0
X133.565Y-96.62
X134.0Y-70.05
X134.0Y-80.8
X136.105Y-89.0
X136.105Y-96.62
X136.5Y-70.05
X136.5Y-80.8
X139.815Y-88.75
X144.75Y-78.02
X144.815Y-88.75
X145.4Y-65.62
X145.4Y-68.16
X145.4Y-70.7
X146.5Y-92.44
X146.5Y-100.06
X149.75Y-78.02
X149.785Y-63.1
X149.92Y-66.15
X149.92Y-73.77
X152.285Y-63.1
X152.46Y-66.15
X152.46Y-73.77
X155.0Y-66.15
X155.0Y-73.77
X157.54Y-66.15
X157.54Y-73.77
X157.94Y-78.94
X157.94Y-81.48
X157.94Y-84.02
X157.94Y-86.56
X160.08Y-66.15
X160.08Y-73.77
X162.62Y-66.15
X162.62Y-73.77
X165.16Y-66.15
X165.16Y-73.77
X165.56Y-78.94
X165.56Y-81.48
X165.56Y-84.02
X165.56Y-86.56
X168.8Y-76.5
X168.8Y-79.0
T3
X120.48Y-138.165
X123.02Y-138.165
T4
X164.05Y-92.7
X164.05Y-102.7
T5
X128.93Y-67.0
X128.96Y-77.7
X131.47Y-67.0
X131.5Y-77.7
X134.01Y-67.0
X134.04Y-77.7
T6
X95.5Y-84.0
X95.5Y-104.0
X97.0Y-122.65
X97.0Y-135.35
X115.5Y-89.0
X115.5Y-99.0
X116.0Y-67.074
X116.0Y-72.074
X131.06Y-138.0
X136.14Y-138.0
X154.58Y-123.25
X156.8Y-91.35
X156.8Y-104.05
X157.7Y-109.2
X157.7Y-115.2
X169.58Y-123.25
X170.4Y-109.2
X170.4Y-115.2
T7
X103.74Y-132.6
X108.74Y-132.6
X113.74Y-132.6
X151.45Y-132.6
X156.45Y-132.6
X161.45Y-132.6
T8
X172.1Y-91.35
X172.1Y-96.8
X172.1Y-102.25
T9
X98.67Y-116.5
X103.75Y-116.5
X108.83Y-116.5
X113.91Y-116.5
T10
X136.0Y-112.0
X136.0Y-122.0
M30
