<?xml version="1.0" encoding="UTF-8" standalone="no"?>
<svg
   width="2000"
   height="2000"
   viewBox="0 0 400 400"
   fill="none"
   version="1.1"
   id="svg1398"
   sodipodi:docname="MMS Logo Lineart V1.7.0.svg"
   inkscape:version="1.1.2 (0a00cf5339, 2022-02-04)"
   xmlns:inkscape="http://www.inkscape.org/namespaces/inkscape"
   xmlns:sodipodi="http://sodipodi.sourceforge.net/DTD/sodipodi-0.dtd"
   xmlns="http://www.w3.org/2000/svg"
   xmlns:svg="http://www.w3.org/2000/svg">
  <defs
     id="defs1402" />
  <sodipodi:namedview
     id="namedview1400"
     pagecolor="#ffffff"
     bordercolor="#666666"
     borderopacity="1.0"
     inkscape:pageshadow="2"
     inkscape:pageopacity="0.0"
     inkscape:pagecheckerboard="0"
     showgrid="false"
     inkscape:zoom="0.31678384"
     inkscape:cx="1188.5076"
     inkscape:cy="1174.3023"
     inkscape:window-width="1920"
     inkscape:window-height="1127"
     inkscape:window-x="0"
     inkscape:window-y="0"
     inkscape:window-maximized="1"
     inkscape:current-layer="svg1398" />
  <g
     id="g74592">
    <path
       style="color:#000000;fill:#000000;stroke-linecap:round;stroke-linejoin:round;-inkscape-stroke:none;stroke:none;stroke-opacity:1"
       d="m 200,97.605469 c -41.40967,0 -78.75842,24.952301 -94.60547,63.208981 -15.84708,38.25676 -7.083998,82.31249 22.19727,111.59375 l 26.10937,26.10938 c 5.69833,5.69833 8.89844,13.42377 8.89844,21.48242 A 2.4002401,2.4002401 0 0 0 165,322.40039 h 70 A 2.4002401,2.4002401 0 0 0 237.40039,320 c 0,-8.05865 3.20011,-15.78409 8.89844,-21.48242 L 272.4082,272.4082 C 301.68947,243.12694 310.45255,199.07121 294.60547,160.81445 278.75842,122.55777 241.40967,97.605469 200,97.605469 Z m 0,4.798831 c 39.48226,0 75.06061,23.77039 90.16992,60.24609 15.10935,36.47578 6.76197,78.44507 -21.15625,106.36328 l -26.10937,26.10938 c -6.02298,6.02297 -9.48287,14.03278 -10.06641,22.47656 h -65.67578 c -0.58354,-8.44378 -4.04343,-16.45359 -10.06641,-22.47656 L 130.98633,269.01367 C 103.06811,241.09546 94.720732,199.12617 109.83008,162.65039 124.93939,126.17469 160.51774,102.4043 200,102.4043 Z"
       id="path1372" />
    <path
       style="color:#000000;fill:#000000;stroke-linecap:round;stroke-linejoin:round;-inkscape-stroke:none;stroke:none;stroke-opacity:1"
       d="M 160,327.59961 A 2.4000001,2.4000001 0 0 0 157.59961,330 2.4000001,2.4000001 0 0 0 160,332.40039 h 80 A 2.4000001,2.4000001 0 0 0 242.40039,330 2.4000001,2.4000001 0 0 0 240,327.59961 Z"
       id="line1374" />
    <path
       style="color:#000000;fill:#000000;stroke-linecap:round;stroke-linejoin:round;-inkscape-stroke:none;stroke:none;stroke-opacity:1"
       d="M 160,337.59961 A 2.4000001,2.4000001 0 0 0 157.59961,340 2.4000001,2.4000001 0 0 0 160,342.40039 h 80 A 2.4000001,2.4000001 0 0 0 242.40039,340 2.4000001,2.4000001 0 0 0 240,337.59961 Z"
       id="line1376" />
    <path
       style="color:#000000;fill:#000000;stroke-linecap:round;stroke-linejoin:round;-inkscape-stroke:none;stroke:none;stroke-opacity:1"
       d="M 165,347.59961 A 2.4002401,2.4002401 0 0 0 162.59961,350 v 10 A 2.4002401,2.4002401 0 0 0 165,362.40039 h 7.59961 V 365 A 2.4002401,2.4002401 0 0 0 175,367.40039 h 50 A 2.4002401,2.4002401 0 0 0 227.40039,365 v -2.59961 H 235 A 2.4002401,2.4002401 0 0 0 237.40039,360 V 350 A 2.4002401,2.4002401 0 0 0 235,347.59961 Z m 2.40039,4.80078 h 65.19922 v 5.19922 H 225 A 2.4002401,2.4002401 0 0 0 222.59961,360 v 2.59961 H 177.40039 V 360 A 2.4002401,2.4002401 0 0 0 175,357.59961 h -7.59961 z"
       id="path1378" />
    <path
       id="path1382"
       style="color:#000000;fill:#000000;stroke:none;stroke-width:5;stroke-linecap:round;stroke-linejoin:round;stroke-opacity:1;-inkscape-stroke:none"
       d="M 1225 952.99805 C 1203.3281 952.99805 1184.9236 967.93154 1179.5723 987.99805 L 1000 987.99805 A 12.000001 12.000001 0 0 0 987.99805 1000 A 12.000001 12.000001 0 0 0 1000 1012.002 L 1179.5723 1012.002 C 1184.9236 1032.0685 1203.3281 1047.002 1225 1047.002 C 1250.8152 1047.002 1272.002 1025.8152 1272.002 1000 C 1272.002 974.1848 1250.8152 952.99805 1225 952.99805 z M 1225 977.00195 C 1237.8447 977.00195 1247.998 987.15535 1247.998 1000 C 1247.998 1012.8447 1237.8447 1022.998 1225 1022.998 C 1212.1553 1022.998 1202.002 1012.8446 1202.002 1000 C 1202.002 987.15535 1212.1553 977.00195 1225 977.00195 z "
       transform="scale(0.2)" />
    <path
       id="circle1388"
       style="color:#000000;fill:#000000;stroke:none;stroke-width:5;stroke-opacity:1;-inkscape-stroke:none"
       d="M 1300 802.99805 C 1278.3281 802.99805 1259.9236 817.93154 1254.5723 837.99805 L 1200 837.99805 A 12.0012 12.0012 0 0 0 1191.5137 841.51367 L 1145.0293 887.99805 L 1000 887.99805 C 938.28625 887.99805 887.99805 938.2863 887.99805 1000 C 887.99805 1061.7137 938.28625 1112.002 1000 1112.002 L 1145.0293 1112.002 L 1191.5137 1158.4863 A 12.0012 12.0012 0 0 0 1200 1162.002 L 1254.5723 1162.002 C 1259.9236 1182.0685 1278.3281 1197.002 1300 1197.002 C 1325.8152 1197.002 1347.002 1175.8152 1347.002 1150 C 1347.002 1124.1848 1325.8152 1102.998 1300 1102.998 C 1278.3281 1102.998 1259.9236 1117.9315 1254.5723 1137.998 L 1204.9707 1137.998 L 1158.4863 1091.5137 A 12.0012 12.0012 0 0 0 1150 1087.998 L 1000 1087.998 C 951.2568 1087.998 912.00195 1048.7432 912.00195 1000 C 912.00195 951.25685 951.2568 912.00195 1000 912.00195 L 1150 912.00195 A 12.0012 12.0012 0 0 0 1158.4863 908.48633 L 1204.9707 862.00195 L 1254.5723 862.00195 C 1259.9236 882.06846 1278.3281 897.00195 1300 897.00195 C 1325.8152 897.00195 1347.002 875.8152 1347.002 850 C 1347.002 824.1848 1325.8152 802.99805 1300 802.99805 z M 1300 827.00195 C 1312.8447 827.00195 1322.998 837.15535 1322.998 850 C 1322.998 862.84465 1312.8446 872.99805 1300 872.99805 C 1287.1553 872.99805 1277.002 862.84465 1277.002 850 C 1277.002 837.15535 1287.1553 827.00195 1300 827.00195 z M 1300 1127.002 C 1312.8447 1127.002 1322.998 1137.1554 1322.998 1150 C 1322.998 1162.8446 1312.8446 1172.998 1300 1172.998 C 1287.1553 1172.998 1277.002 1162.8446 1277.002 1150 C 1277.002 1137.1553 1287.1553 1127.002 1300 1127.002 z "
       transform="scale(0.2)" />
    <path
       id="circle1394"
       style="color:#000000;fill:#000000;stroke:none;stroke-width:5;stroke-opacity:1;-inkscape-stroke:none"
       d="M 1175 677.99805 C 1149.1848 677.99805 1127.998 699.1848 1127.998 725 C 1127.998 733.58366 1130.3517 741.64809 1134.4277 748.59961 L 1095.0293 787.99805 L 1000 787.99805 C 883.0578 787.99805 787.99805 883.0579 787.99805 1000 C 787.99805 1116.9421 883.0578 1212.002 1000 1212.002 L 1095.0293 1212.002 L 1134.4277 1251.4004 C 1130.3517 1258.3519 1127.998 1266.4163 1127.998 1275 C 1127.998 1300.8152 1149.1848 1322.002 1175 1322.002 C 1200.8152 1322.002 1222.002 1300.8152 1222.002 1275 C 1222.002 1249.1848 1200.8152 1227.998 1175 1227.998 C 1166.4163 1227.998 1158.3519 1230.3517 1151.4004 1234.4277 L 1108.4863 1191.5137 A 12.0012 12.0012 0 0 0 1100 1187.998 L 1000 1187.998 C 896.02835 1187.998 812.00195 1103.9716 812.00195 1000 C 812.00195 896.02845 896.02835 812.00195 1000 812.00195 L 1100 812.00195 A 12.0012 12.0012 0 0 0 1108.4863 808.48633 L 1151.4004 765.57227 C 1158.3519 769.64833 1166.4163 772.00195 1175 772.00195 C 1200.8152 772.00195 1222.002 750.8152 1222.002 725 C 1222.002 699.1848 1200.8152 677.99805 1175 677.99805 z M 1175 702.00195 C 1187.8447 702.00195 1197.998 712.15535 1197.998 725 C 1197.998 737.84465 1187.8447 747.99805 1175 747.99805 C 1168.8649 747.99805 1163.3596 745.66529 1159.2656 741.8457 A 12.000001 12.000001 0 0 0 1158.7402 741.25977 A 12.000001 12.000001 0 0 0 1158.3848 740.98828 C 1154.425 736.87051 1152.002 731.26027 1152.002 725 C 1152.002 712.15535 1162.1553 702.00195 1175 702.00195 z M 1175 1252.002 C 1187.8447 1252.002 1197.998 1262.1554 1197.998 1275 C 1197.998 1287.8446 1187.8447 1297.998 1175 1297.998 C 1162.1553 1297.998 1152.002 1287.8447 1152.002 1275 C 1152.002 1268.7191 1154.4407 1263.0921 1158.4238 1258.9707 A 12.000001 12.000001 0 0 0 1158.7402 1258.7402 A 12.000001 12.000001 0 0 0 1159.2656 1258.1543 C 1163.3596 1254.3347 1168.8649 1252.002 1175 1252.002 z "
       transform="scale(0.2)" />
    <path
       style="color:#000000;fill:#000000;stroke-linecap:round;stroke-linejoin:round;-inkscape-stroke:none;stroke:none;stroke-opacity:1"
       d="m 193,124.59961 a 2.4002401,2.4002401 0 0 0 -2.09961,1.23828 l -3.08594,5.58008 -11.55273,3.09375 -5.46094,-3.28711 a 2.4002401,2.4002401 0 0 0 -2.43945,-0.0234 l -12.12305,7 a 2.4002401,2.4002401 0 0 0 -1.19922,2.12305 l 0.11524,6.375 -8.45508,8.45508 -6.375,-0.11524 a 2.4002401,2.4002401 0 0 0 -2.12305,1.19922 l -7,12.12305 a 2.4002401,2.4002401 0 0 0 0.0234,2.43945 l 3.28711,5.46094 -3.09375,11.55273 -5.58008,3.08594 A 2.4002401,2.4002401 0 0 0 124.59961,193 v 14 a 2.4002401,2.4002401 0 0 0 1.23828,2.09961 l 5.58008,3.08594 3.09375,11.55273 -3.28711,5.46094 a 2.4002401,2.4002401 0 0 0 -0.0234,2.43945 l 7,12.12305 a 2.4002401,2.4002401 0 0 0 2.12305,1.19922 l 6.375,-0.11524 8.45508,8.45508 -0.11524,6.375 a 2.4002401,2.4002401 0 0 0 1.19922,2.12305 l 12.12305,7 a 2.4002401,2.4002401 0 0 0 2.43945,-0.0234 l 5.46094,-3.28711 11.55273,3.09375 3.08594,5.58008 A 2.4002401,2.4002401 0 0 0 193,275.40039 h 14 a 2.4002401,2.4002401 0 0 0 2.09961,-1.23828 l 3.08594,-5.58008 5.77734,-1.54687 a 2.4000001,2.4000001 0 0 0 1.69531,-2.93946 2.4000001,2.4000001 0 0 0 -2.93945,-1.69726 l -6.75977,1.8125 a 2.4002401,2.4002401 0 0 0 -1.48046,1.15625 l -2.89454,5.23242 h -11.16796 l -2.89454,-5.23242 a 2.4002401,2.4002401 0 0 0 -1.48046,-1.15625 l -13.52149,-3.62305 a 2.4002401,2.4002401 0 0 0 -1.85937,0.26172 l -5.12305,3.08398 -9.67383,-5.58398 0.10938,-5.98047 a 2.4002401,2.4002401 0 0 0 -0.70118,-1.74023 l -9.90039,-9.90039 a 2.4002401,2.4002401 0 0 0 -1.74023,-0.70118 l -5.98047,0.10938 -5.58398,-9.67383 3.08398,-5.12305 a 2.4002401,2.4002401 0 0 0 0.26172,-1.85937 l -3.62305,-13.52149 a 2.4002401,2.4002401 0 0 0 -1.15625,-1.48046 l -5.23242,-2.89454 v -11.16796 l 5.23242,-2.89454 a 2.4002401,2.4002401 0 0 0 1.15625,-1.48046 l 3.62305,-13.52149 a 2.4002401,2.4002401 0 0 0 -0.26172,-1.85937 l -3.08398,-5.12305 5.58398,-9.67383 5.98047,0.10938 a 2.4002401,2.4002401 0 0 0 1.74023,-0.70118 l 9.90039,-9.90039 a 2.4002401,2.4002401 0 0 0 0.70118,-1.74023 l -0.10938,-5.98047 9.67383,-5.58398 5.12305,3.08398 a 2.4002401,2.4002401 0 0 0 1.85937,0.26172 l 13.52149,-3.62305 a 2.4002401,2.4002401 0 0 0 1.48046,-1.15625 l 2.89454,-5.23242 h 11.16796 l 2.89454,5.23242 a 2.4002401,2.4002401 0 0 0 1.48046,1.15625 l 6.75977,1.8125 a 2.4000001,2.4000001 0 0 0 2.93945,-1.69726 2.4000001,2.4000001 0 0 0 -1.69531,-2.93946 l -5.77734,-1.54687 -3.08594,-5.58008 A 2.4002401,2.4002401 0 0 0 207,124.59961 Z"
       id="polyline1396" />
  </g>
</svg>
