<?xml version="1.0" encoding="UTF-8" standalone="no"?>
<!-- Created with Inkscape (http://www.inkscape.org/) -->

<svg
   width="243.49402mm"
   height="327.69855mm"
   viewBox="0 0 243.49404 327.69856"
   version="1.1"
   id="svg5"
   inkscape:version="1.1.2 (0a00cf5339, 2022-02-04)"
   sodipodi:docname="Decal.svg"
   xmlns:inkscape="http://www.inkscape.org/namespaces/inkscape"
   xmlns:sodipodi="http://sodipodi.sourceforge.net/DTD/sodipodi-0.dtd"
   xmlns="http://www.w3.org/2000/svg"
   xmlns:svg="http://www.w3.org/2000/svg">
  <sodipodi:namedview
     id="namedview7"
     pagecolor="#ffffff"
     bordercolor="#666666"
     borderopacity="1.0"
     inkscape:pageshadow="2"
     inkscape:pageopacity="0.0"
     inkscape:pagecheckerboard="0"
     inkscape:document-units="mm"
     showgrid="false"
     units="mm"
     width="273mm"
     inkscape:zoom="0.46299721"
     inkscape:cx="210.58442"
     inkscape:cy="555.07894"
     inkscape:window-width="1920"
     inkscape:window-height="1127"
     inkscape:window-x="0"
     inkscape:window-y="0"
     inkscape:window-maximized="1"
     inkscape:current-layer="layer1"
     inkscape:snap-center="true"
     fit-margin-top="1"
     fit-margin-left="1"
     fit-margin-right="1"
     fit-margin-bottom="1" />
  <defs
     id="defs2">
    <rect
       x="451.40662"
       y="1719.2328"
       width="1151.1949"
       height="172.78722"
       id="rect9868" />
    <rect
       x="959.64258"
       y="161.77267"
       width="1073.4406"
       height="146.86914"
       id="rect12679" />
    <rect
       x="200.86514"
       y="79.914085"
       width="1373.6584"
       height="431.96805"
       id="rect3535" />
    <inkscape:path-effect
       effect="fill_between_many"
       method="originald"
       linkedpaths="#g869,0,1"
       id="path-effect62762"
       is_visible="true"
       lpeversion="0"
       join="true"
       close="true"
       autoreverse="true"
       applied="false" />
  </defs>
  <g
     inkscape:label="Layer 1"
     inkscape:groupmode="layer"
     id="layer1"
     transform="translate(-13.25299,-51.216092)">
    <g
       id="g78825"
       transform="matrix(0.83333308,0,0,0.83333308,-257.34174,59.862332)"
       style="vector-effect:non-scaling-stroke;stroke:#ff00ff;stroke-width:0.00264583;stroke-miterlimit:4;stroke-dasharray:none;stroke-opacity:1;-inkscape-stroke:hairline">
      <path
         id="path63394"
         style="color:#000000;vector-effect:non-scaling-stroke;fill:#2962fc;fill-opacity:1;stroke:#ff00ff;stroke-width:0.00264583;stroke-linecap:round;stroke-linejoin:round;stroke-miterlimit:4;stroke-dasharray:none;stroke-opacity:1;-inkscape-stroke:hairline"
         d="m 470.81023,-9.1754912 c -46.78245,0 -88.97714,28.1897412 -106.8803,71.4101152 -17.90319,43.220456 -8.00288,92.992506 25.07754,126.072926 l 29.49691,29.49692 c 6.43767,6.43765 10.05262,15.1656 10.05262,24.26983 a 2.7116641,2.7116641 0 0 0 2.71197,2.71145 h 79.08252 a 2.7116641,2.7116641 0 0 0 2.71146,-2.71145 c 0,-9.10423 3.61546,-17.83218 10.05313,-24.26983 l 29.49691,-29.49692 C 585.69342,155.22713 595.59372,105.45508 577.69053,62.234624 559.78737,19.01425 517.59268,-9.1754912 470.81023,-9.1754912 Z" />
      <path
         style="color:#000000;vector-effect:non-scaling-stroke;fill:#2962fc;fill-opacity:1;stroke:#ff00ff;stroke-width:0.00264583;stroke-linecap:round;stroke-linejoin:round;stroke-miterlimit:4;stroke-dasharray:none;stroke-opacity:1;-inkscape-stroke:hairline"
         d="m 425.62033,250.65979 a 2.7113929,2.7113929 0 0 0 -2.71184,2.71183 2.7113929,2.7113929 0 0 0 2.71184,2.71183 h 90.37976 a 2.7113929,2.7113929 0 0 0 2.71183,-2.71183 2.7113929,2.7113929 0 0 0 -2.71183,-2.71183 z"
         id="path63388" />
      <path
         style="color:#000000;vector-effect:non-scaling-stroke;fill:#2962fc;fill-opacity:1;stroke:#ff00ff;stroke-width:0.00264583;stroke-linecap:round;stroke-linejoin:round;stroke-miterlimit:4;stroke-dasharray:none;stroke-opacity:1;-inkscape-stroke:hairline"
         d="m 425.62033,261.95726 a 2.7113929,2.7113929 0 0 0 -2.71184,2.71183 2.7113929,2.7113929 0 0 0 2.71184,2.71183 h 90.37976 a 2.7113929,2.7113929 0 0 0 2.71183,-2.71183 2.7113929,2.7113929 0 0 0 -2.71183,-2.71183 z"
         id="path63385" />
      <path
         style="color:#000000;vector-effect:non-scaling-stroke;fill:#2962fc;fill-opacity:1;stroke:#ff00ff;stroke-width:0.00264583;stroke-linecap:round;stroke-linejoin:round;stroke-miterlimit:4;stroke-dasharray:none;stroke-opacity:1;-inkscape-stroke:hairline"
         d="m 431.26906,273.25473 a 2.7116641,2.7116641 0 0 0 -2.71183,2.71183 v 11.29747 a 2.7116641,2.7116641 0 0 0 2.71183,2.71183 h 8.58564 v 2.93691 a 2.7116641,2.7116641 0 0 0 2.71183,2.71183 h 56.48735 a 2.7116641,2.7116641 0 0 0 2.71184,-2.71183 v -2.93691 h 8.58563 a 2.7116641,2.7116641 0 0 0 2.71184,-2.71183 v -11.29747 a 2.7116641,2.7116641 0 0 0 -2.71184,-2.71183 z"
         id="path63379" />
      <path
         id="path63370"
         style="color:#000000;vector-effect:non-scaling-stroke;fill:#ffffff;fill-opacity:1;stroke:#ff00ff;stroke-width:0.00264583;stroke-linecap:round;stroke-linejoin:round;stroke-miterlimit:4;stroke-dasharray:none;stroke-opacity:1;-inkscape-stroke:hairline"
         d="m 521.64899,95.884248 c -4.8968,0 -9.05541,3.37447 -10.26449,7.908562 h -40.57427 a 2.7113929,2.7113929 0 0 0 -2.71198,2.71146 2.7113929,2.7113929 0 0 0 2.71198,2.71198 h 40.57427 c 1.2091,4.53406 5.36772,7.90856 10.26449,7.90856 5.83293,0 10.62002,-4.78761 10.62002,-10.62054 0,-5.83293 -4.78709,-10.620022 -10.62002,-10.620022 z m 0,5.423962 c 2.90224,0 5.19606,2.29382 5.19606,5.19606 0,2.90225 -2.29382,5.19658 -5.19606,5.19658 -2.90224,0 -5.19658,-2.29433 -5.19658,-5.19658 0,-2.90224 2.29434,-5.19606 5.19658,-5.19606 z" />
      <path
         id="path63355"
         style="color:#000000;vector-effect:non-scaling-stroke;fill:#ffffff;fill-opacity:1;stroke:#ff00ff;stroke-width:0.00264583;stroke-miterlimit:4;stroke-dasharray:none;stroke-opacity:1;-inkscape-stroke:hairline"
         d="m 538.59524,61.99226 c -4.89662,0 -9.05525,3.374197 -10.26449,7.908044 h -12.33051 a 2.7116641,2.7116641 0 0 0 -1.91771,0.794269 l -10.50324,10.503233 h -32.76906 c -13.94418,0 -25.30698,11.362292 -25.30698,25.306464 0,13.94418 11.3628,25.30699 25.30698,25.30699 h 32.76906 l 10.50324,10.50323 a 2.7116641,2.7116641 0 0 0 1.91771,0.79427 h 12.33051 c 1.20924,4.53384 5.36787,7.90804 10.26449,7.90804 5.83293,0 10.62003,-4.78709 10.62003,-10.62002 0,-5.83293 -4.7871,-10.62003 -10.62003,-10.62003 -4.89679,0 -9.05541,3.37448 -10.26449,7.90857 h -11.20758 l -10.50324,-10.50324 a 2.7116641,2.7116641 0 0 0 -1.91719,-0.79426 h -33.89251 c -11.0135,0 -19.88302,-8.87006 -19.88302,-19.88355 0,-11.013482 8.86952,-19.883022 19.88302,-19.883022 h 33.89251 a 2.7116641,2.7116641 0 0 0 1.91719,-0.79427 l 10.50324,-10.503231 h 11.20758 c 1.20908,4.53409 5.3677,7.90856 10.26449,7.90856 5.83293,0 10.62003,-4.787093 10.62003,-10.620024 0,-5.832927 -4.7871,-10.620023 -10.62003,-10.620023 z m 0,5.423442 c 2.90224,0 5.19607,2.29434 5.19607,5.196581 0,2.902241 -2.29383,5.196065 -5.19607,5.196065 -2.90224,0 -5.19658,-2.293824 -5.19658,-5.196065 0,-2.902241 2.29434,-5.196581 5.19658,-5.196581 z m 0,67.785008 c 2.90224,0 5.19607,2.29383 5.19607,5.19607 0,2.90224 -2.29383,5.19658 -5.19607,5.19658 -2.90224,0 -5.19658,-2.29434 -5.19658,-5.19658 0,-2.90224 2.29434,-5.19607 5.19658,-5.19607 z" />
      <path
         id="path63340"
         style="color:#000000;vector-effect:non-scaling-stroke;fill:#ffffff;fill-opacity:1;stroke:#ff00ff;stroke-width:0.00264583;stroke-miterlimit:4;stroke-dasharray:none;stroke-opacity:1;-inkscape-stroke:hairline"
         d="m 510.35149,33.748504 c -5.83293,0 -10.62003,4.787096 -10.62003,10.620026 0,1.938767 0.53795,3.755986 1.45831,5.326291 l -8.90798,8.907981 h -21.47156 c -26.42302,0 -47.90199,21.478471 -47.90199,47.901468 0,26.423 21.47897,47.90199 47.90199,47.90199 h 21.47156 l 8.90178,8.90178 c -0.92092,1.57066 -1.45211,3.39309 -1.45211,5.33249 0,5.83293 4.7871,10.62003 10.62003,10.62003 5.83293,0 10.62002,-4.7871 10.62002,-10.62003 0,-5.83293 -4.78709,-10.62002 -10.62002,-10.62002 -1.9396,0 -3.76225,0.53153 -5.33301,1.45262 l -9.69605,-9.69604 a 2.7116641,2.7116641 0 0 0 -1.9172,-0.79427 h -22.595 c -23.49233,0 -42.47803,-18.98624 -42.47803,-42.47855 0,-23.492308 18.9857,-42.478026 42.47803,-42.478026 h 22.595 a 2.7116641,2.7116641 0 0 0 1.9172,-0.794266 l 9.70174,-9.701734 c 1.57047,0.920639 3.38824,1.45831 5.32732,1.45831 5.83293,0 10.62002,-4.787096 10.62002,-10.620024 0,-5.83293 -4.78709,-10.620026 -10.62002,-10.620026 z m 0,5.423443 c 2.90224,0 5.19606,2.294342 5.19606,5.196583 0,2.902241 -2.29382,5.196065 -5.19606,5.196065 -1.41987,0 -2.68911,-0.554442 -3.62045,-1.455208 a 2.7113929,2.7113929 0 0 0 -0.0538,-0.06718 2.7113929,2.7113929 0 0 0 -0.0512,-0.0341 c -0.91094,-0.932868 -1.47122,-2.210713 -1.47122,-3.639572 0,-2.902241 2.29434,-5.196583 5.19658,-5.196583 z m 0,124.272003 c 2.90224,0 5.19606,2.29434 5.19606,5.19658 0,2.90224 -2.29382,5.19658 -5.19606,5.19658 -2.90224,0 -5.19658,-2.29434 -5.19658,-5.19658 0,-1.41932 0.55143,-2.69074 1.45159,-3.622 a 2.7113929,2.7113929 0 0 0 0.0708,-0.0517 2.7113929,2.7113929 0 0 0 0.11628,-0.1297 c 0.92532,-0.86461 2.17029,-1.3932 3.55792,-1.3932 z" />
      <path
         style="color:#000000;vector-effect:non-scaling-stroke;fill:#ffffff;fill-opacity:1;stroke:#ff00ff;stroke-width:0.00264583;stroke-linecap:round;stroke-linejoin:round;stroke-miterlimit:4;stroke-dasharray:none;stroke-opacity:1;-inkscape-stroke:hairline"
         d="m 462.90198,21.321146 a 2.7116641,2.7116641 0 0 0 -2.37203,1.398943 l -3.48633,6.304078 -13.05166,3.495155 -6.16948,-3.713603 a 2.7116641,2.7116641 0 0 0 -2.75597,-0.02644 l -13.69597,7.908229 a 2.7116641,2.7116641 0 0 0 -1.35482,2.39851 l 0.13019,7.202137 -9.5521,9.552101 -7.20214,-0.130192 a 2.7116641,2.7116641 0 0 0 -2.39851,1.354815 l -7.90823,13.69598 a 2.7116641,2.7116641 0 0 0 0.0264,2.755961 l 3.71361,6.169481 -3.49516,13.051667 -6.30407,3.48633 a 2.7116641,2.7116641 0 0 0 -1.3989,2.37198 v 15.816462 a 2.7116641,2.7116641 0 0 0 1.39894,2.37203 l 6.30408,3.48633 3.49515,13.05166 -3.7136,6.16948 a 2.7116641,2.7116641 0 0 0 -0.0264,2.75596 l 7.90823,13.69598 a 2.7116641,2.7116641 0 0 0 2.39851,1.35482 l 7.20214,-0.13019 9.5521,9.5521 -0.1302,7.20213 a 2.7116641,2.7116641 0 0 0 1.35482,2.39851 l 13.69598,7.90823 a 2.7116641,2.7116641 0 0 0 2.75596,-0.0264 l 6.16948,-3.71361 13.05166,3.49516 3.48634,6.30408 a 2.7116641,2.7116641 0 0 0 2.37198,1.39889 h 15.81646 a 2.7116641,2.7116641 0 0 0 2.37202,-1.39894 l 3.48634,-6.30408 6.52693,-1.74757 a 2.7113929,2.7113929 0 0 0 1.91527,-3.32085 2.7113929,2.7113929 0 0 0 -3.32084,-1.91747 l -7.63683,2.04767 a 2.7116641,2.7116641 0 0 0 -1.67254,1.30627 l -3.2701,5.91131 h -12.61697 l -3.2701,-5.91131 a 2.7116641,2.7116641 0 0 0 -1.67254,-1.30627 l -15.27586,-4.09313 a 2.7116641,2.7116641 0 0 0 -2.10062,0.29567 l -5.78775,3.48412 -10.92898,-6.30848 0.12357,-6.75642 a 2.7116641,2.7116641 0 0 0 -0.79216,-1.96602 l -11.18493,-11.18497 a 2.7116641,2.7116641 0 0 0 -1.96602,-0.79215 l -6.75642,0.12357 -6.30849,-10.92898 3.48412,-5.78775 a 2.7116641,2.7116641 0 0 0 0.29568,-2.10062 l -4.09313,-15.27586 a 2.7116641,2.7116641 0 0 0 -1.30627,-1.67255 l -5.91131,-3.2701 v -12.61696 l 5.91131,-3.270102 a 2.7116641,2.7116641 0 0 0 1.30627,-1.67255 l 4.09313,-15.275859 a 2.7116641,2.7116641 0 0 0 -0.29568,-2.100617 l -3.48412,-5.787751 6.30849,-10.92898 6.75642,0.123572 a 2.7116641,2.7116641 0 0 0 1.96602,-0.792156 l 11.18493,-11.184936 a 2.7116641,2.7116641 0 0 0 0.79216,-1.96602 l -0.12357,-6.756418 10.92898,-6.308485 5.78775,3.484118 a 2.7116641,2.7116641 0 0 0 2.10062,0.295677 l 15.27586,-4.09313 a 2.7116641,2.7116641 0 0 0 1.67254,-1.30627 l 3.2701,-5.911311 h 12.61697 l 3.2701,5.911311 a 2.7116641,2.7116641 0 0 0 1.67254,1.30627 l 7.63683,2.047667 a 2.7113929,2.7113929 0 0 0 3.32084,-1.917475 2.7113929,2.7113929 0 0 0 -1.91527,-3.320846 l -6.52693,-1.747572 -3.48634,-6.304078 a 2.7116641,2.7116641 0 0 0 -2.37202,-1.398943 z"
         id="path63337" />
    </g>
    <text
       xml:space="preserve"
       transform="matrix(0.26458333,0,0,0.26458333,-39.884701,306.60116)"
       id="text3533"
       style="font-style:normal;font-weight:normal;font-size:85.3333px;line-height:1.25;font-family:sans-serif;white-space:pre;shape-inside:url(#rect3535);vector-effect:non-scaling-stroke;fill:#2962fc;fill-opacity:1;stroke:#ff00ff;stroke-width:0.01;stroke-miterlimit:4;stroke-dasharray:none;stroke-opacity:1;-inkscape-stroke:hairline"
       x="332.97852"
       y="0"><tspan
         x="200.86523"
         y="157.76622"
         id="tspan13205"><tspan
           style="font-weight:bold;font-family:'Atkinson Hyperlegible';-inkscape-font-specification:'Atkinson Hyperlegible Bold';vector-effect:non-scaling-stroke"
           id="tspan13201">Blaster Design Factory</tspan><tspan
           style="font-weight:bold;font-family:Verdana;-inkscape-font-specification:'Verdana Bold';text-align:center;text-anchor:middle;vector-effect:non-scaling-stroke"
           id="tspan13203">
</tspan></tspan></text>
    <text
       xml:space="preserve"
       transform="matrix(0.26458333,0,0,0.26458333,-136.95248,-97.752314)"
       id="text9866"
       style="font-style:normal;font-weight:normal;font-size:74.6667px;line-height:1.25;font-family:sans-serif;white-space:pre;shape-inside:url(#rect9868);vector-effect:non-scaling-stroke;fill:#2962fc;fill-opacity:1;stroke:#ff00ff;stroke-width:0.01;stroke-miterlimit:4;stroke-dasharray:none;stroke-opacity:1;-inkscape-stroke:hairline"
       x="453.28125"
       y="0"><tspan
         x="695.93217"
         y="1785.7701"
         id="tspan13209"><tspan
           style="font-weight:bold;font-family:'Atkinson Hyperlegible';-inkscape-font-specification:'Atkinson Hyperlegible Bold';text-align:center;text-anchor:middle;vector-effect:non-scaling-stroke"
           id="tspan13207">Everyone Welcome</tspan></tspan></text>
  </g>
</svg>
