<?xml version="1.0" encoding="UTF-8" standalone="no"?>
<!-- Created with Inkscape (http://www.inkscape.org/) -->

<svg
   width="10.666666in"
   height="14.051677in"
   viewBox="0 0 270.93333 356.9126"
   version="1.1"
   id="svg5"
   xmlns="http://www.w3.org/2000/svg"
   xmlns:svg="http://www.w3.org/2000/svg">
  <defs
     id="defs2">
    <rect
       x="451.40662"
       y="1719.2328"
       width="1151.1949"
       height="172.78722"
       id="rect9868" />
    <rect
       x="959.64258"
       y="161.77267"
       width="1073.4406"
       height="146.86914"
       id="rect12679" />
    <rect
       x="200.86514"
       y="79.914085"
       width="1373.6584"
       height="431.96805"
       id="rect3535" />
  </defs>
  <g
     id="layer1"
     transform="translate(65.693416,171.10228)">
    <path
       id="path63394"
       style="color:#000000;vector-effect:non-scaling-stroke;fill:none;fill-opacity:1;stroke:#000000;stroke-width:3.098e-05;stroke-linecap:round;stroke-linejoin:round;stroke-miterlimit:4;stroke-dasharray:none;stroke-opacity:1;-inkscape-stroke:hairline"
       d="m 69.773254,-171.10228 c -54.78097,0 -104.1898,33.00942 -125.15392,83.6193 -20.96414,50.609967 -9.37116,108.891677 29.36512,147.627951 L 8.5245238,94.685061 C 16.062874,102.22337 20.295864,112.44356 20.295864,123.10437 a 3.1752846,3.1752846 0 0 0 3.17565,3.17504 h 92.603476 a 3.1752846,3.1752846 0 0 0 3.17504,-3.17504 c 0,-10.66081 4.2336,-20.881 11.77194,-28.419309 l 34.54007,-34.54009 c 38.73628,-38.736274 50.32926,-97.017984 29.36511,-147.627951 -20.96411,-50.60988 -70.37293,-83.6193 -125.153896,-83.6193 z" />
    <path
       style="color:#000000;vector-effect:non-scaling-stroke;fill:none;fill-opacity:1;stroke:#000000;stroke-width:7.25e-06;stroke-linecap:round;stroke-linejoin:round;stroke-miterlimit:4;stroke-dasharray:none;stroke-opacity:1;-inkscape-stroke:hairline"
       d="m 16.857104,133.15775 a 3.1749671,3.1749671 0 0 0 -3.17548,3.17548 3.1749671,3.1749671 0 0 0 3.17548,3.17548 H 122.68934 a 3.1749671,3.1749671 0 0 0 3.17548,-3.17548 3.1749671,3.1749671 0 0 0 -3.17548,-3.17548 z"
       id="path63388" />
    <path
       style="color:#000000;vector-effect:non-scaling-stroke;fill:none;fill-opacity:1;stroke:#000000;stroke-width:7.25e-06;stroke-linecap:round;stroke-linejoin:round;stroke-miterlimit:4;stroke-dasharray:none;stroke-opacity:1;-inkscape-stroke:hairline"
       d="m 16.857104,146.38678 a 3.1749671,3.1749671 0 0 0 -3.17548,3.17548 3.1749671,3.1749671 0 0 0 3.17548,3.17547 H 122.68934 a 3.1749671,3.1749671 0 0 0 3.17548,-3.17547 3.1749671,3.1749671 0 0 0 -3.17548,-3.17548 z"
       id="path63385" />
    <path
       style="color:#000000;vector-effect:non-scaling-stroke;fill:none;fill-opacity:1;stroke:#000000;stroke-width:7.25e-06;stroke-linecap:round;stroke-linejoin:round;stroke-miterlimit:4;stroke-dasharray:none;stroke-opacity:1;-inkscape-stroke:hairline"
       d="m 23.471624,159.61581 a 3.1752846,3.1752846 0 0 0 -3.17548,3.17548 v 13.22903 a 3.1752846,3.1752846 0 0 0 3.17548,3.17547 h 10.05355 v 3.43904 a 3.1752846,3.1752846 0 0 0 3.17548,3.17549 h 66.145136 a 3.1752846,3.1752846 0 0 0 3.17549,-3.17549 v -3.43904 h 10.05354 a 3.1752846,3.1752846 0 0 0 3.17549,-3.17547 v -13.22903 a 3.1752846,3.1752846 0 0 0 -3.17549,-3.17548 z"
       id="path63379" />
    <path
       id="path63370"
       style="color:#000000;vector-effect:non-scaling-stroke;fill:none;fill-opacity:1;stroke:#000000;stroke-width:3.098e-05;stroke-linecap:round;stroke-linejoin:round;stroke-miterlimit:4;stroke-dasharray:none;stroke-opacity:1;-inkscape-stroke:hairline"
       d="m 129.30405,-48.080203 c -5.73402,0 -10.60364,3.95142 -12.01944,9.26071 H 69.773254 a 3.1749671,3.1749671 0 0 0 -3.17566,3.17505 3.1749671,3.1749671 0 0 0 3.17566,3.17566 h 47.511356 c 1.41583,5.30925 6.28546,9.26071 12.01944,9.26071 6.8302,0 12.43575,-5.60617 12.43575,-12.43637 0,-6.8302 -5.60555,-12.43576 -12.43575,-12.43576 z m 0,6.35131 c 3.39844,0 6.08445,2.68601 6.08445,6.08445 0,3.39845 -2.68601,6.08506 -6.08445,6.08506 -3.39845,0 -6.08506,-2.68661 -6.08506,-6.08506 0,-3.39844 2.68661,-6.08445 6.08506,-6.08445 z" />
    <path
       id="path63355"
       style="color:#000000;vector-effect:non-scaling-stroke;fill:none;fill-opacity:1;stroke:#000000;stroke-width:3.098e-05;stroke-miterlimit:4;stroke-dasharray:none;stroke-opacity:1;-inkscape-stroke:hairline"
       d="m 149.14764,-87.76679 c -5.7338,0 -10.60345,3.95109 -12.01943,9.2601 h -14.43869 a 3.1752846,3.1752846 0 0 0 -2.24559,0.93007 l -12.29901,12.299 H 69.773254 c -16.32826,0 -29.63378,13.304937 -29.63378,29.633177 0,16.32826 13.30552,29.6338001 29.63378,29.6338001 h 38.371666 l 12.29901,12.29899 a 3.1752846,3.1752846 0 0 0 2.24559,0.93007 h 14.43869 c 1.41598,5.3090099 6.28563,9.2600999 12.01943,9.2600999 6.8302,0 12.43576,-5.60555 12.43576,-12.4357599 0,-6.8302 -5.60556,-12.43576 -12.43576,-12.43576 -5.734,0 -10.60364,3.95142 -12.01943,9.26072003 H 124.00444 L 111.70543,-11.431293 a 3.1752846,3.1752846 0 0 0 -2.24498,-0.93006 H 69.773254 c -12.89651,0 -23.28248,-10.3866 -23.28248,-23.28309 0,-12.89648 10.38597,-23.28247 23.28248,-23.28247 h 39.687196 a 3.1752846,3.1752846 0 0 0 2.24498,-0.93007 l 12.29901,-12.298997 h 13.12377 c 1.41579,5.30929 6.28543,9.26071 12.01943,9.26071 6.8302,0 12.43576,-5.60556 12.43576,-12.43576 0,-6.8302 -5.60556,-12.43576 -12.43576,-12.43576 z m 0,6.3507 c 3.39844,0 6.08445,2.68661 6.08445,6.08506 0,3.39844 -2.68601,6.08445 -6.08445,6.08445 -3.39844,0 -6.08505,-2.68601 -6.08505,-6.08445 0,-3.39845 2.68661,-6.08506 6.08505,-6.08506 z m 0,79.3743971 c 3.39844,0 6.08445,2.68601003 6.08445,6.08445 0,3.39845 -2.68601,6.0850599 -6.08445,6.0850599 -3.39844,0 -6.08505,-2.6866099 -6.08505,-6.0850599 0,-3.39843997 2.68661,-6.08445 6.08505,-6.08445 z" />
    <path
       id="path63340"
       style="color:#000000;vector-effect:non-scaling-stroke;fill:none;fill-opacity:1;stroke:#000000;stroke-width:3.098e-05;stroke-miterlimit:4;stroke-dasharray:none;stroke-opacity:1;-inkscape-stroke:hairline"
       d="m 116.07499,-120.83945 c -6.83021,0 -12.43577,5.60556 -12.43577,12.43576 0,2.27024 0.62993,4.39815 1.70764,6.23694 l -10.430996,10.431 h -25.14261 c -30.94064,0 -56.09192,25.1507 -56.09192,56.091307 0,30.9406101 25.15128,56.09192 56.09192,56.09192 h 25.14261 l 10.423736,10.42374 c -1.07837,1.83921 -1.70038,3.97322 -1.70038,6.2442 0,6.830214 5.60556,12.435774 12.43577,12.435774 6.83019,0 12.43574,-5.60556 12.43574,-12.435774 0,-6.83019 -5.60555,-12.43575 -12.43574,-12.43575 -2.27123,0 -4.4055,0.62242 -6.24481,1.70098 l -11.353816,-11.3538 a 3.1752846,3.1752846 0 0 0 -2.24498,-0.93007 h -26.45813 c -27.50888,0 -49.74061,-22.2323699 -49.74061,-49.74122 0,-27.508847 22.23173,-49.740607 49.74061,-49.740607 h 26.45813 a 3.1752846,3.1752846 0 0 0 2.24498,-0.93006 l 11.360476,-11.36046 c 1.83897,1.07804 3.96754,1.70764 6.23815,1.70764 6.83019,0 12.43574,-5.60556 12.43574,-12.43576 0,-6.8302 -5.60555,-12.43576 -12.43574,-12.43576 z m 0,6.3507 c 3.39844,0 6.08444,2.68661 6.08444,6.08506 0,3.39844 -2.686,6.08445 -6.08444,6.08445 -1.66263,0 -3.14888,-0.64926 -4.23945,-1.70401 a 3.1749671,3.1749671 0 0 0 -0.0632,-0.0787 3.1749671,3.1749671 0 0 0 -0.0597,-0.0401 c -1.06669,-1.09222 -1.72277,-2.58854 -1.72277,-4.2617 0,-3.39844 2.68661,-6.08505 6.08506,-6.08505 z m 0,145.519117 c 3.39844,0 6.08444,2.68661 6.08444,6.08505 0,3.39845 -2.686,6.085064 -6.08444,6.085064 -3.39845,0 -6.08506,-2.686614 -6.08506,-6.085064 0,-1.66198 0.64567,-3.15078 1.69977,-4.24126 a 3.1749671,3.1749671 0 0 0 0.0829,-0.0604 3.1749671,3.1749671 0 0 0 0.13616,-0.1519 c 1.08352,-1.01244 2.54135,-1.6314 4.16622,-1.6314 z" />
    <path
       style="color:#000000;vector-effect:non-scaling-stroke;fill:none;fill-opacity:1;stroke:#000000;stroke-width:7.25e-06;stroke-linecap:round;stroke-linejoin:round;stroke-miterlimit:4;stroke-dasharray:none;stroke-opacity:1;-inkscape-stroke:hairline"
       d="m 60.512904,-135.39155 a 3.1752846,3.1752846 0 0 0 -2.77758,1.63812 l -4.0824,7.38191 -15.28314,4.09273 -7.22429,-4.34853 a 3.1752846,3.1752846 0 0 0 -3.22716,-0.0309 l -16.03761,9.26033 a 3.1752846,3.1752846 0 0 0 -1.58645,2.80858 l 0.15246,8.43351 -11.18525022,11.18524 -8.43350998,-0.15246 a 3.1752846,3.1752846 0 0 0 -2.8085898,1.58645 l -9.26032,16.03762 a 3.1752846,3.1752846 0 0 0 0.0309,3.22716 l 4.34853,7.22429 -4.09273,15.283147 -7.3819,4.08239 a 3.1752846,3.1752846 0 0 0 -1.63808,2.77752 v 18.52065 a 3.1752846,3.1752846 0 0 0 1.63813,2.77758 l 7.38191,4.0824 4.09273,15.2831301 -4.34853,7.2243 a 3.1752846,3.1752846 0 0 0 -0.0309,3.22715 l 9.26032,16.0376199 a 3.1752846,3.1752846 0 0 0 2.8085898,1.58646 l 8.43349998,-0.15246 11.18526022,11.18524 -0.15246,8.433504 a 3.1752846,3.1752846 0 0 0 1.58645,2.80859 l 16.03762,9.26032 a 3.1752846,3.1752846 0 0 0 3.22716,-0.0309 l 7.22429,-4.34854 15.28313,4.09274 4.08242,7.3819 a 3.1752846,3.1752846 0 0 0 2.77751,1.63807 h 18.52065 a 3.1752846,3.1752846 0 0 0 2.77757,-1.63812 l 4.08241,-7.38191 7.64286,-2.04635 a 3.1749671,3.1749671 0 0 0 2.24272,-3.88863 3.1749671,3.1749671 0 0 0 -3.88861,-2.2453 l -8.94252,2.39776 a 3.1752846,3.1752846 0 0 0 -1.95851,1.52959 l -3.8292,6.92198 h -14.77412 l -3.8292,-6.92198 a 3.1752846,3.1752846 0 0 0 -1.9585,-1.52961 l -17.88761,-4.79294 a 3.1752846,3.1752846 0 0 0 -2.45978,0.34623 l -6.77729,4.07981 -12.79754,-7.38705 0.14473,-7.911594 a 3.1752846,3.1752846 0 0 0 -0.92759,-2.30216 L 2.7961138,18.235727 a 3.1752846,3.1752846 0 0 0 -2.30215002,-0.92759 l -7.91157998,0.14474 -7.3870698,-12.7975399 4.07981,-6.7773 a 3.1752846,3.1752846 0 0 0 0.34623,-2.45977 l -4.79297,-17.8876601 a 3.1752846,3.1752846 0 0 0 -1.52961,-1.95851 l -6.92198,-3.8292 v -14.77412 l 6.92198,-3.82919 a 3.1752846,3.1752846 0 0 0 1.52961,-1.95852 l 4.79295,-17.887607 a 3.1752846,3.1752846 0 0 0 -0.34624,-2.45976 l -4.0798,-6.7773 7.3870598,-12.79754 7.91157998,0.14474 A 3.1752846,3.1752846 0 0 0 2.7960938,-89.524 l 13.0972602,-13.09725 a 3.1752846,3.1752846 0 0 0 0.92759,-2.30216 l -0.14473,-7.91158 12.79754,-7.38707 6.77729,4.07982 a 3.1752846,3.1752846 0 0 0 2.45978,0.34623 l 17.88761,-4.79294 a 3.1752846,3.1752846 0 0 0 1.9585,-1.52961 l 3.8292,-6.92198 h 14.77412 l 3.8292,6.92198 a 3.1752846,3.1752846 0 0 0 1.9585,1.52961 l 8.94252,2.39776 a 3.1749671,3.1749671 0 0 0 3.88861,-2.24531 3.1749671,3.1749671 0 0 0 -2.24272,-3.88862 l -7.64286,-2.04636 -4.08241,-7.3819 a 3.1752846,3.1752846 0 0 0 -2.77755,-1.63817 z"
       id="path63337" />
  </g>
</svg>
