  0
SECTION
  2
HEADER
  9
$ACADVER
  1
AC1014
  9
$HANDSEED
  5
FFFF
  9
$INSUNITS
 70
     0
  9
$MEASUREMENT
 70
     1
  0
ENDSEC
  0
SECTION
  2
TABLES
  0
TABLE
  2
VPORT
  5
8
330
0
100
AcDbSymbolTable
 70
     4
  0
VPORT
  5
2E
330
8
100
AcDbSymbolTableRecord
100
AcDbViewportTableRecord
  2
*ACTIVE
 70
     0
 10
0.0
 20
0.0
 11
1.0
 21
1.0
 12
210.0
 22
148.5
 13
0.0
 23
0.0
 14
10.0
 24
10.0
 15
10.0
 25
10.0
 16
0.0
 26
0.0
 36
1.0
 17
0.0
 27
0.0
 37
0.0
 40
341.0
 41
1.24
 42
50.0
 43
0.0
 44
0.0
 50
0.0
 51
0.0
 71
     0
 72
   100
 73
     1
 74
     3
 75
     0
 76
     0
 77
     0
 78
     0
  0
ENDTAB
  0
TABLE
  2
LTYPE
  5
5
330
0
100
AcDbSymbolTable
 70
     1
  0
LTYPE
  5
14
330
5
100
AcDbSymbolTableRecord
100
AcDbLinetypeTableRecord
  2
BYBLOCK
 70
     0
  3

 72
    65
 73
     0
 40
0.0
  0
LTYPE
  5
15
330
5
100
AcDbSymbolTableRecord
100
AcDbLinetypeTableRecord
  2
BYLAYER
 70
     0
  3

 72
    65
 73
     0
 40
0.0
  0
LTYPE
  5
16
330
5
100
AcDbSymbolTableRecord
100
AcDbLinetypeTableRecord
  2
CONTINUOUS
 70
     0
  3
Solid line
 72
    65
 73
     0
 40
0.0
  0
ENDTAB
  0
TABLE
  2
LAYER
  5
2
100
AcDbSymbolTable
 70
1
  0
LAYER
  5
50
100
AcDbSymbolTableRecord
100
AcDbLayerTableRecord
  2
0
 70
0
  6
CONTINUOUS
  0
ENDTAB
  0
TABLE
  2
STYLE
  5
3
330
0
100
AcDbSymbolTable
 70
     1
  0
STYLE
  5
11
330
3
100
AcDbSymbolTableRecord
100
AcDbTextStyleTableRecord
  2
STANDARD
 70
     0
 40
0.0
 41
1.0
 50
0.0
 71
     0
 42
2.5
  3
txt
  4

  0
ENDTAB
  0
TABLE
  2
VIEW
  5
6
330
0
100
AcDbSymbolTable
 70
     0
  0
ENDTAB
  0
TABLE
  2
UCS
  5
7
330
0
100
AcDbSymbolTable
 70
     0
  0
ENDTAB
  0
TABLE
  2
APPID
  5
9
330
0
100
AcDbSymbolTable
 70
     2
  0
APPID
  5
12
330
9
100
AcDbSymbolTableRecord
100
AcDbRegAppTableRecord
  2
ACAD
 70
     0
  0
ENDTAB
  0
TABLE
  2
DIMSTYLE
  5
A
330
0
100
AcDbSymbolTable
 70
     1
  0
DIMSTYLE
105
27
330
A
100
AcDbSymbolTableRecord
100
AcDbDimStyleTableRecord
  2
ISO-25
 70
     0
  3

  4

  5

  6

  7

 40
1.0
 41
2.5
 42
0.625
 43
3.75
 44
1.25
 45
0.0
 46
0.0
 47
0.0
 48
0.0
140
2.5
141
2.5
142
0.0
143
0.03937007874016
144
1.0
145
0.0
146
1.0
147
0.625
 71
     0
 72
     0
 73
     0
 74
     0
 75
     0
 76
     0
 77
     1
 78
     8
170
     0
171
     3
172
     1
173
     0
174
     0
175
     0
176
     0
177
     0
178
     0
270
     2
271
     2
272
     2
273
     2
274
     3
340
11
275
     0
280
     0
281
     0
282
     0
283
     0
284
     8
285
     0
286
     0
287
     3
288
     0
  0
ENDTAB
  0
TABLE
  2
BLOCK_RECORD
  5
1
330
0
100
AcDbSymbolTable
 70
     1
  0
BLOCK_RECORD
  5
1F
330
1
100
AcDbSymbolTableRecord
100
AcDbBlockTableRecord
  2
*MODEL_SPACE
  0
BLOCK_RECORD
  5
1B
330
1
100
AcDbSymbolTableRecord
100
AcDbBlockTableRecord
  2
*PAPER_SPACE
  0
ENDTAB
  0
ENDSEC
  0
SECTION
  2
BLOCKS
  0
BLOCK
  5
20
330
1F
100
AcDbEntity
  8
0
100
AcDbBlockBegin
  2
*MODEL_SPACE
 70
     0
 10
0.0
 20
0.0
 30
0.0
  3
*MODEL_SPACE
  1

  0
ENDBLK
  5
21
330
1F
100
AcDbEntity
  8
0
100
AcDbBlockEnd
  0
BLOCK
  5
1C
330
1B
100
AcDbEntity
 67
     1
  8
0
100
AcDbBlockBegin
  2
*PAPER_SPACE
  1

  0
ENDBLK
  5
1D
330
1B
100
AcDbEntity
 67
     1
  8
0
100
AcDbBlockEnd
  0
ENDSEC
  0
SECTION
  2
ENTITIES
  0
SPLINE
  5
100
100
AcDbEntity
  8
0
 62
7
100
AcDbSpline
 70
8
 71
3
 72
8
 73
4
 74
0
 40
0
 40
0
 40
0
 40
0
 40
1
 40
1
 40
1
 40
1
 10
1000.000000
 20
1511.972655
 30
0.0
 10
792.951650
 20
1511.972655
 30
0.0
 10
606.207900
 20
1387.211150
 30
0.0
 10
526.972650
 20
1195.927750
 30
0.0
  0
SPLINE
  5
101
100
AcDbEntity
  8
0
 62
7
100
AcDbSpline
 70
8
 71
3
 72
8
 73
4
 74
0
 40
0
 40
0
 40
0
 40
0
 40
1
 40
1
 40
1
 40
1
 10
526.972650
 20
1195.927750
 30
0.0
 10
447.737250
 20
1004.643950
 30
0.0
 10
491.552660
 20
784.365300
 30
0.0
 10
637.959000
 20
637.959000
 30
0.0
  0
SPLINE
  5
102
100
AcDbEntity
  8
0
 62
7
100
AcDbSpline
 70
8
 71
3
 72
8
 73
4
 74
0
 40
0
 40
0
 40
0
 40
0
 40
1
 40
1
 40
1
 40
1
 10
768.505850
 20
507.412100
 30
0.0
 10
796.997500
 20
478.920450
 30
0.0
 10
812.998050
 20
440.293250
 30
0.0
 10
812.998050
 20
400.000000
 30
0.0
  0
SPLINE
  5
103
100
AcDbEntity
  8
0
 62
7
100
AcDbSpline
 70
8
 71
3
 72
8
 73
4
 74
0
 40
0
 40
0
 40
0
 40
0
 40
1
 40
1
 40
1
 40
1
 10
812.998050
 20
400.000000
 30
0.0
 10
812.997851
 20
396.816824
 30
0.0
 10
814.262275
 20
393.763966
 30
0.0
 10
816.513120
 20
391.513120
 30
0.0
  0
SPLINE
  5
104
100
AcDbEntity
  8
0
 62
7
100
AcDbSpline
 70
8
 71
3
 72
8
 73
4
 74
0
 40
0
 40
0
 40
0
 40
0
 40
1
 40
1
 40
1
 40
1
 10
816.513120
 20
391.513120
 30
0.0
 10
818.763966
 20
389.262275
 30
0.0
 10
821.816824
 20
387.997851
 30
0.0
 10
825.000000
 20
387.998050
 30
0.0
  0
LWPOLYLINE
  5
105
100
AcDbEntity
  8
0
 62
7
100
AcDbPolyline
 90
2
 70
0
 10
637.959000
 20
637.959000
 30
0.0
 10
768.505850
 20
507.412100
 30
0.0
  0
SPLINE
  5
106
100
AcDbEntity
  8
0
 62
7
100
AcDbSpline
 70
8
 71
3
 72
8
 73
4
 74
0
 40
0
 40
0
 40
0
 40
0
 40
1
 40
1
 40
1
 40
1
 10
1175.000000
 20
387.998050
 30
0.0
 10
1178.183176
 20
387.997851
 30
0.0
 10
1181.236034
 20
389.262275
 30
0.0
 10
1183.486880
 20
391.513120
 30
0.0
  0
SPLINE
  5
107
100
AcDbEntity
  8
0
 62
7
100
AcDbSpline
 70
8
 71
3
 72
8
 73
4
 74
0
 40
0
 40
0
 40
0
 40
0
 40
1
 40
1
 40
1
 40
1
 10
1183.486880
 20
391.513120
 30
0.0
 10
1185.737725
 20
393.763966
 30
0.0
 10
1187.002149
 20
396.816824
 30
0.0
 10
1187.001950
 20
400.000000
 30
0.0
  0
SPLINE
  5
108
100
AcDbEntity
  8
0
 62
7
100
AcDbSpline
 70
8
 71
3
 72
8
 73
4
 74
0
 40
0
 40
0
 40
0
 40
0
 40
1
 40
1
 40
1
 40
1
 10
1187.001950
 20
400.000000
 30
0.0
 10
1187.001950
 20
440.293250
 30
0.0
 10
1203.002500
 20
478.920450
 30
0.0
 10
1231.494150
 20
507.412100
 30
0.0
  0
LWPOLYLINE
  5
109
100
AcDbEntity
  8
0
 62
7
100
AcDbPolyline
 90
2
 70
0
 10
825.000000
 20
387.998050
 30
0.0
 10
1175.000000
 20
387.998050
 30
0.0
  0
SPLINE
  5
10a
100
AcDbEntity
  8
0
 62
7
100
AcDbSpline
 70
8
 71
3
 72
8
 73
4
 74
0
 40
0
 40
0
 40
0
 40
0
 40
1
 40
1
 40
1
 40
1
 10
1362.041000
 20
637.959000
 30
0.0
 10
1508.447350
 20
784.365300
 30
0.0
 10
1552.262750
 20
1004.643950
 30
0.0
 10
1473.027350
 20
1195.927750
 30
0.0
  0
SPLINE
  5
10b
100
AcDbEntity
  8
0
 62
7
100
AcDbSpline
 70
8
 71
3
 72
8
 73
4
 74
0
 40
0
 40
0
 40
0
 40
0
 40
1
 40
1
 40
1
 40
1
 10
1473.027350
 20
1195.927750
 30
0.0
 10
1393.792100
 20
1387.211150
 30
0.0
 10
1207.048350
 20
1511.972655
 30
0.0
 10
1000.000000
 20
1511.972655
 30
0.0
  0
LWPOLYLINE
  5
10c
100
AcDbEntity
  8
0
 62
7
100
AcDbPolyline
 90
2
 70
0
 10
1231.494150
 20
507.412100
 30
0.0
 10
1362.041000
 20
637.959000
 30
0.0
  0
SPLINE
  5
10d
100
AcDbEntity
  8
0
 62
7
100
AcDbSpline
 70
8
 71
3
 72
8
 73
4
 74
0
 40
0
 40
0
 40
0
 40
0
 40
1
 40
1
 40
1
 40
1
 10
1000.000000
 20
1487.978500
 30
0.0
 10
1197.411300
 20
1487.978500
 30
0.0
 10
1375.303050
 20
1369.126550
 30
0.0
 10
1450.849600
 20
1186.748050
 30
0.0
  0
SPLINE
  5
10e
100
AcDbEntity
  8
0
 62
7
100
AcDbSpline
 70
8
 71
3
 72
8
 73
4
 74
0
 40
0
 40
0
 40
0
 40
0
 40
1
 40
1
 40
1
 40
1
 10
1450.849600
 20
1186.748050
 30
0.0
 10
1526.396350
 20
1004.369150
 30
0.0
 10
1484.659450
 20
794.522700
 30
0.0
 10
1345.068350
 20
654.931650
 30
0.0
  0
LWPOLYLINE
  5
10f
100
AcDbEntity
  8
0
 62
7
100
AcDbPolyline
 90
1
 70
1
 10
1000.000000
 20
1511.972655
 30
0.0
  0
SPLINE
  5
110
100
AcDbEntity
  8
0
 62
7
100
AcDbSpline
 70
8
 71
3
 72
8
 73
4
 74
0
 40
0
 40
0
 40
0
 40
0
 40
1
 40
1
 40
1
 40
1
 10
1214.521500
 20
524.384750
 30
0.0
 10
1184.406600
 20
494.269900
 30
0.0
 10
1167.107150
 20
454.220850
 30
0.0
 10
1164.189450
 20
412.001950
 30
0.0
  0
LWPOLYLINE
  5
111
100
AcDbEntity
  8
0
 62
7
100
AcDbPolyline
 90
2
 70
0
 10
1345.068350
 20
654.931650
 30
0.0
 10
1214.521500
 20
524.384750
 30
0.0
  0
SPLINE
  5
112
100
AcDbEntity
  8
0
 62
7
100
AcDbSpline
 70
8
 71
3
 72
8
 73
4
 74
0
 40
0
 40
0
 40
0
 40
0
 40
1
 40
1
 40
1
 40
1
 10
835.810550
 20
412.001950
 30
0.0
 10
832.892850
 20
454.220850
 30
0.0
 10
815.593400
 20
494.269900
 30
0.0
 10
785.478500
 20
524.384750
 30
0.0
  0
LWPOLYLINE
  5
113
100
AcDbEntity
  8
0
 62
7
100
AcDbPolyline
 90
2
 70
0
 10
1164.189450
 20
412.001950
 30
0.0
 10
835.810550
 20
412.001950
 30
0.0
  0
SPLINE
  5
114
100
AcDbEntity
  8
0
 62
7
100
AcDbSpline
 70
8
 71
3
 72
8
 73
4
 74
0
 40
0
 40
0
 40
0
 40
0
 40
1
 40
1
 40
1
 40
1
 10
654.931650
 20
654.931650
 30
0.0
 10
515.340550
 20
794.522700
 30
0.0
 10
473.603660
 20
1004.369150
 30
0.0
 10
549.150400
 20
1186.748050
 30
0.0
  0
SPLINE
  5
115
100
AcDbEntity
  8
0
 62
7
100
AcDbSpline
 70
8
 71
3
 72
8
 73
4
 74
0
 40
0
 40
0
 40
0
 40
0
 40
1
 40
1
 40
1
 40
1
 10
549.150400
 20
1186.748050
 30
0.0
 10
624.696950
 20
1369.126550
 30
0.0
 10
802.588700
 20
1487.978500
 30
0.0
 10
1000.000000
 20
1487.978500
 30
0.0
  0
LWPOLYLINE
  5
116
100
AcDbEntity
  8
0
 62
7
100
AcDbPolyline
 90
2
 70
0
 10
785.478500
 20
524.384750
 30
0.0
 10
654.931650
 20
654.931650
 30
0.0
  0
SPLINE
  5
117
100
AcDbEntity
  8
0
 62
7
100
AcDbSpline
 70
8
 71
3
 72
8
 73
4
 74
0
 40
0
 40
0
 40
0
 40
0
 40
1
 40
1
 40
1
 40
1
 10
800.000000
 20
362.001950
 30
0.0
 10
796.816726
 20
362.002467
 30
0.0
 10
793.763683
 20
360.738146
 30
0.0
 10
791.512769
 20
358.487231
 30
0.0
  0
SPLINE
  5
118
100
AcDbEntity
  8
0
 62
7
100
AcDbSpline
 70
8
 71
3
 72
8
 73
4
 74
0
 40
0
 40
0
 40
0
 40
0
 40
1
 40
1
 40
1
 40
1
 10
791.512769
 20
358.487231
 30
0.0
 10
789.261854
 20
356.236317
 30
0.0
 10
787.997533
 20
353.183274
 30
0.0
 10
787.998050
 20
350.000000
 30
0.0
  0
SPLINE
  5
119
100
AcDbEntity
  8
0
 62
7
100
AcDbSpline
 70
8
 71
3
 72
8
 73
4
 74
0
 40
0
 40
0
 40
0
 40
0
 40
1
 40
1
 40
1
 40
1
 10
787.998050
 20
350.000000
 30
0.0
 10
787.997533
 20
346.816726
 30
0.0
 10
789.261854
 20
343.763683
 30
0.0
 10
791.512769
 20
341.512769
 30
0.0
  0
SPLINE
  5
11a
100
AcDbEntity
  8
0
 62
7
100
AcDbSpline
 70
8
 71
3
 72
8
 73
4
 74
0
 40
0
 40
0
 40
0
 40
0
 40
1
 40
1
 40
1
 40
1
 10
791.512769
 20
341.512769
 30
0.0
 10
793.763683
 20
339.261854
 30
0.0
 10
796.816726
 20
337.997533
 30
0.0
 10
800.000000
 20
337.998050
 30
0.0
  0
LWPOLYLINE
  5
11b
100
AcDbEntity
  8
0
 62
7
100
AcDbPolyline
 90
1
 70
1
 10
1000.000000
 20
1487.978500
 30
0.0
  0
SPLINE
  5
11c
100
AcDbEntity
  8
0
 62
7
100
AcDbSpline
 70
8
 71
3
 72
8
 73
4
 74
0
 40
0
 40
0
 40
0
 40
0
 40
1
 40
1
 40
1
 40
1
 10
1200.000000
 20
337.998050
 30
0.0
 10
1203.183274
 20
337.997533
 30
0.0
 10
1206.236317
 20
339.261854
 30
0.0
 10
1208.487231
 20
341.512769
 30
0.0
  0
SPLINE
  5
11d
100
AcDbEntity
  8
0
 62
7
100
AcDbSpline
 70
8
 71
3
 72
8
 73
4
 74
0
 40
0
 40
0
 40
0
 40
0
 40
1
 40
1
 40
1
 40
1
 10
1208.487231
 20
341.512769
 30
0.0
 10
1210.738146
 20
343.763683
 30
0.0
 10
1212.002467
 20
346.816726
 30
0.0
 10
1212.001950
 20
350.000000
 30
0.0
  0
SPLINE
  5
11e
100
AcDbEntity
  8
0
 62
7
100
AcDbSpline
 70
8
 71
3
 72
8
 73
4
 74
0
 40
0
 40
0
 40
0
 40
0
 40
1
 40
1
 40
1
 40
1
 10
1212.001950
 20
350.000000
 30
0.0
 10
1212.002467
 20
353.183274
 30
0.0
 10
1210.738146
 20
356.236317
 30
0.0
 10
1208.487231
 20
358.487231
 30
0.0
  0
SPLINE
  5
11f
100
AcDbEntity
  8
0
 62
7
100
AcDbSpline
 70
8
 71
3
 72
8
 73
4
 74
0
 40
0
 40
0
 40
0
 40
0
 40
1
 40
1
 40
1
 40
1
 10
1208.487231
 20
358.487231
 30
0.0
 10
1206.236317
 20
360.738146
 30
0.0
 10
1203.183274
 20
362.002467
 30
0.0
 10
1200.000000
 20
362.001950
 30
0.0
  0
LWPOLYLINE
  5
120
100
AcDbEntity
  8
0
 62
7
100
AcDbPolyline
 90
2
 70
0
 10
800.000000
 20
337.998050
 30
0.0
 10
1200.000000
 20
337.998050
 30
0.0
  0
SPLINE
  5
121
100
AcDbEntity
  8
0
 62
7
100
AcDbSpline
 70
8
 71
3
 72
8
 73
4
 74
0
 40
0
 40
0
 40
0
 40
0
 40
1
 40
1
 40
1
 40
1
 10
800.000000
 20
312.001950
 30
0.0
 10
796.816726
 20
312.002467
 30
0.0
 10
793.763683
 20
310.738146
 30
0.0
 10
791.512769
 20
308.487231
 30
0.0
  0
SPLINE
  5
122
100
AcDbEntity
  8
0
 62
7
100
AcDbSpline
 70
8
 71
3
 72
8
 73
4
 74
0
 40
0
 40
0
 40
0
 40
0
 40
1
 40
1
 40
1
 40
1
 10
791.512769
 20
308.487231
 30
0.0
 10
789.261854
 20
306.236317
 30
0.0
 10
787.997533
 20
303.183274
 30
0.0
 10
787.998050
 20
300.000000
 30
0.0
  0
SPLINE
  5
123
100
AcDbEntity
  8
0
 62
7
100
AcDbSpline
 70
8
 71
3
 72
8
 73
4
 74
0
 40
0
 40
0
 40
0
 40
0
 40
1
 40
1
 40
1
 40
1
 10
787.998050
 20
300.000000
 30
0.0
 10
787.997533
 20
296.816726
 30
0.0
 10
789.261854
 20
293.763683
 30
0.0
 10
791.512769
 20
291.512769
 30
0.0
  0
SPLINE
  5
124
100
AcDbEntity
  8
0
 62
7
100
AcDbSpline
 70
8
 71
3
 72
8
 73
4
 74
0
 40
0
 40
0
 40
0
 40
0
 40
1
 40
1
 40
1
 40
1
 10
791.512769
 20
291.512769
 30
0.0
 10
793.763683
 20
289.261854
 30
0.0
 10
796.816726
 20
287.997533
 30
0.0
 10
800.000000
 20
287.998050
 30
0.0
  0
LWPOLYLINE
  5
125
100
AcDbEntity
  8
0
 62
7
100
AcDbPolyline
 90
2
 70
0
 10
1200.000000
 20
362.001950
 30
0.0
 10
800.000000
 20
362.001950
 30
0.0
  0
SPLINE
  5
126
100
AcDbEntity
  8
0
 62
7
100
AcDbSpline
 70
8
 71
3
 72
8
 73
4
 74
0
 40
0
 40
0
 40
0
 40
0
 40
1
 40
1
 40
1
 40
1
 10
1200.000000
 20
287.998050
 30
0.0
 10
1203.183274
 20
287.997533
 30
0.0
 10
1206.236317
 20
289.261854
 30
0.0
 10
1208.487231
 20
291.512769
 30
0.0
  0
SPLINE
  5
127
100
AcDbEntity
  8
0
 62
7
100
AcDbSpline
 70
8
 71
3
 72
8
 73
4
 74
0
 40
0
 40
0
 40
0
 40
0
 40
1
 40
1
 40
1
 40
1
 10
1208.487231
 20
291.512769
 30
0.0
 10
1210.738146
 20
293.763683
 30
0.0
 10
1212.002467
 20
296.816726
 30
0.0
 10
1212.001950
 20
300.000000
 30
0.0
  0
SPLINE
  5
128
100
AcDbEntity
  8
0
 62
7
100
AcDbSpline
 70
8
 71
3
 72
8
 73
4
 74
0
 40
0
 40
0
 40
0
 40
0
 40
1
 40
1
 40
1
 40
1
 10
1212.001950
 20
300.000000
 30
0.0
 10
1212.002467
 20
303.183274
 30
0.0
 10
1210.738146
 20
306.236317
 30
0.0
 10
1208.487231
 20
308.487231
 30
0.0
  0
SPLINE
  5
129
100
AcDbEntity
  8
0
 62
7
100
AcDbSpline
 70
8
 71
3
 72
8
 73
4
 74
0
 40
0
 40
0
 40
0
 40
0
 40
1
 40
1
 40
1
 40
1
 10
1208.487231
 20
308.487231
 30
0.0
 10
1206.236317
 20
310.738146
 30
0.0
 10
1203.183274
 20
312.002467
 30
0.0
 10
1200.000000
 20
312.001950
 30
0.0
  0
LWPOLYLINE
  5
12a
100
AcDbEntity
  8
0
 62
7
100
AcDbPolyline
 90
2
 70
0
 10
800.000000
 20
287.998050
 30
0.0
 10
1200.000000
 20
287.998050
 30
0.0
  0
SPLINE
  5
12b
100
AcDbEntity
  8
0
 62
7
100
AcDbSpline
 70
8
 71
3
 72
8
 73
4
 74
0
 40
0
 40
0
 40
0
 40
0
 40
1
 40
1
 40
1
 40
1
 10
825.000000
 20
262.001950
 30
0.0
 10
821.816824
 20
262.002149
 30
0.0
 10
818.763966
 20
260.737725
 30
0.0
 10
816.513120
 20
258.486880
 30
0.0
  0
SPLINE
  5
12c
100
AcDbEntity
  8
0
 62
7
100
AcDbSpline
 70
8
 71
3
 72
8
 73
4
 74
0
 40
0
 40
0
 40
0
 40
0
 40
1
 40
1
 40
1
 40
1
 10
816.513120
 20
258.486880
 30
0.0
 10
814.262275
 20
256.236034
 30
0.0
 10
812.997851
 20
253.183176
 30
0.0
 10
812.998050
 20
250.000000
 30
0.0
  0
LWPOLYLINE
  5
12d
100
AcDbEntity
  8
0
 62
7
100
AcDbPolyline
 90
2
 70
0
 10
1200.000000
 20
312.001950
 30
0.0
 10
800.000000
 20
312.001950
 30
0.0
  0
SPLINE
  5
12e
100
AcDbEntity
  8
0
 62
7
100
AcDbSpline
 70
8
 71
3
 72
8
 73
4
 74
0
 40
0
 40
0
 40
0
 40
0
 40
1
 40
1
 40
1
 40
1
 10
812.998050
 20
200.000000
 30
0.0
 10
812.997851
 20
196.816824
 30
0.0
 10
814.262275
 20
193.763966
 30
0.0
 10
816.513120
 20
191.513120
 30
0.0
  0
SPLINE
  5
12f
100
AcDbEntity
  8
0
 62
7
100
AcDbSpline
 70
8
 71
3
 72
8
 73
4
 74
0
 40
0
 40
0
 40
0
 40
0
 40
1
 40
1
 40
1
 40
1
 10
816.513120
 20
191.513120
 30
0.0
 10
818.763966
 20
189.262275
 30
0.0
 10
821.816824
 20
187.997851
 30
0.0
 10
825.000000
 20
187.998050
 30
0.0
  0
LWPOLYLINE
  5
130
100
AcDbEntity
  8
0
 62
7
100
AcDbPolyline
 90
2
 70
0
 10
812.998050
 20
250.000000
 30
0.0
 10
812.998050
 20
200.000000
 30
0.0
  0
SPLINE
  5
131
100
AcDbEntity
  8
0
 62
7
100
AcDbSpline
 70
8
 71
3
 72
8
 73
4
 74
0
 40
0
 40
0
 40
0
 40
0
 40
1
 40
1
 40
1
 40
1
 10
862.998050
 20
175.000000
 30
0.0
 10
862.997851
 20
171.816824
 30
0.0
 10
864.262275
 20
168.763966
 30
0.0
 10
866.513120
 20
166.513120
 30
0.0
  0
SPLINE
  5
132
100
AcDbEntity
  8
0
 62
7
100
AcDbSpline
 70
8
 71
3
 72
8
 73
4
 74
0
 40
0
 40
0
 40
0
 40
0
 40
1
 40
1
 40
1
 40
1
 10
866.513120
 20
166.513120
 30
0.0
 10
868.763966
 20
164.262275
 30
0.0
 10
871.816824
 20
162.997851
 30
0.0
 10
875.000000
 20
162.998050
 30
0.0
  0
LWPOLYLINE
  5
133
100
AcDbEntity
  8
0
 62
7
100
AcDbPolyline
 90
3
 70
0
 10
825.000000
 20
187.998050
 30
0.0
 10
862.998050
 20
187.998050
 30
0.0
 10
862.998050
 20
175.000000
 30
0.0
  0
SPLINE
  5
134
100
AcDbEntity
  8
0
 62
7
100
AcDbSpline
 70
8
 71
3
 72
8
 73
4
 74
0
 40
0
 40
0
 40
0
 40
0
 40
1
 40
1
 40
1
 40
1
 10
1125.000000
 20
162.998050
 30
0.0
 10
1128.183176
 20
162.997851
 30
0.0
 10
1131.236034
 20
164.262275
 30
0.0
 10
1133.486880
 20
166.513120
 30
0.0
  0
SPLINE
  5
135
100
AcDbEntity
  8
0
 62
7
100
AcDbSpline
 70
8
 71
3
 72
8
 73
4
 74
0
 40
0
 40
0
 40
0
 40
0
 40
1
 40
1
 40
1
 40
1
 10
1133.486880
 20
166.513120
 30
0.0
 10
1135.737725
 20
168.763966
 30
0.0
 10
1137.002149
 20
171.816824
 30
0.0
 10
1137.001950
 20
175.000000
 30
0.0
  0
LWPOLYLINE
  5
136
100
AcDbEntity
  8
0
 62
7
100
AcDbPolyline
 90
2
 70
0
 10
875.000000
 20
162.998050
 30
0.0
 10
1125.000000
 20
162.998050
 30
0.0
  0
SPLINE
  5
137
100
AcDbEntity
  8
0
 62
7
100
AcDbSpline
 70
8
 71
3
 72
8
 73
4
 74
0
 40
0
 40
0
 40
0
 40
0
 40
1
 40
1
 40
1
 40
1
 10
1175.000000
 20
187.998050
 30
0.0
 10
1178.183176
 20
187.997851
 30
0.0
 10
1181.236034
 20
189.262275
 30
0.0
 10
1183.486880
 20
191.513120
 30
0.0
  0
SPLINE
  5
138
100
AcDbEntity
  8
0
 62
7
100
AcDbSpline
 70
8
 71
3
 72
8
 73
4
 74
0
 40
0
 40
0
 40
0
 40
0
 40
1
 40
1
 40
1
 40
1
 10
1183.486880
 20
191.513120
 30
0.0
 10
1185.737725
 20
193.763966
 30
0.0
 10
1187.002149
 20
196.816824
 30
0.0
 10
1187.001950
 20
200.000000
 30
0.0
  0
LWPOLYLINE
  5
139
100
AcDbEntity
  8
0
 62
7
100
AcDbPolyline
 90
3
 70
0
 10
1137.001950
 20
175.000000
 30
0.0
 10
1137.001950
 20
187.998050
 30
0.0
 10
1175.000000
 20
187.998050
 30
0.0
  0
SPLINE
  5
13a
100
AcDbEntity
  8
0
 62
7
100
AcDbSpline
 70
8
 71
3
 72
8
 73
4
 74
0
 40
0
 40
0
 40
0
 40
0
 40
1
 40
1
 40
1
 40
1
 10
1187.001950
 20
250.000000
 30
0.0
 10
1187.002149
 20
253.183176
 30
0.0
 10
1185.737725
 20
256.236034
 30
0.0
 10
1183.486880
 20
258.486880
 30
0.0
  0
SPLINE
  5
13b
100
AcDbEntity
  8
0
 62
7
100
AcDbSpline
 70
8
 71
3
 72
8
 73
4
 74
0
 40
0
 40
0
 40
0
 40
0
 40
1
 40
1
 40
1
 40
1
 10
1183.486880
 20
258.486880
 30
0.0
 10
1181.236034
 20
260.737725
 30
0.0
 10
1178.183176
 20
262.002149
 30
0.0
 10
1175.000000
 20
262.001950
 30
0.0
  0
LWPOLYLINE
  5
13c
100
AcDbEntity
  8
0
 62
7
100
AcDbPolyline
 90
2
 70
0
 10
1187.001950
 20
200.000000
 30
0.0
 10
1187.001950
 20
250.000000
 30
0.0
  0
LWPOLYLINE
  5
13d
100
AcDbEntity
  8
0
 62
7
100
AcDbPolyline
 90
2
 70
0
 10
1175.000000
 20
262.001950
 30
0.0
 10
825.000000
 20
262.001950
 30
0.0
  0
SPLINE
  5
13e
100
AcDbEntity
  8
0
 62
7
100
AcDbSpline
 70
8
 71
3
 72
8
 73
4
 74
0
 40
0
 40
0
 40
0
 40
0
 40
1
 40
1
 40
1
 40
1
 10
1125.000000
 20
212.001950
 30
0.0
 10
1121.816824
 20
212.002149
 30
0.0
 10
1118.763966
 20
210.737725
 30
0.0
 10
1116.513120
 20
208.486880
 30
0.0
  0
SPLINE
  5
13f
100
AcDbEntity
  8
0
 62
7
100
AcDbSpline
 70
8
 71
3
 72
8
 73
4
 74
0
 40
0
 40
0
 40
0
 40
0
 40
1
 40
1
 40
1
 40
1
 10
1116.513120
 20
208.486880
 30
0.0
 10
1114.262275
 20
206.236034
 30
0.0
 10
1112.997851
 20
203.183176
 30
0.0
 10
1112.998050
 20
200.000000
 30
0.0
  0
LWPOLYLINE
  5
140
100
AcDbEntity
  8
0
 62
7
100
AcDbPolyline
 90
4
 70
0
 10
837.001950
 20
237.998050
 30
0.0
 10
1162.998050
 20
237.998050
 30
0.0
 10
1162.998050
 20
212.001950
 30
0.0
 10
1125.000000
 20
212.001950
 30
0.0
  0
SPLINE
  5
141
100
AcDbEntity
  8
0
 62
7
100
AcDbSpline
 70
8
 71
3
 72
8
 73
4
 74
0
 40
0
 40
0
 40
0
 40
0
 40
1
 40
1
 40
1
 40
1
 10
887.001950
 20
200.000000
 30
0.0
 10
887.002149
 20
203.183176
 30
0.0
 10
885.737725
 20
206.236034
 30
0.0
 10
883.486880
 20
208.486880
 30
0.0
  0
SPLINE
  5
142
100
AcDbEntity
  8
0
 62
7
100
AcDbSpline
 70
8
 71
3
 72
8
 73
4
 74
0
 40
0
 40
0
 40
0
 40
0
 40
1
 40
1
 40
1
 40
1
 10
883.486880
 20
208.486880
 30
0.0
 10
881.236034
 20
210.737725
 30
0.0
 10
878.183176
 20
212.002149
 30
0.0
 10
875.000000
 20
212.001950
 30
0.0
  0
LWPOLYLINE
  5
143
100
AcDbEntity
  8
0
 62
7
100
AcDbPolyline
 90
4
 70
0
 10
1112.998050
 20
200.000000
 30
0.0
 10
1112.998050
 20
187.001950
 30
0.0
 10
887.001950
 20
187.001950
 30
0.0
 10
887.001950
 20
200.000000
 30
0.0
  0
SPLINE
  5
144
100
AcDbEntity
  8
0
 62
7
100
AcDbSpline
 70
8
 71
3
 72
8
 73
4
 74
0
 40
0
 40
0
 40
0
 40
0
 40
1
 40
1
 40
1
 40
1
 10
1225.000000
 20
1047.001950
 30
0.0
 10
1203.328100
 20
1047.001950
 30
0.0
 10
1184.923600
 20
1032.068460
 30
0.0
 10
1179.572300
 20
1012.001950
 30
0.0
  0
LWPOLYLINE
  5
145
100
AcDbEntity
  8
0
 62
7
100
AcDbPolyline
 90
3
 70
0
 10
875.000000
 20
212.001950
 30
0.0
 10
837.001950
 20
212.001950
 30
0.0
 10
837.001950
 20
237.998050
 30
0.0
  0
SPLINE
  5
146
100
AcDbEntity
  8
0
 62
7
100
AcDbSpline
 70
8
 71
3
 72
8
 73
4
 74
0
 40
0
 40
0
 40
0
 40
0
 40
1
 40
1
 40
1
 40
1
 10
1000.000000
 20
1012.001950
 30
0.0
 10
996.816726
 20
1012.002467
 30
0.0
 10
993.763683
 20
1010.738146
 30
0.0
 10
991.512769
 20
1008.487231
 30
0.0
  0
SPLINE
  5
147
100
AcDbEntity
  8
0
 62
7
100
AcDbSpline
 70
8
 71
3
 72
8
 73
4
 74
0
 40
0
 40
0
 40
0
 40
0
 40
1
 40
1
 40
1
 40
1
 10
991.512769
 20
1008.487231
 30
0.0
 10
989.261854
 20
1006.236317
 30
0.0
 10
987.997533
 20
1003.183274
 30
0.0
 10
987.998050
 20
1000.000000
 30
0.0
  0
SPLINE
  5
148
100
AcDbEntity
  8
0
 62
7
100
AcDbSpline
 70
8
 71
3
 72
8
 73
4
 74
0
 40
0
 40
0
 40
0
 40
0
 40
1
 40
1
 40
1
 40
1
 10
987.998050
 20
1000.000000
 30
0.0
 10
987.997520
 20
996.816718
 30
0.0
 10
989.261835
 20
993.763662
 30
0.0
 10
991.512751
 20
991.512736
 30
0.0
  0
SPLINE
  5
149
100
AcDbEntity
  8
0
 62
7
100
AcDbSpline
 70
8
 71
3
 72
8
 73
4
 74
0
 40
0
 40
0
 40
0
 40
0
 40
1
 40
1
 40
1
 40
1
 10
991.512751
 20
991.512736
 30
0.0
 10
993.763667
 20
989.261811
 30
0.0
 10
996.816718
 20
987.997483
 30
0.0
 10
1000.000000
 20
987.998000
 30
0.0
  0
LWPOLYLINE
  5
14a
100
AcDbEntity
  8
0
 62
7
100
AcDbPolyline
 90
2
 70
0
 10
1179.572300
 20
1012.001950
 30
0.0
 10
1000.000000
 20
1012.001950
 30
0.0
  0
SPLINE
  5
14b
100
AcDbEntity
  8
0
 62
7
100
AcDbSpline
 70
8
 71
3
 72
8
 73
4
 74
0
 40
0
 40
0
 40
0
 40
0
 40
1
 40
1
 40
1
 40
1
 10
1179.572300
 20
987.998000
 30
0.0
 10
1184.923600
 20
967.931500
 30
0.0
 10
1203.328100
 20
952.998000
 30
0.0
 10
1225.000000
 20
952.998000
 30
0.0
  0
SPLINE
  5
14c
100
AcDbEntity
  8
0
 62
7
100
AcDbSpline
 70
8
 71
3
 72
8
 73
4
 74
0
 40
0
 40
0
 40
0
 40
0
 40
1
 40
1
 40
1
 40
1
 10
1225.000000
 20
952.998000
 30
0.0
 10
1250.815200
 20
952.998000
 30
0.0
 10
1272.002000
 20
974.184800
 30
0.0
 10
1272.002000
 20
1000.000000
 30
0.0
  0
SPLINE
  5
14d
100
AcDbEntity
  8
0
 62
7
100
AcDbSpline
 70
8
 71
3
 72
8
 73
4
 74
0
 40
0
 40
0
 40
0
 40
0
 40
1
 40
1
 40
1
 40
1
 10
1272.002000
 20
1000.000000
 30
0.0
 10
1272.002000
 20
1025.815200
 30
0.0
 10
1250.815200
 20
1047.001950
 30
0.0
 10
1225.000000
 20
1047.001950
 30
0.0
  0
LWPOLYLINE
  5
14e
100
AcDbEntity
  8
0
 62
7
100
AcDbPolyline
 90
2
 70
0
 10
1000.000000
 20
987.998000
 30
0.0
 10
1179.572300
 20
987.998000
 30
0.0
  0
SPLINE
  5
14f
100
AcDbEntity
  8
0
 62
7
100
AcDbSpline
 70
8
 71
3
 72
8
 73
4
 74
0
 40
0
 40
0
 40
0
 40
0
 40
1
 40
1
 40
1
 40
1
 10
1225.000000
 20
1022.998050
 30
0.0
 10
1237.844700
 20
1022.998050
 30
0.0
 10
1247.998000
 20
1012.844650
 30
0.0
 10
1247.998000
 20
1000.000000
 30
0.0
  0
SPLINE
  5
150
100
AcDbEntity
  8
0
 62
7
100
AcDbSpline
 70
8
 71
3
 72
8
 73
4
 74
0
 40
0
 40
0
 40
0
 40
0
 40
1
 40
1
 40
1
 40
1
 10
1247.998000
 20
1000.000000
 30
0.0
 10
1247.998000
 20
987.155300
 30
0.0
 10
1237.844700
 20
977.002000
 30
0.0
 10
1225.000000
 20
977.002000
 30
0.0
  0
SPLINE
  5
151
100
AcDbEntity
  8
0
 62
7
100
AcDbSpline
 70
8
 71
3
 72
8
 73
4
 74
0
 40
0
 40
0
 40
0
 40
0
 40
1
 40
1
 40
1
 40
1
 10
1225.000000
 20
977.002000
 30
0.0
 10
1212.155300
 20
977.002000
 30
0.0
 10
1202.002000
 20
987.155400
 30
0.0
 10
1202.002000
 20
1000.000000
 30
0.0
  0
SPLINE
  5
152
100
AcDbEntity
  8
0
 62
7
100
AcDbSpline
 70
8
 71
3
 72
8
 73
4
 74
0
 40
0
 40
0
 40
0
 40
0
 40
1
 40
1
 40
1
 40
1
 10
1202.002000
 20
1000.000000
 30
0.0
 10
1202.002000
 20
1012.844650
 30
0.0
 10
1212.155300
 20
1022.998050
 30
0.0
 10
1225.000000
 20
1022.998050
 30
0.0
  0
LWPOLYLINE
  5
153
100
AcDbEntity
  8
0
 62
7
100
AcDbPolyline
 90
1
 70
1
 10
1225.000000
 20
1047.001950
 30
0.0
  0
SPLINE
  5
154
100
AcDbEntity
  8
0
 62
7
100
AcDbSpline
 70
8
 71
3
 72
8
 73
4
 74
0
 40
0
 40
0
 40
0
 40
0
 40
1
 40
1
 40
1
 40
1
 10
1300.000000
 20
1197.001950
 30
0.0
 10
1278.328100
 20
1197.001950
 30
0.0
 10
1259.923600
 20
1182.068460
 30
0.0
 10
1254.572300
 20
1162.001950
 30
0.0
  0
LWPOLYLINE
  5
155
100
AcDbEntity
  8
0
 62
7
100
AcDbPolyline
 90
1
 70
1
 10
1225.000000
 20
1022.998050
 30
0.0
  0
SPLINE
  5
156
100
AcDbEntity
  8
0
 62
7
100
AcDbSpline
 70
8
 71
3
 72
8
 73
4
 74
0
 40
0
 40
0
 40
0
 40
0
 40
1
 40
1
 40
1
 40
1
 10
1200.000000
 20
1162.001950
 30
0.0
 10
1196.816946
 20
1162.001849
 30
0.0
 10
1193.764313
 20
1160.737235
 30
0.0
 10
1191.513700
 20
1158.486330
 30
0.0
  0
LWPOLYLINE
  5
157
100
AcDbEntity
  8
0
 62
7
100
AcDbPolyline
 90
2
 70
0
 10
1254.572300
 20
1162.001950
 30
0.0
 10
1200.000000
 20
1162.001950
 30
0.0
  0
SPLINE
  5
158
100
AcDbEntity
  8
0
 62
7
100
AcDbSpline
 70
8
 71
3
 72
8
 73
4
 74
0
 40
0
 40
0
 40
0
 40
0
 40
1
 40
1
 40
1
 40
1
 10
1000.000000
 20
1112.001950
 30
0.0
 10
938.286250
 20
1112.001950
 30
0.0
 10
887.998050
 20
1061.713700
 30
0.0
 10
887.998050
 20
1000.000000
 30
0.0
  0
SPLINE
  5
159
100
AcDbEntity
  8
0
 62
7
100
AcDbSpline
 70
8
 71
3
 72
8
 73
4
 74
0
 40
0
 40
0
 40
0
 40
0
 40
1
 40
1
 40
1
 40
1
 10
887.998050
 20
1000.000000
 30
0.0
 10
887.998050
 20
938.286300
 30
0.0
 10
938.286250
 20
887.998000
 30
0.0
 10
1000.000000
 20
887.998000
 30
0.0
  0
LWPOLYLINE
  5
15a
100
AcDbEntity
  8
0
 62
7
100
AcDbPolyline
 90
3
 70
0
 10
1191.513700
 20
1158.486330
 30
0.0
 10
1145.029300
 20
1112.001950
 30
0.0
 10
1000.000000
 20
1112.001950
 30
0.0
  0
SPLINE
  5
15b
100
AcDbEntity
  8
0
 62
7
100
AcDbSpline
 70
8
 71
3
 72
8
 73
4
 74
0
 40
0
 40
0
 40
0
 40
0
 40
1
 40
1
 40
1
 40
1
 10
1191.513700
 20
841.513700
 30
0.0
 10
1193.764300
 20
839.262766
 30
0.0
 10
1196.816935
 20
837.998122
 30
0.0
 10
1200.000000
 20
837.998000
 30
0.0
  0
LWPOLYLINE
  5
15c
100
AcDbEntity
  8
0
 62
7
100
AcDbPolyline
 90
3
 70
0
 10
1000.000000
 20
887.998000
 30
0.0
 10
1145.029300
 20
887.998000
 30
0.0
 10
1191.513700
 20
841.513700
 30
0.0
  0
SPLINE
  5
15d
100
AcDbEntity
  8
0
 62
7
100
AcDbSpline
 70
8
 71
3
 72
8
 73
4
 74
0
 40
0
 40
0
 40
0
 40
0
 40
1
 40
1
 40
1
 40
1
 10
1254.572300
 20
837.998000
 30
0.0
 10
1259.923600
 20
817.931500
 30
0.0
 10
1278.328100
 20
802.998000
 30
0.0
 10
1300.000000
 20
802.998000
 30
0.0
  0
SPLINE
  5
15e
100
AcDbEntity
  8
0
 62
7
100
AcDbSpline
 70
8
 71
3
 72
8
 73
4
 74
0
 40
0
 40
0
 40
0
 40
0
 40
1
 40
1
 40
1
 40
1
 10
1300.000000
 20
802.998000
 30
0.0
 10
1325.815200
 20
802.998000
 30
0.0
 10
1347.002000
 20
824.184800
 30
0.0
 10
1347.002000
 20
850.000000
 30
0.0
  0
SPLINE
  5
15f
100
AcDbEntity
  8
0
 62
7
100
AcDbSpline
 70
8
 71
3
 72
8
 73
4
 74
0
 40
0
 40
0
 40
0
 40
0
 40
1
 40
1
 40
1
 40
1
 10
1347.002000
 20
850.000000
 30
0.0
 10
1347.002000
 20
875.815200
 30
0.0
 10
1325.815200
 20
897.002000
 30
0.0
 10
1300.000000
 20
897.002000
 30
0.0
  0
SPLINE
  5
160
100
AcDbEntity
  8
0
 62
7
100
AcDbSpline
 70
8
 71
3
 72
8
 73
4
 74
0
 40
0
 40
0
 40
0
 40
0
 40
1
 40
1
 40
1
 40
1
 10
1300.000000
 20
897.002000
 30
0.0
 10
1278.328100
 20
897.002000
 30
0.0
 10
1259.923600
 20
882.068500
 30
0.0
 10
1254.572300
 20
862.002000
 30
0.0
  0
LWPOLYLINE
  5
161
100
AcDbEntity
  8
0
 62
7
100
AcDbPolyline
 90
2
 70
0
 10
1200.000000
 20
837.998000
 30
0.0
 10
1254.572300
 20
837.998000
 30
0.0
  0
SPLINE
  5
162
100
AcDbEntity
  8
0
 62
7
100
AcDbSpline
 70
8
 71
3
 72
8
 73
4
 74
0
 40
0
 40
0
 40
0
 40
0
 40
1
 40
1
 40
1
 40
1
 10
1158.486300
 20
908.486300
 30
0.0
 10
1156.235700
 20
910.737234
 30
0.0
 10
1153.183065
 20
912.001878
 30
0.0
 10
1150.000000
 20
912.002000
 30
0.0
  0
LWPOLYLINE
  5
163
100
AcDbEntity
  8
0
 62
7
100
AcDbPolyline
 90
3
 70
0
 10
1254.572300
 20
862.002000
 30
0.0
 10
1204.970700
 20
862.002000
 30
0.0
 10
1158.486300
 20
908.486300
 30
0.0
  0
SPLINE
  5
164
100
AcDbEntity
  8
0
 62
7
100
AcDbSpline
 70
8
 71
3
 72
8
 73
4
 74
0
 40
0
 40
0
 40
0
 40
0
 40
1
 40
1
 40
1
 40
1
 10
1000.000000
 20
912.002000
 30
0.0
 10
951.256800
 20
912.002000
 30
0.0
 10
912.001950
 20
951.256800
 30
0.0
 10
912.001950
 20
1000.000000
 30
0.0
  0
SPLINE
  5
165
100
AcDbEntity
  8
0
 62
7
100
AcDbSpline
 70
8
 71
3
 72
8
 73
4
 74
0
 40
0
 40
0
 40
0
 40
0
 40
1
 40
1
 40
1
 40
1
 10
912.001950
 20
1000.000000
 30
0.0
 10
912.001950
 20
1048.743150
 30
0.0
 10
951.256800
 20
1087.998050
 30
0.0
 10
1000.000000
 20
1087.998050
 30
0.0
  0
LWPOLYLINE
  5
166
100
AcDbEntity
  8
0
 62
7
100
AcDbPolyline
 90
2
 70
0
 10
1150.000000
 20
912.002000
 30
0.0
 10
1000.000000
 20
912.002000
 30
0.0
  0
SPLINE
  5
167
100
AcDbEntity
  8
0
 62
7
100
AcDbSpline
 70
8
 71
3
 72
8
 73
4
 74
0
 40
0
 40
0
 40
0
 40
0
 40
1
 40
1
 40
1
 40
1
 10
1150.000000
 20
1087.998050
 30
0.0
 10
1153.183054
 20
1087.998151
 30
0.0
 10
1156.235687
 20
1089.262765
 30
0.0
 10
1158.486300
 20
1091.513670
 30
0.0
  0
LWPOLYLINE
  5
168
100
AcDbEntity
  8
0
 62
7
100
AcDbPolyline
 90
2
 70
0
 10
1000.000000
 20
1087.998050
 30
0.0
 10
1150.000000
 20
1087.998050
 30
0.0
  0
SPLINE
  5
169
100
AcDbEntity
  8
0
 62
7
100
AcDbSpline
 70
8
 71
3
 72
8
 73
4
 74
0
 40
0
 40
0
 40
0
 40
0
 40
1
 40
1
 40
1
 40
1
 10
1254.572300
 20
1137.998050
 30
0.0
 10
1259.923600
 20
1117.931540
 30
0.0
 10
1278.328100
 20
1102.998050
 30
0.0
 10
1300.000000
 20
1102.998050
 30
0.0
  0
SPLINE
  5
16a
100
AcDbEntity
  8
0
 62
7
100
AcDbSpline
 70
8
 71
3
 72
8
 73
4
 74
0
 40
0
 40
0
 40
0
 40
0
 40
1
 40
1
 40
1
 40
1
 10
1300.000000
 20
1102.998050
 30
0.0
 10
1325.815200
 20
1102.998050
 30
0.0
 10
1347.002000
 20
1124.184800
 30
0.0
 10
1347.002000
 20
1150.000000
 30
0.0
  0
SPLINE
  5
16b
100
AcDbEntity
  8
0
 62
7
100
AcDbSpline
 70
8
 71
3
 72
8
 73
4
 74
0
 40
0
 40
0
 40
0
 40
0
 40
1
 40
1
 40
1
 40
1
 10
1347.002000
 20
1150.000000
 30
0.0
 10
1347.002000
 20
1175.815200
 30
0.0
 10
1325.815200
 20
1197.001950
 30
0.0
 10
1300.000000
 20
1197.001950
 30
0.0
  0
LWPOLYLINE
  5
16c
100
AcDbEntity
  8
0
 62
7
100
AcDbPolyline
 90
3
 70
0
 10
1158.486300
 20
1091.513670
 30
0.0
 10
1204.970700
 20
1137.998050
 30
0.0
 10
1254.572300
 20
1137.998050
 30
0.0
  0
SPLINE
  5
16d
100
AcDbEntity
  8
0
 62
7
100
AcDbSpline
 70
8
 71
3
 72
8
 73
4
 74
0
 40
0
 40
0
 40
0
 40
0
 40
1
 40
1
 40
1
 40
1
 10
1300.000000
 20
1172.998050
 30
0.0
 10
1312.844700
 20
1172.998050
 30
0.0
 10
1322.998000
 20
1162.844650
 30
0.0
 10
1322.998000
 20
1150.000000
 30
0.0
  0
SPLINE
  5
16e
100
AcDbEntity
  8
0
 62
7
100
AcDbSpline
 70
8
 71
3
 72
8
 73
4
 74
0
 40
0
 40
0
 40
0
 40
0
 40
1
 40
1
 40
1
 40
1
 10
1322.998000
 20
1150.000000
 30
0.0
 10
1322.998000
 20
1137.155350
 30
0.0
 10
1312.844600
 20
1127.001950
 30
0.0
 10
1300.000000
 20
1127.001950
 30
0.0
  0
SPLINE
  5
16f
100
AcDbEntity
  8
0
 62
7
100
AcDbSpline
 70
8
 71
3
 72
8
 73
4
 74
0
 40
0
 40
0
 40
0
 40
0
 40
1
 40
1
 40
1
 40
1
 10
1300.000000
 20
1127.001950
 30
0.0
 10
1287.155300
 20
1127.001950
 30
0.0
 10
1277.002000
 20
1137.155350
 30
0.0
 10
1277.002000
 20
1150.000000
 30
0.0
  0
SPLINE
  5
170
100
AcDbEntity
  8
0
 62
7
100
AcDbSpline
 70
8
 71
3
 72
8
 73
4
 74
0
 40
0
 40
0
 40
0
 40
0
 40
1
 40
1
 40
1
 40
1
 10
1277.002000
 20
1150.000000
 30
0.0
 10
1277.002000
 20
1162.844650
 30
0.0
 10
1287.155300
 20
1172.998050
 30
0.0
 10
1300.000000
 20
1172.998050
 30
0.0
  0
LWPOLYLINE
  5
171
100
AcDbEntity
  8
0
 62
7
100
AcDbPolyline
 90
1
 70
1
 10
1300.000000
 20
1197.001950
 30
0.0
  0
SPLINE
  5
172
100
AcDbEntity
  8
0
 62
7
100
AcDbSpline
 70
8
 71
3
 72
8
 73
4
 74
0
 40
0
 40
0
 40
0
 40
0
 40
1
 40
1
 40
1
 40
1
 10
1300.000000
 20
872.998000
 30
0.0
 10
1312.844700
 20
872.998000
 30
0.0
 10
1322.998000
 20
862.844600
 30
0.0
 10
1322.998000
 20
850.000000
 30
0.0
  0
SPLINE
  5
173
100
AcDbEntity
  8
0
 62
7
100
AcDbSpline
 70
8
 71
3
 72
8
 73
4
 74
0
 40
0
 40
0
 40
0
 40
0
 40
1
 40
1
 40
1
 40
1
 10
1322.998000
 20
850.000000
 30
0.0
 10
1322.998000
 20
837.155400
 30
0.0
 10
1312.844600
 20
827.002000
 30
0.0
 10
1300.000000
 20
827.002000
 30
0.0
  0
SPLINE
  5
174
100
AcDbEntity
  8
0
 62
7
100
AcDbSpline
 70
8
 71
3
 72
8
 73
4
 74
0
 40
0
 40
0
 40
0
 40
0
 40
1
 40
1
 40
1
 40
1
 10
1300.000000
 20
827.002000
 30
0.0
 10
1287.155300
 20
827.002000
 30
0.0
 10
1277.002000
 20
837.155400
 30
0.0
 10
1277.002000
 20
850.000000
 30
0.0
  0
SPLINE
  5
175
100
AcDbEntity
  8
0
 62
7
100
AcDbSpline
 70
8
 71
3
 72
8
 73
4
 74
0
 40
0
 40
0
 40
0
 40
0
 40
1
 40
1
 40
1
 40
1
 10
1277.002000
 20
850.000000
 30
0.0
 10
1277.002000
 20
862.844700
 30
0.0
 10
1287.155300
 20
872.998000
 30
0.0
 10
1300.000000
 20
872.998000
 30
0.0
  0
LWPOLYLINE
  5
176
100
AcDbEntity
  8
0
 62
7
100
AcDbPolyline
 90
1
 70
1
 10
1300.000000
 20
1172.998050
 30
0.0
  0
SPLINE
  5
177
100
AcDbEntity
  8
0
 62
7
100
AcDbSpline
 70
8
 71
3
 72
8
 73
4
 74
0
 40
0
 40
0
 40
0
 40
0
 40
1
 40
1
 40
1
 40
1
 10
1175.000000
 20
1322.001950
 30
0.0
 10
1149.184800
 20
1322.001950
 30
0.0
 10
1127.998000
 20
1300.815200
 30
0.0
 10
1127.998000
 20
1275.000000
 30
0.0
  0
SPLINE
  5
178
100
AcDbEntity
  8
0
 62
7
100
AcDbSpline
 70
8
 71
3
 72
8
 73
4
 74
0
 40
0
 40
0
 40
0
 40
0
 40
1
 40
1
 40
1
 40
1
 10
1127.998000
 20
1275.000000
 30
0.0
 10
1127.998000
 20
1266.416340
 30
0.0
 10
1130.351700
 20
1258.351910
 30
0.0
 10
1134.427700
 20
1251.400390
 30
0.0
  0
LWPOLYLINE
  5
179
100
AcDbEntity
  8
0
 62
7
100
AcDbPolyline
 90
1
 70
1
 10
1300.000000
 20
872.998000
 30
0.0
  0
SPLINE
  5
17a
100
AcDbEntity
  8
0
 62
7
100
AcDbSpline
 70
8
 71
3
 72
8
 73
4
 74
0
 40
0
 40
0
 40
0
 40
0
 40
1
 40
1
 40
1
 40
1
 10
1000.000000
 20
1212.001950
 30
0.0
 10
883.057800
 20
1212.001950
 30
0.0
 10
787.998050
 20
1116.942100
 30
0.0
 10
787.998050
 20
1000.000000
 30
0.0
  0
SPLINE
  5
17b
100
AcDbEntity
  8
0
 62
7
100
AcDbSpline
 70
8
 71
3
 72
8
 73
4
 74
0
 40
0
 40
0
 40
0
 40
0
 40
1
 40
1
 40
1
 40
1
 10
787.998050
 20
1000.000000
 30
0.0
 10
787.998050
 20
883.057900
 30
0.0
 10
883.057800
 20
787.998000
 30
0.0
 10
1000.000000
 20
787.998000
 30
0.0
  0
LWPOLYLINE
  5
17c
100
AcDbEntity
  8
0
 62
7
100
AcDbPolyline
 90
3
 70
0
 10
1134.427700
 20
1251.400390
 30
0.0
 10
1095.029300
 20
1212.001950
 30
0.0
 10
1000.000000
 20
1212.001950
 30
0.0
  0
SPLINE
  5
17d
100
AcDbEntity
  8
0
 62
7
100
AcDbSpline
 70
8
 71
3
 72
8
 73
4
 74
0
 40
0
 40
0
 40
0
 40
0
 40
1
 40
1
 40
1
 40
1
 10
1134.427700
 20
748.599600
 30
0.0
 10
1130.351700
 20
741.648100
 30
0.0
 10
1127.998000
 20
733.583700
 30
0.0
 10
1127.998000
 20
725.000000
 30
0.0
  0
SPLINE
  5
17e
100
AcDbEntity
  8
0
 62
7
100
AcDbSpline
 70
8
 71
3
 72
8
 73
4
 74
0
 40
0
 40
0
 40
0
 40
0
 40
1
 40
1
 40
1
 40
1
 10
1127.998000
 20
725.000000
 30
0.0
 10
1127.998000
 20
699.184800
 30
0.0
 10
1149.184800
 20
677.998000
 30
0.0
 10
1175.000000
 20
677.998000
 30
0.0
  0
SPLINE
  5
17f
100
AcDbEntity
  8
0
 62
7
100
AcDbSpline
 70
8
 71
3
 72
8
 73
4
 74
0
 40
0
 40
0
 40
0
 40
0
 40
1
 40
1
 40
1
 40
1
 10
1175.000000
 20
677.998000
 30
0.0
 10
1200.815200
 20
677.998000
 30
0.0
 10
1222.002000
 20
699.184800
 30
0.0
 10
1222.002000
 20
725.000000
 30
0.0
  0
SPLINE
  5
180
100
AcDbEntity
  8
0
 62
7
100
AcDbSpline
 70
8
 71
3
 72
8
 73
4
 74
0
 40
0
 40
0
 40
0
 40
0
 40
1
 40
1
 40
1
 40
1
 10
1222.002000
 20
725.000000
 30
0.0
 10
1222.002000
 20
750.815200
 30
0.0
 10
1200.815200
 20
772.002000
 30
0.0
 10
1175.000000
 20
772.002000
 30
0.0
  0
SPLINE
  5
181
100
AcDbEntity
  8
0
 62
7
100
AcDbSpline
 70
8
 71
3
 72
8
 73
4
 74
0
 40
0
 40
0
 40
0
 40
0
 40
1
 40
1
 40
1
 40
1
 10
1175.000000
 20
772.002000
 30
0.0
 10
1166.416300
 20
772.002000
 30
0.0
 10
1158.351900
 20
769.648300
 30
0.0
 10
1151.400400
 20
765.572300
 30
0.0
  0
LWPOLYLINE
  5
182
100
AcDbEntity
  8
0
 62
7
100
AcDbPolyline
 90
3
 70
0
 10
1000.000000
 20
787.998000
 30
0.0
 10
1095.029300
 20
787.998000
 30
0.0
 10
1134.427700
 20
748.599600
 30
0.0
  0
SPLINE
  5
183
100
AcDbEntity
  8
0
 62
7
100
AcDbSpline
 70
8
 71
3
 72
8
 73
4
 74
0
 40
0
 40
0
 40
0
 40
0
 40
1
 40
1
 40
1
 40
1
 10
1108.486300
 20
808.486300
 30
0.0
 10
1106.235700
 20
810.737234
 30
0.0
 10
1103.183065
 20
812.001878
 30
0.0
 10
1100.000000
 20
812.002000
 30
0.0
  0
LWPOLYLINE
  5
184
100
AcDbEntity
  8
0
 62
7
100
AcDbPolyline
 90
2
 70
0
 10
1151.400400
 20
765.572300
 30
0.0
 10
1108.486300
 20
808.486300
 30
0.0
  0
SPLINE
  5
185
100
AcDbEntity
  8
0
 62
7
100
AcDbSpline
 70
8
 71
3
 72
8
 73
4
 74
0
 40
0
 40
0
 40
0
 40
0
 40
1
 40
1
 40
1
 40
1
 10
1000.000000
 20
812.002000
 30
0.0
 10
896.028350
 20
812.002000
 30
0.0
 10
812.001950
 20
896.028400
 30
0.0
 10
812.001950
 20
1000.000000
 30
0.0
  0
SPLINE
  5
186
100
AcDbEntity
  8
0
 62
7
100
AcDbSpline
 70
8
 71
3
 72
8
 73
4
 74
0
 40
0
 40
0
 40
0
 40
0
 40
1
 40
1
 40
1
 40
1
 10
812.001950
 20
1000.000000
 30
0.0
 10
812.001950
 20
1103.971550
 30
0.0
 10
896.028350
 20
1187.998050
 30
0.0
 10
1000.000000
 20
1187.998050
 30
0.0
  0
LWPOLYLINE
  5
187
100
AcDbEntity
  8
0
 62
7
100
AcDbPolyline
 90
2
 70
0
 10
1100.000000
 20
812.002000
 30
0.0
 10
1000.000000
 20
812.002000
 30
0.0
  0
SPLINE
  5
188
100
AcDbEntity
  8
0
 62
7
100
AcDbSpline
 70
8
 71
3
 72
8
 73
4
 74
0
 40
0
 40
0
 40
0
 40
0
 40
1
 40
1
 40
1
 40
1
 10
1100.000000
 20
1187.998050
 30
0.0
 10
1103.183054
 20
1187.998151
 30
0.0
 10
1106.235687
 20
1189.262765
 30
0.0
 10
1108.486300
 20
1191.513670
 30
0.0
  0
LWPOLYLINE
  5
189
100
AcDbEntity
  8
0
 62
7
100
AcDbPolyline
 90
2
 70
0
 10
1000.000000
 20
1187.998050
 30
0.0
 10
1100.000000
 20
1187.998050
 30
0.0
  0
SPLINE
  5
18a
100
AcDbEntity
  8
0
 62
7
100
AcDbSpline
 70
8
 71
3
 72
8
 73
4
 74
0
 40
0
 40
0
 40
0
 40
0
 40
1
 40
1
 40
1
 40
1
 10
1151.400400
 20
1234.427730
 30
0.0
 10
1158.351900
 20
1230.351670
 30
0.0
 10
1166.416300
 20
1227.998050
 30
0.0
 10
1175.000000
 20
1227.998050
 30
0.0
  0
SPLINE
  5
18b
100
AcDbEntity
  8
0
 62
7
100
AcDbSpline
 70
8
 71
3
 72
8
 73
4
 74
0
 40
0
 40
0
 40
0
 40
0
 40
1
 40
1
 40
1
 40
1
 10
1175.000000
 20
1227.998050
 30
0.0
 10
1200.815200
 20
1227.998050
 30
0.0
 10
1222.002000
 20
1249.184800
 30
0.0
 10
1222.002000
 20
1275.000000
 30
0.0
  0
SPLINE
  5
18c
100
AcDbEntity
  8
0
 62
7
100
AcDbSpline
 70
8
 71
3
 72
8
 73
4
 74
0
 40
0
 40
0
 40
0
 40
0
 40
1
 40
1
 40
1
 40
1
 10
1222.002000
 20
1275.000000
 30
0.0
 10
1222.002000
 20
1300.815200
 30
0.0
 10
1200.815200
 20
1322.001950
 30
0.0
 10
1175.000000
 20
1322.001950
 30
0.0
  0
LWPOLYLINE
  5
18d
100
AcDbEntity
  8
0
 62
7
100
AcDbPolyline
 90
2
 70
0
 10
1108.486300
 20
1191.513670
 30
0.0
 10
1151.400400
 20
1234.427730
 30
0.0
  0
SPLINE
  5
18e
100
AcDbEntity
  8
0
 62
7
100
AcDbSpline
 70
8
 71
3
 72
8
 73
4
 74
0
 40
0
 40
0
 40
0
 40
0
 40
1
 40
1
 40
1
 40
1
 10
1175.000000
 20
1297.998050
 30
0.0
 10
1187.844700
 20
1297.998050
 30
0.0
 10
1197.998000
 20
1287.844650
 30
0.0
 10
1197.998000
 20
1275.000000
 30
0.0
  0
SPLINE
  5
18f
100
AcDbEntity
  8
0
 62
7
100
AcDbSpline
 70
8
 71
3
 72
8
 73
4
 74
0
 40
0
 40
0
 40
0
 40
0
 40
1
 40
1
 40
1
 40
1
 10
1197.998000
 20
1275.000000
 30
0.0
 10
1197.998000
 20
1262.155350
 30
0.0
 10
1187.844700
 20
1252.001950
 30
0.0
 10
1175.000000
 20
1252.001950
 30
0.0
  0
SPLINE
  5
190
100
AcDbEntity
  8
0
 62
7
100
AcDbSpline
 70
8
 71
3
 72
8
 73
4
 74
0
 40
0
 40
0
 40
0
 40
0
 40
1
 40
1
 40
1
 40
1
 10
1175.000000
 20
1252.001950
 30
0.0
 10
1168.864900
 20
1252.001950
 30
0.0
 10
1163.359600
 20
1254.334710
 30
0.0
 10
1159.265600
 20
1258.154300
 30
0.0
  0
SPLINE
  5
191
100
AcDbEntity
  8
0
 62
7
100
AcDbSpline
 70
8
 71
3
 72
8
 73
4
 74
0
 40
0
 40
0
 40
0
 40
0
 40
1
 40
1
 40
1
 40
1
 10
1159.265600
 20
1258.154300
 30
0.0
 10
1159.096920
 20
1258.355302
 30
0.0
 10
1158.921692
 20
1258.550717
 30
0.0
 10
1158.740200
 20
1258.740230
 30
0.0
  0
SPLINE
  5
192
100
AcDbEntity
  8
0
 62
7
100
AcDbSpline
 70
8
 71
3
 72
8
 73
4
 74
0
 40
0
 40
0
 40
0
 40
0
 40
1
 40
1
 40
1
 40
1
 10
1158.740200
 20
1258.740230
 30
0.0
 10
1158.623430
 20
1258.832927
 30
0.0
 10
1158.504943
 20
1258.923439
 30
0.0
 10
1158.384800
 20
1259.011720
 30
0.0
  0
SPLINE
  5
193
100
AcDbEntity
  8
0
 62
7
100
AcDbSpline
 70
8
 71
3
 72
8
 73
4
 74
0
 40
0
 40
0
 40
0
 40
0
 40
1
 40
1
 40
1
 40
1
 10
1158.384800
 20
1259.011720
 30
0.0
 10
1154.425000
 20
1263.129490
 30
0.0
 10
1152.002000
 20
1268.739730
 30
0.0
 10
1152.002000
 20
1275.000000
 30
0.0
  0
SPLINE
  5
194
100
AcDbEntity
  8
0
 62
7
100
AcDbSpline
 70
8
 71
3
 72
8
 73
4
 74
0
 40
0
 40
0
 40
0
 40
0
 40
1
 40
1
 40
1
 40
1
 10
1152.002000
 20
1275.000000
 30
0.0
 10
1152.002000
 20
1287.844650
 30
0.0
 10
1162.155300
 20
1297.998050
 30
0.0
 10
1175.000000
 20
1297.998050
 30
0.0
  0
LWPOLYLINE
  5
195
100
AcDbEntity
  8
0
 62
7
100
AcDbPolyline
 90
1
 70
1
 10
1175.000000
 20
1322.001950
 30
0.0
  0
SPLINE
  5
196
100
AcDbEntity
  8
0
 62
7
100
AcDbSpline
 70
8
 71
3
 72
8
 73
4
 74
0
 40
0
 40
0
 40
0
 40
0
 40
1
 40
1
 40
1
 40
1
 10
1175.000000
 20
747.998000
 30
0.0
 10
1187.844700
 20
747.998000
 30
0.0
 10
1197.998000
 20
737.844600
 30
0.0
 10
1197.998000
 20
725.000000
 30
0.0
  0
SPLINE
  5
197
100
AcDbEntity
  8
0
 62
7
100
AcDbSpline
 70
8
 71
3
 72
8
 73
4
 74
0
 40
0
 40
0
 40
0
 40
0
 40
1
 40
1
 40
1
 40
1
 10
1197.998000
 20
725.000000
 30
0.0
 10
1197.998000
 20
712.155400
 30
0.0
 10
1187.844700
 20
702.002000
 30
0.0
 10
1175.000000
 20
702.002000
 30
0.0
  0
SPLINE
  5
198
100
AcDbEntity
  8
0
 62
7
100
AcDbSpline
 70
8
 71
3
 72
8
 73
4
 74
0
 40
0
 40
0
 40
0
 40
0
 40
1
 40
1
 40
1
 40
1
 10
1175.000000
 20
702.002000
 30
0.0
 10
1162.155300
 20
702.002000
 30
0.0
 10
1152.002000
 20
712.155300
 30
0.0
 10
1152.002000
 20
725.000000
 30
0.0
  0
SPLINE
  5
199
100
AcDbEntity
  8
0
 62
7
100
AcDbSpline
 70
8
 71
3
 72
8
 73
4
 74
0
 40
0
 40
0
 40
0
 40
0
 40
1
 40
1
 40
1
 40
1
 10
1152.002000
 20
725.000000
 30
0.0
 10
1152.002000
 20
731.280900
 30
0.0
 10
1154.440700
 20
736.907900
 30
0.0
 10
1158.423800
 20
741.029300
 30
0.0
  0
SPLINE
  5
19a
100
AcDbEntity
  8
0
 62
7
100
AcDbSpline
 70
8
 71
3
 72
8
 73
4
 74
0
 40
0
 40
0
 40
0
 40
0
 40
1
 40
1
 40
1
 40
1
 10
1158.423800
 20
741.029300
 30
0.0
 10
1158.530513
 20
741.104408
 30
0.0
 10
1158.635994
 20
741.181251
 30
0.0
 10
1158.740200
 20
741.259800
 30
0.0
  0
SPLINE
  5
19b
100
AcDbEntity
  8
0
 62
7
100
AcDbSpline
 70
8
 71
3
 72
8
 73
4
 74
0
 40
0
 40
0
 40
0
 40
0
 40
1
 40
1
 40
1
 40
1
 10
1158.740200
 20
741.259800
 30
0.0
 10
1158.921692
 20
741.449303
 30
0.0
 10
1159.096919
 20
741.644708
 30
0.0
 10
1159.265600
 20
741.845700
 30
0.0
  0
SPLINE
  5
19c
100
AcDbEntity
  8
0
 62
7
100
AcDbSpline
 70
8
 71
3
 72
8
 73
4
 74
0
 40
0
 40
0
 40
0
 40
0
 40
1
 40
1
 40
1
 40
1
 10
1159.265600
 20
741.845700
 30
0.0
 10
1163.359600
 20
745.665300
 30
0.0
 10
1168.864900
 20
747.998000
 30
0.0
 10
1175.000000
 20
747.998000
 30
0.0
  0
LWPOLYLINE
  5
19d
100
AcDbEntity
  8
0
 62
7
100
AcDbPolyline
 90
1
 70
1
 10
1175.000000
 20
1297.998050
 30
0.0
  0
SPLINE
  5
19e
100
AcDbEntity
  8
0
 62
7
100
AcDbSpline
 70
8
 71
3
 72
8
 73
4
 74
0
 40
0
 40
0
 40
0
 40
0
 40
1
 40
1
 40
1
 40
1
 10
965.000000
 20
1377.001950
 30
0.0
 10
960.635110
 20
1377.000807
 30
0.0
 10
956.615000
 20
1374.629881
 30
0.0
 10
954.501950
 20
1370.810550
 30
0.0
  0
LWPOLYLINE
  5
19f
100
AcDbEntity
  8
0
 62
7
100
AcDbPolyline
 90
1
 70
1
 10
1175.000000
 20
747.998000
 30
0.0
  0
SPLINE
  5
1a0
100
AcDbEntity
  8
0
 62
7
100
AcDbSpline
 70
8
 71
3
 72
8
 73
4
 74
0
 40
0
 40
0
 40
0
 40
0
 40
1
 40
1
 40
1
 40
1
 10
854.003900
 20
1343.876950
 30
0.0
 10
850.262549
 20
1346.133255
 30
0.0
 10
845.590595
 20
1346.178070
 30
0.0
 10
841.806650
 20
1343.993950
 30
0.0
  0
LWPOLYLINE
  5
1a1
100
AcDbEntity
  8
0
 62
7
100
AcDbPolyline
 90
4
 70
0
 10
954.501950
 20
1370.810550
 30
0.0
 10
939.072250
 20
1342.910150
 30
0.0
 10
881.308600
 20
1327.441400
 30
0.0
 10
854.003900
 20
1343.876950
 30
0.0
  0
SPLINE
  5
1a2
100
AcDbEntity
  8
0
 62
7
100
AcDbSpline
 70
8
 71
3
 72
8
 73
4
 74
0
 40
0
 40
0
 40
0
 40
0
 40
1
 40
1
 40
1
 40
1
 10
781.191400
 20
1308.993950
 30
0.0
 10
777.410411
 20
1306.809820
 30
0.0
 10
775.114053
 20
1302.744442
 30
0.0
 10
775.195300
 20
1298.378700
 30
0.0
  0
LWPOLYLINE
  5
1a3
100
AcDbEntity
  8
0
 62
7
100
AcDbPolyline
 90
2
 70
0
 10
841.806650
 20
1343.993950
 30
0.0
 10
781.191400
 20
1308.993950
 30
0.0
  0
SPLINE
  5
1a4
100
AcDbEntity
  8
0
 62
7
100
AcDbSpline
 70
8
 71
3
 72
8
 73
4
 74
0
 40
0
 40
0
 40
0
 40
0
 40
1
 40
1
 40
1
 40
1
 10
701.621100
 20
1224.804500
 30
0.0
 10
697.255358
 20
1224.885747
 30
0.0
 10
693.189980
 20
1222.589389
 30
0.0
 10
691.005850
 20
1218.808400
 30
0.0
  0
LWPOLYLINE
  5
1a5
100
AcDbEntity
  8
0
 62
7
100
AcDbPolyline
 90
4
 70
0
 10
775.195300
 20
1298.378700
 30
0.0
 10
775.771500
 20
1266.503700
 30
0.0
 10
733.496100
 20
1224.228300
 30
0.0
 10
701.621100
 20
1224.804500
 30
0.0
  0
SPLINE
  5
1a6
100
AcDbEntity
  8
0
 62
7
100
AcDbSpline
 70
8
 71
3
 72
8
 73
4
 74
0
 40
0
 40
0
 40
0
 40
0
 40
1
 40
1
 40
1
 40
1
 10
656.005850
 20
1158.193150
 30
0.0
 10
653.821730
 20
1154.409205
 30
0.0
 10
653.866545
 20
1149.737251
 30
0.0
 10
656.122850
 20
1145.995900
 30
0.0
  0
LWPOLYLINE
  5
1a7
100
AcDbEntity
  8
0
 62
7
100
AcDbPolyline
 90
2
 70
0
 10
691.005850
 20
1218.808400
 30
0.0
 10
656.005850
 20
1158.193150
 30
0.0
  0
SPLINE
  5
1a8
100
AcDbEntity
  8
0
 62
7
100
AcDbSpline
 70
8
 71
3
 72
8
 73
4
 74
0
 40
0
 40
0
 40
0
 40
0
 40
1
 40
1
 40
1
 40
1
 10
629.189250
 20
1045.497850
 30
0.0
 10
625.370059
 20
1043.384782
 30
0.0
 10
622.999225
 20
1039.364776
 30
0.0
 10
622.998050
 20
1035.000000
 30
0.0
  0
LWPOLYLINE
  5
1a9
100
AcDbEntity
  8
0
 62
7
100
AcDbPolyline
 90
4
 70
0
 10
656.122850
 20
1145.995900
 30
0.0
 10
672.558400
 20
1118.691200
 30
0.0
 10
657.089650
 20
1060.927550
 30
0.0
 10
629.189250
 20
1045.497850
 30
0.0
  0
SPLINE
  5
1aa
100
AcDbEntity
  8
0
 62
7
100
AcDbSpline
 70
8
 71
3
 72
8
 73
4
 74
0
 40
0
 40
0
 40
0
 40
0
 40
1
 40
1
 40
1
 40
1
 10
622.998050
 20
965.000000
 30
0.0
 10
622.999193
 20
960.635110
 30
0.0
 10
625.370119
 20
956.615000
 30
0.0
 10
629.189450
 20
954.501950
 30
0.0
  0
LWPOLYLINE
  5
1ab
100
AcDbEntity
  8
0
 62
7
100
AcDbPolyline
 90
2
 70
0
 10
622.998050
 20
1035.000000
 30
0.0
 10
622.998050
 20
965.000000
 30
0.0
  0
SPLINE
  5
1ac
100
AcDbEntity
  8
0
 62
7
100
AcDbSpline
 70
8
 71
3
 72
8
 73
4
 74
0
 40
0
 40
0
 40
0
 40
0
 40
1
 40
1
 40
1
 40
1
 10
656.123050
 20
854.003900
 30
0.0
 10
653.866745
 20
850.262549
 30
0.0
 10
653.821930
 20
845.590595
 30
0.0
 10
656.006050
 20
841.806650
 30
0.0
  0
LWPOLYLINE
  5
1ad
100
AcDbEntity
  8
0
 62
7
100
AcDbPolyline
 90
4
 70
0
 10
629.189450
 20
954.501950
 30
0.0
 10
657.089850
 20
939.072250
 30
0.0
 10
672.558600
 20
881.308600
 30
0.0
 10
656.123050
 20
854.003900
 30
0.0
  0
SPLINE
  5
1ae
100
AcDbEntity
  8
0
 62
7
100
AcDbSpline
 70
8
 71
3
 72
8
 73
4
 74
0
 40
0
 40
0
 40
0
 40
0
 40
1
 40
1
 40
1
 40
1
 10
691.006050
 20
781.191400
 30
0.0
 10
693.190180
 20
777.410411
 30
0.0
 10
697.255558
 20
775.114053
 30
0.0
 10
701.621300
 20
775.195300
 30
0.0
  0
LWPOLYLINE
  5
1af
100
AcDbEntity
  8
0
 62
7
100
AcDbPolyline
 90
2
 70
0
 10
656.006050
 20
841.806650
 30
0.0
 10
691.006050
 20
781.191400
 30
0.0
  0
SPLINE
  5
1b0
100
AcDbEntity
  8
0
 62
7
100
AcDbSpline
 70
8
 71
3
 72
8
 73
4
 74
0
 40
0
 40
0
 40
0
 40
0
 40
1
 40
1
 40
1
 40
1
 10
775.195500
 20
701.621100
 30
0.0
 10
775.114253
 20
697.255358
 30
0.0
 10
777.410611
 20
693.189980
 30
0.0
 10
781.191600
 20
691.005850
 30
0.0
  0
LWPOLYLINE
  5
1b1
100
AcDbEntity
  8
0
 62
7
100
AcDbPolyline
 90
4
 70
0
 10
701.621300
 20
775.195300
 30
0.0
 10
733.496300
 20
775.771500
 30
0.0
 10
775.771700
 20
733.496100
 30
0.0
 10
775.195500
 20
701.621100
 30
0.0
  0
SPLINE
  5
1b2
100
AcDbEntity
  8
0
 62
7
100
AcDbSpline
 70
8
 71
3
 72
8
 73
4
 74
0
 40
0
 40
0
 40
0
 40
0
 40
1
 40
1
 40
1
 40
1
 10
841.806850
 20
656.005850
 30
0.0
 10
845.590795
 20
653.821730
 30
0.0
 10
850.262749
 20
653.866545
 30
0.0
 10
854.004100
 20
656.122850
 30
0.0
  0
LWPOLYLINE
  5
1b3
100
AcDbEntity
  8
0
 62
7
100
AcDbPolyline
 90
2
 70
0
 10
781.191600
 20
691.005850
 30
0.0
 10
841.806850
 20
656.005850
 30
0.0
  0
SPLINE
  5
1b4
100
AcDbEntity
  8
0
 62
7
100
AcDbSpline
 70
8
 71
3
 72
8
 73
4
 74
0
 40
0
 40
0
 40
0
 40
0
 40
1
 40
1
 40
1
 40
1
 10
954.502150
 20
629.189250
 30
0.0
 10
956.615218
 20
625.370059
 30
0.0
 10
960.635224
 20
622.999225
 30
0.0
 10
965.000000
 20
622.998050
 30
0.0
  0
LWPOLYLINE
  5
1b5
100
AcDbEntity
  8
0
 62
7
100
AcDbPolyline
 90
4
 70
0
 10
854.004100
 20
656.122850
 30
0.0
 10
881.308800
 20
672.558400
 30
0.0
 10
939.072450
 20
657.089650
 30
0.0
 10
954.502150
 20
629.189250
 30
0.0
  0
SPLINE
  5
1b6
100
AcDbEntity
  8
0
 62
7
100
AcDbSpline
 70
8
 71
3
 72
8
 73
4
 74
0
 40
0
 40
0
 40
0
 40
0
 40
1
 40
1
 40
1
 40
1
 10
1035.000000
 20
622.998050
 30
0.0
 10
1039.364890
 20
622.999193
 30
0.0
 10
1043.385000
 20
625.370119
 30
0.0
 10
1045.498050
 20
629.189450
 30
0.0
  0
LWPOLYLINE
  5
1b7
100
AcDbEntity
  8
0
 62
7
100
AcDbPolyline
 90
2
 70
0
 10
965.000000
 20
622.998050
 30
0.0
 10
1035.000000
 20
622.998050
 30
0.0
  0
SPLINE
  5
1b8
100
AcDbEntity
  8
0
 62
7
100
AcDbSpline
 70
8
 71
3
 72
8
 73
4
 74
0
 40
0
 40
0
 40
0
 40
0
 40
1
 40
1
 40
1
 40
1
 10
1089.814450
 20
664.824200
 30
0.0
 10
1096.212689
 20
666.543370
 30
0.0
 10
1100.007115
 20
673.122441
 30
0.0
 10
1098.291000
 20
679.521500
 30
0.0
  0
SPLINE
  5
1b9
100
AcDbEntity
  8
0
 62
7
100
AcDbSpline
 70
8
 71
3
 72
8
 73
4
 74
0
 40
0
 40
0
 40
0
 40
0
 40
1
 40
1
 40
1
 40
1
 10
1098.291000
 20
679.521500
 30
0.0
 10
1097.467506
 20
682.595911
 30
0.0
 10
1095.456367
 20
685.217235
 30
0.0
 10
1092.700059
 20
686.808748
 30
0.0
  0
SPLINE
  5
1ba
100
AcDbEntity
  8
0
 62
7
100
AcDbSpline
 70
8
 71
3
 72
8
 73
4
 74
0
 40
0
 40
0
 40
0
 40
0
 40
1
 40
1
 40
1
 40
1
 10
1092.700059
 20
686.808748
 30
0.0
 10
1089.943751
 20
688.400260
 30
0.0
 10
1086.668085
 20
688.831576
 30
0.0
 10
1083.593750
 20
688.007800
 30
0.0
  0
LWPOLYLINE
  5
1bb
100
AcDbEntity
  8
0
 62
7
100
AcDbPolyline
 90
3
 70
0
 10
1045.498050
 20
629.189450
 30
0.0
 10
1060.927750
 20
657.089850
 30
0.0
 10
1089.814450
 20
664.824200
 30
0.0
  0
SPLINE
  5
1bc
100
AcDbEntity
  8
0
 62
7
100
AcDbSpline
 70
8
 71
3
 72
8
 73
4
 74
0
 40
0
 40
0
 40
0
 40
0
 40
1
 40
1
 40
1
 40
1
 10
1049.794900
 20
678.945300
 30
0.0
 10
1046.644528
 20
678.103868
 30
0.0
 10
1043.972168
 20
676.016736
 30
0.0
 10
1042.392600
 20
673.164050
 30
0.0
  0
LWPOLYLINE
  5
1bd
100
AcDbEntity
  8
0
 62
7
100
AcDbPolyline
 90
2
 70
0
 10
1083.593750
 20
688.007800
 30
0.0
 10
1049.794900
 20
678.945300
 30
0.0
  0
SPLINE
  5
1be
100
AcDbEntity
  8
0
 62
7
100
AcDbSpline
 70
8
 71
3
 72
8
 73
4
 74
0
 40
0
 40
0
 40
0
 40
0
 40
1
 40
1
 40
1
 40
1
 10
957.607400
 20
673.164050
 30
0.0
 10
956.027832
 20
676.016736
 30
0.0
 10
953.355472
 20
678.103868
 30
0.0
 10
950.205100
 20
678.945300
 30
0.0
  0
LWPOLYLINE
  5
1bf
100
AcDbEntity
  8
0
 62
7
100
AcDbPolyline
 90
4
 70
0
 10
1042.392600
 20
673.164050
 30
0.0
 10
1027.919900
 20
647.001950
 30
0.0
 10
972.080100
 20
647.001950
 30
0.0
 10
957.607400
 20
673.164050
 30
0.0
  0
SPLINE
  5
1c0
100
AcDbEntity
  8
0
 62
7
100
AcDbSpline
 70
8
 71
3
 72
8
 73
4
 74
0
 40
0
 40
0
 40
0
 40
0
 40
1
 40
1
 40
1
 40
1
 10
882.597650
 20
697.060550
 30
0.0
 10
879.449574
 20
697.904887
 30
0.0
 10
876.093480
 20
697.432492
 30
0.0
 10
873.300800
 20
695.751950
 30
0.0
  0
LWPOLYLINE
  5
1c1
100
AcDbEntity
  8
0
 62
7
100
AcDbPolyline
 90
2
 70
0
 10
950.205100
 20
678.945300
 30
0.0
 10
882.597650
 20
697.060550
 30
0.0
  0
SPLINE
  5
1c2
100
AcDbEntity
  8
0
 62
7
100
AcDbSpline
 70
8
 71
3
 72
8
 73
4
 74
0
 40
0
 40
0
 40
0
 40
0
 40
1
 40
1
 40
1
 40
1
 10
799.863300
 20
738.154300
 30
0.0
 10
799.923577
 20
741.410216
 30
0.0
 10
798.658143
 20
744.550845
 30
0.0
 10
796.357400
 20
746.855450
 30
0.0
  0
LWPOLYLINE
  5
1c3
100
AcDbEntity
  8
0
 62
7
100
AcDbPolyline
 90
4
 70
0
 10
873.300800
 20
695.751950
 30
0.0
 10
847.685550
 20
680.332050
 30
0.0
 10
799.316400
 20
708.251950
 30
0.0
 10
799.863300
 20
738.154300
 30
0.0
  0
SPLINE
  5
1c4
100
AcDbEntity
  8
0
 62
7
100
AcDbSpline
 70
8
 71
3
 72
8
 73
4
 74
0
 40
0
 40
0
 40
0
 40
0
 40
1
 40
1
 40
1
 40
1
 10
746.855450
 20
796.357400
 30
0.0
 10
744.550845
 20
798.658143
 30
0.0
 10
741.410216
 20
799.923577
 30
0.0
 10
738.154300
 20
799.863300
 30
0.0
  0
LWPOLYLINE
  5
1c5
100
AcDbEntity
  8
0
 62
7
100
AcDbPolyline
 90
2
 70
0
 10
796.357400
 20
746.855450
 30
0.0
 10
746.855450
 20
796.357400
 30
0.0
  0
SPLINE
  5
1c6
100
AcDbEntity
  8
0
 62
7
100
AcDbSpline
 70
8
 71
3
 72
8
 73
4
 74
0
 40
0
 40
0
 40
0
 40
0
 40
1
 40
1
 40
1
 40
1
 10
695.751950
 20
873.300800
 30
0.0
 10
697.432492
 20
876.093480
 30
0.0
 10
697.904887
 20
879.449574
 30
0.0
 10
697.060550
 20
882.597650
 30
0.0
  0
LWPOLYLINE
  5
1c7
100
AcDbEntity
  8
0
 62
7
100
AcDbPolyline
 90
4
 70
0
 10
738.154300
 20
799.863300
 30
0.0
 10
708.251950
 20
799.316400
 30
0.0
 10
680.332050
 20
847.685550
 30
0.0
 10
695.751950
 20
873.300800
 30
0.0
  0
SPLINE
  5
1c8
100
AcDbEntity
  8
0
 62
7
100
AcDbSpline
 70
8
 71
3
 72
8
 73
4
 74
0
 40
0
 40
0
 40
0
 40
0
 40
1
 40
1
 40
1
 40
1
 10
678.945300
 20
950.205100
 30
0.0
 10
678.103868
 20
953.355472
 30
0.0
 10
676.016736
 20
956.027832
 30
0.0
 10
673.164050
 20
957.607400
 30
0.0
  0
LWPOLYLINE
  5
1c9
100
AcDbEntity
  8
0
 62
7
100
AcDbPolyline
 90
2
 70
0
 10
697.060550
 20
882.597650
 30
0.0
 10
678.945300
 20
950.205100
 30
0.0
  0
SPLINE
  5
1ca
100
AcDbEntity
  8
0
 62
7
100
AcDbSpline
 70
8
 71
3
 72
8
 73
4
 74
0
 40
0
 40
0
 40
0
 40
0
 40
1
 40
1
 40
1
 40
1
 10
673.164050
 20
1042.392600
 30
0.0
 10
676.016736
 20
1043.972168
 30
0.0
 10
678.103868
 20
1046.644528
 30
0.0
 10
678.945300
 20
1049.794900
 30
0.0
  0
LWPOLYLINE
  5
1cb
100
AcDbEntity
  8
0
 62
7
100
AcDbPolyline
 90
4
 70
0
 10
673.164050
 20
957.607400
 30
0.0
 10
647.001950
 20
972.080100
 30
0.0
 10
647.001950
 20
1027.919900
 30
0.0
 10
673.164050
 20
1042.392600
 30
0.0
  0
SPLINE
  5
1cc
100
AcDbEntity
  8
0
 62
7
100
AcDbSpline
 70
8
 71
3
 72
8
 73
4
 74
0
 40
0
 40
0
 40
0
 40
0
 40
1
 40
1
 40
1
 40
1
 10
697.060550
 20
1117.402350
 30
0.0
 10
697.904887
 20
1120.550426
 30
0.0
 10
697.432492
 20
1123.906520
 30
0.0
 10
695.751950
 20
1126.699200
 30
0.0
  0
LWPOLYLINE
  5
1cd
100
AcDbEntity
  8
0
 62
7
100
AcDbPolyline
 90
2
 70
0
 10
678.945300
 20
1049.794900
 30
0.0
 10
697.060550
 20
1117.402350
 30
0.0
  0
SPLINE
  5
1ce
100
AcDbEntity
  8
0
 62
7
100
AcDbSpline
 70
8
 71
3
 72
8
 73
4
 74
0
 40
0
 40
0
 40
0
 40
0
 40
1
 40
1
 40
1
 40
1
 10
738.154300
 20
1200.136700
 30
0.0
 10
741.410216
 20
1200.076423
 30
0.0
 10
744.550845
 20
1201.341857
 30
0.0
 10
746.855450
 20
1203.642600
 30
0.0
  0
LWPOLYLINE
  5
1cf
100
AcDbEntity
  8
0
 62
7
100
AcDbPolyline
 90
4
 70
0
 10
695.751950
 20
1126.699200
 30
0.0
 10
680.332050
 20
1152.314450
 30
0.0
 10
708.251950
 20
1200.683600
 30
0.0
 10
738.154300
 20
1200.136700
 30
0.0
  0
SPLINE
  5
1d0
100
AcDbEntity
  8
0
 62
7
100
AcDbSpline
 70
8
 71
3
 72
8
 73
4
 74
0
 40
0
 40
0
 40
0
 40
0
 40
1
 40
1
 40
1
 40
1
 10
796.357400
 20
1253.144550
 30
0.0
 10
798.658143
 20
1255.449155
 30
0.0
 10
799.923577
 20
1258.589784
 30
0.0
 10
799.863300
 20
1261.845700
 30
0.0
  0
LWPOLYLINE
  5
1d1
100
AcDbEntity
  8
0
 62
7
100
AcDbPolyline
 90
2
 70
0
 10
746.855450
 20
1203.642600
 30
0.0
 10
796.357400
 20
1253.144550
 30
0.0
  0
SPLINE
  5
1d2
100
AcDbEntity
  8
0
 62
7
100
AcDbSpline
 70
8
 71
3
 72
8
 73
4
 74
0
 40
0
 40
0
 40
0
 40
0
 40
1
 40
1
 40
1
 40
1
 10
873.300800
 20
1304.248050
 30
0.0
 10
876.093480
 20
1302.567508
 30
0.0
 10
879.449574
 20
1302.095113
 30
0.0
 10
882.597650
 20
1302.939450
 30
0.0
  0
LWPOLYLINE
  5
1d3
100
AcDbEntity
  8
0
 62
7
100
AcDbPolyline
 90
4
 70
0
 10
799.863300
 20
1261.845700
 30
0.0
 10
799.316400
 20
1291.748050
 30
0.0
 10
847.685550
 20
1319.667950
 30
0.0
 10
873.300800
 20
1304.248050
 30
0.0
  0
SPLINE
  5
1d4
100
AcDbEntity
  8
0
 62
7
100
AcDbSpline
 70
8
 71
3
 72
8
 73
4
 74
0
 40
0
 40
0
 40
0
 40
0
 40
1
 40
1
 40
1
 40
1
 10
950.205100
 20
1321.054700
 30
0.0
 10
953.355472
 20
1321.896132
 30
0.0
 10
956.027832
 20
1323.983264
 30
0.0
 10
957.607400
 20
1326.835950
 30
0.0
  0
LWPOLYLINE
  5
1d5
100
AcDbEntity
  8
0
 62
7
100
AcDbPolyline
 90
2
 70
0
 10
882.597650
 20
1302.939450
 30
0.0
 10
950.205100
 20
1321.054700
 30
0.0
  0
SPLINE
  5
1d6
100
AcDbEntity
  8
0
 62
7
100
AcDbSpline
 70
8
 71
3
 72
8
 73
4
 74
0
 40
0
 40
0
 40
0
 40
0
 40
1
 40
1
 40
1
 40
1
 10
1042.392600
 20
1326.835950
 30
0.0
 10
1043.972168
 20
1323.983264
 30
0.0
 10
1046.644528
 20
1321.896132
 30
0.0
 10
1049.794900
 20
1321.054700
 30
0.0
  0
LWPOLYLINE
  5
1d7
100
AcDbEntity
  8
0
 62
7
100
AcDbPolyline
 90
4
 70
0
 10
957.607400
 20
1326.835950
 30
0.0
 10
972.080100
 20
1352.998050
 30
0.0
 10
1027.919900
 20
1352.998050
 30
0.0
 10
1042.392600
 20
1326.835950
 30
0.0
  0
SPLINE
  5
1d8
100
AcDbEntity
  8
0
 62
7
100
AcDbSpline
 70
8
 71
3
 72
8
 73
4
 74
0
 40
0
 40
0
 40
0
 40
0
 40
1
 40
1
 40
1
 40
1
 10
1083.593750
 20
1311.992200
 30
0.0
 10
1086.668085
 20
1311.168424
 30
0.0
 10
1089.943751
 20
1311.599740
 30
0.0
 10
1092.700059
 20
1313.191252
 30
0.0
  0
SPLINE
  5
1d9
100
AcDbEntity
  8
0
 62
7
100
AcDbSpline
 70
8
 71
3
 72
8
 73
4
 74
0
 40
0
 40
0
 40
0
 40
0
 40
1
 40
1
 40
1
 40
1
 10
1092.700059
 20
1313.191252
 30
0.0
 10
1095.456367
 20
1314.782765
 30
0.0
 10
1097.467506
 20
1317.404089
 30
0.0
 10
1098.291000
 20
1320.478500
 30
0.0
  0
SPLINE
  5
1da
100
AcDbEntity
  8
0
 62
7
100
AcDbSpline
 70
8
 71
3
 72
8
 73
4
 74
0
 40
0
 40
0
 40
0
 40
0
 40
1
 40
1
 40
1
 40
1
 10
1098.291000
 20
1320.478500
 30
0.0
 10
1100.007115
 20
1326.877559
 30
0.0
 10
1096.212689
 20
1333.456630
 30
0.0
 10
1089.814450
 20
1335.175800
 30
0.0
  0
LWPOLYLINE
  5
1db
100
AcDbEntity
  8
0
 62
7
100
AcDbPolyline
 90
2
 70
0
 10
1049.794900
 20
1321.054700
 30
0.0
 10
1083.593750
 20
1311.992200
 30
0.0
  0
SPLINE
  5
1dc
100
AcDbEntity
  8
0
 62
7
100
AcDbSpline
 70
8
 71
3
 72
8
 73
4
 74
0
 40
0
 40
0
 40
0
 40
0
 40
1
 40
1
 40
1
 40
1
 10
1045.498050
 20
1370.810550
 30
0.0
 10
1043.385000
 20
1374.629881
 30
0.0
 10
1039.364890
 20
1377.000807
 30
0.0
 10
1035.000000
 20
1377.001950
 30
0.0
  0
LWPOLYLINE
  5
1dd
100
AcDbEntity
  8
0
 62
7
100
AcDbPolyline
 90
3
 70
0
 10
1089.814450
 20
1335.175800
 30
0.0
 10
1060.927750
 20
1342.910150
 30
0.0
 10
1045.498050
 20
1370.810550
 30
0.0
  0
LWPOLYLINE
  5
1de
100
AcDbEntity
  8
0
 62
7
100
AcDbPolyline
 90
2
 70
0
 10
1035.000000
 20
1377.001950
 30
0.0
 10
965.000000
 20
1377.001950
 30
0.0
  0
ENDSEC
  0
SECTION
  2
OBJECTS
  0
DICTIONARY
  5
C
330
0
100
AcDbDictionary
  3
ACAD_GROUP
350
D
  3
ACAD_MLINESTYLE
350
17
  0
DICTIONARY
  5
D
330
C
100
AcDbDictionary
  0
DICTIONARY
  5
1A
330
C
100
AcDbDictionary
  0
DICTIONARY
  5
17
330
C
100
AcDbDictionary
  3
STANDARD
350
18
  0
DICTIONARY
  5
19
330
C
100
AcDbDictionary
  0
ENDSEC
  0
EOF
