<?xml version="1.0" encoding="UTF-8" standalone="no"?>
<svg
   width="2000"
   height="2000"
   viewBox="0 0 400 400"
   fill="none"
   version="1.1"
   id="svg28"
   sodipodi:docname="MMS Logo Two Color V1.7.0.svg"
   inkscape:version="1.1.2 (0a00cf5339, 2022-02-04)"
   xmlns:inkscape="http://www.inkscape.org/namespaces/inkscape"
   xmlns:sodipodi="http://sodipodi.sourceforge.net/DTD/sodipodi-0.dtd"
   xmlns="http://www.w3.org/2000/svg"
   xmlns:svg="http://www.w3.org/2000/svg">
  <defs
     id="defs32">
    <rect
       x="451.40662"
       y="1719.2328"
       width="1151.1949"
       height="172.78722"
       id="rect9868" />
    <rect
       x="959.64258"
       y="161.77267"
       width="1073.4406"
       height="146.86914"
       id="rect12679" />
    <rect
       x="200.86514"
       y="79.914085"
       width="1373.6584"
       height="431.96805"
       id="rect3535" />
  </defs>
  <sodipodi:namedview
     id="namedview30"
     pagecolor="#ffffff"
     bordercolor="#666666"
     borderopacity="1.0"
     inkscape:pageshadow="2"
     inkscape:pageopacity="0.0"
     inkscape:pagecheckerboard="0"
     showgrid="false"
     inkscape:snap-center="true"
     inkscape:snap-nodes="false"
     inkscape:snap-object-midpoints="true"
     inkscape:zoom="0.26905413"
     inkscape:cx="1023.9575"
     inkscape:cy="1308.2869"
     inkscape:window-width="1920"
     inkscape:window-height="1127"
     inkscape:window-x="0"
     inkscape:window-y="0"
     inkscape:window-maximized="1"
     inkscape:current-layer="svg28" />
  <g
     id="g74457">
    <path
       id="path63394"
       style="color:#000000;vector-effect:non-scaling-stroke;fill:#000000;fill-opacity:1;stroke:none;stroke-width:0.00885147;stroke-linecap:round;stroke-linejoin:round;stroke-miterlimit:4;stroke-dasharray:none;stroke-opacity:1;-inkscape-stroke:hairline"
       d="m 200,97.606315 c -41.40924,0 -78.75765,24.952005 -94.60453,63.208285 -15.846917,38.25636 -7.083716,82.31182 22.19725,111.59279 l 26.10903,26.10904 c 5.69827,5.69825 8.89802,13.42375 8.89802,21.48231 a 2.4002151,2.4002151 0 0 0 2.40049,2.40003 h 69.99948 a 2.4002151,2.4002151 0 0 0 2.40003,-2.40003 c 0,-8.05856 3.2002,-15.78406 8.89848,-21.48231 l 26.10903,-26.10904 C 301.68825,243.12642 310.45145,199.07096 294.60453,160.8146 278.75765,122.55832 241.40923,97.606315 200,97.606315 Z" />
    <path
       style="color:#000000;vector-effect:non-scaling-stroke;fill:#000000;fill-opacity:1;stroke:none;stroke-width:0.00207298;stroke-linecap:round;stroke-linejoin:round;stroke-miterlimit:4;stroke-dasharray:none;stroke-opacity:1;-inkscape-stroke:hairline"
       d="m 160.00039,327.59814 a 2.3999751,2.3999751 0 0 0 -2.40036,2.40037 2.3999751,2.3999751 0 0 0 2.40036,2.40036 h 79.99918 a 2.3999751,2.3999751 0 0 0 2.40035,-2.40036 2.3999751,2.3999751 0 0 0 -2.40035,-2.40037 z"
       id="path63388" />
    <path
       style="color:#000000;vector-effect:non-scaling-stroke;fill:#000000;fill-opacity:1;stroke:none;stroke-width:0.00207298;stroke-linecap:round;stroke-linejoin:round;stroke-miterlimit:4;stroke-dasharray:none;stroke-opacity:1;-inkscape-stroke:hairline"
       d="m 160.00039,337.59804 a 2.3999751,2.3999751 0 0 0 -2.40036,2.40036 2.3999751,2.3999751 0 0 0 2.40036,2.40036 h 79.99918 a 2.3999751,2.3999751 0 0 0 2.40035,-2.40036 2.3999751,2.3999751 0 0 0 -2.40035,-2.40036 z"
       id="path63385" />
    <path
       style="color:#000000;vector-effect:non-scaling-stroke;fill:#000000;fill-opacity:1;stroke:none;stroke-width:0.00207298;stroke-linecap:round;stroke-linejoin:round;stroke-miterlimit:4;stroke-dasharray:none;stroke-opacity:1;-inkscape-stroke:hairline"
       d="m 165.00034,347.59793 a 2.4002151,2.4002151 0 0 0 -2.40036,2.40037 v 9.99989 a 2.4002151,2.4002151 0 0 0 2.40036,2.40036 h 7.59953 v 2.59959 a 2.4002151,2.4002151 0 0 0 2.40037,2.40037 h 49.99947 a 2.4002151,2.4002151 0 0 0 2.40037,-2.40037 v -2.59959 h 7.59953 a 2.4002151,2.4002151 0 0 0 2.40037,-2.40036 v -9.99989 a 2.4002151,2.4002151 0 0 0 -2.40037,-2.40037 z"
       id="path63379" />
    <path
       id="path63370"
       style="color:#000000;vector-effect:non-scaling-stroke;fill:#ffffff;fill-opacity:1;stroke:none;stroke-width:0.00885147;stroke-linecap:round;stroke-linejoin:round;stroke-miterlimit:4;stroke-dasharray:none;stroke-opacity:1;-inkscape-stroke:hairline"
       d="m 244.99966,190.59939 c -4.33438,0 -8.01535,2.9869 -9.08556,7.00022 H 200 a 2.3999751,2.3999751 0 0 0 -2.4005,2.40003 2.3999751,2.3999751 0 0 0 2.4005,2.4005 h 35.9141 c 1.07023,4.0133 4.75121,7.00022 9.08556,7.00022 5.16298,0 9.40025,-4.23773 9.40025,-9.40072 0,-5.16298 -4.23727,-9.40025 -9.40025,-9.40025 z m 0,4.80099 c 2.5689,0 4.59927,2.03036 4.59927,4.59926 0,2.56891 -2.03037,4.59973 -4.59927,4.59973 -2.56891,0 -4.59973,-2.03082 -4.59973,-4.59973 0,-2.5689 2.03082,-4.59926 4.59973,-4.59926 z" />
    <path
       id="path63355"
       style="color:#000000;vector-effect:non-scaling-stroke;fill:#ffffff;fill-opacity:1;stroke:none;stroke-width:0.00885147;stroke-miterlimit:4;stroke-dasharray:none;stroke-opacity:1;-inkscape-stroke:hairline"
       d="m 259.99954,160.60007 c -4.33422,0 -8.01521,2.98666 -9.08556,6.99977 H 239.9997 a 2.4002151,2.4002151 0 0 0 -1.69746,0.70304 l -9.29688,9.29688 H 200 c -12.34262,0 -22.40034,10.05728 -22.40034,22.39988 0,12.34262 10.05772,22.40036 22.40034,22.40036 h 29.00536 l 9.29688,9.29687 a 2.4002151,2.4002151 0 0 0 1.69746,0.70305 h 10.91428 c 1.07035,4.0131 4.75134,6.99976 9.08556,6.99976 5.16299,0 9.40026,-4.23727 9.40026,-9.40026 0,-5.16299 -4.23727,-9.40026 -9.40026,-9.40026 -4.33436,0 -8.01535,2.9869 -9.08556,7.00023 h -9.92033 l -9.29689,-9.29689 a 2.4002151,2.4002151 0 0 0 -1.69698,-0.70304 H 200 c -9.74854,0 -17.59935,-7.85128 -17.59935,-17.59982 0,-9.74852 7.85081,-17.59934 17.59935,-17.59934 h 29.99978 a 2.4002151,2.4002151 0 0 0 1.69698,-0.70305 l 9.29689,-9.29688 h 9.92033 c 1.07021,4.01332 4.7512,7.00022 9.08556,7.00022 5.16299,0 9.40026,-4.23727 9.40026,-9.40026 0,-5.16298 -4.23727,-9.40026 -9.40026,-9.40026 z m 0,4.80054 c 2.5689,0 4.59927,2.03082 4.59927,4.59972 0,2.5689 -2.03037,4.59927 -4.59927,4.59927 -2.5689,0 -4.59972,-2.03037 -4.59972,-4.59927 0,-2.5689 2.03082,-4.59972 4.59972,-4.59972 z m 0,59.99954 c 2.5689,0 4.59927,2.03037 4.59927,4.59927 0,2.56891 -2.03037,4.59973 -4.59927,4.59973 -2.5689,0 -4.59972,-2.03082 -4.59972,-4.59973 0,-2.5689 2.03082,-4.59927 4.59972,-4.59927 z" />
    <path
       id="path63340"
       style="color:#000000;vector-effect:non-scaling-stroke;fill:#ffffff;fill-opacity:1;stroke:none;stroke-width:0.00885147;stroke-miterlimit:4;stroke-dasharray:none;stroke-opacity:1;-inkscape-stroke:hairline"
       d="m 234.99974,135.60026 c -5.16299,0 -9.40027,4.23728 -9.40027,9.40026 0,1.71609 0.47617,3.32459 1.29082,4.71454 l -7.88485,7.88486 H 200 c -23.3882,0 -42.40019,19.01155 -42.40019,42.39972 0,23.38818 19.01199,42.4002 42.40019,42.4002 h 19.00544 l 7.87936,7.87936 c -0.81515,1.39026 -1.28533,3.00338 -1.28533,4.72003 0,5.16298 4.23728,9.40026 9.40027,9.40026 5.16298,0 9.40025,-4.23728 9.40025,-9.40026 0,-5.16299 -4.23727,-9.40026 -9.40025,-9.40026 -1.71683,0 -3.33014,0.47049 -4.72049,1.28578 l -8.58241,-8.5824 a 2.4002151,2.4002151 0 0 0 -1.697,-0.70304 H 200 c -20.79412,0 -37.5992,-16.80557 -37.5992,-37.59967 0,-20.79409 16.80508,-37.5992 37.5992,-37.5992 h 19.99984 a 2.4002151,2.4002151 0 0 0 1.697,-0.70303 l 8.58744,-8.58744 c 1.3901,0.81489 2.99909,1.29081 4.71546,1.29081 5.16298,0 9.40025,-4.23727 9.40025,-9.40026 0,-5.16298 -4.23727,-9.40026 -9.40025,-9.40026 z m 0,4.80054 c 2.5689,0 4.59926,2.03082 4.59926,4.59972 0,2.5689 -2.03036,4.59927 -4.59926,4.59927 -1.25679,0 -2.38026,-0.49078 -3.20462,-1.28807 a 2.3999751,2.3999751 0 0 0 -0.0478,-0.0595 2.3999751,2.3999751 0 0 0 -0.0451,-0.0303 c -0.80632,-0.82562 -1.30225,-1.95669 -1.30225,-3.22145 0,-2.56889 2.03082,-4.59972 4.59973,-4.59972 z m 0,109.9987 c 2.5689,0 4.59926,2.03083 4.59926,4.59973 0,2.5689 -2.03036,4.59972 -4.59926,4.59972 -2.56891,0 -4.59973,-2.03082 -4.59973,-4.59972 0,-1.25631 0.48807,-2.3817 1.28487,-3.206 a 2.3999751,2.3999751 0 0 0 0.0627,-0.0457 2.3999751,2.3999751 0 0 0 0.10292,-0.11482 c 0.81904,-0.76531 1.92102,-1.23319 3.14927,-1.23319 z" />
    <path
       style="color:#000000;vector-effect:non-scaling-stroke;fill:#ffffff;fill-opacity:1;stroke:none;stroke-width:0.00207298;stroke-linecap:round;stroke-linejoin:round;stroke-miterlimit:4;stroke-dasharray:none;stroke-opacity:1;-inkscape-stroke:hairline"
       d="m 193.00005,124.60025 a 2.4002151,2.4002151 0 0 0 -2.09959,1.23827 l -3.08591,5.58002 -11.5526,3.09372 -5.46088,-3.28707 a 2.4002151,2.4002151 0 0 0 -2.43944,-0.0234 l -12.12292,6.99993 a 2.4002151,2.4002151 0 0 0 -1.1992,2.12302 l 0.11524,6.37494 -8.45499,8.45499 -6.37493,-0.11525 a 2.4002151,2.4002151 0 0 0 -2.12303,1.1992 l -6.99992,12.12293 a 2.4002151,2.4002151 0 0 0 0.0234,2.43943 l 3.28708,5.46088 -3.09372,11.55262 -5.58002,3.0859 a 2.4002151,2.4002151 0 0 0 -1.23823,2.09954 v 13.99986 a 2.4002151,2.4002151 0 0 0 1.23827,2.09959 l 5.58002,3.08591 3.09372,11.55261 -3.28707,5.46088 a 2.4002151,2.4002151 0 0 0 -0.0234,2.43942 l 6.99993,12.12293 a 2.4002151,2.4002151 0 0 0 2.12303,1.19921 l 6.37493,-0.11525 8.45499,8.45499 -0.11524,6.37493 a 2.4002151,2.4002151 0 0 0 1.1992,2.12303 l 12.12293,6.99993 a 2.4002151,2.4002151 0 0 0 2.43942,-0.0234 l 5.46088,-3.28709 11.55261,3.09373 3.08592,5.58002 a 2.4002151,2.4002151 0 0 0 2.09954,1.23822 h 13.99986 a 2.4002151,2.4002151 0 0 0 2.09958,-1.23826 l 3.08591,-5.58003 5.77728,-1.54685 a 2.3999751,2.3999751 0 0 0 1.69529,-2.93943 2.3999751,2.3999751 0 0 0 -2.93942,-1.69724 l -6.7597,1.81248 a 2.4002151,2.4002151 0 0 0 -1.48045,1.15623 l -2.89451,5.23236 h -11.16784 l -2.89452,-5.23236 a 2.4002151,2.4002151 0 0 0 -1.48044,-1.15624 l -13.52134,-3.62301 a 2.4002151,2.4002151 0 0 0 -1.85936,0.26172 l -5.12299,3.08395 -9.67374,-5.58392 0.10941,-5.98041 a 2.4002151,2.4002151 0 0 0 -0.70117,-1.74021 l -9.90029,-9.90032 a 2.4002151,2.4002151 0 0 0 -1.74022,-0.70117 l -5.9804,0.10941 -5.58393,-9.67373 3.08395,-5.123 a 2.4002151,2.4002151 0 0 0 0.26172,-1.85935 l -3.62303,-13.52138 a 2.4002151,2.4002151 0 0 0 -1.15624,-1.48045 l -5.23237,-2.89452 v -11.16783 l 5.23237,-2.89451 a 2.4002151,2.4002151 0 0 0 1.15624,-1.48045 l 3.62301,-13.52135 a 2.4002151,2.4002151 0 0 0 -0.26172,-1.85935 l -3.08395,-5.12299 5.58393,-9.67373 5.9804,0.1094 a 2.4002151,2.4002151 0 0 0 1.74021,-0.70117 l 9.90029,-9.90029 a 2.4002151,2.4002151 0 0 0 0.70118,-1.74021 l -0.10941,-5.98041 9.67374,-5.58392 5.12299,3.08395 a 2.4002151,2.4002151 0 0 0 1.85936,0.26172 l 13.52134,-3.62301 a 2.4002151,2.4002151 0 0 0 1.48044,-1.15624 l 2.89451,-5.23237 h 11.16784 l 2.89452,5.23237 a 2.4002151,2.4002151 0 0 0 1.48044,1.15624 l 6.7597,1.81248 a 2.3999751,2.3999751 0 0 0 2.93942,-1.69724 2.3999751,2.3999751 0 0 0 -1.69529,-2.93943 l -5.77728,-1.54685 -3.08591,-5.58003 a 2.4002151,2.4002151 0 0 0 -2.09956,-1.2383 z"
       id="path63337" />
  </g>
</svg>
